<?xml version="1.0" standalone="no"?>
<!DOCTYPE svg PUBLIC "-//W3C//DTD SVG 1.1//EN" "http://www.w3.org/Graphics/SVG/1.1/DTD/svg11.dtd" >
<svg xmlns="http://www.w3.org/2000/svg" xmlns:xlink="http://www.w3.org/1999/xlink" version="1.1">
<metadata>
Created by FontForge 20170731 at Tue Jan 12 21:37:09 2021
 By Aleksey,,,
Copyright (c) 2010 by Jan Schmoeger/Paragraph. All rights reserved.
</metadata>
<defs>
<font id="Circula-Medium" horiz-adv-x="819" >
  <font-face 
    font-family="Circula Thin"
    font-weight="500"
    font-stretch="normal"
    units-per-em="2048"
    panose-1="2 11 6 6 3 2 2 6 2 4"
    ascent="1536"
    descent="-512"
    x-height="1147"
    cap-height="1434"
    bbox="-133 -483 1761 1939"
    underline-thickness="102"
    underline-position="-307"
    unicode-range="U+0020-2212"
  />
<missing-glyph horiz-adv-x="983" 
d="M82 0v1434h819v-1434h-819zM492 524l-164 -354h327zM328 1264l164 -355l163 355h-327zM575 717l156 -332v664zM406 717l-154 332v-664z" />
    <glyph glyph-name=".notdef" horiz-adv-x="983" 
d="M82 0v1434h819v-1434h-819zM492 524l-164 -354h327zM328 1264l164 -355l163 355h-327zM575 717l156 -332v664zM406 717l-154 332v-664z" />
    <glyph glyph-name=".null" horiz-adv-x="0" 
 />
    <glyph glyph-name="nonmarkingreturn" horiz-adv-x="682" 
 />
    <glyph glyph-name="space" unicode=" " horiz-adv-x="307" 
 />
    <glyph glyph-name="exclam" unicode="!" horiz-adv-x="333" 
d="M82 375v1059h170v-1059h-170zM82 0v170h170v-170h-170z" />
    <glyph glyph-name="quotedbl" unicode="&#x22;" horiz-adv-x="585" 
d="M354 1059v375h170v-375h-170zM61 1059v375h170v-375h-170z" />
    <glyph glyph-name="numbersign" unicode="#" horiz-adv-x="1071" 
d="M246 0v410h-205v170h205v274h-205v170h205v410h170v-410h239v410h170v-410h205v-170h-205v-274h205v-170h-205v-410h-170v410h-239v-410h-170zM416 580h239v274h-239v-274z" />
    <glyph glyph-name="dollar" unicode="$" 
d="M324 -205v219q-115 30 -189 123t-74 215h170q0 -73 52.5 -125.5t126.5 -52.5t126 52t52 126q0 72 -52.5 124t-125.5 52q-145 0 -247 102t-102 247q0 121 74 214t189 121v222h170v-222q115 -28 189.5 -121.5t74.5 -213.5h-170q0 73 -52 125.5t-126 52.5t-126.5 -52.5
t-52.5 -125.5q0 -72 53 -125.5t126 -53.5q145 0 246.5 -100.5t101.5 -245.5q0 -122 -74.5 -215t-189.5 -123v-219h-170z" />
    <glyph glyph-name="percent" unicode="%" horiz-adv-x="1193" 
d="M719 262q0 -54 38 -91.5t93 -37.5q54 0 91.5 37.5t37.5 91.5q0 55 -37.5 93t-91.5 38q-56 0 -93.5 -37.5t-37.5 -93.5zM565 262q0 118 83.5 201.5t201.5 83.5q117 0 200 -83.5t83 -201.5q0 -117 -83 -199.5t-200 -82.5q-118 0 -201.5 82.5t-83.5 199.5zM41 0l942 1434
h170l-942 -1434h-170zM215 1171q0 -55 37.5 -93t91.5 -38q56 0 93.5 38t37.5 93q0 54 -38 91.5t-93 37.5q-54 0 -91.5 -37.5t-37.5 -91.5zM61 1171q0 117 83 200t200 83q118 0 201.5 -83t83.5 -200q0 -118 -83 -201t-202 -83q-117 0 -200 83t-83 201z" />
    <glyph glyph-name="ampersand" unicode="&#x26;" horiz-adv-x="1064" 
d="M846 0h-381q-166 0 -285 118.5t-119 284.5q0 93 44 175.5t118 138.5q-75 55 -118.5 136.5t-43.5 176.5q0 166 119 285t285 119h293v-170h-293q-97 0 -165.5 -68.5t-68.5 -165.5q0 -94 68.5 -161.5t165.5 -67.5h211v223h170v-223h198v-170h-198v-631zM676 170v461h-211
q-97 0 -165.5 -66.5t-68.5 -161.5q0 -97 68.5 -165t165.5 -68h211z" />
    <glyph glyph-name="quotesingle" unicode="'" horiz-adv-x="292" 
d="M61 1059v375h170v-375h-170z" />
    <glyph glyph-name="parenleft" unicode="(" horiz-adv-x="446" 
d="M436 -205h-170q-8 13 -22 38t-49.5 108t-62.5 172.5t-49 226t-22 274.5t21 273t51.5 229.5t60.5 169.5t51 112l21 36h170q-8 -13 -22 -38t-49.5 -108.5t-62.5 -173t-49 -226t-22 -274.5t21 -273t51.5 -229t60.5 -169t51 -111z" />
    <glyph glyph-name="parenright" unicode=")" horiz-adv-x="446" 
d="M180 -205h-170q8 13 22 38t49.5 108t62.5 172.5t49 226t22 274.5t-21 273t-51.5 229.5t-60.5 169.5t-51 112l-21 36h170q8 -13 22 -38t49.5 -108.5t62.5 -173t49 -226t22 -274.5t-21 -273t-51.5 -229t-60.5 -169t-51 -111z" />
    <glyph glyph-name="asterisk" unicode="*" horiz-adv-x="761" 
d="M295 737l27 248l-201 -147l-84 147l229 100l-229 101l84 147l201 -147l-27 248h170l-27 -248l201 147l86 -147l-229 -101l229 -100l-86 -147l-201 147l27 -248h-170z" />
    <glyph glyph-name="plus" unicode="+" horiz-adv-x="1105" 
d="M467 61v426h-426v170h426v428h170v-428h428v-170h-428v-426h-170z" />
    <glyph glyph-name="comma" unicode="," horiz-adv-x="292" 
d="M61 -205v375h170l-34 -375h-136z" />
    <glyph glyph-name="hyphen" unicode="-" horiz-adv-x="641" 
d="M41 487v170h559v-170h-559z" />
    <glyph glyph-name="period" unicode="." horiz-adv-x="292" 
d="M61 0v170h170v-170h-170z" />
    <glyph glyph-name="slash" unicode="/" horiz-adv-x="579" 
d="M0 0l410 1434h170l-410 -1434h-170z" />
    <glyph glyph-name="zero" unicode="0" horiz-adv-x="983" 
d="M492 -20q-169 0 -289.5 120t-120.5 289v655q0 169 120.5 289.5t289.5 120.5t289 -120.5t120 -289.5v-655q0 -169 -120 -289t-289 -120zM492 150q100 0 169.5 69.5t69.5 169.5v655q0 100 -69.5 170t-169.5 70t-170 -70t-70 -170v-655q0 -100 70 -169.5t170 -69.5z" />
    <glyph glyph-name="one" unicode="1" horiz-adv-x="518" 
d="M266 0v1243l-246 -125v152l246 164h170v-1434h-170z" />
    <glyph glyph-name="two" unicode="2" horiz-adv-x="921" 
d="M61 0v279q0 94 36 170.5t93 127.5t126.5 94.5t139 81t126.5 77t93 94t36 120.5q0 100 -70 170t-170 70t-170 -70t-70 -170v-20h-170v20q0 169 120.5 289.5t289.5 120.5t289.5 -120.5t120.5 -289.5q0 -91 -36 -166t-93 -125.5t-126.5 -94t-139 -82.5t-126.5 -79.5
t-93 -95.5t-36 -122v-109h629v-170h-799z" />
    <glyph glyph-name="three" unicode="3" horiz-adv-x="931" 
d="M61 410h170v-25q0 -97 68 -166t166 -69q96 0 165.5 72t69.5 171q0 96 -68 167t-167 71h-152v170h152q100 0 167.5 70.5t67.5 168.5q0 99 -69.5 171.5t-165.5 72.5q-98 0 -166 -69t-68 -166v-25h-170v25q0 167 118.5 286t285.5 119q166 0 285.5 -123t119.5 -291
q0 -96 -47 -179.5t-131 -143.5q84 -60 131 -144t47 -180q0 -110 -54 -205t-148 -151.5t-203 -56.5q-167 0 -285.5 119t-118.5 286v25z" />
    <glyph glyph-name="four" unicode="4" horiz-adv-x="983" 
d="M608 0v426h-567v180l537 828h200v-838h164v-170h-164v-426h-170zM225 596h383v584z" />
    <glyph glyph-name="five" unicode="5" horiz-adv-x="952" 
d="M72 410h170v-21q0 -100 69.5 -169.5t169.5 -69.5t170 69.5t70 169.5v123q0 100 -70 170t-170 70q-68 0 -124.5 -36t-86.5 -95h-188v813h747v-170h-577v-422q38 35 102 57.5t127 22.5q169 0 289.5 -120.5t120.5 -289.5v-123q0 -169 -120.5 -289t-289.5 -120t-289 120
t-120 289v21z" />
    <glyph glyph-name="six" unicode="6" horiz-adv-x="962" 
d="M492 -20q-169 0 -289.5 120t-120.5 289v649q0 169 121 292.5t289 123.5q169 0 289 -120.5t120 -289.5v-20h-170v20q0 100 -69.5 170t-169.5 70q-99 0 -169.5 -73.5t-70.5 -172.5v-250q106 86 240 86q169 0 289 -120t120 -289v-76q0 -169 -120 -289t-289 -120zM492 150
q100 0 169.5 69.5t69.5 169.5v76q0 99 -70 169.5t-169 70.5t-169.5 -70.5t-70.5 -169.5v-76q0 -100 70 -169.5t170 -69.5z" />
    <glyph glyph-name="seven" unicode="7" 
d="M88 0v102q0 118 28.5 225.5t74.5 190t101.5 158.5t111 145.5t101.5 137t74.5 146t28.5 159.5h-588v170h758v-170q0 -103 -28.5 -196t-74.5 -165.5t-101.5 -142t-111 -140t-101.5 -144.5t-74.5 -170.5t-28.5 -203.5v-102h-170z" />
    <glyph glyph-name="eight" unicode="8" horiz-adv-x="931" 
d="M465 -20q-169 0 -286.5 117t-117.5 294q0 92 48.5 179.5t130.5 146.5q-83 59 -131 145.5t-48 179.5q0 177 117.5 294.5t286.5 117.5t287 -117.5t118 -294.5q0 -93 -48 -179.5t-130 -145.5q82 -59 130 -146.5t48 -179.5q0 -176 -118 -293.5t-287 -117.5zM465 150
q101 0 168 70.5t67 170.5q0 97 -67 168.5t-168 71.5q-100 0 -167 -72t-67 -168q0 -100 67 -170.5t167 -70.5zM465 801q102 0 168.5 71.5t66.5 169.5q0 99 -67 170.5t-168 71.5q-100 0 -167 -71.5t-67 -170.5q0 -98 67 -169.5t167 -71.5z" />
    <glyph glyph-name="nine" unicode="9" horiz-adv-x="962" 
d="M61 410h170v-21q0 -100 70 -169.5t170 -69.5q99 0 169.5 73t70.5 172v234q-102 -86 -240 -86q-169 0 -289.5 120t-120.5 289v92q0 169 120.5 289.5t289.5 120.5t289.5 -120.5t120.5 -289.5v-649q0 -169 -121 -292t-289 -123q-169 0 -289.5 120t-120.5 289v21zM471 713
q99 0 169.5 70.5t70.5 168.5v92q0 100 -70 170t-170 70t-170 -70t-70 -170v-92q0 -98 70.5 -168.5t169.5 -70.5z" />
    <glyph glyph-name="colon" unicode=":" horiz-adv-x="292" 
d="M61 631v170h170v-170h-170zM61 0v170h170v-170h-170z" />
    <glyph glyph-name="semicolon" unicode=";" horiz-adv-x="292" 
d="M61 631v170h170v-170h-170zM61 -205v375h170l-34 -375h-136z" />
    <glyph glyph-name="less" unicode="&#x3c;" horiz-adv-x="901" 
d="M41 487v170l819 428v-170l-653 -342l653 -342v-170z" />
    <glyph glyph-name="equal" unicode="=" horiz-adv-x="1003" 
d="M41 315v170h922v-170h-922zM41 662v169h922v-169h-922z" />
    <glyph glyph-name="greater" unicode="&#x3e;" horiz-adv-x="901" 
d="M41 61v170l653 342l-653 342v170l819 -428v-170z" />
    <glyph glyph-name="question" unicode="?" horiz-adv-x="942" 
d="M344 375q0 68 8 117q9 61 34 113.5t57 89.5t69 70.5t72 63.5t63.5 61t46 70t17.5 84q0 100 -70 170t-170 70t-170 -70t-70 -170v-20h-170v20q0 169 120.5 289.5t289.5 120.5t289.5 -120.5t120.5 -289.5q0 -87 -33 -156.5t-82 -116.5t-99 -89t-92.5 -97t-54.5 -118
q-6 -31 -6 -92h-170zM344 0v170h170v-170h-170z" />
    <glyph glyph-name="at" unicode="@" horiz-adv-x="1474" 
d="M834 580v274h-56q-57 0 -97 -40t-40 -97t40 -97t97 -40h56zM1311 0h-533q-145 0 -278 57t-229 153t-153 229t-57 278t57 278t153 229t229 153t278 57h226q169 0 289 -120.5t120 -289.5v-307q0 -127 -89.5 -217t-217.5 -90h-328q-128 0 -217.5 90t-89.5 217t89.5 217
t217.5 90h226v-444h102q57 0 97 40t40 97v307q0 100 -70.5 170t-168.5 70h-226q-149 0 -275 -73t-199 -199t-73 -275t73 -275t199 -199t275 -73h533v-170z" />
    <glyph glyph-name="A" unicode="A" horiz-adv-x="983" 
d="M82 0v1044q0 169 120.5 289.5t289.5 120.5t289 -120.5t120 -289.5v-1044h-170v631h-479v-631h-170zM252 801h479v243q0 100 -69.5 170t-169.5 70t-170 -70t-70 -170v-243z" />
    <glyph glyph-name="B" unicode="B" horiz-adv-x="962" 
d="M82 0v1434h416q166 0 284.5 -119t118.5 -285q0 -99 -50.5 -180t-127.5 -133q78 -52 128 -133t50 -181q0 -166 -118.5 -284.5t-284.5 -118.5h-416zM252 801h246q96 0 164.5 67.5t68.5 161.5q0 97 -68 165.5t-165 68.5h-246v-463zM252 170h246q97 0 165 68t68 165
q0 95 -68 161.5t-165 66.5h-246v-461z" />
    <glyph glyph-name="C" unicode="C" horiz-adv-x="962" 
d="M901 410v-21q0 -169 -120 -289t-289 -120t-289.5 120t-120.5 289v655q0 169 120.5 289.5t289.5 120.5t289 -120.5t120 -289.5v-20h-170v20q0 100 -69.5 170t-169.5 70t-170 -70t-70 -170v-655q0 -100 70 -169.5t170 -69.5t169.5 69.5t69.5 169.5v21h170z" />
    <glyph glyph-name="D" unicode="D" horiz-adv-x="983" 
d="M82 0v1434h410q169 0 289 -120.5t120 -289.5v-614q0 -169 -120 -289.5t-289 -120.5h-410zM252 170h240q100 0 169.5 70t69.5 170v614q0 100 -69.5 170t-169.5 70h-240v-1094z" />
    <glyph glyph-name="E" unicode="E" horiz-adv-x="839" 
d="M82 0v1434h717v-170h-547v-463h506v-170h-506v-461h547v-170h-717z" />
    <glyph glyph-name="F" unicode="F" 
d="M82 0v1434h717v-170h-547v-463h506v-170h-506v-631h-170z" />
    <glyph glyph-name="G" unicode="G" horiz-adv-x="983" 
d="M492 -20q-169 0 -289.5 120t-120.5 289v655q0 169 120.5 289.5t289.5 120.5t289 -120.5t120 -289.5v-20h-170v20q0 100 -69.5 170t-169.5 70t-170 -70t-70 -170v-655q0 -100 70 -169.5t170 -69.5t169.5 69.5t69.5 169.5v242h-239v170h409v-412q0 -169 -120 -289
t-289 -120z" />
    <glyph glyph-name="H" unicode="H" horiz-adv-x="983" 
d="M82 0v1434h170v-633h479v633h170v-1434h-170v631h-479v-631h-170z" />
    <glyph glyph-name="I" unicode="I" horiz-adv-x="333" 
d="M82 0v1434h170v-1434h-170z" />
    <glyph glyph-name="J" unicode="J" horiz-adv-x="634" 
d="M41 -20v170h102q100 0 170 69.5t70 169.5v875h-342v170h512v-1045q0 -169 -120.5 -289t-289.5 -120h-102z" />
    <glyph glyph-name="K" unicode="K" horiz-adv-x="983" 
d="M82 0v1434h170v-633h240q99 0 169 70t70 169v394h170v-394q0 -103 -51 -187.5t-129 -135.5q78 -51 129 -136.5t51 -189.5v-391h-170v391q0 100 -69.5 170t-169.5 70h-240v-631h-170z" />
    <glyph glyph-name="L" unicode="L" 
d="M82 0v1434h170v-1264h547v-170h-717z" />
    <glyph glyph-name="M" unicode="M" horiz-adv-x="1632" 
d="M82 0v1044q0 169 120.5 289.5t289.5 120.5q104 0 188 -51t135 -131q54 80 138 131t188 51q169 0 289 -120.5t120 -289.5v-1044h-170v1044q0 100 -69.5 170t-169.5 70q-99 0 -169.5 -70.5t-70.5 -169.5v-1044h-170v1044q0 99 -71 169.5t-168 70.5q-100 0 -170 -70
t-70 -170v-1044h-170z" />
    <glyph glyph-name="N" unicode="N" horiz-adv-x="983" 
d="M82 0v1044q0 169 120.5 289.5t289.5 120.5t289 -120.5t120 -289.5v-1044h-170v1044q0 100 -69.5 170t-169.5 70t-170 -70t-70 -170v-1044h-170z" />
    <glyph glyph-name="O" unicode="O" horiz-adv-x="983" 
d="M492 -20q-169 0 -289.5 120t-120.5 289v655q0 169 120.5 289.5t289.5 120.5t289 -120.5t120 -289.5v-655q0 -169 -120 -289t-289 -120zM492 150q100 0 169.5 69.5t69.5 169.5v655q0 100 -69.5 170t-169.5 70t-170 -70t-70 -170v-655q0 -100 70 -169.5t170 -69.5z" />
    <glyph glyph-name="P" unicode="P" horiz-adv-x="950" 
d="M82 0v1434h416q166 0 283.5 -118t117.5 -284t-117.5 -283.5t-283.5 -117.5h-246v-631h-170zM252 1264v-463h246q96 0 163.5 67.5t67.5 163.5q0 97 -67 164.5t-164 67.5h-246z" />
    <glyph glyph-name="Q" unicode="Q" horiz-adv-x="983" 
d="M406 -307v297q-140 30 -232 141.5t-92 257.5v655q0 169 120.5 289.5t289.5 120.5t289 -120.5t120 -289.5v-655q0 -146 -92.5 -257.5t-233.5 -141.5v-297h-169zM731 389v655q0 100 -69.5 170t-169.5 70t-170 -70t-70 -170v-655q0 -100 70 -169.5t170 -69.5t169.5 69.5
t69.5 169.5z" />
    <glyph glyph-name="R" unicode="R" horiz-adv-x="962" 
d="M82 0v1434h416q167 0 285 -118.5t118 -281.5q0 -103 -47 -185.5t-127 -137.5q154 -115 154 -308v-403h-170v403q0 95 -62.5 161.5t-156.5 66.5h-240v-631h-170zM252 801h246q96 0 164.5 67t68.5 166q0 93 -68 161.5t-165 68.5h-246v-463z" />
    <glyph glyph-name="S" unicode="S" horiz-adv-x="942" 
d="M61 410h170v-21q0 -100 70 -169.5t170 -69.5t170 69.5t70 169.5q0 102 -65 164t-175 76q-197 24 -303.5 134.5t-106.5 280.5q0 169 120.5 289.5t289.5 120.5t289.5 -120.5t120.5 -289.5v-20h-170v20q0 100 -70 170t-170 70t-170 -70t-70 -170q0 -103 64.5 -164t175.5 -75
q197 -24 303.5 -135t106.5 -281q0 -169 -120.5 -289t-289.5 -120t-289.5 120t-120.5 289v21z" />
    <glyph glyph-name="T" unicode="T" horiz-adv-x="860" 
d="M344 0v1264h-324v170h820v-170h-326v-1264h-170z" />
    <glyph glyph-name="U" unicode="U" horiz-adv-x="983" 
d="M492 -20q-169 0 -289.5 120t-120.5 289v1045h170v-1045q0 -100 70 -169.5t170 -69.5t169.5 69.5t69.5 169.5v1045h170v-1045q0 -169 -120 -289t-289 -120z" />
    <glyph glyph-name="V" unicode="V" horiz-adv-x="983" 
d="M406 0q-13 14 -35 40t-78 112t-98.5 177.5t-77.5 231.5t-35 279v594h170v-533q0 -377 240 -735q239 345 239 735v533h170v-594q0 -102 -18 -203t-46.5 -181.5t-62.5 -154.5t-68.5 -127.5t-63 -93.5t-46.5 -60l-18 -20h-172z" />
    <glyph glyph-name="W" unicode="W" horiz-adv-x="1632" 
d="M406 0q-13 14 -35 40t-78 112t-98.5 177.5t-77.5 231.5t-35 279v594h170v-533q0 -377 240 -735q239 345 239 735v533h170v-533q0 -377 240 -735q239 345 239 735v533h170v-594q0 -102 -18 -203t-46.5 -181.5t-63 -154.5t-68.5 -127.5t-62.5 -93.5t-46.5 -60l-18 -20h-172
q-6 7 -17 21t-42 58t-59 91t-62.5 118t-59.5 140q-38 -110 -97.5 -217t-99.5 -159l-40 -52h-172z" />
    <glyph glyph-name="X" unicode="X" horiz-adv-x="983" 
d="M82 0v188q0 82 24.5 162.5t66.5 147.5t86.5 119.5t96.5 99.5q-274 248 -274 528v189h170v-189q0 -118 70 -227.5t170 -194.5q100 85 169.5 194.5t69.5 227.5v189h170v-189q0 -276 -274 -528q274 -252 274 -529v-188h-170v188q0 116 -69 225.5t-170 196.5
q-101 -87 -170.5 -196.5t-69.5 -225.5v-188h-170z" />
    <glyph glyph-name="Y" unicode="Y" horiz-adv-x="962" 
d="M395 0v582q-140 31 -231.5 143t-91.5 258v451h170v-451q0 -100 69.5 -170t169.5 -70t170 70t70 170v451h170v-451q0 -146 -92.5 -258t-233.5 -143v-582h-170z" />
    <glyph glyph-name="Z" unicode="Z" horiz-adv-x="839" 
d="M41 0v170q0 88 23 170t66.5 153t80.5 118.5t90 105.5q14 15 56 58t64 67.5t59.5 68.5t59 80t45 82t34 94t10.5 97h-588v170h758v-170q0 -88 -23 -170t-66.5 -153t-80.5 -118.5t-90 -105.5q-14 -15 -56 -58t-64 -67.5t-59.5 -68.5t-59 -80t-45 -82t-34 -94t-10.5 -97h588
v-170h-758z" />
    <glyph glyph-name="bracketleft" unicode="[" horiz-adv-x="491" 
d="M82 -205v1639h389v-170h-219v-1299h219v-170h-389z" />
    <glyph glyph-name="backslash" unicode="\" horiz-adv-x="579" 
d="M410 0l-410 1434h170l410 -1434h-170z" />
    <glyph glyph-name="bracketright" unicode="]" horiz-adv-x="491" 
d="M20 -205v170h220v1299h-220v170h390v-1639h-390z" />
    <glyph glyph-name="asciicircum" unicode="^" horiz-adv-x="989" 
d="M20 614l383 820h183l383 -820h-185l-288 619l-289 -619h-187z" />
    <glyph glyph-name="underscore" unicode="_" 
d="M0 -375v170h819v-170h-819z" />
    <glyph glyph-name="grave" unicode="`" horiz-adv-x="497" 
d="M266 1249l-205 307h170l205 -307h-170z" />
    <glyph glyph-name="a" unicode="a" 
d="M82 0v836q0 135 96.5 231t231.5 96t231 -96t96 -231v-836h-170v487h-315v-487h-170zM252 657h315v179q0 66 -45.5 111.5t-111.5 45.5t-112 -45.5t-46 -111.5v-179z" />
    <glyph glyph-name="b" unicode="b" horiz-adv-x="802" 
d="M82 0v1147h326q135 0 232 -97.5t97 -232.5q0 -144 -129 -244q129 -96 129 -243q0 -135 -97 -232.5t-232 -97.5h-326zM252 657h156q67 0 113 47.5t46 112.5q0 68 -46 114t-113 46h-156v-320zM252 170h156q67 0 113 46t46 114q0 66 -46 111.5t-113 45.5h-156v-317z" />
    <glyph glyph-name="c" unicode="c" horiz-adv-x="798" 
d="M737 328v-17q0 -135 -96 -231t-231 -96t-231.5 96t-96.5 231v525q0 135 96.5 231t231.5 96t231 -96t96 -231v-17h-170v17q0 66 -45.5 111.5t-111.5 45.5t-112 -45.5t-46 -111.5v-525q0 -66 46 -111.5t112 -45.5t111.5 45.5t45.5 111.5v17h170z" />
    <glyph glyph-name="d" unicode="d" 
d="M82 0v1147h328q135 0 231 -96.5t96 -231.5v-491q0 -135 -96 -231.5t-231 -96.5h-328zM252 170h158q66 0 111.5 46t45.5 112v491q0 66 -45.5 112t-111.5 46h-158v-807z" />
    <glyph glyph-name="e" unicode="e" horiz-adv-x="696" 
d="M82 0v1147h573v-170h-403v-320h371v-170h-371v-317h403v-170h-573z" />
    <glyph glyph-name="f" unicode="f" horiz-adv-x="686" 
d="M82 0v1147h573v-170h-403v-320h371v-170h-371v-487h-170z" />
    <glyph glyph-name="g" unicode="g" 
d="M410 -16q-135 0 -231.5 96t-96.5 231v525q0 135 96.5 231t231.5 96t231 -96t96 -231v-17h-170v17q0 66 -45.5 111.5t-111.5 45.5t-112 -45.5t-46 -111.5v-525q0 -66 46 -111.5t112 -45.5t111.5 45.5t45.5 111.5v176h-157v170h327v-346q0 -135 -96 -231t-231 -96z" />
    <glyph glyph-name="h" unicode="h" 
d="M82 0v1147h170v-490h315v490h170v-1147h-170v487h-315v-487h-170z" />
    <glyph glyph-name="i" unicode="i" horiz-adv-x="333" 
d="M82 0v1147h170v-1147h-170z" />
    <glyph glyph-name="j" unicode="j" horiz-adv-x="532" 
d="M41 -16v170h82q66 0 112 45.5t46 111.5v666h-240v170h410v-836q0 -135 -96.5 -231t-231.5 -96h-82z" />
    <glyph glyph-name="k" unicode="k" 
d="M82 0v1147h170v-490h158q66 0 111.5 46.5t45.5 111.5v332h170v-332q0 -144 -127 -242q127 -98 127 -243v-330h-170v330q0 66 -45.5 111.5t-111.5 45.5h-158v-487h-170z" />
    <glyph glyph-name="l" unicode="l" horiz-adv-x="688" 
d="M82 0v1147h170v-977h403v-170h-573z" />
    <glyph glyph-name="m" unicode="m" horiz-adv-x="1304" 
d="M82 0v836q0 135 96.5 231t231.5 96q145 0 241 -129q100 129 244 129q135 0 231.5 -96t96.5 -231v-836h-170v836q0 66 -46 111.5t-112 45.5q-65 0 -111.5 -45.5t-46.5 -111.5v-836h-170v836q0 65 -47 111t-110 46q-66 0 -112 -45.5t-46 -111.5v-836h-170z" />
    <glyph glyph-name="n" unicode="n" 
d="M82 0v836q0 135 96.5 231t231.5 96t231 -96t96 -231v-836h-170v836q0 66 -45.5 111.5t-111.5 45.5t-112 -45.5t-46 -111.5v-836h-170z" />
    <glyph glyph-name="o" unicode="o" 
d="M410 -16q-135 0 -231.5 96t-96.5 231v525q0 135 96.5 231t231.5 96t231 -96t96 -231v-525q0 -135 -96 -231t-231 -96zM410 154q66 0 111.5 45.5t45.5 111.5v525q0 66 -45.5 111.5t-111.5 45.5t-112 -45.5t-46 -111.5v-525q0 -66 46 -111.5t112 -45.5z" />
    <glyph glyph-name="p" unicode="p" horiz-adv-x="798" 
d="M82 0v1147h326q135 0 232 -97t97 -233q0 -135 -97 -232.5t-232 -97.5h-156v-487h-170zM252 977v-320h156q67 0 113 47t46 113t-46 113t-113 47h-156z" />
    <glyph glyph-name="q" unicode="q" 
d="M324 -246v240q-106 30 -174 117.5t-68 199.5v525q0 135 96.5 231t231.5 96t231 -96t96 -231v-525q0 -113 -68 -200t-175 -117v-240h-170zM567 311v525q0 66 -45.5 111.5t-111.5 45.5t-112 -45.5t-46 -111.5v-525q0 -66 46 -111.5t112 -45.5t111.5 45.5t45.5 111.5z" />
    <glyph glyph-name="r" unicode="r" horiz-adv-x="798" 
d="M82 0v1147h328q135 0 231 -97t96 -231q0 -150 -127 -252q107 -101 107 -229v-338h-170v338q0 60 -43.5 104.5t-108.5 44.5h-143v-487h-170zM252 657h158q66 0 111.5 47t45.5 115q0 63 -46 110.5t-111 47.5h-158v-320z" />
    <glyph glyph-name="s" unicode="s" horiz-adv-x="778" 
d="M61 328h170v-17q0 -66 46 -111.5t112 -45.5q64 0 111 46t47 126q0 133 -158 159q-328 60 -328 336q0 155 98 248.5t230 93.5q135 0 231.5 -96t96.5 -231v-17h-170v17q0 66 -46.5 111.5t-113.5 45.5q-64 0 -110 -45.5t-46 -126.5q0 -134 158 -159q328 -60 328 -336
q0 -155 -98 -248.5t-230 -93.5q-135 0 -231.5 96t-96.5 231v17z" />
    <glyph glyph-name="t" unicode="t" horiz-adv-x="716" 
d="M272 0v977h-241v170h655v-170h-244v-977h-170z" />
    <glyph glyph-name="u" unicode="u" 
d="M410 -16q-135 0 -231.5 96t-96.5 231v836h170v-836q0 -66 46 -111.5t112 -45.5t111.5 45.5t45.5 111.5v836h170v-836q0 -135 -96 -231t-231 -96z" />
    <glyph glyph-name="v" unicode="v" 
d="M326 0q-10 11 -26.5 30.5t-58.5 85.5t-74 137t-58.5 180t-26.5 218v496h170v-426q0 -318 158 -551q157 226 157 551v426h170v-496q0 -109 -25 -216.5t-60.5 -182.5t-71.5 -134.5t-61 -88.5l-25 -29h-168z" />
    <glyph glyph-name="w" unicode="w" horiz-adv-x="1304" 
d="M326 0q-10 11 -26.5 30.5t-58.5 85.5t-74 137t-58.5 180t-26.5 218v496h170v-426q0 -318 158 -551q157 226 157 551v426h170v-426q0 -318 158 -551q158 227 158 551v426h170v-496q0 -109 -25 -216.5t-61 -182.5t-72 -134.5t-61 -88.5l-25 -29h-168q-94 127 -160 285
q-28 -70 -67.5 -141.5t-64.5 -107.5l-25 -36h-168z" />
    <glyph glyph-name="x" unicode="x" 
d="M82 0v158q0 128 54.5 234t135.5 181q-81 75 -135.5 181.5t-54.5 234.5v158h170v-158q0 -90 45 -170.5t113 -138.5q68 58 112.5 138.5t44.5 170.5v158h170v-158q0 -127 -55 -233t-135 -183q80 -77 135 -182.5t55 -232.5v-158h-170v158q0 89 -44.5 169t-112.5 140
q-69 -60 -113.5 -140t-44.5 -169v-158h-170z" />
    <glyph glyph-name="y" unicode="y" horiz-adv-x="798" 
d="M313 0v469q-106 30 -173.5 117t-67.5 200v361h170v-361q0 -66 45.5 -111.5t111.5 -45.5t112 45.5t46 111.5v361h170v-361q0 -113 -68.5 -200t-175.5 -117v-469h-170z" />
    <glyph glyph-name="z" unicode="z" horiz-adv-x="704" 
d="M49 0v170q0 70 14.5 130t45.5 111t56 83t68 79q18 19 61 61t69.5 71.5t58.5 73.5t47.5 93.5t15.5 104.5h-436v170h606v-170q0 -70 -14.5 -130t-45 -111.5t-56 -83.5t-68.5 -79q-17 -19 -50.5 -51.5t-57 -56t-53 -59.5t-48 -69t-31 -77t-12.5 -90h436v-170h-606z" />
    <glyph glyph-name="braceleft" unicode="{" horiz-adv-x="485" 
d="M41 528v170q48 0 82.5 28.5t34.5 74.5v325q0 126 90 217t217 91v-170q-57 0 -97 -40.5t-40 -97.5v-325q0 -108 -76 -187q76 -82 76 -211v-260q0 -76 33.5 -127t103.5 -51v-170q-127 0 -217 89.5t-90 217.5v324q0 48 -34 75t-83 27z" />
    <glyph glyph-name="bar" unicode="|" horiz-adv-x="333" 
d="M82 -205v1639h170v-1639h-170z" />
    <glyph glyph-name="braceright" unicode="}" horiz-adv-x="485" 
d="M20 -205v170q70 0 104 50.5t34 127.5v260q0 130 75 211q-75 73 -75 236v194q0 220 -138 220v170q128 0 218 -90t90 -218v-325q0 -46 33.5 -74.5t82.5 -28.5v-170q-50 0 -83 -26.5t-33 -75.5v-324q0 -127 -90 -217t-218 -90z" />
    <glyph glyph-name="asciitilde" unicode="~" horiz-adv-x="1105" 
d="M41 512q0 127 86 217t211 90q61 0 108.5 -17.5t76.5 -46t52 -63t41.5 -68.5t38 -62.5t48 -46t65.5 -17.5q55 0 91 40t36 97h170q0 -127 -86 -217t-211 -90q-61 0 -108.5 17.5t-76.5 46t-52 62.5t-41.5 68.5t-38 63t-48 46t-65.5 17.5q-55 0 -91 -40t-36 -97h-170z" />
    <glyph glyph-name="exclamdown" unicode="&#xa1;" horiz-adv-x="333" 
d="M82 -287v1059h170v-1059h-170zM82 977v170h170v-170h-170z" />
    <glyph glyph-name="cent" unicode="&#xa2;" horiz-adv-x="757" 
d="M303 -205v199q-98 28 -159.5 108t-61.5 185v450q0 103 61.5 184t159.5 109v199h170v-199q98 -28 160.5 -109t62.5 -184v-20h-170v20q0 57 -40 97t-97 40t-97 -40t-40 -97v-450q0 -57 40 -97t97 -40t97 40t40 97v20h170v-20q0 -104 -62.5 -184.5t-160.5 -108.5v-199h-170z
" />
    <glyph glyph-name="sterling" unicode="&#xa3;" horiz-adv-x="901" 
d="M41 0v170q79 0 139 64t60 147v250h-199v170h199v352q0 125 87.5 213t211.5 88q125 0 213 -88t88 -213v-27h-170v27q0 55 -38 93t-93 38q-54 0 -91.5 -38t-37.5 -93v-352h389v-170h-389v-250q0 -119 -76 -211h506v-170h-799z" />
    <glyph glyph-name="currency" unicode="&#xa4;" horiz-adv-x="983" 
d="M139 0l-119 119l187 186q-29 60 -29 129v279q0 66 29 129l-187 186l119 119l174 -174q79 53 179 53q98 0 174 -53l178 174l119 -119l-187 -186q29 -63 29 -129v-279q0 -69 -29 -129l187 -186l-119 -119l-178 174q-79 -53 -174 -53q-106 0 -179 53zM492 291q59 0 101 41.5
t42 101.5v279q0 60 -41.5 101.5t-101.5 41.5t-102 -41.5t-42 -101.5v-279q0 -60 42 -101.5t102 -41.5z" />
    <glyph glyph-name="yen" unicode="&#xa5;" horiz-adv-x="962" 
d="M395 0v205h-282v143h282v144h-282v143h282v70q-140 31 -231.5 143t-91.5 258v328h170v-328q0 -100 69.5 -170t169.5 -70t170 70t70 170v328h170v-328q0 -146 -92.5 -258t-233.5 -143v-70h285v-143h-285v-144h285v-143h-285v-205h-170z" />
    <glyph glyph-name="brokenbar" unicode="&#xa6;" horiz-adv-x="333" 
d="M82 717v717h170v-717h-170zM82 -205v717h170v-717h-170z" />
    <glyph glyph-name="section" unicode="&#xa7;" horiz-adv-x="731" 
d="M373 170q55 0 91 36.5t36 90.5q0 53 -36 88t-91 35h-21q-123 0 -210 87t-87 210q0 125 95 213q-89 86 -89 207q0 123 87 210t210 87q124 0 210.5 -87t86.5 -210h-170q0 54 -36.5 90.5t-90.5 36.5t-90.5 -36.5t-36.5 -90.5q0 -51 36.5 -87t90.5 -36h21q124 0 210.5 -87
t86.5 -210q0 -126 -94 -213q88 -91 88 -207q0 -123 -87 -210t-210 -87t-210 87t-87 210h170q0 -54 36.5 -90.5t90.5 -36.5zM506 717q0 52 -37 89.5t-90 37.5h-27q-55 0 -91 -37t-36 -90t36 -90t91 -37h27q54 0 90.5 37t36.5 90z" />
    <glyph glyph-name="dieresis" unicode="&#xa8;" horiz-adv-x="600" 
d="M61 1153v170h170v-170h-170zM369 1153v170h170v-170h-170z" />
    <glyph glyph-name="copyright" unicode="&#xa9;" horiz-adv-x="1515" 
d="M1024 608q0 -110 -78 -188t-188 -78t-188 78t-78 188v217q0 110 78 188.5t188 78.5t188 -78.5t78 -188.5h-156q0 45 -33 78t-77 33q-45 0 -78 -33t-33 -78v-217q0 -45 33 -77.5t78 -32.5t77.5 32.5t32.5 77.5h156zM41 717q0 145 57 278t153 229t229 153t278 57t278 -57
t229 -153t153 -229t57 -278t-57 -278t-153 -229t-229 -153t-278 -57t-278 57t-229 153t-153 229t-57 278zM211 717q0 -149 73 -275t199 -199t275 -73t275 73t199 199t73 275t-73 275t-199 199t-275 73t-275 -73t-199 -199t-73 -275z" />
    <glyph glyph-name="ordfeminine" unicode="&#xaa;" horiz-adv-x="450" 
d="M72 932v368q0 64 45 109t108 45q65 0 109.5 -45t44.5 -109v-368h-86v213h-137v-213h-84zM156 1231h137v69q0 29 -19.5 48.5t-48.5 19.5q-28 0 -48.5 -19.5t-20.5 -48.5v-69z" />
    <glyph glyph-name="guillemotleft" unicode="&#xab;" horiz-adv-x="927" 
d="M719 0l-307 512l307 512h188l-307 -512l307 -512h-188zM328 0l-308 512l308 512h186l-307 -512l307 -512h-186z" />
    <glyph glyph-name="logicalnot" unicode="&#xac;" horiz-adv-x="901" 
d="M41 487v170h819v-374h-170v204h-649z" />
    <glyph glyph-name="registered" unicode="&#xae;" horiz-adv-x="1208" 
d="M41 891q0 153 75.5 282.5t205 205t282.5 75.5t282.5 -75.5t205 -205t75.5 -282.5t-75.5 -282.5t-205 -205t-282.5 -75.5t-282.5 75.5t-205 205t-75.5 282.5zM410 532v717h204q85 0 145 -60t60 -145q0 -87 -82 -153q72 -58 72 -154v-205h-98v205q0 43 -32 75t-75 32h-96
v-312h-98zM508 938h106q43 0 75 31t32 75q0 43 -32 75t-75 32h-106v-213zM139 891q0 -192 136.5 -328.5t328.5 -136.5t328.5 136.5t136.5 328.5t-136.5 328.5t-328.5 136.5t-328.5 -136.5t-136.5 -328.5z" />
    <glyph glyph-name="macron" unicode="&#xaf;" horiz-adv-x="641" 
d="M61 1331v154h519v-154h-519z" />
    <glyph glyph-name="degree" unicode="&#xb0;" horiz-adv-x="667" 
d="M41 1161q0 121 85.5 207t207.5 86t207.5 -86t85.5 -207t-85.5 -207t-207.5 -86t-207.5 86t-85.5 207zM207 1161q0 -54 37 -90.5t90 -36.5q54 0 90.5 36.5t36.5 90.5q0 53 -36.5 90t-90.5 37q-52 0 -89.5 -37t-37.5 -90z" />
    <glyph glyph-name="plusminus" unicode="&#xb1;" horiz-adv-x="1105" 
d="M41 0v170h1024v-170h-1024zM41 707v170h426v426h170v-426h428v-170h-428v-428h-170v428h-426z" />
    <glyph glyph-name="twosuperior" unicode="&#xb2;" horiz-adv-x="532" 
d="M61 922v153q0 51 21 92.5t52.5 67.5t68 51.5t68 45.5t52.5 49t21 63q0 31 -23 54.5t-55 23.5t-55 -23.5t-23 -54.5v-10h-127v10q0 85 60 145t145 60t145 -60t60 -145q0 -53 -21 -97t-52.5 -72t-68 -54.5t-68 -46t-52.5 -45.5t-21 -54v-26h273v-127h-400z" />
    <glyph glyph-name="threesuperior" unicode="&#xb3;" horiz-adv-x="542" 
d="M61 1126h127q0 -38 24 -63t60 -25q32 0 57 26.5t25 61.5q0 37 -24.5 64t-65.5 27h-78v129h78q41 0 65.5 25.5t24.5 62.5q0 35 -24 61.5t-58 26.5q-36 0 -60 -25t-24 -63h-127q0 90 62 152.5t149 62.5q86 0 147.5 -64t61.5 -151q0 -94 -75 -154q75 -60 75 -154
q0 -87 -61.5 -151t-147.5 -64q-87 0 -149 62.5t-62 152.5z" />
    <glyph glyph-name="acute" unicode="&#xb4;" horiz-adv-x="497" 
d="M61 1249l205 307h170l-205 -307h-170z" />
    <glyph glyph-name="mu" unicode="&#xb5;" 
d="M82 -205v1229h170v-737q0 -59 39.5 -98t97.5 -39q57 0 97 40t40 97v737h170v-772q0 -43 30 -72.5t73 -29.5v-170q-120 0 -197 90q-83 -80 -213 -80q-74 0 -137 47v-242h-170z" />
    <glyph glyph-name="mu" unicode="&#x3bc;" 
d="M82 -205v1229h170v-737q0 -59 39.5 -98t97.5 -39q57 0 97 40t40 97v737h170v-772q0 -43 30 -72.5t73 -29.5v-170q-120 0 -197 90q-83 -80 -213 -80q-74 0 -137 47v-242h-170z" />
    <glyph glyph-name="paragraph" unicode="&#xb6;" horiz-adv-x="1009" 
d="M406 0v819h-58q-128 0 -217.5 89.5t-89.5 217.5t90 218t217 90h580v-1434h-170v1264h-410q-57 0 -97 -40.5t-40 -97.5t40 -97t97 -40h227v-989h-169z" />
    <glyph glyph-name="periodcentered" unicode="&#xb7;" horiz-adv-x="292" 
d="M61 631v170h170v-170h-170z" />
    <glyph glyph-name="cedilla" unicode="&#xb8;" horiz-adv-x="579" 
d="M61 -326l109 109q30 -35 82 -35q50 0 83.5 34t33.5 83t-33.5 83t-83.5 34v151q110 0 189 -79t79 -189q0 -112 -79.5 -191.5t-188.5 -79.5q-114 0 -191 80z" />
    <glyph glyph-name="onesuperior" unicode="&#xb9;" horiz-adv-x="331" 
d="M143 922v577l-123 -59v116l123 82h127v-716h-127z" />
    <glyph glyph-name="ordmasculine" unicode="&#xba;" horiz-adv-x="450" 
d="M379 1300v-225q0 -64 -45.5 -108.5t-108.5 -44.5q-65 0 -109 44t-44 109v225q0 63 44.5 108.5t108.5 45.5q63 0 108.5 -45.5t45.5 -108.5zM225 1006q29 0 48.5 20t19.5 49v225q0 29 -19.5 48.5t-48.5 19.5t-49 -19.5t-20 -48.5v-225q0 -29 20 -49t49 -20z" />
    <glyph glyph-name="guillemotright" unicode="&#xbb;" horiz-adv-x="925" 
d="M20 0l308 512l-308 512h187l307 -512l-307 -512h-187zM412 0l307 512l-307 512h188l307 -512l-307 -512h-188z" />
    <glyph glyph-name="onequarter" unicode="&#xbc;" horiz-adv-x="1159" 
d="M41 0l922 1434h155l-921 -1434h-156zM190 717v577l-122 -59v117l122 82h129v-717h-129zM889 0v182h-268v135l233 400h162v-408h82v-127h-82v-182h-127zM754 309h135v228z" />
    <glyph glyph-name="onehalf" unicode="&#xbd;" horiz-adv-x="1177" 
d="M41 0l922 1434h155l-921 -1434h-156zM190 717v577l-122 -59v117l122 82h129v-717h-129zM727 0v154q0 51 21 92.5t52 67t67.5 51.5t67.5 45.5t52 48.5t21 63q0 31 -22 54.5t-54 23.5t-55 -23.5t-23 -54.5v-10h-127v10q0 85 60 145t145 60t145 -60t60 -145q0 -53 -21 -97
t-52.5 -71.5t-68 -54t-68 -46t-52.5 -45.5t-21 -54v-27h272v-127h-399z" />
    <glyph glyph-name="threequarters" unicode="&#xbe;" horiz-adv-x="1179" 
d="M59 0l922 1434h158l-922 -1434h-158zM907 0v182h-266v135l233 400h162v-408h82v-127h-82v-182h-129zM772 309h135v228zM41 911h127q0 -38 24 -63t60 -25q32 0 57 26.5t25 61.5q0 37 -24.5 63.5t-65.5 26.5h-78v129h78q41 0 65.5 26t24.5 63q0 35 -24 61.5t-58 26.5
q-36 0 -60 -25t-24 -63h-127q0 90 62 152.5t149 62.5q86 0 147.5 -64t61.5 -151q0 -93 -76 -154q76 -61 76 -154q0 -87 -61.5 -151t-147.5 -64q-87 0 -149 62.5t-62 152.5z" />
    <glyph glyph-name="questiondown" unicode="&#xbf;" horiz-adv-x="942" 
d="M881 123v-21q0 -169 -120.5 -289t-289.5 -120t-289.5 120t-120.5 289q0 64 17.5 118t46 93t63.5 74t72 67t69 64t57 73.5t34 88.5q6 31 6 92h170q0 -80 -6 -117q-9 -61 -34 -113.5t-57 -89.5t-69 -71t-72 -64t-63.5 -61t-46 -70t-17.5 -84q0 -100 70 -169.5t170 -69.5
t170 69.5t70 169.5v21h170zM426 977v170h170v-170h-170z" />
    <glyph glyph-name="Agrave" unicode="&#xc0;" horiz-adv-x="983" 
d="M82 0v1044q0 169 120.5 289.5t289.5 120.5t289 -120.5t120 -289.5v-1044h-170v631h-479v-631h-170zM252 801h479v243q0 100 -69.5 170t-169.5 70t-170 -70t-70 -170v-243zM426 1536l-205 307h170l205 -307h-170z" />
    <glyph glyph-name="Aacute" unicode="&#xc1;" horiz-adv-x="983" 
d="M82 0v1044q0 169 120.5 289.5t289.5 120.5t289 -120.5t120 -289.5v-1044h-170v631h-479v-631h-170zM252 801h479v243q0 100 -69.5 170t-169.5 70t-170 -70t-70 -170v-243zM385 1536l205 307h170l-205 -307h-170z" />
    <glyph glyph-name="Acircumflex" unicode="&#xc2;" horiz-adv-x="983" 
d="M82 0v1044q0 169 120.5 289.5t289.5 120.5t289 -120.5t120 -289.5v-1044h-170v631h-479v-631h-170zM252 801h479v243q0 100 -69.5 170t-169.5 70t-170 -70t-70 -170v-243zM201 1536l205 307h169l205 -307h-170l-118 186l-121 -186h-170z" />
    <glyph glyph-name="Atilde" unicode="&#xc3;" horiz-adv-x="983" 
d="M82 0v1044q0 169 120.5 289.5t289.5 120.5t289 -120.5t120 -289.5v-1044h-170v631h-479v-631h-170zM252 801h479v243q0 100 -69.5 170t-169.5 70t-170 -70t-70 -170v-243zM190 1638q0 78 57 134.5t136 56.5q34 0 64.5 -14.5t52 -35.5t40.5 -42.5t39 -36t39 -14.5
q22 0 38 16.5t16 38.5h121q0 -78 -57 -134.5t-136 -56.5q-34 0 -64.5 15t-52 36t-40.5 42t-39 36t-39 15q-22 0 -39 -17t-17 -39h-119z" />
    <glyph glyph-name="Adieresis" unicode="&#xc4;" horiz-adv-x="983" 
d="M82 0v1044q0 169 120.5 289.5t289.5 120.5t289 -120.5t120 -289.5v-1044h-170v631h-479v-631h-170zM252 801h479v243q0 100 -69.5 170t-169.5 70t-170 -70t-70 -170v-243zM254 1563v170h170v-170h-170zM559 1563v170h170v-170h-170z" />
    <glyph glyph-name="Aring" unicode="&#xc5;" horiz-adv-x="983" 
d="M82 0v1044q0 169 120.5 289.5t289.5 120.5t289 -120.5t120 -289.5v-1044h-170v631h-479v-631h-170zM252 801h479v243q0 100 -69.5 170t-169.5 70t-170 -70t-70 -170v-243zM416 1741q0 -32 22 -54t54 -22t53.5 22t21.5 54t-21.5 54t-53.5 22t-54 -22t-22 -54zM293 1741
q0 82 58.5 140t140.5 58t140 -58t58 -140t-58 -140.5t-140 -58.5t-140.5 58.5t-58.5 140.5z" />
    <glyph glyph-name="AE" unicode="&#xc6;" horiz-adv-x="1488" 
d="M82 0v1044q0 169 120.5 289.5t289.5 120.5q68 0 133 -28.5t106 -73.5v82h717v-170h-547v-463h506v-170h-506v-461h547v-170h-717v631h-479v-631h-170zM731 801v243q0 100 -70.5 170t-168.5 70q-100 0 -170 -70t-70 -170v-243h479z" />
    <glyph glyph-name="Ccedilla" unicode="&#xc7;" horiz-adv-x="962" 
d="M299 -330l111 111q35 -35 82 -35q49 0 82.5 33.5t33.5 83.5q0 47 -30.5 80.5t-75.5 36.5h-10q-169 0 -289.5 120t-120.5 289v655q0 169 120.5 289.5t289.5 120.5t289 -120.5t120 -289.5v-20h-170v20q0 100 -69.5 170t-169.5 70t-170 -70t-70 -170v-655q0 -100 70 -169.5
t170 -69.5t169.5 69.5t69.5 169.5v21h170v-21q0 -110 -55 -203.5t-148 -148.5q66 -72 66 -174q0 -113 -80 -193t-192 -80q-116 0 -193 80z" />
    <glyph glyph-name="Egrave" unicode="&#xc8;" horiz-adv-x="839" 
d="M82 0v1434h717v-170h-547v-463h506v-170h-506v-461h547v-170h-717zM375 1536l-205 307h170l205 -307h-170z" />
    <glyph glyph-name="Eacute" unicode="&#xc9;" horiz-adv-x="839" 
d="M82 0v1434h717v-170h-547v-463h506v-170h-506v-461h547v-170h-717zM344 1536l205 307h170l-205 -307h-170z" />
    <glyph glyph-name="Ecircumflex" unicode="&#xca;" horiz-adv-x="839" 
d="M82 0v1434h717v-170h-547v-463h506v-170h-506v-461h547v-170h-717zM150 1536l204 307h170l205 -307h-170l-119 186l-121 -186h-169z" />
    <glyph glyph-name="Edieresis" unicode="&#xcb;" horiz-adv-x="839" 
d="M82 0v1434h717v-170h-547v-463h506v-170h-506v-461h547v-170h-717zM203 1563v170h170v-170h-170zM508 1563v170h170v-170h-170z" />
    <glyph glyph-name="Igrave" unicode="&#xcc;" horiz-adv-x="333" 
d="M82 0v1434h170v-1434h-170zM102 1536l-204 307h170l204 -307h-170z" />
    <glyph glyph-name="Iacute" unicode="&#xcd;" horiz-adv-x="333" 
d="M82 0v1434h170v-1434h-170zM61 1536l205 307h170l-205 -307h-170z" />
    <glyph glyph-name="Icircumflex" unicode="&#xce;" horiz-adv-x="333" 
d="M82 0v1434h170v-1434h-170zM-123 1536l205 307h170l205 -307h-170l-121 186l-119 -186h-170z" />
    <glyph glyph-name="Idieresis" unicode="&#xcf;" horiz-adv-x="331" 
d="M80 0v1434h170v-1434h-170zM-74 1563v170h170v-170h-170zM233 1563v170h170v-170h-170z" />
    <glyph glyph-name="Eth" unicode="&#xd0;" horiz-adv-x="1126" 
d="M225 0v631h-205v170h205v633h410q169 0 289 -120.5t120 -289.5v-614q0 -169 -120 -289.5t-289 -120.5h-410zM395 170h240q100 0 169.5 70t69.5 170v614q0 100 -69.5 170t-169.5 70h-240v-463h205v-170h-205v-461z" />
    <glyph glyph-name="Ntilde" unicode="&#xd1;" horiz-adv-x="983" 
d="M82 0v1044q0 169 120.5 289.5t289.5 120.5t289 -120.5t120 -289.5v-1044h-170v1044q0 100 -69.5 170t-169.5 70t-170 -70t-70 -170v-1044h-170zM190 1638q0 78 57 134.5t136 56.5q34 0 64.5 -14.5t52 -35.5t40.5 -42.5t39 -36t39 -14.5q22 0 38 16.5t16 38.5h121
q0 -78 -57 -134.5t-136 -56.5q-34 0 -64.5 15t-52 36t-40.5 42t-39 36t-39 15q-22 0 -39 -17t-17 -39h-119z" />
    <glyph glyph-name="Ograve" unicode="&#xd2;" horiz-adv-x="983" 
d="M492 -20q-169 0 -289.5 120t-120.5 289v655q0 169 120.5 289.5t289.5 120.5t289 -120.5t120 -289.5v-655q0 -169 -120 -289t-289 -120zM492 150q100 0 169.5 69.5t69.5 169.5v655q0 100 -69.5 170t-169.5 70t-170 -70t-70 -170v-655q0 -100 70 -169.5t170 -69.5z
M426 1536l-205 307h170l205 -307h-170z" />
    <glyph glyph-name="Oacute" unicode="&#xd3;" horiz-adv-x="983" 
d="M492 -20q-169 0 -289.5 120t-120.5 289v655q0 169 120.5 289.5t289.5 120.5t289 -120.5t120 -289.5v-655q0 -169 -120 -289t-289 -120zM492 150q100 0 169.5 69.5t69.5 169.5v655q0 100 -69.5 170t-169.5 70t-170 -70t-70 -170v-655q0 -100 70 -169.5t170 -69.5z
M385 1536l205 307h170l-205 -307h-170z" />
    <glyph glyph-name="Ocircumflex" unicode="&#xd4;" horiz-adv-x="983" 
d="M492 -20q-169 0 -289.5 120t-120.5 289v655q0 169 120.5 289.5t289.5 120.5t289 -120.5t120 -289.5v-655q0 -169 -120 -289t-289 -120zM492 150q100 0 169.5 69.5t69.5 169.5v655q0 100 -69.5 170t-169.5 70t-170 -70t-70 -170v-655q0 -100 70 -169.5t170 -69.5z
M201 1536l205 307h169l205 -307h-170l-118 186l-121 -186h-170z" />
    <glyph glyph-name="Otilde" unicode="&#xd5;" horiz-adv-x="983" 
d="M492 -20q-169 0 -289.5 120t-120.5 289v655q0 169 120.5 289.5t289.5 120.5t289 -120.5t120 -289.5v-655q0 -169 -120 -289t-289 -120zM492 150q100 0 169.5 69.5t69.5 169.5v655q0 100 -69.5 170t-169.5 70t-170 -70t-70 -170v-655q0 -100 70 -169.5t170 -69.5z
M190 1638q0 78 57 134.5t136 56.5q34 0 64.5 -14.5t52 -35.5t40.5 -42.5t39 -36t39 -14.5q22 0 38 16.5t16 38.5h121q0 -78 -57 -134.5t-136 -56.5q-34 0 -64.5 15t-52 36t-40.5 42t-39 36t-39 15q-22 0 -39 -17t-17 -39h-119z" />
    <glyph glyph-name="Odieresis" unicode="&#xd6;" horiz-adv-x="983" 
d="M492 -20q-169 0 -289.5 120t-120.5 289v655q0 169 120.5 289.5t289.5 120.5t289 -120.5t120 -289.5v-655q0 -169 -120 -289t-289 -120zM492 150q100 0 169.5 69.5t69.5 169.5v655q0 100 -69.5 170t-169.5 70t-170 -70t-70 -170v-655q0 -100 70 -169.5t170 -69.5z
M254 1563v170h170v-170h-170zM559 1563v170h170v-170h-170z" />
    <glyph glyph-name="multiply" unicode="&#xd7;" horiz-adv-x="1064" 
d="M139 61l-119 119l394 393l-394 394l119 118l393 -393l394 393l118 -118l-393 -394l393 -393l-118 -119l-394 394z" />
    <glyph glyph-name="Oslash" unicode="&#xd8;" horiz-adv-x="983" 
d="M492 -20q-151 0 -267 98l-41 -78h-170l111 205q-43 88 -43 184v655q0 169 120.5 289.5t289.5 120.5q148 0 264 -98l43 78h170l-113 -205q45 -85 45 -185v-655q0 -169 -120 -289t-289 -120zM492 150q100 0 169.5 69.5t69.5 169.5v610l-422 -768q71 -81 183 -81zM252 1044
v-610l420 768q-69 82 -180 82q-100 0 -170 -70t-70 -170z" />
    <glyph glyph-name="Ugrave" unicode="&#xd9;" horiz-adv-x="983" 
d="M492 -20q-169 0 -289.5 120t-120.5 289v1045h170v-1045q0 -100 70 -169.5t170 -69.5t169.5 69.5t69.5 169.5v1045h170v-1045q0 -169 -120 -289t-289 -120zM426 1536l-205 307h170l205 -307h-170z" />
    <glyph glyph-name="Uacute" unicode="&#xda;" horiz-adv-x="983" 
d="M492 -20q-169 0 -289.5 120t-120.5 289v1045h170v-1045q0 -100 70 -169.5t170 -69.5t169.5 69.5t69.5 169.5v1045h170v-1045q0 -169 -120 -289t-289 -120zM385 1536l205 307h170l-205 -307h-170z" />
    <glyph glyph-name="Ucircumflex" unicode="&#xdb;" horiz-adv-x="983" 
d="M492 -20q-169 0 -289.5 120t-120.5 289v1045h170v-1045q0 -100 70 -169.5t170 -69.5t169.5 69.5t69.5 169.5v1045h170v-1045q0 -169 -120 -289t-289 -120zM201 1536l205 307h169l205 -307h-170l-118 186l-121 -186h-170z" />
    <glyph glyph-name="Udieresis" unicode="&#xdc;" horiz-adv-x="983" 
d="M492 -20q-169 0 -289.5 120t-120.5 289v1045h170v-1045q0 -100 70 -169.5t170 -69.5t169.5 69.5t69.5 169.5v1045h170v-1045q0 -169 -120 -289t-289 -120zM254 1563v170h170v-170h-170zM559 1563v170h170v-170h-170z" />
    <glyph glyph-name="Yacute" unicode="&#xdd;" horiz-adv-x="962" 
d="M395 0v582q-140 31 -231.5 143t-91.5 258v451h170v-451q0 -100 69.5 -170t169.5 -70t170 70t70 170v451h170v-451q0 -146 -92.5 -258t-233.5 -143v-582h-170zM375 1536l205 307h170l-205 -307h-170z" />
    <glyph glyph-name="Thorn" unicode="&#xde;" horiz-adv-x="962" 
d="M82 0v1434h170v-291q102 86 240 86q169 0 289 -120.5t120 -289.5v-205q0 -169 -120 -289t-289 -120q-138 0 -240 86v-291h-170zM492 375q100 0 169.5 69.5t69.5 169.5v205q0 100 -69.5 170t-169.5 70q-97 0 -168.5 -70.5t-71.5 -169.5v-205q0 -100 70 -169.5t170 -69.5z
" />
    <glyph glyph-name="germandbls" unicode="&#xdf;" horiz-adv-x="1026" 
d="M82 0v1059q0 163 116 279t279 116t279 -116t116 -279v-185h-196q-56 0 -93.5 -38t-37.5 -93q0 -118 143 -147q134 -26 210.5 -110t76.5 -205q0 -126 -87 -213.5t-212 -87.5q-126 0 -213.5 87.5t-87.5 213.5h170q0 -55 37.5 -93t93.5 -38q55 0 92 37.5t37 93.5
q0 118 -143 147q-133 26 -210 110t-77 205q0 108 67 190.5t170 102.5q39 8 90 8q0 99 -63 169.5t-162 70.5q-94 0 -159.5 -65.5t-65.5 -159.5v-1059h-170z" />
    <glyph glyph-name="agrave" unicode="&#xe0;" 
d="M82 0v836q0 135 96.5 231t231.5 96t231 -96t96 -231v-836h-170v487h-315v-487h-170zM252 657h315v179q0 66 -45.5 111.5t-111.5 45.5t-112 -45.5t-46 -111.5v-179zM344 1249l-205 307h170l205 -307h-170z" />
    <glyph glyph-name="aacute" unicode="&#xe1;" 
d="M82 0v836q0 135 96.5 231t231.5 96t231 -96t96 -231v-836h-170v487h-315v-487h-170zM252 657h315v179q0 66 -45.5 111.5t-111.5 45.5t-112 -45.5t-46 -111.5v-179zM303 1249l205 307h170l-205 -307h-170z" />
    <glyph glyph-name="acircumflex" unicode="&#xe2;" 
d="M82 0v836q0 135 96.5 231t231.5 96t231 -96t96 -231v-836h-170v487h-315v-487h-170zM252 657h315v179q0 66 -45.5 111.5t-111.5 45.5t-112 -45.5t-46 -111.5v-179zM119 1249l205 307h170l204 -307h-170l-118 187l-121 -187h-170z" />
    <glyph glyph-name="atilde" unicode="&#xe3;" 
d="M82 0v836q0 135 96.5 231t231.5 96t231 -96t96 -231v-836h-170v487h-315v-487h-170zM252 657h315v179q0 66 -45.5 111.5t-111.5 45.5t-112 -45.5t-46 -111.5v-179zM109 1352q0 78 56.5 134t135.5 56q42 0 79 -22.5t59 -49t48.5 -49t49.5 -22.5q22 0 37.5 16.5t15.5 38.5
h121q0 -78 -57 -134t-136 -56q-34 0 -64.5 14.5t-52 36t-40.5 42.5t-39 35.5t-39 14.5q-22 0 -39 -16.5t-17 -38.5h-118z" />
    <glyph glyph-name="adieresis" unicode="&#xe4;" 
d="M82 0v836q0 135 96.5 231t231.5 96t231 -96t96 -231v-836h-170v487h-315v-487h-170zM252 657h315v179q0 66 -45.5 111.5t-111.5 45.5t-112 -45.5t-46 -111.5v-179zM172 1276v170h170v-170h-170zM477 1276v170h170v-170h-170z" />
    <glyph glyph-name="aring" unicode="&#xe5;" 
d="M82 0v836q0 135 96.5 231t231.5 96t231 -96t96 -231v-836h-170v487h-315v-487h-170zM252 657h315v179q0 66 -45.5 111.5t-111.5 45.5t-112 -45.5t-46 -111.5v-179zM334 1454q0 -32 22 -54t54 -22t53.5 22t21.5 54t-21.5 54t-53.5 22t-54 -22t-22 -54zM211 1454
q0 82 58.5 140.5t140.5 58.5t140 -58.5t58 -140.5t-58 -140.5t-140 -58.5t-140.5 58.5t-58.5 140.5z" />
    <glyph glyph-name="ae" unicode="&#xe6;" horiz-adv-x="1181" 
d="M567 0v487h-315v-487h-170v836q0 135 96.5 231t231.5 96q89 0 157 -47v31h574v-170h-404v-320h371v-170h-371v-317h404v-170h-574zM252 657h315v179q0 65 -46.5 111t-110.5 46q-66 0 -112 -45.5t-46 -111.5v-179z" />
    <glyph glyph-name="ccedilla" unicode="&#xe7;" horiz-adv-x="798" 
d="M217 -326l111 111q35 -35 82 -35q49 0 82.5 33.5t33.5 83.5q0 47 -30.5 80.5t-75.5 36.5h-10q-135 0 -231.5 96t-96.5 231v525q0 135 96.5 231t231.5 96t231 -96t96 -231v-17h-170v17q0 66 -45.5 111.5t-111.5 45.5t-112 -45.5t-46 -111.5v-525q0 -66 46 -111.5
t112 -45.5t111.5 45.5t45.5 111.5v17h170v-17q0 -77 -35 -145.5t-96 -114.5q76 -76 76 -184q0 -113 -80 -193t-192 -80q-116 0 -193 80z" />
    <glyph glyph-name="egrave" unicode="&#xe8;" horiz-adv-x="696" 
d="M82 0v1147h573v-170h-403v-320h371v-170h-371v-317h403v-170h-573zM324 1249l-205 307h170l205 -307h-170z" />
    <glyph glyph-name="eacute" unicode="&#xe9;" horiz-adv-x="696" 
d="M82 0v1147h573v-170h-403v-320h371v-170h-371v-317h403v-170h-573zM283 1249l204 307h170l-204 -307h-170z" />
    <glyph glyph-name="ecircumflex" unicode="&#xea;" horiz-adv-x="696" 
d="M82 0v1147h573v-170h-403v-320h371v-170h-371v-317h403v-170h-573zM78 1249l205 307h170l204 -307h-170l-118 187l-121 -187h-170z" />
    <glyph glyph-name="edieresis" unicode="&#xeb;" horiz-adv-x="696" 
d="M82 0v1147h573v-170h-403v-320h371v-170h-371v-317h403v-170h-573zM131 1276v170h170v-170h-170zM436 1276v170h170v-170h-170z" />
    <glyph glyph-name="igrave" unicode="&#xec;" horiz-adv-x="333" 
d="M82 0v1147h170v-1147h-170zM102 1249l-204 307h170l204 -307h-170z" />
    <glyph glyph-name="iacute" unicode="&#xed;" horiz-adv-x="333" 
d="M82 0v1147h170v-1147h-170zM61 1249l205 307h170l-205 -307h-170z" />
    <glyph glyph-name="icircumflex" unicode="&#xee;" horiz-adv-x="333" 
d="M82 0v1147h170v-1147h-170zM-20 1249v154l102 153h170l102 -153v-154h-67l-121 187l-119 -187h-67z" />
    <glyph glyph-name="idieresis" unicode="&#xef;" horiz-adv-x="333" 
d="M82 0v1147h170v-1147h-170zM-20 1276v170h143v-170h-143zM211 1276v170h143v-170h-143z" />
    <glyph glyph-name="eth" unicode="&#xf0;" horiz-adv-x="880" 
d="M143 0v487h-123v170h123v490h328q135 0 231.5 -96.5t96.5 -231.5v-491q0 -135 -96.5 -231.5t-231.5 -96.5h-328zM313 170h158q66 0 112 46t46 112v491q0 66 -46 112t-112 46h-158v-320h123v-170h-123v-317z" />
    <glyph glyph-name="ntilde" unicode="&#xf1;" 
d="M82 0v836q0 135 96.5 231t231.5 96t231 -96t96 -231v-836h-170v836q0 66 -45.5 111.5t-111.5 45.5t-112 -45.5t-46 -111.5v-836h-170zM109 1352q0 78 56.5 134t135.5 56q42 0 79 -22.5t59 -49t48.5 -49t49.5 -22.5q22 0 37.5 16.5t15.5 38.5h121q0 -78 -57 -134t-136 -56
q-34 0 -64.5 14.5t-52 36t-40.5 42.5t-39 35.5t-39 14.5q-22 0 -39 -16.5t-17 -38.5h-118z" />
    <glyph glyph-name="ograve" unicode="&#xf2;" 
d="M410 -16q-135 0 -231.5 96t-96.5 231v525q0 135 96.5 231t231.5 96t231 -96t96 -231v-525q0 -135 -96 -231t-231 -96zM410 154q66 0 111.5 45.5t45.5 111.5v525q0 66 -45.5 111.5t-111.5 45.5t-112 -45.5t-46 -111.5v-525q0 -66 46 -111.5t112 -45.5zM344 1249l-205 307
h170l205 -307h-170z" />
    <glyph glyph-name="oacute" unicode="&#xf3;" 
d="M410 -16q-135 0 -231.5 96t-96.5 231v525q0 135 96.5 231t231.5 96t231 -96t96 -231v-525q0 -135 -96 -231t-231 -96zM410 154q66 0 111.5 45.5t45.5 111.5v525q0 66 -45.5 111.5t-111.5 45.5t-112 -45.5t-46 -111.5v-525q0 -66 46 -111.5t112 -45.5zM303 1249l205 307
h170l-205 -307h-170z" />
    <glyph glyph-name="ocircumflex" unicode="&#xf4;" 
d="M410 -16q-135 0 -231.5 96t-96.5 231v525q0 135 96.5 231t231.5 96t231 -96t96 -231v-525q0 -135 -96 -231t-231 -96zM410 154q66 0 111.5 45.5t45.5 111.5v525q0 66 -45.5 111.5t-111.5 45.5t-112 -45.5t-46 -111.5v-525q0 -66 46 -111.5t112 -45.5zM119 1249l205 307
h170l204 -307h-170l-118 187l-121 -187h-170z" />
    <glyph glyph-name="otilde" unicode="&#xf5;" 
d="M410 -16q-135 0 -231.5 96t-96.5 231v525q0 135 96.5 231t231.5 96t231 -96t96 -231v-525q0 -135 -96 -231t-231 -96zM410 154q66 0 111.5 45.5t45.5 111.5v525q0 66 -45.5 111.5t-111.5 45.5t-112 -45.5t-46 -111.5v-525q0 -66 46 -111.5t112 -45.5zM109 1352
q0 78 56.5 134t135.5 56q42 0 79 -22.5t59 -49t48.5 -49t49.5 -22.5q22 0 37.5 16.5t15.5 38.5h121q0 -78 -57 -134t-136 -56q-34 0 -64.5 14.5t-52 36t-40.5 42.5t-39 35.5t-39 14.5q-22 0 -39 -16.5t-17 -38.5h-118z" />
    <glyph glyph-name="odieresis" unicode="&#xf6;" 
d="M410 -16q-135 0 -231.5 96t-96.5 231v525q0 135 96.5 231t231.5 96t231 -96t96 -231v-525q0 -135 -96 -231t-231 -96zM410 154q66 0 111.5 45.5t45.5 111.5v525q0 66 -45.5 111.5t-111.5 45.5t-112 -45.5t-46 -111.5v-525q0 -66 46 -111.5t112 -45.5zM172 1276v170h170
v-170h-170zM477 1276v170h170v-170h-170z" />
    <glyph glyph-name="divide" unicode="&#xf7;" horiz-adv-x="901" 
d="M365 199v170h170v-170h-170zM365 778v170h170v-170h-170zM41 487v170h819v-170h-819z" />
    <glyph glyph-name="oslash" unicode="&#xf8;" 
d="M14 0l95 178q-27 61 -27 133v525q0 135 96.5 231t231.5 96q113 0 196 -67l29 51h170l-96 -180q28 -64 28 -131v-525q0 -135 -96 -231t-231 -96q-113 0 -199 67l-27 -51h-170zM410 154q66 0 111.5 45.5t45.5 111.5v394l-274 -502q46 -49 117 -49zM252 836v-396l272 502
q-48 51 -114 51t-112 -45.5t-46 -111.5z" />
    <glyph glyph-name="ugrave" unicode="&#xf9;" 
d="M410 -16q-135 0 -231.5 96t-96.5 231v836h170v-836q0 -66 46 -111.5t112 -45.5t111.5 45.5t45.5 111.5v836h170v-836q0 -135 -96 -231t-231 -96zM344 1249l-205 307h170l205 -307h-170z" />
    <glyph glyph-name="uacute" unicode="&#xfa;" 
d="M410 -16q-135 0 -231.5 96t-96.5 231v836h170v-836q0 -66 46 -111.5t112 -45.5t111.5 45.5t45.5 111.5v836h170v-836q0 -135 -96 -231t-231 -96zM303 1249l205 307h170l-205 -307h-170z" />
    <glyph glyph-name="ucircumflex" unicode="&#xfb;" 
d="M410 -16q-135 0 -231.5 96t-96.5 231v836h170v-836q0 -66 46 -111.5t112 -45.5t111.5 45.5t45.5 111.5v836h170v-836q0 -135 -96 -231t-231 -96zM119 1249l205 307h170l204 -307h-170l-118 187l-121 -187h-170z" />
    <glyph glyph-name="udieresis" unicode="&#xfc;" 
d="M410 -16q-135 0 -231.5 96t-96.5 231v836h170v-836q0 -66 46 -111.5t112 -45.5t111.5 45.5t45.5 111.5v836h170v-836q0 -135 -96 -231t-231 -96zM172 1276v170h170v-170h-170zM477 1276v170h170v-170h-170z" />
    <glyph glyph-name="yacute" unicode="&#xfd;" horiz-adv-x="798" 
d="M313 0v469q-106 30 -173.5 117t-67.5 200v361h170v-361q0 -66 45.5 -111.5t111.5 -45.5t112 45.5t46 111.5v361h170v-361q0 -113 -68.5 -200t-175.5 -117v-469h-170zM293 1249l205 307h170l-205 -307h-170z" />
    <glyph glyph-name="thorn" unicode="&#xfe;" horiz-adv-x="798" 
d="M82 0v1147h170v-215q66 51 158 51q135 0 231 -96.5t96 -231.5v-163q0 -135 -96 -231.5t-231 -96.5q-92 0 -158 51v-215h-170zM410 334q66 0 111.5 46t45.5 112v163q0 66 -45.5 112t-111.5 46q-64 0 -111 -46.5t-47 -111.5v-163q0 -66 46 -112t112 -46z" />
    <glyph glyph-name="ydieresis" unicode="&#xff;" horiz-adv-x="798" 
d="M313 0v469q-106 30 -173.5 117t-67.5 200v361h170v-361q0 -66 45.5 -111.5t111.5 -45.5t112 45.5t46 111.5v361h170v-361q0 -113 -68.5 -200t-175.5 -117v-469h-170zM162 1276v170h170v-170h-170zM467 1276v170h170v-170h-170z" />
    <glyph glyph-name="Amacron" unicode="&#x100;" horiz-adv-x="983" 
d="M82 0v1044q0 169 120.5 289.5t289.5 120.5t289 -120.5t120 -289.5v-1044h-170v631h-479v-631h-170zM252 801h479v243q0 100 -69.5 170t-169.5 70t-170 -70t-70 -170v-243zM231 1618v154h521v-154h-521z" />
    <glyph glyph-name="amacron" unicode="&#x101;" 
d="M82 0v836q0 135 96.5 231t231.5 96t231 -96t96 -231v-836h-170v487h-315v-487h-170zM252 657h315v179q0 66 -45.5 111.5t-111.5 45.5t-112 -45.5t-46 -111.5v-179zM150 1331v154h520v-154h-520z" />
    <glyph glyph-name="Abreve" unicode="&#x102;" horiz-adv-x="983" 
d="M82 0v1044q0 169 120.5 289.5t289.5 120.5t289 -120.5t120 -289.5v-1044h-170v631h-479v-631h-170zM252 801h479v243q0 100 -69.5 170t-169.5 70t-170 -70t-70 -170v-243zM240 1796h151q0 -41 29 -70.5t72 -29.5t70.5 29.5t27.5 70.5h153q0 -108 -73.5 -181t-177.5 -73
t-178 73t-74 181z" />
    <glyph glyph-name="abreve" unicode="&#x103;" 
d="M82 0v836q0 135 96.5 231t231.5 96t231 -96t96 -231v-836h-170v487h-315v-487h-170zM252 657h315v179q0 66 -45.5 111.5t-111.5 45.5t-112 -45.5t-46 -111.5v-179zM158 1509h151q0 -41 29 -70.5t72 -29.5t70.5 29.5t27.5 70.5h154q0 -108 -74 -181t-178 -73t-178 73
t-74 181z" />
    <glyph glyph-name="Aogonek" unicode="&#x104;" horiz-adv-x="983" 
d="M901 -385q-27 -8 -61 -8q-113 0 -193 80t-80 192q0 82 45.5 149t118.5 97v506h-479v-631h-170v1044q0 169 120.5 289.5t289.5 120.5t289 -120.5t120 -289.5v-1044h-61q-50 0 -85.5 -35t-35.5 -86q0 -49 35.5 -84t85.5 -35q30 0 61 21v-166zM252 801h479v243
q0 100 -69.5 170t-169.5 70t-170 -70t-70 -170v-243z" />
    <glyph glyph-name="aogonek" unicode="&#x105;" 
d="M737 -385q-27 -8 -61 -8q-113 0 -193 80t-80 192q0 82 45.5 149t118.5 97v362h-315v-487h-170v836q0 135 96.5 231t231.5 96t231 -96t96 -231v-836h-69q-47 -3 -80 -37.5t-33 -83.5t35.5 -84t85.5 -35q30 0 61 21v-166zM252 657h315v179q0 66 -45.5 111.5t-111.5 45.5
t-112 -45.5t-46 -111.5v-179z" />
    <glyph glyph-name="Cacute" unicode="&#x106;" horiz-adv-x="962" 
d="M901 410v-21q0 -169 -120 -289t-289 -120t-289.5 120t-120.5 289v655q0 169 120.5 289.5t289.5 120.5t289 -120.5t120 -289.5v-20h-170v20q0 100 -69.5 170t-169.5 70t-170 -70t-70 -170v-655q0 -100 70 -169.5t170 -69.5t169.5 69.5t69.5 169.5v21h170zM385 1536
l205 307h170l-205 -307h-170z" />
    <glyph glyph-name="cacute" unicode="&#x107;" horiz-adv-x="798" 
d="M737 328v-17q0 -135 -96 -231t-231 -96t-231.5 96t-96.5 231v525q0 135 96.5 231t231.5 96t231 -96t96 -231v-17h-170v17q0 66 -45.5 111.5t-111.5 45.5t-112 -45.5t-46 -111.5v-525q0 -66 46 -111.5t112 -45.5t111.5 45.5t45.5 111.5v17h170zM303 1249l205 307h170
l-205 -307h-170z" />
    <glyph glyph-name="Ccircumflex" unicode="&#x108;" horiz-adv-x="962" 
d="M901 410v-21q0 -169 -120 -289t-289 -120t-289.5 120t-120.5 289v655q0 169 120.5 289.5t289.5 120.5t289 -120.5t120 -289.5v-20h-170v20q0 100 -69.5 170t-169.5 70t-170 -70t-70 -170v-655q0 -100 70 -169.5t170 -69.5t169.5 69.5t69.5 169.5v21h170zM201 1536
l205 307h169l205 -307h-170l-118 186l-121 -186h-170z" />
    <glyph glyph-name="ccircumflex" unicode="&#x109;" horiz-adv-x="798" 
d="M737 328v-17q0 -135 -96 -231t-231 -96t-231.5 96t-96.5 231v525q0 135 96.5 231t231.5 96t231 -96t96 -231v-17h-170v17q0 66 -45.5 111.5t-111.5 45.5t-112 -45.5t-46 -111.5v-525q0 -66 46 -111.5t112 -45.5t111.5 45.5t45.5 111.5v17h170zM119 1249l205 307h170
l204 -307h-170l-118 187l-121 -187h-170z" />
    <glyph glyph-name="Cdotaccent" unicode="&#x10a;" horiz-adv-x="962" 
d="M901 410v-21q0 -169 -120 -289t-289 -120t-289.5 120t-120.5 289v655q0 169 120.5 289.5t289.5 120.5t289 -120.5t120 -289.5v-20h-170v20q0 100 -69.5 170t-169.5 70t-170 -70t-70 -170v-655q0 -100 70 -169.5t170 -69.5t169.5 69.5t69.5 169.5v21h170zM406 1556v205
h169v-205h-169z" />
    <glyph glyph-name="cdotaccent" unicode="&#x10b;" horiz-adv-x="798" 
d="M737 328v-17q0 -135 -96 -231t-231 -96t-231.5 96t-96.5 231v525q0 135 96.5 231t231.5 96t231 -96t96 -231v-17h-170v17q0 66 -45.5 111.5t-111.5 45.5t-112 -45.5t-46 -111.5v-525q0 -66 46 -111.5t112 -45.5t111.5 45.5t45.5 111.5v17h170zM324 1270v205h170v-205
h-170z" />
    <glyph glyph-name="Ccaron" unicode="&#x10c;" horiz-adv-x="962" 
d="M901 410v-21q0 -169 -120 -289t-289 -120t-289.5 120t-120.5 289v655q0 169 120.5 289.5t289.5 120.5t289 -120.5t120 -289.5v-20h-170v20q0 100 -69.5 170t-169.5 70t-170 -70t-70 -170v-655q0 -100 70 -169.5t170 -69.5t169.5 69.5t69.5 169.5v21h170zM406 1536
l-205 307h170l121 -186l118 186h170l-205 -307h-169z" />
    <glyph glyph-name="ccaron" unicode="&#x10d;" horiz-adv-x="798" 
d="M737 328v-17q0 -135 -96 -231t-231 -96t-231.5 96t-96.5 231v525q0 135 96.5 231t231.5 96t231 -96t96 -231v-17h-170v17q0 66 -45.5 111.5t-111.5 45.5t-112 -45.5t-46 -111.5v-525q0 -66 46 -111.5t112 -45.5t111.5 45.5t45.5 111.5v17h170zM324 1249l-205 307h170
l121 -186l118 186h170l-204 -307h-170z" />
    <glyph glyph-name="Dcaron" unicode="&#x10e;" horiz-adv-x="983" 
d="M82 0v1434h410q169 0 289 -120.5t120 -289.5v-614q0 -169 -120 -289.5t-289 -120.5h-410zM252 170h240q100 0 169.5 70t69.5 170v614q0 100 -69.5 170t-169.5 70h-240v-1094zM375 1536l-205 307h170l121 -186l119 186h170l-205 -307h-170z" />
    <glyph glyph-name="dcaron" unicode="&#x10f;" horiz-adv-x="802" 
d="M66 0v1147h327q135 0 231.5 -96.5t96.5 -231.5v-491q0 -135 -96.5 -231.5t-231.5 -96.5h-327zM236 170h157q66 0 112 46t46 112v491q0 66 -46 112t-112 46h-157v-807zM287 1249l-205 307h170l121 -186l119 186h170l-205 -307h-170z" />
    <glyph glyph-name="Dcroat" unicode="&#x110;" horiz-adv-x="1126" 
d="M225 0v631h-205v170h205v633h410q169 0 289 -120.5t120 -289.5v-614q0 -169 -120 -289.5t-289 -120.5h-410zM395 170h240q100 0 169.5 70t69.5 170v614q0 100 -69.5 170t-169.5 70h-240v-463h310v-170h-310v-461z" />
    <glyph glyph-name="dcroat" unicode="&#x111;" horiz-adv-x="880" 
d="M143 0v487h-123v170h123v490h328q135 0 231.5 -96.5t96.5 -231.5v-491q0 -135 -96.5 -231.5t-231.5 -96.5h-328zM313 170h158q66 0 112 46t46 112v491q0 66 -46 112t-112 46h-158v-320h207v-170h-207v-317z" />
    <glyph glyph-name="Emacron" unicode="&#x112;" horiz-adv-x="839" 
d="M82 0v1434h717v-170h-547v-463h506v-170h-506v-461h547v-170h-717zM190 1618v154h521v-154h-521z" />
    <glyph glyph-name="emacron" unicode="&#x113;" horiz-adv-x="696" 
d="M82 0v1147h573v-170h-403v-320h371v-170h-371v-317h403v-170h-573zM109 1331v154h520v-154h-520z" />
    <glyph glyph-name="Ebreve" unicode="&#x114;" horiz-adv-x="839" 
d="M82 0v1434h717v-170h-547v-463h506v-170h-506v-461h547v-170h-717zM199 1796h151q0 -41 29 -70.5t72 -29.5t70.5 29.5t27.5 70.5h153q0 -108 -73.5 -181t-177.5 -73t-178 73t-74 181z" />
    <glyph glyph-name="ebreve" unicode="&#x115;" horiz-adv-x="696" 
d="M82 0v1147h573v-170h-403v-320h371v-170h-371v-317h403v-170h-573zM117 1509h151q0 -41 29 -70.5t72 -29.5t70.5 29.5t27.5 70.5h154q0 -108 -74 -181t-178 -73t-178 73t-74 181z" />
    <glyph glyph-name="Edotaccent" unicode="&#x116;" horiz-adv-x="839" 
d="M82 0v1434h717v-170h-547v-463h506v-170h-506v-461h547v-170h-717zM365 1556v205h170v-205h-170z" />
    <glyph glyph-name="edotaccent" unicode="&#x117;" horiz-adv-x="696" 
d="M82 0v1147h573v-170h-403v-320h371v-170h-371v-317h403v-170h-573zM283 1270v205h170v-205h-170z" />
    <glyph glyph-name="Eogonek" unicode="&#x118;" horiz-adv-x="839" 
d="M82 0v1434h717v-170h-547v-463h506v-170h-506v-461h547v-170h-70q-47 -3 -80 -37.5t-33 -83.5t35.5 -84t85.5 -35q31 0 62 21v-166q-27 -8 -62 -8q-113 0 -192.5 79.5t-79.5 192.5q0 67 31 121h-414z" />
    <glyph glyph-name="eogonek" unicode="&#x119;" horiz-adv-x="696" 
d="M82 0v1147h573v-170h-403v-320h371v-170h-371v-317h403v-170h-63q-50 0 -84.5 -35t-34.5 -86q0 -49 35.5 -84t85.5 -35q30 0 61 21v-166q-27 -8 -61 -8q-112 0 -192 79.5t-80 192.5q0 69 30 121h-270z" />
    <glyph glyph-name="Ecaron" unicode="&#x11a;" horiz-adv-x="839" 
d="M82 0v1434h717v-170h-547v-463h506v-170h-506v-461h547v-170h-717zM365 1536l-205 307h170l121 -186l118 186h170l-204 -307h-170z" />
    <glyph glyph-name="ecaron" unicode="&#x11b;" horiz-adv-x="696" 
d="M82 0v1147h573v-170h-403v-320h371v-170h-371v-317h403v-170h-573zM283 1249l-205 307h170l121 -186l118 186h170l-204 -307h-170z" />
    <glyph glyph-name="Gcircumflex" unicode="&#x11c;" horiz-adv-x="983" 
d="M492 -20q-169 0 -289.5 120t-120.5 289v655q0 169 120.5 289.5t289.5 120.5t289 -120.5t120 -289.5v-20h-170v20q0 100 -69.5 170t-169.5 70t-170 -70t-70 -170v-655q0 -100 70 -169.5t170 -69.5t169.5 69.5t69.5 169.5v242h-239v170h409v-412q0 -169 -120 -289
t-289 -120zM201 1536l205 307h169l205 -307h-170l-118 186l-121 -186h-170z" />
    <glyph glyph-name="gcircumflex" unicode="&#x11d;" 
d="M410 -16q-135 0 -231.5 96t-96.5 231v525q0 135 96.5 231t231.5 96t231 -96t96 -231v-17h-170v17q0 66 -45.5 111.5t-111.5 45.5t-112 -45.5t-46 -111.5v-525q0 -66 46 -111.5t112 -45.5t111.5 45.5t45.5 111.5v176h-157v170h327v-346q0 -135 -96 -231t-231 -96z
M119 1249l205 307h170l204 -307h-170l-118 187l-121 -187h-170z" />
    <glyph glyph-name="Gbreve" unicode="&#x11e;" horiz-adv-x="983" 
d="M492 -20q-169 0 -289.5 120t-120.5 289v655q0 169 120.5 289.5t289.5 120.5t289 -120.5t120 -289.5v-20h-170v20q0 100 -69.5 170t-169.5 70t-170 -70t-70 -170v-655q0 -100 70 -169.5t170 -69.5t169.5 69.5t69.5 169.5v242h-239v170h409v-412q0 -169 -120 -289
t-289 -120zM240 1796h151q0 -41 29 -70.5t72 -29.5t70.5 29.5t27.5 70.5h153q0 -108 -73.5 -181t-177.5 -73t-178 73t-74 181z" />
    <glyph glyph-name="gbreve" unicode="&#x11f;" 
d="M410 -16q-135 0 -231.5 96t-96.5 231v525q0 135 96.5 231t231.5 96t231 -96t96 -231v-17h-170v17q0 66 -45.5 111.5t-111.5 45.5t-112 -45.5t-46 -111.5v-525q0 -66 46 -111.5t112 -45.5t111.5 45.5t45.5 111.5v176h-157v170h327v-346q0 -135 -96 -231t-231 -96z
M158 1509h151q0 -41 29 -70.5t72 -29.5t70.5 29.5t27.5 70.5h154q0 -108 -74 -181t-178 -73t-178 73t-74 181z" />
    <glyph glyph-name="Gdotaccent" unicode="&#x120;" horiz-adv-x="983" 
d="M492 -20q-169 0 -289.5 120t-120.5 289v655q0 169 120.5 289.5t289.5 120.5t289 -120.5t120 -289.5v-20h-170v20q0 100 -69.5 170t-169.5 70t-170 -70t-70 -170v-655q0 -100 70 -169.5t170 -69.5t169.5 69.5t69.5 169.5v242h-239v170h409v-412q0 -169 -120 -289
t-289 -120zM406 1556v205h169v-205h-169z" />
    <glyph glyph-name="gdotaccent" unicode="&#x121;" 
d="M410 -16q-135 0 -231.5 96t-96.5 231v525q0 135 96.5 231t231.5 96t231 -96t96 -231v-17h-170v17q0 66 -45.5 111.5t-111.5 45.5t-112 -45.5t-46 -111.5v-525q0 -66 46 -111.5t112 -45.5t111.5 45.5t45.5 111.5v176h-157v170h327v-346q0 -135 -96 -231t-231 -96z
M324 1270v205h170v-205h-170z" />
    <glyph glyph-name="Gcommaaccent" unicode="&#x122;" horiz-adv-x="983" 
d="M492 -20q-169 0 -289.5 120t-120.5 289v655q0 169 120.5 289.5t289.5 120.5t289 -120.5t120 -289.5v-20h-170v20q0 100 -69.5 170t-169.5 70t-170 -70t-70 -170v-655q0 -100 70 -169.5t170 -69.5t169.5 69.5t69.5 169.5v242h-239v170h409v-412q0 -169 -120 -289
t-289 -120zM406 -483v374h169l-32 -374h-137z" />
    <glyph glyph-name="gcommaaccent" unicode="&#x123;" 
d="M410 -16q-135 0 -231.5 96t-96.5 231v525q0 135 96.5 231t231.5 96t231 -96t96 -231v-17h-170v17q0 66 -45.5 111.5t-111.5 45.5t-112 -45.5t-46 -111.5v-525q0 -66 46 -111.5t112 -45.5t111.5 45.5t45.5 111.5v176h-157v170h327v-346q0 -135 -96 -231t-231 -96z
M324 -483v374h170l-33 -374h-137z" />
    <glyph glyph-name="Hcircumflex" unicode="&#x124;" horiz-adv-x="983" 
d="M82 0v1434h170v-633h479v633h170v-1434h-170v631h-479v-631h-170zM201 1536l205 307h169l205 -307h-170l-118 186l-121 -186h-170z" />
    <glyph glyph-name="hcircumflex" unicode="&#x125;" 
d="M82 0v1147h170v-490h315v490h170v-1147h-170v487h-315v-487h-170zM119 1249l205 307h170l204 -307h-170l-118 187l-121 -187h-170z" />
    <glyph glyph-name="Hbar" unicode="&#x126;" horiz-adv-x="1105" 
d="M20 1004v153h123v277h170v-277h480v277h170v-277h122v-153h-122v-1004h-170v631h-480v-631h-170v1004h-123zM313 801h480v203h-480v-203z" />
    <glyph glyph-name="hbar" unicode="&#x127;" horiz-adv-x="942" 
d="M20 799v153h123v195h170v-195h316v195h170v-195h123v-153h-123v-799h-170v487h-316v-487h-170v799h-123zM313 657h316v142h-316v-142z" />
    <glyph glyph-name="Itilde" unicode="&#x128;" horiz-adv-x="333" 
d="M82 0v1434h170v-1434h-170zM-133 1638q0 78 56 134.5t134 56.5q42 0 79 -22.5t59.5 -49t49 -49t48.5 -22.5t38.5 16.5t16.5 38.5h119q0 -78 -56.5 -134.5t-134.5 -56.5q-34 0 -64.5 15t-52.5 36t-41 42t-39 36t-38 15q-22 0 -38.5 -17t-16.5 -39h-119z" />
    <glyph glyph-name="itilde" unicode="&#x129;" horiz-adv-x="333" 
d="M82 0v1147h170v-1147h-170zM-82 1352q0 81 42.5 135.5t113.5 54.5q35 0 62 -14.5t42.5 -36t29 -42.5t28 -35.5t30.5 -14.5q21 0 34 16t13 39h103q0 -81 -42.5 -135.5t-115.5 -54.5q-42 0 -73 22.5t-45.5 49t-33 49t-38.5 22.5q-21 0 -34.5 -16t-13.5 -39h-102z" />
    <glyph glyph-name="Imacron" unicode="&#x12a;" horiz-adv-x="333" 
d="M82 0v1434h170v-1434h-170zM-92 1618v154h518v-154h-518z" />
    <glyph glyph-name="imacron" unicode="&#x12b;" horiz-adv-x="333" 
d="M82 0v1147h170v-1147h-170zM-20 1331v154h374v-154h-374z" />
    <glyph glyph-name="Ibreve" unicode="&#x12c;" horiz-adv-x="333" 
d="M82 0v1434h170v-1434h-170zM-86 1796h154q0 -41 28 -70.5t70 -29.5q43 0 71.5 29.5t28.5 70.5h154q0 -107 -75 -180.5t-179 -73.5q-103 0 -177.5 73.5t-74.5 180.5z" />
    <glyph glyph-name="ibreve" unicode="&#x12d;" horiz-adv-x="333" 
d="M82 0v1147h170v-1147h-170zM-61 1509h153q0 -100 74 -100q76 0 76 100h153q0 -110 -63.5 -182t-165.5 -72q-100 0 -163.5 72t-63.5 182z" />
    <glyph glyph-name="Iogonek" unicode="&#x12e;" horiz-adv-x="354" 
d="M272 -385q-27 -8 -61 -8q-113 0 -192.5 79.5t-79.5 192.5q0 82 45 149t118 97v1309h170v-1434h-61q-50 0 -85.5 -35t-35.5 -86q0 -49 35.5 -84t85.5 -35q29 0 61 21v-166z" />
    <glyph glyph-name="iogonek" unicode="&#x12f;" horiz-adv-x="360" 
d="M299 -385q-27 -8 -61 -8q-113 0 -193 80t-80 192q0 74 37.5 137t99.5 97v1034h170v-1147h-39q-47 -2 -80.5 -37t-33.5 -84t34.5 -84t84.5 -35q30 0 61 21v-166z" />
    <glyph glyph-name="Idotaccent" unicode="&#x130;" horiz-adv-x="333" 
d="M82 0v1434h170v-1434h-170zM82 1556v205h170v-205h-170z" />
    <glyph glyph-name="dotlessi" unicode="&#x131;" horiz-adv-x="333" 
d="M82 0v1147h170v-1147h-170z" />
    <glyph glyph-name="IJ" unicode="&#x132;" horiz-adv-x="968" 
d="M82 0v1434h170v-1434h-170zM375 -20v170h102q100 0 170 69.5t70 169.5v875h-342v170h512v-1045q0 -169 -120.5 -289t-289.5 -120h-102z" />
    <glyph glyph-name="ij" unicode="&#x133;" horiz-adv-x="845" 
d="M82 0v1147h170v-1147h-170zM354 -16v170h82q66 0 112 45.5t46 111.5v666h-240v170h410v-836q0 -135 -96.5 -231t-231.5 -96h-82z" />
    <glyph glyph-name="Jcircumflex" unicode="&#x134;" horiz-adv-x="634" 
d="M41 -20v170h102q100 0 170 69.5t70 169.5v875h-342v170h512v-1045q0 -169 -120.5 -289t-289.5 -120h-102zM6 1536l205 307h170l205 -307h-170l-119 186l-121 -186h-170z" />
    <glyph glyph-name="jcircumflex" unicode="&#x135;" horiz-adv-x="532" 
d="M41 -16v170h82q66 0 112 45.5t46 111.5v666h-240v170h410v-836q0 -135 -96.5 -231t-231.5 -96h-82zM-29 1249l205 307h170l205 -307h-170l-119 187l-121 -187h-170z" />
    <glyph glyph-name="Kcommaaccent" unicode="&#x136;" horiz-adv-x="983" 
d="M82 0v1434h170v-633h240q99 0 169 70t70 169v394h170v-394q0 -103 -51 -187.5t-129 -135.5q78 -51 129 -136.5t51 -189.5v-391h-170v391q0 100 -69.5 170t-169.5 70h-240v-631h-170zM406 -483v374h169l-32 -374h-137z" />
    <glyph glyph-name="kcommaaccent" unicode="&#x137;" 
d="M82 0v1147h170v-490h158q66 0 111.5 46.5t45.5 111.5v332h170v-332q0 -144 -127 -242q127 -98 127 -243v-330h-170v330q0 66 -45.5 111.5t-111.5 45.5h-158v-487h-170zM324 -483v374h170l-33 -374h-137z" />
    <glyph glyph-name="kgreenlandic" unicode="&#x138;" 
d="M82 0v1147h170v-490h158q66 0 111.5 46.5t45.5 111.5v332h170v-332q0 -144 -127 -242q127 -98 127 -243v-330h-170v330q0 66 -45.5 111.5t-111.5 45.5h-158v-487h-170z" />
    <glyph glyph-name="Lacute" unicode="&#x139;" 
d="M82 0v1434h170v-1264h547v-170h-717zM61 1536l205 307h170l-205 -307h-170z" />
    <glyph glyph-name="lacute" unicode="&#x13a;" horiz-adv-x="675" 
d="M82 0v1147h170v-977h403v-170h-573zM61 1249l205 307h170l-205 -307h-170z" />
    <glyph glyph-name="Lcommaaccent" unicode="&#x13b;" 
d="M82 0v1434h170v-1264h547v-170h-717zM344 -483v374h170l-33 -374h-137z" />
    <glyph glyph-name="lcommaaccent" unicode="&#x13c;" horiz-adv-x="675" 
d="M82 0v1147h170v-977h403v-170h-573zM283 -483v374h170l-33 -374h-137z" />
    <glyph glyph-name="Lcaron" unicode="&#x13d;" 
d="M82 0v1434h170v-1264h547v-170h-717zM375 1059v375h170l-35 -375h-135z" />
    <glyph glyph-name="lcaron" unicode="&#x13e;" horiz-adv-x="675" 
d="M82 0v1147h170v-977h403v-170h-573zM375 772v375h170l-35 -375h-135z" />
    <glyph glyph-name="Ldot" unicode="&#x13f;" 
d="M82 0v1434h170v-1264h547v-170h-717zM389 631v170h170v-170h-170z" />
    <glyph glyph-name="ldot" unicode="&#x140;" horiz-adv-x="675" 
d="M82 0v1147h170v-977h403v-170h-573zM369 487v170h170v-170h-170z" />
    <glyph glyph-name="Lslash" unicode="&#x141;" horiz-adv-x="901" 
d="M20 528v170l144 60v676h170v-605l164 72v-170l-164 -72v-489h547v-170h-717v588z" />
    <glyph glyph-name="lslash" unicode="&#x142;" horiz-adv-x="757" 
d="M164 0v465l-144 -59v169l144 60v512h170v-440l164 71v-170l-164 -71v-367h403v-170h-573z" />
    <glyph glyph-name="Nacute" unicode="&#x143;" horiz-adv-x="983" 
d="M82 0v1044q0 169 120.5 289.5t289.5 120.5t289 -120.5t120 -289.5v-1044h-170v1044q0 100 -69.5 170t-169.5 70t-170 -70t-70 -170v-1044h-170zM385 1536l205 307h170l-205 -307h-170z" />
    <glyph glyph-name="nacute" unicode="&#x144;" 
d="M82 0v836q0 135 96.5 231t231.5 96t231 -96t96 -231v-836h-170v836q0 66 -45.5 111.5t-111.5 45.5t-112 -45.5t-46 -111.5v-836h-170zM303 1249l205 307h170l-205 -307h-170z" />
    <glyph glyph-name="Ncommaaccent" unicode="&#x145;" horiz-adv-x="983" 
d="M82 0v1044q0 169 120.5 289.5t289.5 120.5t289 -120.5t120 -289.5v-1044h-170v1044q0 100 -69.5 170t-169.5 70t-170 -70t-70 -170v-1044h-170zM406 -483v374h169l-32 -374h-137z" />
    <glyph glyph-name="ncommaaccent" unicode="&#x146;" 
d="M82 0v836q0 135 96.5 231t231.5 96t231 -96t96 -231v-836h-170v836q0 66 -45.5 111.5t-111.5 45.5t-112 -45.5t-46 -111.5v-836h-170zM324 -483v374h170l-33 -374h-137z" />
    <glyph glyph-name="Ncaron" unicode="&#x147;" horiz-adv-x="983" 
d="M82 0v1044q0 169 120.5 289.5t289.5 120.5t289 -120.5t120 -289.5v-1044h-170v1044q0 100 -69.5 170t-169.5 70t-170 -70t-70 -170v-1044h-170zM406 1536l-205 307h170l121 -186l118 186h170l-205 -307h-169z" />
    <glyph glyph-name="ncaron" unicode="&#x148;" 
d="M82 0v836q0 135 96.5 231t231.5 96t231 -96t96 -231v-836h-170v836q0 66 -45.5 111.5t-111.5 45.5t-112 -45.5t-46 -111.5v-836h-170zM324 1249l-205 307h170l121 -186l118 186h170l-204 -307h-170z" />
    <glyph glyph-name="napostrophe" unicode="&#x149;" 
d="M82 0v836q0 135 96.5 231t231.5 96t231 -96t96 -231v-836h-170v836q0 66 -45.5 111.5t-111.5 45.5t-112 -45.5t-46 -111.5v-836h-170zM82 1214v322h156l-21 -322h-135z" />
    <glyph glyph-name="Eng" unicode="&#x14a;" horiz-adv-x="983" 
d="M389 -451v170h103q100 0 169.5 70t69.5 170v1085q0 100 -69.5 170t-169.5 70t-170 -70t-70 -170v-1044h-170v1044q0 169 120.5 289.5t289.5 120.5t289 -120.5t120 -289.5v-1085q0 -169 -120 -289.5t-289 -120.5h-103z" />
    <glyph glyph-name="eng" unicode="&#x14b;" 
d="M328 -369v170h82q66 0 111.5 46t45.5 112v877q0 66 -45.5 111.5t-111.5 45.5t-112 -45.5t-46 -111.5v-836h-170v836q0 135 96.5 231t231.5 96t231 -96t96 -231v-877q0 -135 -96 -231.5t-231 -96.5h-82z" />
    <glyph glyph-name="Omacron" unicode="&#x14c;" horiz-adv-x="983" 
d="M492 -20q-169 0 -289.5 120t-120.5 289v655q0 169 120.5 289.5t289.5 120.5t289 -120.5t120 -289.5v-655q0 -169 -120 -289t-289 -120zM492 150q100 0 169.5 69.5t69.5 169.5v655q0 100 -69.5 170t-169.5 70t-170 -70t-70 -170v-655q0 -100 70 -169.5t170 -69.5z
M231 1618v154h521v-154h-521z" />
    <glyph glyph-name="omacron" unicode="&#x14d;" 
d="M410 -16q-135 0 -231.5 96t-96.5 231v525q0 135 96.5 231t231.5 96t231 -96t96 -231v-525q0 -135 -96 -231t-231 -96zM410 154q66 0 111.5 45.5t45.5 111.5v525q0 66 -45.5 111.5t-111.5 45.5t-112 -45.5t-46 -111.5v-525q0 -66 46 -111.5t112 -45.5zM150 1331v154h520
v-154h-520z" />
    <glyph glyph-name="Obreve" unicode="&#x14e;" horiz-adv-x="983" 
d="M492 -20q-169 0 -289.5 120t-120.5 289v655q0 169 120.5 289.5t289.5 120.5t289 -120.5t120 -289.5v-655q0 -169 -120 -289t-289 -120zM492 150q100 0 169.5 69.5t69.5 169.5v655q0 100 -69.5 170t-169.5 70t-170 -70t-70 -170v-655q0 -100 70 -169.5t170 -69.5z
M240 1796h151q0 -41 29 -70.5t72 -29.5t70.5 29.5t27.5 70.5h153q0 -108 -73.5 -181t-177.5 -73t-178 73t-74 181z" />
    <glyph glyph-name="obreve" unicode="&#x14f;" 
d="M410 -16q-135 0 -231.5 96t-96.5 231v525q0 135 96.5 231t231.5 96t231 -96t96 -231v-525q0 -135 -96 -231t-231 -96zM410 154q66 0 111.5 45.5t45.5 111.5v525q0 66 -45.5 111.5t-111.5 45.5t-112 -45.5t-46 -111.5v-525q0 -66 46 -111.5t112 -45.5zM158 1509h151
q0 -41 29 -70.5t72 -29.5t70.5 29.5t27.5 70.5h154q0 -108 -74 -181t-178 -73t-178 73t-74 181z" />
    <glyph glyph-name="Ohungarumlaut" unicode="&#x150;" horiz-adv-x="983" 
d="M492 -20q-169 0 -289.5 120t-120.5 289v655q0 169 120.5 289.5t289.5 120.5t289 -120.5t120 -289.5v-655q0 -169 -120 -289t-289 -120zM492 150q100 0 169.5 69.5t69.5 169.5v655q0 100 -69.5 170t-169.5 70t-170 -70t-70 -170v-655q0 -100 70 -169.5t170 -69.5z
M537 1550l194 293h170l-194 -293h-170zM233 1550l195 293h170l-195 -293h-170z" />
    <glyph glyph-name="ohungarumlaut" unicode="&#x151;" 
d="M410 -16q-135 0 -231.5 96t-96.5 231v525q0 135 96.5 231t231.5 96t231 -96t96 -231v-525q0 -135 -96 -231t-231 -96zM410 154q66 0 111.5 45.5t45.5 111.5v525q0 66 -45.5 111.5t-111.5 45.5t-112 -45.5t-46 -111.5v-525q0 -66 46 -111.5t112 -45.5zM455 1264l194 292
h170l-194 -292h-170zM152 1264l194 292h170l-194 -292h-170z" />
    <glyph glyph-name="OE" unicode="&#x152;" horiz-adv-x="1488" 
d="M901 1264v-463h506v-170h-506v-461h547v-170h-717v63q-107 -83 -239 -83q-169 0 -289.5 120t-120.5 289v655q0 169 120.5 289.5t289.5 120.5q132 0 239 -86v66h717v-170h-547zM731 389v655q0 100 -70.5 170t-168.5 70q-100 0 -170 -70t-70 -170v-655q0 -100 70 -169.5
t170 -69.5t169.5 69.5t69.5 169.5z" />
    <glyph glyph-name="oe" unicode="&#x153;" horiz-adv-x="1181" 
d="M567 0v31q-68 -47 -157 -47q-135 0 -231.5 96t-96.5 231v525q0 135 96.5 231t231.5 96q89 0 157 -47v31h574v-170h-404v-320h371v-170h-371v-317h404v-170h-574zM410 154q64 0 110.5 46t46.5 111v525q0 65 -46.5 111t-110.5 46t-111 -46t-47 -111v-525q0 -66 46.5 -111.5
t111.5 -45.5z" />
    <glyph glyph-name="Racute" unicode="&#x154;" horiz-adv-x="962" 
d="M82 0v1434h416q167 0 285 -118.5t118 -281.5q0 -103 -47 -185.5t-127 -137.5q154 -115 154 -308v-403h-170v403q0 95 -62.5 161.5t-156.5 66.5h-240v-631h-170zM252 801h246q96 0 164.5 67t68.5 166q0 93 -68 161.5t-165 68.5h-246v-463zM365 1536l204 307h170l-204 -307
h-170z" />
    <glyph glyph-name="racute" unicode="&#x155;" horiz-adv-x="798" 
d="M82 0v1147h328q135 0 231 -97t96 -231q0 -150 -127 -252q107 -101 107 -229v-338h-170v338q0 60 -43.5 104.5t-108.5 44.5h-143v-487h-170zM252 657h158q66 0 111.5 47t45.5 115q0 63 -46 110.5t-111 47.5h-158v-320zM283 1249l204 307h170l-204 -307h-170z" />
    <glyph glyph-name="Rcommaaccent" unicode="&#x156;" horiz-adv-x="962" 
d="M82 0v1434h416q167 0 285 -118.5t118 -281.5q0 -103 -47 -185.5t-127 -137.5q154 -115 154 -308v-403h-170v403q0 95 -62.5 161.5t-156.5 66.5h-240v-631h-170zM252 801h246q96 0 164.5 67t68.5 166q0 93 -68 161.5t-165 68.5h-246v-463zM395 -483v374h170l-33 -374h-137
z" />
    <glyph glyph-name="rcommaaccent" unicode="&#x157;" horiz-adv-x="798" 
d="M82 0v1147h328q135 0 231 -97t96 -231q0 -150 -127 -252q107 -101 107 -229v-338h-170v338q0 60 -43.5 104.5t-108.5 44.5h-143v-487h-170zM252 657h158q66 0 111.5 47t45.5 115q0 63 -46 110.5t-111 47.5h-158v-320zM313 -483v374h170l-32 -374h-138z" />
    <glyph glyph-name="Rcaron" unicode="&#x158;" horiz-adv-x="962" 
d="M82 0v1434h416q167 0 285 -118.5t118 -281.5q0 -103 -47 -185.5t-127 -137.5q154 -115 154 -308v-403h-170v403q0 95 -62.5 161.5t-156.5 66.5h-240v-631h-170zM252 801h246q96 0 164.5 67t68.5 166q0 93 -68 161.5t-165 68.5h-246v-463zM385 1536l-205 307h170l121 -186
l119 186h170l-205 -307h-170z" />
    <glyph glyph-name="rcaron" unicode="&#x159;" horiz-adv-x="798" 
d="M82 0v1147h328q135 0 231 -97t96 -231q0 -150 -127 -252q107 -101 107 -229v-338h-170v338q0 60 -43.5 104.5t-108.5 44.5h-143v-487h-170zM252 657h158q66 0 111.5 47t45.5 115q0 63 -46 110.5t-111 47.5h-158v-320zM303 1249l-205 307h170l121 -186l119 186h170
l-205 -307h-170z" />
    <glyph glyph-name="Sacute" unicode="&#x15a;" horiz-adv-x="942" 
d="M61 410h170v-21q0 -100 70 -169.5t170 -69.5t170 69.5t70 169.5q0 102 -65 164t-175 76q-197 24 -303.5 134.5t-106.5 280.5q0 169 120.5 289.5t289.5 120.5t289.5 -120.5t120.5 -289.5v-20h-170v20q0 100 -70 170t-170 70t-170 -70t-70 -170q0 -103 64.5 -164t175.5 -75
q197 -24 303.5 -135t106.5 -281q0 -169 -120.5 -289t-289.5 -120t-289.5 120t-120.5 289v21zM365 1536l204 307h170l-204 -307h-170z" />
    <glyph glyph-name="sacute" unicode="&#x15b;" horiz-adv-x="778" 
d="M285 1249l204 307h170l-204 -307h-170zM61 328h170v-17q0 -66 46 -111.5t112 -45.5q64 0 111 46t47 126q0 133 -158 159q-328 60 -328 336q0 155 98 248.5t230 93.5q135 0 231.5 -96t96.5 -231v-17h-170v17q0 66 -46.5 111.5t-113.5 45.5q-64 0 -110 -45.5t-46 -126.5
q0 -134 158 -159q328 -60 328 -336q0 -155 -98 -248.5t-230 -93.5q-135 0 -231.5 96t-96.5 231v17z" />
    <glyph glyph-name="Scircumflex" unicode="&#x15c;" horiz-adv-x="942" 
d="M61 410h170v-21q0 -100 70 -169.5t170 -69.5t170 69.5t70 169.5q0 102 -65 164t-175 76q-197 24 -303.5 134.5t-106.5 280.5q0 169 120.5 289.5t289.5 120.5t289.5 -120.5t120.5 -289.5v-20h-170v20q0 100 -70 170t-170 70t-170 -70t-70 -170q0 -103 64.5 -164t175.5 -75
q197 -24 303.5 -135t106.5 -281q0 -169 -120.5 -289t-289.5 -120t-289.5 120t-120.5 289v21zM180 1536l205 307h170l205 -307h-170l-119 186l-121 -186h-170z" />
    <glyph glyph-name="scircumflex" unicode="&#x15d;" horiz-adv-x="778" 
d="M98 1249l205 307h170l205 -307h-170l-119 187l-121 -187h-170zM61 328h170v-17q0 -66 46 -111.5t112 -45.5q64 0 111 46t47 126q0 133 -158 159q-328 60 -328 336q0 155 98 248.5t230 93.5q135 0 231.5 -96t96.5 -231v-17h-170v17q0 66 -46.5 111.5t-113.5 45.5
q-64 0 -110 -45.5t-46 -126.5q0 -134 158 -159q328 -60 328 -336q0 -155 -98 -248.5t-230 -93.5q-135 0 -231.5 96t-96.5 231v17z" />
    <glyph glyph-name="Scedilla" unicode="&#x15e;" horiz-adv-x="942" 
d="M279 -330l110 111q35 -35 82 -35q48 0 82.5 34t34.5 83t-34 83t-83 34q-169 0 -289.5 120t-120.5 289v21h170v-21q0 -100 70 -169.5t170 -69.5q99 0 169.5 70t70.5 169q0 102 -65 164t-175 76q-197 24 -303.5 134.5t-106.5 280.5q0 169 120.5 289.5t289.5 120.5
t289.5 -120.5t120.5 -289.5v-20h-170v20q0 100 -70 170t-170 70t-170 -70t-70 -170q0 -103 64.5 -164t175.5 -75q197 -24 303.5 -135t106.5 -281q0 -110 -55 -203.5t-148 -148.5q65 -71 65 -174q0 -114 -79.5 -193.5t-192.5 -79.5q-115 0 -192 80z" />
    <glyph glyph-name="scedilla" unicode="&#x15f;" horiz-adv-x="778" 
d="M199 -324l108 109q30 -35 82 -35q49 0 83 34t34 83t-34 83t-83 34q-135 0 -231.5 96t-96.5 231v17h170v-17q0 -66 46 -111.5t112 -45.5q64 0 111 46t47 126q0 133 -158 159q-328 60 -328 336q0 155 98 248.5t230 93.5q135 0 231.5 -96t96.5 -231v-17h-170v17
q0 66 -46.5 111.5t-113.5 45.5q-64 0 -110 -45.5t-46 -126.5q0 -134 158 -159q328 -60 328 -336q0 -181 -131 -277q71 -81 71 -182q0 -112 -79.5 -191t-188.5 -79q-114 0 -190 79z" />
    <glyph glyph-name="Scaron" unicode="&#x160;" horiz-adv-x="942" 
d="M61 410h170v-21q0 -100 70 -169.5t170 -69.5t170 69.5t70 169.5q0 102 -65 164t-175 76q-197 24 -303.5 134.5t-106.5 280.5q0 169 120.5 289.5t289.5 120.5t289.5 -120.5t120.5 -289.5v-20h-170v20q0 100 -70 170t-170 70t-170 -70t-70 -170q0 -103 64.5 -164t175.5 -75
q197 -24 303.5 -135t106.5 -281q0 -169 -120.5 -289t-289.5 -120t-289.5 120t-120.5 289v21zM385 1536l-205 307h170l121 -186l119 186h170l-205 -307h-170z" />
    <glyph glyph-name="scaron" unicode="&#x161;" horiz-adv-x="778" 
d="M303 1249l-205 307h170l121 -186l119 186h170l-205 -307h-170zM61 328h170v-17q0 -66 46 -111.5t112 -45.5q64 0 111 46t47 126q0 133 -158 159q-328 60 -328 336q0 155 98 248.5t230 93.5q135 0 231.5 -96t96.5 -231v-17h-170v17q0 66 -46.5 111.5t-113.5 45.5
q-64 0 -110 -45.5t-46 -126.5q0 -134 158 -159q328 -60 328 -336q0 -155 -98 -248.5t-230 -93.5q-135 0 -231.5 96t-96.5 231v17z" />
    <glyph glyph-name="Tcommaaccent" unicode="&#x162;" horiz-adv-x="860" 
d="M344 0v1264h-324v170h820v-170h-326v-1264h-170zM344 -483v374h170l-33 -374h-137z" />
    <glyph glyph-name="tcommaaccent" unicode="&#x163;" horiz-adv-x="716" 
d="M272 0v977h-241v170h655v-170h-244v-977h-170zM272 -483v374h170l-32 -374h-138z" />
    <glyph glyph-name="Tcaron" unicode="&#x164;" horiz-adv-x="860" 
d="M344 0v1264h-324v170h820v-170h-326v-1264h-170zM344 1536l-205 307h170l121 -186l119 186h170l-205 -307h-170z" />
    <glyph glyph-name="tcaron" unicode="&#x165;" horiz-adv-x="716" 
d="M272 0v977h-241v170h655v-170h-244v-977h-170zM272 1249l-204 307h170l120 -186l119 186h170l-205 -307h-170z" />
    <glyph glyph-name="Tbar" unicode="&#x166;" horiz-adv-x="860" 
d="M123 631v170h221v463h-324v170h820v-170h-326v-463h223v-170h-223v-631h-170v631h-221z" />
    <glyph glyph-name="tbar" unicode="&#x167;" horiz-adv-x="716" 
d="M102 487v170h170v320h-241v170h655v-170h-244v-320h172v-170h-172v-487h-170v487h-170z" />
    <glyph glyph-name="Utilde" unicode="&#x168;" horiz-adv-x="983" 
d="M492 -20q-169 0 -289.5 120t-120.5 289v1045h170v-1045q0 -100 70 -169.5t170 -69.5t169.5 69.5t69.5 169.5v1045h170v-1045q0 -169 -120 -289t-289 -120zM190 1638q0 78 57 134.5t136 56.5q34 0 64.5 -14.5t52 -35.5t40.5 -42.5t39 -36t39 -14.5q22 0 38 16.5t16 38.5
h121q0 -78 -57 -134.5t-136 -56.5q-34 0 -64.5 15t-52 36t-40.5 42t-39 36t-39 15q-22 0 -39 -17t-17 -39h-119z" />
    <glyph glyph-name="utilde" unicode="&#x169;" 
d="M410 -16q-135 0 -231.5 96t-96.5 231v836h170v-836q0 -66 46 -111.5t112 -45.5t111.5 45.5t45.5 111.5v836h170v-836q0 -135 -96 -231t-231 -96zM109 1352q0 78 56.5 134t135.5 56q42 0 79 -22.5t59 -49t48.5 -49t49.5 -22.5q22 0 37.5 16.5t15.5 38.5h121
q0 -78 -57 -134t-136 -56q-34 0 -64.5 14.5t-52 36t-40.5 42.5t-39 35.5t-39 14.5q-22 0 -39 -16.5t-17 -38.5h-118z" />
    <glyph glyph-name="Umacron" unicode="&#x16a;" horiz-adv-x="983" 
d="M492 -20q-169 0 -289.5 120t-120.5 289v1045h170v-1045q0 -100 70 -169.5t170 -69.5t169.5 69.5t69.5 169.5v1045h170v-1045q0 -169 -120 -289t-289 -120zM231 1618v154h521v-154h-521z" />
    <glyph glyph-name="umacron" unicode="&#x16b;" 
d="M410 -16q-135 0 -231.5 96t-96.5 231v836h170v-836q0 -66 46 -111.5t112 -45.5t111.5 45.5t45.5 111.5v836h170v-836q0 -135 -96 -231t-231 -96zM150 1331v154h520v-154h-520z" />
    <glyph glyph-name="Ubreve" unicode="&#x16c;" horiz-adv-x="983" 
d="M492 -20q-169 0 -289.5 120t-120.5 289v1045h170v-1045q0 -100 70 -169.5t170 -69.5t169.5 69.5t69.5 169.5v1045h170v-1045q0 -169 -120 -289t-289 -120zM240 1796h151q0 -41 29 -70.5t72 -29.5t70.5 29.5t27.5 70.5h153q0 -108 -73.5 -181t-177.5 -73t-178 73t-74 181z
" />
    <glyph glyph-name="ubreve" unicode="&#x16d;" 
d="M410 -16q-135 0 -231.5 96t-96.5 231v836h170v-836q0 -66 46 -111.5t112 -45.5t111.5 45.5t45.5 111.5v836h170v-836q0 -135 -96 -231t-231 -96zM158 1509h151q0 -41 29 -70.5t72 -29.5t70.5 29.5t27.5 70.5h154q0 -108 -74 -181t-178 -73t-178 73t-74 181z" />
    <glyph glyph-name="Uring" unicode="&#x16e;" horiz-adv-x="983" 
d="M492 -20q-169 0 -289.5 120t-120.5 289v1045h170v-1045q0 -100 70 -169.5t170 -69.5t169.5 69.5t69.5 169.5v1045h170v-1045q0 -169 -120 -289t-289 -120zM416 1741q0 -32 22 -54t54 -22t53.5 22t21.5 54t-21.5 54t-53.5 22t-54 -22t-22 -54zM293 1741q0 82 58.5 140
t140.5 58t140 -58t58 -140t-58 -140.5t-140 -58.5t-140.5 58.5t-58.5 140.5z" />
    <glyph glyph-name="uring" unicode="&#x16f;" 
d="M410 -16q-135 0 -231.5 96t-96.5 231v836h170v-836q0 -66 46 -111.5t112 -45.5t111.5 45.5t45.5 111.5v836h170v-836q0 -135 -96 -231t-231 -96zM334 1454q0 -32 22 -54t54 -22t53.5 22t21.5 54t-21.5 54t-53.5 22t-54 -22t-22 -54zM211 1454q0 82 58.5 140.5t140.5 58.5
t140 -58.5t58 -140.5t-58 -140.5t-140 -58.5t-140.5 58.5t-58.5 140.5z" />
    <glyph glyph-name="Uhungarumlaut" unicode="&#x170;" horiz-adv-x="983" 
d="M492 -20q-169 0 -289.5 120t-120.5 289v1045h170v-1045q0 -100 70 -169.5t170 -69.5t169.5 69.5t69.5 169.5v1045h170v-1045q0 -169 -120 -289t-289 -120zM537 1550l194 293h170l-194 -293h-170zM233 1550l195 293h170l-195 -293h-170z" />
    <glyph glyph-name="uhungarumlaut" unicode="&#x171;" 
d="M410 -16q-135 0 -231.5 96t-96.5 231v836h170v-836q0 -66 46 -111.5t112 -45.5t111.5 45.5t45.5 111.5v836h170v-836q0 -135 -96 -231t-231 -96zM465 1264l194 292h170l-194 -292h-170zM162 1264l194 292h170l-194 -292h-170z" />
    <glyph glyph-name="Uogonek" unicode="&#x172;" horiz-adv-x="983" 
d="M553 -406q-27 -8 -61 -8q-112 0 -192.5 80t-80.5 193q0 104 68 178q-94 53 -149.5 146.5t-55.5 205.5v1045h170v-1045q0 -100 70 -169.5t170 -69.5t169.5 69.5t69.5 169.5v1045h170v-1045q0 -169 -120 -289t-289 -120q-50 0 -85.5 -35t-35.5 -86q0 -49 35.5 -84t85.5 -35
q31 0 61 20v-166z" />
    <glyph glyph-name="uogonek" unicode="&#x173;" 
d="M471 -401q-30 -9 -61 -9q-112 0 -192.5 80t-80.5 193q0 115 76 188q-61 43 -96 112t-35 148v836h170v-836q0 -66 46 -111.5t112 -45.5t111.5 45.5t45.5 111.5v836h170v-836q0 -135 -96 -231t-231 -96q-50 0 -85.5 -35t-35.5 -86q0 -49 35.5 -84t85.5 -35q31 0 61 20v-165
z" />
    <glyph glyph-name="Wcircumflex" unicode="&#x174;" horiz-adv-x="1632" 
d="M406 0q-13 14 -35 40t-78 112t-98.5 177.5t-77.5 231.5t-35 279v594h170v-533q0 -377 240 -735q239 345 239 735v533h170v-533q0 -377 240 -735q239 345 239 735v533h170v-594q0 -102 -18 -203t-46.5 -181.5t-63 -154.5t-68.5 -127.5t-62.5 -93.5t-46.5 -60l-18 -20h-172
q-6 7 -17 21t-42 58t-59 91t-62.5 118t-59.5 140q-38 -110 -97.5 -217t-99.5 -159l-40 -52h-172zM526 1536l205 307h170l205 -307h-170l-121 186l-119 -186h-170z" />
    <glyph glyph-name="wcircumflex" unicode="&#x175;" horiz-adv-x="1304" 
d="M326 0q-10 11 -26.5 30.5t-58.5 85.5t-74 137t-58.5 180t-26.5 218v496h170v-426q0 -318 158 -551q157 226 157 551v426h170v-426q0 -318 158 -551q158 227 158 551v426h170v-496q0 -109 -25 -216.5t-61 -182.5t-72 -134.5t-61 -88.5l-25 -29h-168q-94 127 -160 285
q-28 -70 -67.5 -141.5t-64.5 -107.5l-25 -36h-168zM362 1249l205 307h170l205 -307h-170l-121 187l-119 -187h-170z" />
    <glyph glyph-name="Ycircumflex" unicode="&#x176;" horiz-adv-x="962" 
d="M395 0v582q-140 31 -231.5 143t-91.5 258v451h170v-451q0 -100 69.5 -170t169.5 -70t170 70t70 170v451h170v-451q0 -146 -92.5 -258t-233.5 -143v-582h-170zM190 1536l205 307h170l205 -307h-170l-119 186l-121 -186h-170z" />
    <glyph glyph-name="ycircumflex" unicode="&#x177;" horiz-adv-x="798" 
d="M313 0v469q-106 30 -173.5 117t-67.5 200v361h170v-361q0 -66 45.5 -111.5t111.5 -45.5t112 45.5t46 111.5v361h170v-361q0 -113 -68.5 -200t-175.5 -117v-469h-170zM109 1249l204 307h170l205 -307h-170l-119 187l-120 -187h-170z" />
    <glyph glyph-name="Ydieresis" unicode="&#x178;" horiz-adv-x="962" 
d="M395 0v582q-140 31 -231.5 143t-91.5 258v451h170v-451q0 -100 69.5 -170t169.5 -70t170 70t70 170v451h170v-451q0 -146 -92.5 -258t-233.5 -143v-582h-170zM244 1563v170h170v-170h-170zM549 1563v170h170v-170h-170z" />
    <glyph glyph-name="Zacute" unicode="&#x179;" horiz-adv-x="839" 
d="M41 0v170q0 88 23 170t66.5 153t80.5 118.5t90 105.5q14 15 56 58t64 67.5t59.5 68.5t59 80t45 82t34 94t10.5 97h-588v170h758v-170q0 -88 -23 -170t-66.5 -153t-80.5 -118.5t-90 -105.5q-14 -15 -56 -58t-64 -67.5t-59.5 -68.5t-59 -80t-45 -82t-34 -94t-10.5 -97h588
v-170h-758zM313 1536l205 307h170l-205 -307h-170z" />
    <glyph glyph-name="zacute" unicode="&#x17a;" horiz-adv-x="704" 
d="M49 0v170q0 70 14.5 130t45.5 111t56 83t68 79q18 19 61 61t69.5 71.5t58.5 73.5t47.5 93.5t15.5 104.5h-436v170h606v-170q0 -70 -14.5 -130t-45 -111.5t-56 -83.5t-68.5 -79q-17 -19 -50.5 -51.5t-57 -56t-53 -59.5t-48 -69t-31 -77t-12.5 -90h436v-170h-606zM242 1249
l204 307h170l-204 -307h-170z" />
    <glyph glyph-name="Zdotaccent" unicode="&#x17b;" horiz-adv-x="839" 
d="M41 0v170q0 88 23 170t66.5 153t80.5 118.5t90 105.5q14 15 56 58t64 67.5t59.5 68.5t59 80t45 82t34 94t10.5 97h-588v170h758v-170q0 -88 -23 -170t-66.5 -153t-80.5 -118.5t-90 -105.5q-14 -15 -56 -58t-64 -67.5t-59.5 -68.5t-59 -80t-45 -82t-34 -94t-10.5 -97h588
v-170h-758zM334 1556v205h170v-205h-170z" />
    <glyph glyph-name="zdotaccent" unicode="&#x17c;" horiz-adv-x="704" 
d="M49 0v170q0 70 14.5 130t45.5 111t56 83t68 79q18 19 61 61t69.5 71.5t58.5 73.5t47.5 93.5t15.5 104.5h-436v170h606v-170q0 -70 -14.5 -130t-45 -111.5t-56 -83.5t-68.5 -79q-17 -19 -50.5 -51.5t-57 -56t-53 -59.5t-48 -69t-31 -77t-12.5 -90h436v-170h-606zM272 1270
v205h170v-205h-170z" />
    <glyph glyph-name="Zcaron" unicode="&#x17d;" horiz-adv-x="839" 
d="M41 0v170q0 88 23 170t66.5 153t80.5 118.5t90 105.5q14 15 56 58t64 67.5t59.5 68.5t59 80t45 82t34 94t10.5 97h-588v170h758v-170q0 -88 -23 -170t-66.5 -153t-80.5 -118.5t-90 -105.5q-14 -15 -56 -58t-64 -67.5t-59.5 -68.5t-59 -80t-45 -82t-34 -94t-10.5 -97h588
v-170h-758zM334 1536l-205 307h170l121 -186l119 186h170l-205 -307h-170z" />
    <glyph glyph-name="zcaron" unicode="&#x17e;" horiz-adv-x="647" 
d="M20 0v170q0 70 14.5 130t46 111t56 83t68.5 79q18 19 61 61t69.5 71.5t58.5 73.5t47.5 93.5t15.5 104.5h-437v170h607v-170q0 -70 -14.5 -130t-45.5 -111.5t-56.5 -83.5t-68.5 -79q-17 -19 -50.5 -51.5t-57 -56t-53 -59.5t-48 -69t-31 -77t-12.5 -90h437v-170h-607z
M238 1249l-205 307h170l121 -186l118 186h170l-204 -307h-170z" />
    <glyph glyph-name="florin" unicode="&#x192;" horiz-adv-x="794" 
d="M0 -205l16 170h88q59 0 103.5 40.5t50.5 96.5l61 529h-176l19 170h178l37 325q14 124 114 216t228 92h76l-17 -170h-78q-59 0 -103 -40.5t-50 -97.5l-37 -325h203l-19 -170h-205l-61 -529q-14 -124 -113 -215.5t-227 -91.5h-88z" />
    <glyph glyph-name="Scommaaccent" unicode="&#x218;" horiz-adv-x="942" 
d="M61 410h170v-21q0 -100 70 -169.5t170 -69.5t170 69.5t70 169.5q0 102 -65 164t-175 76q-197 24 -303.5 134.5t-106.5 280.5q0 169 120.5 289.5t289.5 120.5t289.5 -120.5t120.5 -289.5v-20h-170v20q0 100 -70 170t-170 70t-170 -70t-70 -170q0 -103 64.5 -164t175.5 -75
q197 -24 303.5 -135t106.5 -281q0 -169 -120.5 -289t-289.5 -120t-289.5 120t-120.5 289v21zM385 -483v374h170l-33 -374h-137z" />
    <glyph glyph-name="scommaaccent" unicode="&#x219;" horiz-adv-x="778" 
d="M305 -483v374h170l-33 -374h-137zM61 328h170v-17q0 -66 46 -111.5t112 -45.5q64 0 111 46t47 126q0 133 -158 159q-328 60 -328 336q0 155 98 248.5t230 93.5q135 0 231.5 -96t96.5 -231v-17h-170v17q0 66 -46.5 111.5t-113.5 45.5q-64 0 -110 -45.5t-46 -126.5
q0 -134 158 -159q328 -60 328 -336q0 -155 -98 -248.5t-230 -93.5q-135 0 -231.5 96t-96.5 231v17z" />
    <glyph glyph-name="circumflex" unicode="&#x2c6;" horiz-adv-x="702" 
d="M61 1249l205 307h170l205 -307h-170l-121 187l-119 -187h-170z" />
    <glyph glyph-name="caron" unicode="&#x2c7;" horiz-adv-x="702" 
d="M266 1249l-205 307h170l119 -186l121 186h170l-205 -307h-170z" />
    <glyph glyph-name="breve" unicode="&#x2d8;" horiz-adv-x="626" 
d="M61 1509h154q0 -41 27.5 -70.5t70.5 -29.5t72 29.5t29 70.5h151q0 -108 -74 -181t-178 -73t-178 73t-74 181z" />
    <glyph glyph-name="dotaccent" unicode="&#x2d9;" horiz-adv-x="292" 
d="M61 1270v205h170v-205h-170z" />
    <glyph glyph-name="ring" unicode="&#x2da;" horiz-adv-x="518" 
d="M184 1454q0 -32 22 -54t54 -22q31 0 52.5 22t21.5 54t-21.5 54t-52.5 22q-32 0 -54 -22t-22 -54zM61 1454q0 82 58 140.5t141 58.5q82 0 139.5 -58.5t57.5 -140.5t-57.5 -140.5t-139.5 -58.5q-83 0 -141 58.5t-58 140.5z" />
    <glyph glyph-name="ogonek" unicode="&#x2db;" horiz-adv-x="456" 
d="M395 -385q-27 -8 -61 -8q-113 0 -193 80t-80 192q0 114 80 194.5t193 80.5v-154q-50 0 -84.5 -35t-34.5 -86q0 -49 34.5 -84t84.5 -35q30 0 61 21v-166z" />
    <glyph glyph-name="tilde" unicode="&#x2dc;" horiz-adv-x="722" 
d="M61 1352q0 78 56.5 134t134.5 56q42 0 79 -22.5t59 -49t48.5 -49t48.5 -22.5t39 16.5t17 38.5h119q0 -78 -56.5 -134t-134.5 -56q-42 0 -79 22.5t-59 49t-48.5 49t-48.5 22.5t-39 -16.5t-17 -38.5h-119z" />
    <glyph glyph-name="hungarumlaut" unicode="&#x2dd;" horiz-adv-x="790" 
d="M365 1264l194 292h170l-194 -292h-170zM61 1264l195 292h170l-195 -292h-170z" />
    <glyph glyph-name="Ygrave" unicode="&#x1ef2;" horiz-adv-x="962" 
d="M395 0v582q-140 31 -231.5 143t-91.5 258v451h170v-451q0 -100 69.5 -170t169.5 -70t170 70t70 170v451h170v-451q0 -146 -92.5 -258t-233.5 -143v-582h-170zM416 1536l-205 307h170l205 -307h-170z" />
    <glyph glyph-name="ygrave" unicode="&#x1ef3;" horiz-adv-x="798" 
d="M313 0v469q-106 30 -173.5 117t-67.5 200v361h170v-361q0 -66 45.5 -111.5t111.5 -45.5t112 45.5t46 111.5v361h170v-361q0 -113 -68.5 -200t-175.5 -117v-469h-170zM334 1249l-205 307h170l205 -307h-170z" />
    <glyph glyph-name="endash" unicode="&#x2013;" horiz-adv-x="901" 
d="M41 487v170h819v-170h-819z" />
    <glyph glyph-name="emdash" unicode="&#x2014;" horiz-adv-x="1515" 
d="M41 487v170h1434v-170h-1434z" />
    <glyph glyph-name="quoteleft" unicode="&#x2018;" horiz-adv-x="292" 
d="M61 1059l35 375h135v-375h-170z" />
    <glyph glyph-name="quoteright" unicode="&#x2019;" horiz-adv-x="292" 
d="M61 1059v375h170l-34 -375h-136z" />
    <glyph glyph-name="quotesinglbase" unicode="&#x201a;" horiz-adv-x="292" 
d="M61 -205v375h170l-34 -375h-136z" />
    <glyph glyph-name="quotedblleft" unicode="&#x201c;" horiz-adv-x="585" 
d="M61 1059l35 375h135v-375h-170zM354 1059l35 375h135v-375h-170z" />
    <glyph glyph-name="quotedblright" unicode="&#x201d;" horiz-adv-x="585" 
d="M354 1059v375h170l-35 -375h-135zM61 1059v375h170l-34 -375h-136z" />
    <glyph glyph-name="quotedblbase" unicode="&#x201e;" horiz-adv-x="585" 
d="M354 -205v375h170l-35 -375h-135zM61 -205v375h170l-34 -375h-136z" />
    <glyph glyph-name="dagger" unicode="&#x2020;" horiz-adv-x="696" 
d="M262 0v854h-221v170h221v410h170v-410h223v-170h-223v-854h-170z" />
    <glyph glyph-name="daggerdbl" unicode="&#x2021;" horiz-adv-x="696" 
d="M262 0v444h-221v170h221v240h-221v170h221v410h170v-410h223v-170h-223v-240h223v-170h-223v-444h-170z" />
    <glyph glyph-name="bullet" unicode="&#x2022;" horiz-adv-x="497" 
d="M61 625q0 76 55 131t132 55q78 0 133 -54.5t55 -131.5t-55 -133t-133 -56q-76 0 -131.5 56t-55.5 133z" />
    <glyph glyph-name="ellipsis" unicode="&#x2026;" horiz-adv-x="960" 
d="M61 0v170h170v-170h-170zM395 0v170h170v-170h-170zM729 0v170h170v-170h-170z" />
    <glyph glyph-name="perthousand" unicode="&#x2030;" horiz-adv-x="1802" 
d="M1348 262q0 -54 37.5 -91.5t91.5 -37.5q55 0 93 37.5t38 91.5q0 56 -38 93.5t-93 37.5q-54 0 -91.5 -38t-37.5 -93zM1194 262q0 118 83 201.5t200 83.5q118 0 201 -83t83 -202q0 -117 -83 -199.5t-201 -82.5q-117 0 -200 82.5t-83 199.5zM698 262q0 -54 38 -91.5
t93 -37.5q54 0 91.5 37.5t37.5 91.5q0 55 -37.5 93t-91.5 38q-55 0 -93 -37.5t-38 -93.5zM545 262q0 119 83 202t201 83q117 0 200 -83.5t83 -201.5q0 -117 -83 -199.5t-200 -82.5q-118 0 -201 82.5t-83 199.5zM20 0l943 1434h170l-943 -1434h-170zM195 1171q0 -55 37.5 -93
t91.5 -38q56 0 93.5 38t37.5 93q0 54 -38 91.5t-93 37.5q-54 0 -91.5 -37.5t-37.5 -91.5zM41 1171q0 117 83 200t200 83q118 0 201 -83t83 -200q0 -119 -83 -201.5t-201 -82.5q-117 0 -200 83t-83 201z" />
    <glyph glyph-name="guilsinglleft" unicode="&#x2039;" horiz-adv-x="534" 
d="M328 0l-308 512l308 512h186l-307 -512l307 -512h-186z" />
    <glyph glyph-name="guilsinglright" unicode="&#x203a;" horiz-adv-x="534" 
d="M20 0l308 512l-308 512h187l307 -512l-307 -512h-187z" />
    <glyph glyph-name="fraction" unicode="&#x2044;" horiz-adv-x="1077" 
d="M0 0l922 1434h155l-921 -1434h-156z" />
    <glyph glyph-name="zerosuperior" unicode="&#x2070;" horiz-adv-x="532" 
d="M266 911q-85 0 -145 60t-60 145v328q0 85 60 145t145 60t145 -60t60 -145v-328q0 -85 -60 -145t-145 -60zM266 1038q32 0 55 23.5t23 54.5v328q0 31 -23 54.5t-55 23.5t-55 -23.5t-23 -54.5v-328q0 -31 23 -54.5t55 -23.5z" />
    <glyph glyph-name="foursuperior" unicode="&#x2074;" horiz-adv-x="538" 
d="M309 922v182h-268v135l233 399h162v-407h82v-127h-82v-182h-127zM174 1231h135v227z" />
    <glyph glyph-name="fivesuperior" unicode="&#x2075;" horiz-adv-x="532" 
d="M61 1126h127v-10q0 -31 23 -54.5t55 -23.5t55 23.5t23 54.5v62q0 31 -23 54t-55 23q-47 0 -65 -38h-133v421h370v-127h-243v-147q34 18 71 18q85 0 145 -59.5t60 -144.5v-62q0 -85 -60 -145t-145 -60t-145 60t-60 145v10z" />
    <glyph glyph-name="sixsuperior" unicode="&#x2076;" horiz-adv-x="532" 
d="M266 911q-85 0 -145 60t-60 145v328q0 85 60 145t145 60t145 -60t60 -145v-10h-127v10q0 32 -23 55t-55 23t-55 -23.5t-23 -54.5v-101q31 25 78 25q85 0 145 -60t60 -145v-47q0 -85 -60 -145t-145 -60zM266 1038q32 0 55 23.5t23 54.5v47q0 31 -23 53.5t-55 22.5
t-55 -22.5t-23 -53.5v-47q0 -31 23 -54.5t55 -23.5z" />
    <glyph glyph-name="sevensuperior" unicode="&#x2077;" horiz-adv-x="448" 
d="M66 922v51q0 91 22 164t54 119.5t64 86t55 81.5t24 87h-265v127h394v-127q0 -56 -16 -103.5t-40.5 -79t-53 -68.5t-53 -72t-40.5 -91t-16 -124v-51h-129z" />
    <glyph glyph-name="eightsuperior" unicode="&#x2078;" horiz-adv-x="542" 
d="M272 911q-87 0 -149 61t-62 156q0 78 74 152q-34 34 -54 75.5t-20 76.5q0 96 61.5 156.5t149.5 60.5t148.5 -60.5t60.5 -156.5q0 -36 -19 -77t-54 -75q73 -70 73 -152q0 -94 -61.5 -155.5t-147.5 -61.5zM272 1038q37 0 59.5 27t22.5 63q0 34 -23 61.5t-59 27.5
q-37 0 -60.5 -27.5t-23.5 -61.5q0 -35 23.5 -62.5t60.5 -27.5zM272 1343q36 0 59 27.5t23 61.5q0 36 -22.5 63t-59.5 27t-60.5 -27.5t-23.5 -62.5q0 -34 23.5 -61.5t60.5 -27.5z" />
    <glyph glyph-name="ninesuperior" unicode="&#x2079;" horiz-adv-x="532" 
d="M61 1126h127v-10q0 -31 23 -54.5t55 -23.5t55 23.5t23 54.5v90q-31 -22 -78 -22q-85 0 -145 58t-60 142v60q0 85 60 145t145 60t145 -60t60 -145v-328q0 -85 -60 -145t-145 -60t-145 60t-60 145v10zM266 1311q32 0 55 22t23 53v58q0 31 -23 54.5t-55 23.5t-55 -23.5
t-23 -54.5v-58q0 -31 23 -53t55 -22z" />
    <glyph glyph-name="zeroinferior" unicode="&#x2080;" horiz-adv-x="532" 
d="M266 -317q-85 0 -145 59.5t-60 144.5v328q0 85 60 145t145 60t145 -60t60 -145v-328q0 -85 -60 -144.5t-145 -59.5zM266 -190q32 0 55 23t23 54v328q0 31 -23 54.5t-55 23.5t-55 -23.5t-23 -54.5v-328q0 -31 23 -54t55 -23z" />
    <glyph glyph-name="oneinferior" unicode="&#x2081;" horiz-adv-x="311" 
d="M143 -307v577l-123 -59v117l123 82h127v-717h-127z" />
    <glyph glyph-name="twoinferior" unicode="&#x2082;" horiz-adv-x="532" 
d="M61 -307v153q0 51 21 92.5t52.5 67.5t68 51.5t68 45.5t52.5 49t21 63q0 31 -23 54.5t-55 23.5t-55 -23.5t-23 -54.5v-10h-127v10q0 85 60 145t145 60t145 -60t60 -145q0 -53 -21 -97t-52.5 -72t-68 -54.5t-68 -46t-52.5 -45.5t-21 -54v-26h273v-127h-400z" />
    <glyph glyph-name="threeinferior" unicode="&#x2083;" horiz-adv-x="542" 
d="M61 -102h127q0 -38 24 -63t60 -25q32 0 57 26.5t25 61.5q0 37 -24.5 63.5t-65.5 26.5h-78v129h78q41 0 65.5 25.5t24.5 62.5q0 35 -24 61.5t-58 26.5q-36 0 -60 -25t-24 -63h-127q0 90 62 152.5t149 62.5q86 0 147.5 -64t61.5 -151q0 -94 -75 -154q75 -60 75 -153
q0 -87 -61.5 -151t-147.5 -64q-87 0 -149 62.5t-62 152.5z" />
    <glyph glyph-name="fourinferior" unicode="&#x2084;" horiz-adv-x="538" 
d="M309 -307v182h-268v135l233 400h162v-408h82v-127h-82v-182h-127zM174 2h135v227z" />
    <glyph glyph-name="fiveinferior" unicode="&#x2085;" horiz-adv-x="532" 
d="M61 -102h127v-11q0 -31 23 -54t55 -23t55 23t23 54v62q0 31 -23 54.5t-55 23.5q-46 0 -65 -39h-133v422h370v-127h-243v-148q36 19 71 19q85 0 145 -60t60 -145v-62q0 -85 -60 -144.5t-145 -59.5t-145 59.5t-60 144.5v11z" />
    <glyph glyph-name="sixinferior" unicode="&#x2086;" horiz-adv-x="532" 
d="M266 -317q-85 0 -145 59.5t-60 144.5v328q0 85 60 145t145 60t145 -60t60 -145v-10h-127v10q0 32 -23 55t-55 23t-55 -23.5t-23 -54.5v-100q30 24 78 24q85 0 145 -60t60 -145v-47q0 -85 -60 -144.5t-145 -59.5zM266 -190q32 0 55 23t23 54v47q0 31 -23 53.5t-55 22.5
t-55 -22.5t-23 -53.5v-47q0 -31 23 -54t55 -23z" />
    <glyph glyph-name="seveninferior" unicode="&#x2087;" horiz-adv-x="448" 
d="M66 -307v51q0 91 22 164t54 120t64 86t55 81.5t24 87.5h-265v127h394v-127q0 -66 -22.5 -119.5t-55 -92.5t-64.5 -80t-54.5 -104t-22.5 -143v-51h-129z" />
    <glyph glyph-name="eightinferior" unicode="&#x2088;" horiz-adv-x="542" 
d="M272 -317q-87 0 -149 61t-62 156q0 77 74 151q-34 34 -54 75.5t-20 76.5q0 96 61.5 156.5t149.5 60.5t148.5 -60.5t60.5 -156.5q0 -36 -19 -77t-54 -75q73 -70 73 -151q0 -94 -61.5 -155.5t-147.5 -61.5zM272 -190q37 0 59.5 27t22.5 63q0 34 -23 61t-59 27
q-37 0 -60.5 -27t-23.5 -61q0 -35 23.5 -62.5t60.5 -27.5zM272 115q36 0 59 27t23 61q0 36 -22.5 63t-59.5 27t-60.5 -27.5t-23.5 -62.5q0 -34 23.5 -61t60.5 -27z" />
    <glyph glyph-name="nineinferior" unicode="&#x2089;" horiz-adv-x="532" 
d="M61 -102h127v-11q0 -31 23 -54t55 -23t55 23t23 54v90q-31 -22 -78 -22q-85 0 -145 58.5t-60 142.5v59q0 85 60 145t145 60t145 -60t60 -145v-328q0 -85 -60 -144.5t-145 -59.5t-145 59.5t-60 144.5v11zM266 82q32 0 55 22.5t23 53.5v57q0 31 -23 54.5t-55 23.5
t-55 -23.5t-23 -54.5v-57q0 -31 23 -53.5t55 -22.5z" />
    <glyph glyph-name="Euro" unicode="&#x20ac;" horiz-adv-x="1024" 
d="M41 485v144h102v176h-102v143h102v96q0 169 120.5 289.5t289.5 120.5t289.5 -120.5t120.5 -289.5h-170q0 100 -70 170t-170 70t-170 -70t-70 -170v-96h445v-143h-445v-176h445v-144h-445v-96q0 -100 70 -169.5t170 -69.5t170 69.5t70 169.5h170q0 -169 -120.5 -289
t-289.5 -120t-289.5 120t-120.5 289v96h-102z" />
    <glyph glyph-name="trademark" unicode="&#x2122;" horiz-adv-x="1255" 
d="M471 819v420q0 85 60 145t145 60q91 0 158 -82q63 82 155 82q85 0 145 -60t60 -145v-420h-94v420q0 46 -32.5 77.5t-78.5 31.5q-43 0 -75.5 -32t-32.5 -77v-420h-97v420q0 45 -32 77t-76 32q-45 0 -77 -32t-32 -77v-420h-96zM178 819v529h-158v86h410v-86h-158v-529h-94z
" />
    <glyph glyph-name="onethird" unicode="&#x2153;" horiz-adv-x="1208" 
d="M41 0l922 1434h155l-921 -1434h-156zM190 717v577l-122 -59v117l122 82h129v-717h-129zM748 215h126q0 -38 24 -63t60 -25q32 0 57 26.5t25 61.5q0 37 -24.5 63.5t-65.5 26.5h-78v129h78q41 0 65.5 25.5t24.5 62.5q0 35 -24 61.5t-58 26.5q-36 0 -60 -25t-24 -63h-126
q0 90 61.5 152.5t148.5 62.5q86 0 147.5 -64t61.5 -151q0 -93 -75 -153q75 -60 75 -154q0 -87 -61.5 -151t-147.5 -64q-87 0 -148.5 62.5t-61.5 152.5z" />
    <glyph glyph-name="twothirds" unicode="&#x2154;" horiz-adv-x="1249" 
d="M96 0l922 1434h156l-922 -1434h-156zM41 707v153q0 51 21 92.5t52.5 67.5t68 51.5t68 45.5t52.5 49t21 63q0 31 -23 54.5t-55 23.5t-55 -23.5t-23 -54.5v-10h-127v10q0 85 60 145t145 60t145 -60t60 -145q0 -53 -21 -97t-52.5 -72t-68 -54.5t-68 -46t-52.5 -45.5t-21 -54
v-26h272v-127h-399zM788 215h127q0 -38 24 -63t60 -25q32 0 57 26.5t25 61.5q0 37 -24.5 63.5t-65.5 26.5h-78v129h78q41 0 65.5 25.5t24.5 62.5q0 35 -24 61.5t-58 26.5q-36 0 -60 -25t-24 -63h-127q0 90 62 152.5t149 62.5q86 0 147.5 -64t61.5 -151q0 -93 -75 -153
q75 -60 75 -154q0 -87 -61.5 -151t-147.5 -64q-87 0 -149 62.5t-62 152.5z" />
    <glyph glyph-name="oneeighth" unicode="&#x215b;" horiz-adv-x="1210" 
d="M41 0l922 1434h155l-921 -1434h-156zM190 717v577l-122 -59v117l122 82h129v-717h-129zM961 0q-87 0 -149 61t-62 156q0 36 19.5 77.5t53.5 74.5q-34 34 -53.5 75t-19.5 76q0 96 61.5 156.5t149.5 60.5t148 -60.5t60 -156.5q0 -35 -18.5 -76t-52.5 -75q34 -33 52.5 -74
t18.5 -78q0 -95 -61.5 -156t-146.5 -61zM961 129q36 0 58.5 26.5t22.5 61.5q0 36 -22 62t-59 26t-59.5 -26t-22.5 -62q0 -34 23 -61t59 -27zM961 432q36 0 58.5 26.5t22.5 61.5q0 36 -22 63t-59 27t-59.5 -27t-22.5 -63q0 -34 23 -61t59 -27z" />
    <glyph glyph-name="threeeighths" unicode="&#x215c;" horiz-adv-x="1208" 
d="M59 0l922 1434h158l-922 -1434h-158zM41 911h127q0 -38 24 -63t60 -25q32 0 57 26.5t25 61.5q0 37 -24.5 63.5t-65.5 26.5h-78v129h78q41 0 65.5 26t24.5 63q0 35 -24 61.5t-58 26.5q-36 0 -60 -25t-24 -63h-127q0 90 62 152.5t149 62.5q86 0 147.5 -64t61.5 -151
q0 -93 -76 -154q76 -61 76 -154q0 -87 -61.5 -151t-147.5 -64q-87 0 -149 62.5t-62 152.5zM956 0q-86 0 -147 61t-61 156q0 81 71 152q-34 34 -52.5 75t-18.5 76q0 96 60.5 156.5t147.5 60.5q88 0 149.5 -60.5t61.5 -156.5q0 -35 -19.5 -76t-53.5 -75q73 -73 73 -152
q0 -95 -62 -156t-149 -61zM956 127q37 0 59.5 27t22.5 63q0 34 -23 61t-59 27t-59 -27t-23 -61q0 -36 22.5 -63t59.5 -27zM956 432q36 0 59 27t23 61q0 36 -22.5 63t-59.5 27t-59.5 -27t-22.5 -63q0 -34 23 -61t59 -27z" />
    <glyph glyph-name="fiveeighths" unicode="&#x215d;" horiz-adv-x="1208" 
d="M59 0l922 1434h158l-922 -1434h-158zM956 0q-86 0 -147 61t-61 156q0 81 71 152q-34 34 -52.5 75t-18.5 76q0 96 60.5 156.5t147.5 60.5q88 0 149.5 -60.5t61.5 -156.5q0 -35 -19.5 -76t-53.5 -75q73 -73 73 -152q0 -95 -62 -156t-149 -61zM956 127q37 0 59.5 27t22.5 63
q0 34 -23 61t-59 27t-59 -27t-23 -61q0 -36 22.5 -63t59.5 -27zM956 432q36 0 59 27t23 61q0 36 -22.5 63t-59.5 27t-59.5 -27t-22.5 -63q0 -34 23 -61t59 -27zM41 922h127v-11q0 -31 23 -54t55 -23t55 23t23 54v62q0 31 -23 54.5t-55 23.5q-47 0 -66 -39h-133v422h371v-127
h-244v-148q36 19 72 19q85 0 145 -60t60 -145v-62q0 -85 -60 -144.5t-145 -59.5t-145 59.5t-60 144.5v11z" />
    <glyph glyph-name="seveneighths" unicode="&#x215e;" horiz-adv-x="1187" 
d="M41 0l922 1434h155l-921 -1434h-156zM938 0q-87 0 -149 61t-62 156q0 78 74 152q-35 35 -54.5 76t-19.5 75q0 96 62 156.5t149 60.5q88 0 148.5 -60.5t60.5 -156.5q0 -35 -19 -76t-53 -75q72 -72 72 -152q0 -94 -61.5 -155.5t-147.5 -61.5zM938 127q37 0 59.5 27t22.5 63
q0 34 -23 61t-59 27t-59 -27t-23 -61q0 -36 22.5 -63t59.5 -27zM938 432q36 0 59 27t23 61q0 36 -22.5 63t-59.5 27t-59.5 -27t-22.5 -63q0 -34 23 -61t59 -27zM188 717v51q0 77 16 141.5t40 106.5t52.5 81.5t53 68.5t41 66t17.5 75h-265v127h394v-127q0 -56 -16.5 -103.5
t-40.5 -79t-53 -68.5t-53 -72.5t-40.5 -91.5t-16.5 -124v-51h-129z" />
    <glyph glyph-name="minus" unicode="&#x2212;" horiz-adv-x="901" 
d="M41 487v170h819v-170h-819z" />
    <glyph glyph-name="Caron" horiz-adv-x="702" 
d="M266 1536l-205 307h170l119 -186l121 186h170l-205 -307h-170z" />
    <glyph glyph-name="Macron" horiz-adv-x="641" 
d="M61 1618v154h519v-154h-519z" />
    <glyph glyph-name="Ogonek" horiz-adv-x="456" 
d="M395 -385q-27 -8 -61 -8q-113 0 -193 80t-80 192q0 114 80 194.5t193 80.5v-154q-50 0 -84.5 -35t-34.5 -86q0 -49 34.5 -84t84.5 -35q30 0 61 21v-166z" />
    <glyph glyph-name="Cedilla" horiz-adv-x="579" 
d="M61 -328l109 109q35 -35 82 -35q50 0 83.5 34t33.5 83t-33.5 83t-83.5 34v153q111 0 189.5 -79t78.5 -191t-79 -190.5t-189 -78.5q-113 0 -191 78z" />
    <glyph glyph-name="Circumflex" horiz-adv-x="702" 
d="M61 1536l205 307h170l205 -307h-170l-121 186l-119 -186h-170z" />
    <glyph glyph-name="Grave" horiz-adv-x="497" 
d="M266 1536l-205 307h170l205 -307h-170z" />
    <glyph glyph-name="Ring" horiz-adv-x="518" 
d="M184 1741q0 -32 22 -54t54 -22q31 0 52.5 22t21.5 54t-21.5 54t-52.5 22q-32 0 -54 -22t-22 -54zM61 1741q0 82 58 140t141 58q82 0 139.5 -58t57.5 -140t-57.5 -140.5t-139.5 -58.5q-83 0 -141 58.5t-58 140.5z" />
    <glyph glyph-name="Hungarumlaut" horiz-adv-x="790" 
d="M365 1550l194 293h170l-194 -293h-170zM61 1550l195 293h170l-195 -293h-170z" />
    <glyph glyph-name="Dieresis" horiz-adv-x="600" 
d="M61 1563v170h170v-170h-170zM369 1563v170h170v-170h-170z" />
    <glyph glyph-name="Tilde" horiz-adv-x="722" 
d="M61 1638q0 78 56.5 134.5t134.5 56.5q42 0 79 -22.5t59 -49t48.5 -49t48.5 -22.5t39 16.5t17 38.5h119q0 -78 -56.5 -134.5t-134.5 -56.5q-34 0 -64.5 15t-52.5 36t-41 42t-39 36t-38 15q-22 0 -39 -17t-17 -39h-119z" />
    <glyph glyph-name="Dotaccent" horiz-adv-x="292" 
d="M61 1556v205h170v-205h-170z" />
    <glyph glyph-name="Acute" horiz-adv-x="497" 
d="M61 1536l205 307h170l-205 -307h-170z" />
    <glyph glyph-name="Breve" horiz-adv-x="626" 
d="M61 1796h154q0 -41 27.5 -70.5t70.5 -29.5t72 29.5t29 70.5h151q0 -108 -74 -181t-178 -73t-178 73t-74 181z" />
    </font>
</defs>
</svg>
