<?xml version="1.0" standalone="no"?>
<!DOCTYPE svg PUBLIC "-//W3C//DTD SVG 1.1//EN" "http://www.w3.org/Graphics/SVG/1.1/DTD/svg11.dtd" >
<svg xmlns="http://www.w3.org/2000/svg" xmlns:xlink="http://www.w3.org/1999/xlink" version="1.1">
<metadata>
Created by FontForge 20170731 at Sun Jan 10 16:14:50 2021
 By Aleksey,,,
copyright missing
</metadata>
<defs>
<font id="TimesNewerRoman-Regular" horiz-adv-x="1478" >
  <font-face 
    font-family="Times Newer Roman"
    font-weight="400"
    font-stretch="normal"
    units-per-em="2048"
    panose-1="0 0 5 0 0 0 0 0 0 0"
    ascent="1638"
    descent="-410"
    x-height="967"
    cap-height="1356"
    bbox="-338 -633 2048 2157"
    underline-thickness="102"
    underline-position="-307"
    unicode-range="U+0020-FB04"
  />
<missing-glyph horiz-adv-x="512" 
 />
    <glyph glyph-name="ff" unicode="ff" horiz-adv-x="1239" 
d="M791 963q0 196 97 312t261 116q94 0 156.5 -38.5t62.5 -95.5q0 -34 -24.5 -56.5t-61.5 -22.5q-32 0 -54 16.5t-44 56.5q-22 41 -45.5 59.5t-55.5 18.5q-34 0 -62 -18.5t-38 -50.5q-14 -35 -14 -164v-178h248v-70h-248v-653q-2 -88 31 -124t122 -40h21v-31h-525v31h21
q88 4 121 40t31 124v653h-359v-653q-3 -86 30.5 -123t121.5 -41h20v-31h-522v31h20q86 4 120 41t32 123v653h-172v70h172v45q0 196 96.5 312t259.5 116q92 0 154.5 -38.5t62.5 -95.5q0 -34 -24.5 -56.5t-59.5 -22.5q-34 0 -55 16t-43 57q-23 43 -45.5 60.5t-54.5 17.5
q-34 0 -61.5 -18.5t-37.5 -50.5q-14 -35 -14 -164v-178h359v45z" />
    <glyph glyph-name="fi" unicode="fi" horiz-adv-x="1138" 
d="M201 918v14q0 204 121 331.5t315 127.5q123 0 197.5 -41t74.5 -107q0 -37 -22 -60.5t-56 -23.5q-29 0 -49.5 16t-58.5 70q-33 49 -64 67.5t-77 18.5q-97 0 -150 -69.5t-53 -198.5v-145h235q180 2 330 24v-747q-1 -88 27.5 -123.5t103.5 -40.5h8v-31h-456v31h8
q75 5 103.5 40.5t27.5 123.5v483q0 103 -21.5 135.5t-89.5 34.5h-276v-653q-1 -88 27.5 -123.5t103.5 -40.5h8v-31h-457v31h9q75 5 103.5 40.5t27.5 123.5v653h-140v70h140z" />
    <glyph glyph-name="fl" unicode="fl" horiz-adv-x="1138" 
d="M195 918v26q0 174 81 299q52 76 117.5 112t155.5 36q130 0 217 -66l168 68v-1198q-2 -87 27 -123.5t104 -40.5h8v-31h-455v31h7q75 5 103.5 40.5t27.5 123.5v653h-383v-653q-1 -88 27.5 -123.5t103.5 -40.5h6v-31h-453v31h6q75 4 104.5 41t27.5 123v653h-138v70h138z
M756 918v280q-17 -14 -47 -14q-33 0 -55.5 19t-53.5 73q-34 55 -94 55q-72 0 -102.5 -68t-30.5 -225v-120h383z" />
    <glyph glyph-name="ffi" unicode="ffi" horiz-adv-x="1728" 
d="M803 918q3 133 20 197.5t66 125.5q123 154 356 154q123 0 198 -43t75 -113q0 -36 -25 -60t-63 -24q-63 0 -103 76q-23 46 -30 56.5t-21 21.5q-30 24 -84 24q-78 0 -134.5 -52t-68.5 -136q-10 -68 -10 -227h215q180 2 330 24v-747q0 -93 25 -126.5t98 -37.5h12v-31h-449
v31h17q72 4 96.5 38t24.5 126v653h-369v-653q0 -92 24.5 -126t96.5 -38h49v-31h-483v31h14q73 4 98 37.5t25 126.5v653h-371v-653q0 -93 25 -126.5t98 -37.5h47v-31h-520v31h51q74 5 99 38.5t24 125.5v653h-174v70h174q1 131 5.5 170.5t23.5 93.5q35 103 112.5 158t186.5 55
q80 0 129 -35.5t49 -93.5q0 -34 -22 -57t-54 -23q-42 0 -63 35q-6 8 -31 67q-20 51 -70 51q-25 0 -46.5 -20t-29.5 -49q-14 -61 -14 -352h371z" />
    <glyph glyph-name=".notdef" horiz-adv-x="512" 
 />
    <glyph glyph-name=".null" horiz-adv-x="0" 
 />
    <glyph glyph-name="nonmarkingreturn" horiz-adv-x="682" 
 />
    <glyph glyph-name="space" unicode=" " horiz-adv-x="512" 
 />
    <glyph glyph-name="exclam" unicode="!" horiz-adv-x="681" 
d="M322 360l-19 222q-5 84 -35 282q-41 253 -41 363q0 73 29 115t80 42q53 0 80.5 -42t27.5 -121q0 -26 -4 -76l-92 -785h-26zM336 197q46 0 79.5 -32.5t33.5 -78.5t-32 -75t-83 -29q-46 0 -76.5 30t-30.5 74q0 46 31.5 78.5t77.5 32.5z" />
    <glyph glyph-name="quotedbl" unicode="&#x22;" horiz-adv-x="835" 
d="M569 883q-65 350 -65 417q0 35 25.5 59.5t62.5 24.5q35 0 60.5 -23.5t25.5 -57.5q0 -97 -51 -338q-4 -19 -15 -82h-43zM223 883q-65 350 -65 417q0 35 25.5 59.5t62.5 24.5q35 0 60.5 -23.5t25.5 -57.5q0 -97 -51 -338q-4 -19 -15 -82h-43z" />
    <glyph glyph-name="numbersign" unicode="#" horiz-adv-x="1024" 
d="M965 442h-224l-63 -442h-119l64 442h-275l-67 -442h-119l67 442h-219v113h238l43 274h-225v113h241l64 414h118l-63 -414h272l62 414h119l-62 -414h199v-113h-215l-41 -274h205v-113zM410 829l-43 -274h274l41 274h-272z" />
    <glyph glyph-name="dollar" unicode="$" horiz-adv-x="1024" 
d="M840 1024q-26 131 -98 198.5t-201 82.5v-504q182 -103 247.5 -153.5t106.5 -115.5t41 -184q0 -149 -107 -239q-56 -45 -115.5 -67.5t-172.5 -41.5v-178h-70v178q-130 5 -210 26.5t-171 77.5v267h31q37 -161 121 -237t229 -77v578q-109 62 -157.5 94.5t-92.5 75.5
q-61 57 -88 114.5t-27 129.5q0 66 29 125t82 100q51 40 104 57.5t150 28.5v129h70v-129q126 -15 200.5 -40t128.5 -69v-227h-30zM469 1305q-211 -43 -211 -211q0 -72 41 -123t170 -137v471zM541 57q120 23 176.5 82t56.5 160q0 95 -45 153.5t-188 147.5v-543z" />
    <glyph glyph-name="percent" unicode="%" horiz-adv-x="1705" 
d="M1303 1384l-793 -1411h-98l802 1411h89zM1323 680q124 0 206.5 -105.5t82.5 -263.5q0 -160 -79.5 -260t-205.5 -100q-125 0 -208 103.5t-83 258.5q0 158 82 262.5t205 104.5zM1325 627q-63 0 -96 -79t-33 -231q0 -311 127 -311q62 0 96.5 80.5t34.5 222.5q0 154 -33 236
t-96 82zM385 1382q124 0 202.5 -105t78.5 -271q0 -158 -80 -257.5t-207 -99.5q-126 0 -207.5 103.5t-81.5 261.5q0 160 83 264t212 104zM381 1327q-131 0 -131 -301q0 -328 125 -328q64 0 98.5 81t34.5 231q0 152 -33.5 234.5t-93.5 82.5z" />
    <glyph glyph-name="ampersand" unicode="&#x26;" horiz-adv-x="1593" 
d="M1456 829q-77 -9 -116.5 -33.5t-75.5 -86.5l-54 -95q-78 -138 -204 -307q144 -188 315 -188q55 0 94.5 23t89.5 85l31 -22q-46 -109 -128.5 -170.5t-180.5 -61.5q-89 0 -170 43.5t-178 143.5q-116 -101 -217.5 -144t-225.5 -43q-164 0 -257 83t-93 229q0 257 322 442
l77 45q-42 116 -56.5 177.5t-14.5 119.5q0 132 91.5 223.5t223.5 91.5q122 0 199.5 -69t77.5 -178q0 -110 -71.5 -189t-246.5 -162q69 -135 127 -226t143 -195q100 133 143.5 219t43.5 153q0 46 -27.5 65.5t-103.5 26.5v43h442v-43zM657 852q240 126 240 293
q0 75 -46.5 124.5t-117.5 49.5t-114.5 -46.5t-43.5 -121.5q0 -69 18 -136t64 -163zM516 702q-134 -86 -188 -160.5t-54 -172.5q0 -120 78 -204.5t187 -84.5q65 0 130 30t158 103q-87 106 -152.5 209.5t-158.5 279.5z" />
    <glyph glyph-name="quotesingle" unicode="'" horiz-adv-x="368" 
d="M164 883q-66 355 -66 417q0 35 25.5 59.5t62.5 24.5q35 0 60.5 -23.5t25.5 -57.5q0 -97 -51 -338q-2 -8 -4 -20t-5 -30.5t-5 -31.5h-43z" />
    <glyph glyph-name="parenleft" unicode="(" horiz-adv-x="729" 
d="M647 1352q-111 -89 -167 -157t-99 -163q-82 -189 -82 -510q0 -296 72 -497q41 -114 97 -186t179 -169l-24 -32q-81 51 -131.5 93.5t-112.5 114.5q-135 157 -195.5 315t-60.5 355q0 357 217 623q57 70 115.5 119.5t173.5 125.5z" />
    <glyph glyph-name="parenright" unicode=")" horiz-adv-x="729" 
d="M82 -330q112 91 168.5 159t97.5 163q82 183 82 508q0 296 -72 497q-43 116 -98.5 187.5t-177.5 167.5l24 32q81 -51 131.5 -93.5t112.5 -114.5q135 -157 195.5 -315t60.5 -355q0 -357 -217 -623q-57 -70 -115.5 -119.5t-173.5 -125.5z" />
    <glyph glyph-name="asterisk" unicode="*" horiz-adv-x="1024" 
d="M492 934q-73 -48 -105 -74q-35 -35 -86 -92q-26 -29 -43.5 -39t-42.5 -10q-35 0 -54.5 18.5t-19.5 50.5q0 40 29 61.5t98 33.5q70 13 109 28.5t102 53.5l-22 14q-56 39 -176 61q-75 13 -107.5 36t-32.5 61q0 32 19.5 52.5t50.5 20.5q25 0 46 -14t52 -51
q49 -55 87.5 -86.5t97.5 -63.5v27q0 74 -31 186q-21 75 -21 105q0 31 20.5 51t51.5 20t52.5 -21t21.5 -52l-56 -267v-53l15 8q73 42 147 131q72 84 115 84q34 0 54 -22t20 -57q0 -40 -22.5 -58.5t-82.5 -27.5q-66 -11 -110 -27t-119 -59l16 -11q82 -51 199 -69
q68 -11 94.5 -30.5t26.5 -59.5q0 -34 -20 -55t-52 -21q-52 0 -123 88q-75 96 -143 123l-15 6v-14q0 -121 41 -230q17 -49 17 -65q0 -32 -24 -57t-56 -25q-29 0 -50.5 22t-21.5 51q0 33 23 97q37 98 37 172q0 2 -0.5 6.5t-1.5 13t-2 15.5z" />
    <glyph glyph-name="plus" unicode="+" horiz-adv-x="1155" 
d="M524 1133h109v-451h448v-109h-448v-450h-109v450h-448v109h448v451z" />
    <glyph glyph-name="comma" unicode="," horiz-adv-x="612" 
d="M201 -250q168 115 168 217q0 12 -8.5 20.5t-20.5 8.5q-4 0 -14 -4q-24 -4 -41 -4q-57 0 -89 27.5t-32 76.5q0 52 33.5 84.5t87.5 32.5q69 0 116.5 -52.5t47.5 -129.5q0 -92 -63.5 -178.5t-166.5 -137.5z" />
    <glyph glyph-name="hyphen" unicode="-" horiz-adv-x="681" 
d="M584 526v-129h-504v129h504z" />
    <glyph glyph-name="period" unicode="." horiz-adv-x="512" 
d="M256 205q46 0 80.5 -35t34.5 -82q0 -46 -35 -78.5t-82 -32.5q-44 0 -77.5 33.5t-33.5 77.5q0 49 33.5 83t79.5 34z" />
    <glyph glyph-name="slash" unicode="/" horiz-adv-x="569" 
d="M102 -29h-94l469 1413h92z" />
    <glyph glyph-name="zero" unicode="0" horiz-adv-x="1024" 
d="M520 1384q201 0 328 -197t127 -511q0 -186 -54 -349.5t-143 -248.5q-110 -107 -266 -107q-181 0 -299 140q-72 86 -118 247.5t-46 329.5q0 180 54 342t143 248q109 106 274 106zM514 1331q-132 0 -200 -167t-68 -494q0 -645 266 -645t266 647q0 321 -67.5 490t-196.5 169
z" />
    <glyph glyph-name="one" unicode="1" horiz-adv-x="1024" 
d="M242 31q117 1 154 31.5t40 127.5v928q0 50 -14.5 73t-46.5 23t-148 -45v29l369 186l16 -4v-1228q2 -74 39.5 -97.5t155.5 -23.5v-31h-565v31z" />
    <glyph glyph-name="two" unicode="2" horiz-adv-x="1024" 
d="M860 0h-799v25l365 387q129 136 197.5 273t68.5 259q0 129 -79.5 209t-209.5 80q-107 0 -171 -57.5t-126 -208.5l-43 10q26 108 54 167.5t78 112.5q118 127 294 127q160 0 269.5 -104t109.5 -256q0 -122 -63 -244t-199 -264l-344 -360h490q72 2 104.5 24t89.5 111l27 -10
z" />
    <glyph glyph-name="three" unicode="3" horiz-adv-x="1024" 
d="M311 702q104 37 158 66.5t100 75.5q82 85 82 198q0 98 -62 159t-163 61q-97 0 -169.5 -52t-133.5 -166l-31 9q32 92 60.5 141t74.5 90q112 100 267 100q143 0 231 -77t88 -203q0 -83 -43 -147t-147 -136q67 -30 102.5 -52.5t67.5 -55.5q90 -99 90 -264q0 -211 -148 -340
q-74 -63 -186.5 -100.5t-229.5 -37.5q-107 0 -169 31.5t-62 85.5q0 32 21.5 52t56.5 20q48 0 129 -51q57 -37 94 -50.5t80 -13.5q114 0 190 87t76 218q0 106 -55 187t-152 116q-60 23 -215 23z" />
    <glyph glyph-name="four" unicode="4" horiz-adv-x="1024" 
d="M967 342h-209v-342h-158v342h-575v131l643 911h90v-911h209v-131zM598 1176l-492 -703h492v703z" />
    <glyph glyph-name="five" unicode="5" horiz-adv-x="1024" 
d="M285 1020q181 -32 280.5 -72t167.5 -108q75 -77 107 -155.5t32 -188.5q0 -230 -135 -365q-160 -160 -422 -160q-116 0 -182.5 34t-66.5 93q0 76 86 76q65 0 157 -68q45 -34 74.5 -46.5t60.5 -12.5q121 0 203 101t82 249q0 154 -82.5 251.5t-259.5 154.5q-131 41 -231 41
q-25 0 -25 16q0 6 2 10l223 486h428q33 0 52 11t43 42l18 -14l-78 -183q-4 -12 -12.5 -15t-34.5 -3h-401z" />
    <glyph glyph-name="six" unicode="6" horiz-adv-x="1024" 
d="M918 1368q-241 -40 -403.5 -196t-203.5 -388q97 59 145 76t115 17q180 0 283.5 -115t103.5 -313q0 -212 -119.5 -345t-310.5 -133q-194 0 -315 140q-66 76 -104.5 201t-38.5 259q0 205 88 376t254 290q113 79 220 114t281 50zM496 782q-113 0 -179 -51q-57 -43 -57 -192
q0 -237 78 -373.5t213 -136.5q107 0 165 90.5t58 259.5q0 192 -72.5 297.5t-205.5 105.5z" />
    <glyph glyph-name="seven" unicode="7" horiz-adv-x="1024" 
d="M932 1323l-434 -1339h-133l405 1220h-444q-86 -2 -130.5 -32.5t-107.5 -133.5l-35 17l121 301h758v-33z" />
    <glyph glyph-name="eight" unicode="8" horiz-adv-x="1024" 
d="M594 760q186 -139 251.5 -231t65.5 -212q0 -158 -109.5 -252t-293.5 -94q-175 0 -284 93.5t-109 244.5q0 106 49.5 175t216.5 196q-161 141 -207.5 211t-46.5 170q0 139 111 231t278 92q155 0 253.5 -81t98.5 -209q0 -104 -61 -178t-213 -156zM434 639
q-91 -73 -127.5 -144t-36.5 -171q0 -132 71.5 -213.5t188.5 -81.5q100 0 163 62.5t63 162.5q0 87 -43.5 151.5t-155.5 143.5zM535 797q104 67 148 136t44 163q0 106 -61.5 168.5t-165.5 62.5q-97 0 -159 -57t-62 -146q0 -86 59.5 -161.5t196.5 -165.5z" />
    <glyph glyph-name="nine" unicode="9" horiz-adv-x="1024" 
d="M115 -4q234 40 396.5 198t225.5 408q-82 -63 -152.5 -90t-154.5 -27q-166 0 -267.5 114.5t-101.5 301.5q0 207 121.5 345t304.5 138q199 0 326 -161.5t127 -415.5q0 -207 -89 -388t-249 -298q-104 -75 -206.5 -110.5t-274.5 -55.5zM741 807q0 258 -68 389t-202 131
q-91 0 -145 -63q-33 -40 -54.5 -123t-21.5 -170q0 -183 68.5 -290.5t185.5 -107.5q115 0 207 76q30 23 30 78v80z" />
    <glyph glyph-name="colon" unicode=":" horiz-adv-x="569" 
d="M279 940q46 0 80 -35t34 -82q0 -45 -34.5 -77.5t-82.5 -32.5q-44 0 -77 33t-33 77q0 49 33.5 83t79.5 34zM279 205q46 0 80 -35t34 -82q0 -46 -35 -78.5t-82 -32.5q-44 0 -77 33.5t-33 77.5q0 49 33.5 83t79.5 34z" />
    <glyph glyph-name="semicolon" unicode=";" horiz-adv-x="569" 
d="M201 -250q168 115 168 217q0 12 -8.5 20.5t-20.5 8.5q-4 0 -14 -4q-24 -4 -41 -4q-57 0 -89 27.5t-32 78.5q0 53 33 84t88 31q69 0 116.5 -52t47.5 -130q0 -92 -62 -178t-168 -138zM279 940q46 0 80 -35t34 -82q0 -44 -35 -77t-82 -33q-44 0 -77 33t-33 77q0 49 33.5 83
t79.5 34z" />
    <glyph glyph-name="less" unicode="&#x3c;" horiz-adv-x="1155" 
d="M72 567v119l1013 459v-119l-880 -399l880 -400v-116z" />
    <glyph glyph-name="equal" unicode="=" horiz-adv-x="1155" 
d="M1081 778h-1005v109h1005v-109zM1081 369h-1005v108h1005v-108z" />
    <glyph glyph-name="greater" unicode="&#x3e;" horiz-adv-x="1155" 
d="M72 227l880 400l-880 399v119l1013 -459v-119l-1013 -456v116z" />
    <glyph glyph-name="question" unicode="?" horiz-adv-x="909" 
d="M426 336q3 143 61 291l58 131q76 175 76 319q0 103 -65 174.5t-159 71.5q-74 0 -133 -39t-59 -88q0 -25 35 -63q43 -49 43 -89q0 -38 -23 -60.5t-61 -22.5q-99 0 -99 126q0 127 95.5 212t236.5 85q85 0 168 -32t135 -86q74 -74 74 -199q0 -119 -92 -258
q-29 -43 -123 -158q-57 -70 -86.5 -140t-46.5 -175h-35zM446 199q46 0 79.5 -32.5t33.5 -78.5t-31.5 -75t-81.5 -29q-47 0 -77.5 29t-30.5 73q0 47 31 80t77 33z" />
    <glyph glyph-name="at" unicode="@" horiz-adv-x="1886" 
d="M1499 -256q-168 -88 -271 -119t-222 -31q-176 0 -332.5 68t-268.5 185t-177.5 280.5t-65.5 347.5q0 187 65.5 355t177 289.5t266.5 193t326 71.5q209 0 381.5 -100t271.5 -274t99 -385q0 -165 -58 -309t-156 -229t-210 -85q-82 0 -139.5 52.5t-67.5 138.5
q-57 -88 -133 -138.5t-151 -50.5q-86 0 -144.5 83.5t-58.5 205.5q0 143 50.5 283t139.5 241q59 68 121.5 99.5t138.5 31.5q60 0 93 -26.5t71 -106.5l23 98h157l-149 -659q-4 -28 -4 -47q0 -119 88 -119q49 0 91 27t85 86q57 78 89 184.5t32 214.5q0 191 -89.5 353.5
t-242.5 257t-334 94.5q-147 0 -277 -64.5t-222 -176t-145.5 -267.5t-53.5 -334q0 -223 92.5 -398t259 -272.5t377.5 -97.5q116 0 216 28.5t232 98.5zM1114 836q-43 3 -98.5 -32.5t-104.5 -98.5q-55 -72 -85.5 -169t-30.5 -200q0 -101 37 -160t100 -59q46 0 93 40.5t79 108.5
q44 93 73 208.5t29 195.5q0 81 -22.5 121t-69.5 45z" />
    <glyph glyph-name="A" unicode="A" 
d="M1446 0h-522v39q82 1 112.5 16.5t30.5 53.5q0 51 -39 137l-84 196h-536l-95 -239q-16 -43 -16 -80q0 -44 33 -64t106 -20v-39h-405v39q27 1 44 5t36.5 18t34 33.5t37 61t45 89.5t57.5 129l426 1005h41l510 -1163q54 -114 84.5 -144t99.5 -34v-39zM915 526l-237 564
l-236 -564h473z" />
    <glyph glyph-name="B" unicode="B" horiz-adv-x="1366" 
d="M35 1356h573q264 0 400.5 -88t136.5 -260q0 -133 -82 -205q-37 -32 -78.5 -51t-120.5 -39q100 -25 152 -48.5t98 -64.5q100 -89 100 -231q0 -154 -114 -256q-57 -52 -159.5 -82.5t-221.5 -30.5h-684v39q67 2 102 9t57.5 28t29 53.5t7.5 93.5v910q-1 62 -6.5 93
t-28.5 52.5t-57.5 28t-103.5 10.5v39zM440 160q0 -49 27 -66.5t102 -17.5q190 0 285 53q125 72 125 238q0 189 -172 258q-56 24 -137.5 33.5t-229.5 9.5v-508zM635 750q148 2 224.5 65t76.5 184q0 137 -95.5 211t-265.5 70l-90 -2q-26 -1 -34.5 -13t-10.5 -46v-471z" />
    <glyph glyph-name="C" unicode="C" horiz-adv-x="1366" 
d="M1223 924q-29 99 -57.5 152.5t-78.5 103.5q-126 123 -305 123q-223 0 -355 -165.5t-132 -445.5q0 -171 45.5 -304t130.5 -208q134 -119 332 -119q127 0 235 49t222 158l36 -37q-92 -124 -238.5 -192t-320.5 -68q-306 0 -493 191.5t-187 505.5q0 168 57 306t165 234
q97 85 217.5 130.5t246.5 45.5q153 0 299 -51q50 -16 80 -16q31 0 54 17.5t32 49.5h43l19 -460h-47z" />
    <glyph glyph-name="D" unicode="D" 
d="M33 39q41 3 67 6.5t47.5 12.5t33 20.5t19 32.5t10 46.5t3.5 65.5v910q-1 42 -2.5 66.5t-9.5 46.5t-18 32t-32.5 19t-48 12.5t-69.5 7.5v39h553q431 0 643 -215q174 -171 174 -457q0 -149 -54.5 -280t-154.5 -222q-95 -86 -248 -134t-332 -48h-581v39zM422 160
q0 -49 22 -66.5t84 -17.5q254 0 402 84q250 145 250 510q0 166 -62 295.5t-182 212.5q-143 102 -408 102q-64 0 -85 -16t-21 -64v-1040z" />
    <glyph glyph-name="E" unicode="E" horiz-adv-x="1251" 
d="M1130 0h-1105v39q110 6 142.5 40t35.5 144v910q-3 111 -34.5 144t-143.5 40v39h1087l6 -293h-51q-13 73 -28 110.5t-51 63t-87 32.5t-145 9h-277q-43 0 -54 -12t-13 -58v-454h315q69 2 105 8t62 28.5t37 57t21 100.5h47v-475h-47q-20 127 -58.5 160.5t-166.5 36.5h-315
v-506q0 -60 28 -72t187 -16h55q151 1 236 24t141 78.5t106 167.5h58z" />
    <glyph glyph-name="F" unicode="F" horiz-adv-x="1138" 
d="M934 473q-19 125 -59 160.5t-166 36.5h-297v-447q2 -113 35.5 -146.5t150.5 -37.5v-39h-573v39q42 3 67.5 6.5t47 13t32.5 22t18.5 37t9.5 53t3 75.5v887q-3 111 -34.5 144t-143.5 40v39h1087l6 -293h-51q-13 73 -28 110.5t-51 63t-87 32.5t-145 9h-279q-43 -1 -53 -12.5
t-12 -57.5v-454h297q126 3 167 38t58 156h47v-475h-47z" />
    <glyph glyph-name="G" unicode="G" 
d="M1452 688q-88 -6 -114 -35t-29 -123v-415q-62 -54 -221.5 -99t-292.5 -45q-169 0 -313.5 56.5t-245.5 162.5q-170 179 -170 476q0 207 89.5 370.5t250 255.5t362.5 92q140 0 279 -47q62 -20 90 -20q32 0 57.5 18t34.5 49h45l16 -432h-47q-38 94 -68.5 144t-76.5 94
q-119 113 -295 113q-104 0 -196.5 -40.5t-160.5 -115.5q-67 -75 -107 -204.5t-40 -274.5q0 -286 144.5 -450.5t394.5 -164.5q112 0 192 35.5t80 85.5v332q-2 63 -6.5 93.5t-25.5 51.5t-52 27t-96 10v37h522v-37z" />
    <glyph glyph-name="H" unicode="H" 
d="M39 39q43 3 69 6.5t48 13t32.5 22t18 37t9.5 53t3 75.5v887q-1 114 -31 144.5t-149 39.5v39h569v-39q-64 -6 -95.5 -13t-52.5 -28.5t-26 -52t-6 -90.5v-398h621v398q-1 114 -31.5 144.5t-149.5 39.5v39h570v-39q-51 -5 -80 -11t-51 -16.5t-31.5 -31.5t-13.5 -49t-5 -76
v-910q1 -110 33 -142.5t148 -41.5v-39h-570v39q43 3 69 6.5t48 13t33 22t18.5 37t9.5 53t3 75.5v399h-621v-422q1 -77 14.5 -112t49 -50.5t116.5 -21.5v-39h-569v39z" />
    <glyph glyph-name="I" unicode="I" horiz-adv-x="681" 
d="M37 39q46 2 74.5 5t52.5 11t36.5 19.5t21 33t11 47.5t3.5 68v910q-1 41 -3.5 66.5t-11 47t-20.5 32.5t-36 19.5t-52.5 12t-75.5 6.5v39h608v-39q-68 -2 -103.5 -9t-59 -28t-30 -53.5t-8.5 -93.5v-910q3 -114 39 -147.5t162 -36.5v-39h-608v39z" />
    <glyph glyph-name="J" unicode="J" horiz-adv-x="796" 
d="M770 1317q-45 -3 -71.5 -6.5t-49.5 -12.5t-34 -19.5t-19 -32.5t-10.5 -46.5t-3.5 -66.5v-758q0 -192 -90.5 -298t-255.5 -106q-89 0 -146 41.5t-57 106.5q0 41 29.5 71.5t70.5 30.5q78 0 107 -104q11 -39 22.5 -53.5t32.5 -14.5q78 0 78 135v949q-1 114 -33.5 144.5
t-157.5 39.5v39h588v-39z" />
    <glyph glyph-name="K" unicode="K" 
d="M831 1356h537v-39q-104 -7 -155.5 -33.5t-155.5 -126.5l-389 -385l477 -512q76 -81 114.5 -119.5t75.5 -64t62.5 -31t68.5 -6.5v-39h-624v39q25 2 57 2q86 3 86 45q0 37 -74 133.5t-192 214.5l-217 215l-53 -43v-383q1 -60 7 -92t27.5 -53t54 -28t95.5 -11v-39h-578v39
q64 4 96.5 11.5t54.5 31t27.5 59.5t6.5 105v887q-3 113 -35 145t-150 39v39h582v-39q-67 -5 -100 -11.5t-55 -28t-27 -52t-6 -92.5v-420l362 329q160 147 160 211q0 37 -24 48.5t-116 15.5v39z" />
    <glyph glyph-name="L" unicode="L" horiz-adv-x="1251" 
d="M602 1317q-120 -6 -153.5 -38.5t-36.5 -145.5v-969q1 -55 29 -68t147 -16h137q136 4 214.5 28.5t132 81t102.5 166.5h51l-99 -356h-1101v39q110 6 142.5 40t35.5 144v910q-3 111 -34.5 144t-143.5 40v39h577v-39z" />
    <glyph glyph-name="M" unicode="M" horiz-adv-x="1820" 
d="M1767 1317q-112 -7 -143.5 -40t-34.5 -144v-910q3 -110 35.5 -144t142.5 -40v-39h-573v39q52 3 81.5 9t52.5 17.5t32.5 36t14 56.5t5.5 88v928l-524 -1174h-29l-514 1126v-825q2 -110 18 -162t54.5 -74t120.5 -26v-39h-481v39q54 3 85.5 11t55 22.5t34.5 46t16.5 72.5
t6.5 110v832q-2 62 -8 93.5t-28.5 53t-56.5 28t-101 9.5v39h405l473 -1034l453 1034h407v-39z" />
    <glyph glyph-name="N" unicode="N" 
d="M1448 1317q-85 -7 -123 -28.5t-53.5 -72t-18.5 -161.5v-1078h-34l-906 1127v-803q2 -110 18 -162t54.5 -74t120.5 -26v-39h-481v39q54 3 85.5 11t55 22.5t34.5 46t16.5 72.5t6.5 110v903q-62 72 -97 92.5t-101 20.5v39h350l788 -991v690q-2 58 -5 94.5t-12 67t-21.5 47
t-35.5 29t-51 17t-71 7.5v39h481v-39z" />
    <glyph glyph-name="O" unicode="O" 
d="M739 1384q301 0 498 -215q172 -184 172 -499q0 -310 -190 -504.5t-492 -194.5q-135 0 -263 56t-218 153q-83 87 -129.5 220t-46.5 278q0 310 188 508t481 198zM739 1311q-172 0 -293 -133q-65 -72 -104 -210t-39 -294q0 -170 47 -314t125 -215q117 -100 260 -100
q164 0 273 109q73 73 100 149q68 176 68 369q0 182 -45.5 321.5t-129.5 214.5q-115 103 -262 103z" />
    <glyph glyph-name="P" unicode="P" horiz-adv-x="1138" 
d="M33 1356h540q145 0 268.5 -40.5t184.5 -107.5q84 -90 84 -223q0 -102 -52.5 -189.5t-144.5 -136.5q-124 -69 -358 -69q-61 0 -141 6v-373q1 -60 7.5 -93t29 -54t57 -28t98.5 -9v-39h-573v39q42 4 67 8t46 14t31 21.5t17 36t8.5 52t2.5 75.5v887q-1 40 -3 64.5t-9 46
t-17 32t-31.5 19.5t-46 13.5t-65.5 8.5v39zM414 678q70 -6 116 -6q357 0 357 301q0 158 -98.5 232.5t-305.5 74.5q-41 0 -55 -14.5t-14 -55.5v-532z" />
    <glyph glyph-name="Q" unicode="Q" 
d="M1436 -362h-13q-30 -3 -69 -3q-246 0 -428.5 63.5t-286.5 186.5l-96 113q-108 36 -169.5 73.5t-121.5 102.5q-182 197 -182 500q0 154 50 286t137.5 225t212 146t269.5 53q193 0 346 -89.5t238.5 -251t85.5 -365.5q0 -346 -229 -549q-70 -61 -136.5 -92t-171.5 -51
q124 -161 256.5 -234t307.5 -78v-36zM745 1311q-178 0 -299 -133q-63 -71 -103 -208t-40 -284q0 -181 46 -325t126 -216q115 -100 264 -100q176 0 295 131q62 71 102 213t40 293q0 173 -47 313t-130 213q-55 48 -122 75.5t-132 27.5z" />
    <glyph glyph-name="R" unicode="R" horiz-adv-x="1366" 
d="M1350 0h-330l-488 631l-114 -4v-404q1 -60 7 -91.5t27 -52.5t54 -28.5t96 -11.5v-39h-567v39q42 3 66.5 7t46 13.5t31.5 22t17.5 36.5t9.5 52.5t3 75.5v887q-1 112 -30 142t-144 42v39h565q145 0 263 -37t177 -100q80 -89 80 -224q0 -141 -87.5 -222.5t-282.5 -119.5
l421 -518q43 -52 81 -71.5t98 -24.5v-39zM418 702q149 3 220.5 16.5t141.5 53.5q55 29 86 89.5t31 137.5q0 145 -91.5 213t-283.5 68q-61 0 -82.5 -15.5t-21.5 -58.5v-504z" />
    <glyph glyph-name="S" unicode="S" horiz-adv-x="1138" 
d="M961 948h-52q-24 90 -50.5 140t-74.5 100q-109 112 -249 112q-95 0 -154 -51.5t-59 -136.5q0 -84 69.5 -157.5t231.5 -161.5q202 -110 292.5 -216.5t90.5 -232.5q0 -158 -120 -265.5t-298 -107.5q-124 0 -242 47q-64 23 -96 23q-23 0 -39 -19.5t-18 -48.5h-46l-61 435h47
q77 -188 176.5 -275.5t237.5 -87.5q112 0 182 64t70 165q0 78 -29 121q-75 115 -305 240q-172 91 -246 183.5t-74 215.5q0 161 109 256q108 94 244 94q101 0 219 -45q52 -24 90 -24q53 0 65 69h43z" />
    <glyph glyph-name="T" unicode="T" horiz-adv-x="1251" 
d="M926 0h-598v39q46 3 74 6.5t51.5 13t34.5 21.5t19 37t10 53t3 76v1024h-110q-75 -1 -120.5 -8t-81.5 -21.5t-57.5 -46t-36.5 -73.5t-30 -113h-49l12 348h1155l12 -348h-49q-18 89 -35.5 135.5t-55 77t-88.5 39t-146 10.5h-111v-1047q1 -40 3.5 -65.5t11 -47t21.5 -33
t36 -20.5t52 -12.5t73 -5.5v-39z" />
    <glyph glyph-name="U" unicode="U" 
d="M1444 1317q-45 -5 -72 -10.5t-50.5 -18t-35 -28.5t-20 -46t-11.5 -66t-4 -93v-535q0 -119 -15 -196.5t-52 -141.5q-121 -211 -457 -211q-261 0 -387.5 128.5t-126.5 394.5v639q-1 114 -31.5 144.5t-152.5 39.5v39h579v-39q-66 -6 -98.5 -13t-54.5 -28.5t-27 -52t-6 -90.5
v-656q0 -179 51 -270q84 -146 301 -146q115 0 207 44t133 118q47 87 47 279v553q-2 110 -17.5 161.5t-54 73.5t-120.5 27v39h475v-39z" />
    <glyph glyph-name="V" unicode="V" 
d="M1427 1317q-73 -4 -105 -36.5t-83 -154.5l-455 -1149h-30l-504 1125q-66 137 -104 174.5t-113 40.5v39h545v-39q-54 -4 -60 -4q-50 -3 -72 -18t-22 -46q0 -23 16.5 -68.5t67.5 -158.5l309 -692l301 751q39 95 39 150q0 43 -32.5 62.5t-116.5 23.5v39h419v-39z" />
    <glyph glyph-name="W" unicode="W" horiz-adv-x="1933" 
d="M1909 1317q-81 -15 -111 -40.5t-59 -105.5q-172 -464 -231.5 -633t-186.5 -561h-31l-327 867l-316 -867h-31l-395 1100q-57 145 -95 189t-116 51v39h502v-39q-78 -4 -105.5 -18t-27.5 -48q0 -36 22 -94l295 -770l219 578l-67 168q-53 123 -86 153t-121 31v39h547v-39
q-83 -2 -120.5 -18.5t-37.5 -53.5q0 -30 31 -104q4 -12 24 -62l271 -698l256 694q33 94 33 154q0 41 -32 60.5t-110 27.5v39h406v-39z" />
    <glyph glyph-name="X" unicode="X" 
d="M1425 1317q-99 -6 -152.5 -39.5t-152.5 -153.5l-299 -372l393 -562q66 -89 106 -115.5t122 -35.5v-39h-608v39q50 4 55 4q102 3 102 59q0 49 -104 201l-195 287l-243 -303q-107 -132 -107 -176q0 -35 33.5 -50.5t122.5 -21.5v-39h-478v39q30 2 45 4t38 12.5t36 21t43 41
t56.5 61.5t78.5 93l322 396l-223 327q-65 92 -104 143t-74 90.5t-64 55.5t-57.5 23.5t-71.5 9.5v39h619v-39l-58 -2q-51 -2 -74.5 -16t-23.5 -44q0 -34 40 -104.5t134 -202.5l86 -121l231 283q82 99 82 141q0 35 -30 49t-113 17v39h487v-39z" />
    <glyph glyph-name="Y" unicode="Y" 
d="M1440 1317q-78 -6 -133.5 -52t-149.5 -182l-303 -462v-398q1 -63 7.5 -95.5t31 -53.5t62 -27t110.5 -8v-39h-627v39q51 2 80.5 5t55 12.5t37.5 21t20.5 37t10.5 54t3 77.5v356l-268 393q-84 118 -125.5 173t-80 93t-62.5 46t-64 10v39h573v-39q-23 -2 -51 -2
q-50 -3 -72 -17t-22 -43q0 -40 35 -90l303 -454l293 463q29 45 29 75q0 37 -31 51.5t-111 16.5v39h449v-39z" />
    <glyph glyph-name="Z" unicode="Z" horiz-adv-x="1251" 
d="M1223 360l-49 -360h-1156v31l895 1247h-452q-177 -4 -247.5 -60t-96.5 -212h-54l41 350h1078v-31l-885 -1247h526q166 6 236.5 62t116.5 220h47z" />
    <glyph glyph-name="bracketleft" unicode="[" horiz-adv-x="681" 
d="M428 1305q-51 -1 -70.5 -21t-21.5 -70v-1376q2 -56 25 -80.5t75 -25.5h176v-51h-432v1675h432v-51h-184z" />
    <glyph glyph-name="backslash" unicode="\" horiz-adv-x="569" 
d="M119 1384l469 -1413h-92l-480 1413h103z" />
    <glyph glyph-name="bracketright" unicode="]" horiz-adv-x="681" 
d="M254 -268q51 1 70.5 20.5t21.5 69.5v1376q-2 56 -25 81t-75 26h-176v51h432v-1675h-432v51h184z" />
    <glyph glyph-name="asciicircum" unicode="^" horiz-adv-x="960" 
d="M49 608l371 748h123l370 -748h-139l-293 592l-293 -592h-139z" />
    <glyph glyph-name="underscore" unicode="_" horiz-adv-x="1024" 
d="M0 -256v102h1024v-102h-1024z" />
    <glyph glyph-name="grave" unicode="`" horiz-adv-x="681" 
d="M444 1038l-315 199q-59 38 -59 88q0 29 18.5 46.5t50.5 17.5q23 0 40.5 -10t45.5 -38l301 -303h-82z" />
    <glyph glyph-name="a" unicode="a" horiz-adv-x="956" 
d="M946 86q-58 -61 -98.5 -83.5t-93.5 -22.5q-65 0 -91 34.5t-34 122.5q-103 -87 -173.5 -122t-154.5 -35q-99 0 -162 64t-63 165q0 54 21.5 105t56.5 83q65 58 133.5 91t337.5 141v131q0 86 -47 132t-127 46q-64 0 -110 -30.5t-46 -73.5q0 -25 6 -52q4 -32 4 -34
q0 -35 -29 -63t-67 -28t-65 28t-27 65q0 101 104.5 170t255.5 69q195 0 268 -117q43 -71 43 -227v-418q0 -71 13.5 -98t50.5 -27q45 0 94 41v-57zM625 578q-194 -68 -282.5 -136.5t-88.5 -162.5v-9q0 -70 43.5 -118t112.5 -48q46 0 80.5 11.5t78.5 36.5q34 20 45 42.5
t11 71.5v312z" />
    <glyph glyph-name="b" unicode="b" horiz-adv-x="1085" 
d="M354 807q32 81 116 131.5t183 50.5q162 0 270.5 -133t108.5 -332q0 -152 -66 -277t-181.5 -196t-256.5 -71q-85 0 -168 20.5t-134.5 52.5t-51.5 64v1057q0 65 -18.5 84.5t-81.5 19.5q-23 0 -35 -2v33l59 16q149 42 238 74l10 -4zM354 154q0 -41 64 -73t149 -32
q132 0 208.5 102t76.5 281q0 119 -32.5 221.5t-86.5 153.5q-66 63 -162 63q-83 0 -150 -50t-67 -113v-553z" />
    <glyph glyph-name="c" unicode="c" horiz-adv-x="970" 
d="M913 317q-47 -96 -82.5 -148t-78.5 -89q-118 -100 -263 -100q-178 0 -292.5 134.5t-114.5 342.5q0 265 168 413q138 119 303 119q135 0 233.5 -65t98.5 -156q0 -37 -30 -63.5t-73 -26.5q-34 0 -60 28t-40 76l-12 49q-17 61 -44.5 83t-86.5 22q-130 0 -213.5 -107
t-83.5 -274q0 -186 95.5 -307t244.5 -121q92 0 161.5 46t147.5 159z" />
    <glyph glyph-name="d" unicode="d" horiz-adv-x="1054" 
d="M1036 86l-301 -106l-8 6v137q-56 -75 -120.5 -109t-153.5 -34q-170 0 -285 132.5t-115 329.5q0 144 60 270t164 201.5t225 75.5q65 0 114.5 -20t110.5 -72v277q0 63 -18.5 83.5t-75.5 20.5q-29 0 -45 -2v33q195 52 301 90l10 -4v-1162q0 -71 17.5 -93.5t72.5 -22.5
q20 0 47 2v-33zM731 684q0 108 -66.5 181t-156.5 73q-123 0 -199 -113.5t-76 -296.5q0 -190 85.5 -317t218.5 -127q100 0 157 66q37 37 37 65v469z" />
    <glyph glyph-name="e" unicode="e" horiz-adv-x="970" 
d="M940 338q-68 -174 -185 -266t-272 -92q-185 0 -293 129.5t-108 351.5q0 132 42 242t118 176q122 110 288 110q172 0 277 -121q41 -54 60.5 -111t31.5 -161l-668 2q5 -100 18 -164t42 -125q96 -188 284 -188q104 0 186 53t157 174zM684 668q-22 144 -69 199t-146 55
t-156.5 -62.5t-74.5 -191.5h446z" />
    <glyph glyph-name="f" unicode="f" horiz-adv-x="729" 
d="M659 909h-249v-696q0 -50 4 -78t14 -50t33 -32t54 -15t85 -7v-31h-532v31q58 2 88.5 8.5t50.5 27.5t25.5 53t5.5 93v696h-168v66h168q3 158 71 276q40 69 116.5 108.5t172.5 39.5q92 0 152.5 -36t60.5 -91q0 -35 -24.5 -59.5t-61.5 -24.5q-26 0 -46.5 17t-45.5 57
q-28 44 -51.5 61.5t-57.5 17.5q-116 0 -116 -182v-184h251v-66z" />
    <glyph glyph-name="g" unicode="g" horiz-adv-x="1052" 
d="M823 834q41 -90 41 -181q0 -156 -104 -241q-104 -93 -232 -93q-1 0 -14.5 2t-43.5 5t-64 6q-43 -14 -86.5 -58.5t-43.5 -76.5q0 -54 168 -60l277 -12q120 -4 191 -66.5t71 -162.5q0 -122 -119 -218q-84 -69 -202 -108t-238 -39q-155 0 -264 61.5t-109 147.5
q0 60 47 118.5t164 143.5q-67 32 -91 56t-24 59q0 28 12 49t48 57q9 12 76 76l57 51q-108 54 -154.5 120.5t-46.5 168.5q0 147 104.5 248.5t254.5 101.5q85 0 219 -49q9 -3 16 -6t12 -5.5t8.5 -4t5.5 -3t3 -2t2 -1.5h237v-84h-178zM307 -4q-65 -77 -85.5 -112.5t-20.5 -71.5
q0 -72 85.5 -115t229.5 -43q182 0 294 57.5t112 151.5q0 58 -60 81t-207 23q-78 0 -184.5 9t-163.5 20zM313 721q0 -157 63 -254.5t165 -97.5q73 0 117 54t44 144q0 144 -65 264q-27 48 -69.5 75.5t-92.5 27.5q-74 0 -118 -55t-44 -150v-8z" />
    <glyph glyph-name="h" unicode="h" horiz-adv-x="1101" 
d="M1049 0h-447v33q65 5 94 20t40.5 51t11.5 115v426q0 227 -164 227q-63 0 -121 -32t-123 -103v-528q3 -109 26.5 -140t112.5 -38v-31h-442v31q87 10 107.5 38.5t23.5 139.5v965q0 66 -19.5 85t-85.5 19q-16 0 -24 -2v33l55 16q147 42 236 74l10 -6v-584q71 93 146 136.5
t169 43.5q265 0 265 -342v-428q3 -114 23 -143.5t106 -42.5v-33z" />
    <glyph glyph-name="i" unicode="i" horiz-adv-x="569" 
d="M47 31q56 2 84.5 8.5t48 26.5t24.5 51.5t5 91.5v536q0 67 -15.5 95t-52.5 28q-31 0 -69 -6l-17 -2v31l318 113l8 -7v-788q1 -49 4 -76t10.5 -48t26 -30.5t42.5 -15t68 -8.5v-31h-485v31zM276 1399q44 0 75.5 -30.5t31.5 -74.5t-30.5 -74t-76.5 -30q-43 0 -72.5 30
t-29.5 74q0 43 30.5 74t71.5 31z" />
    <glyph glyph-name="j" unicode="j" horiz-adv-x="569" 
d="M395 0q0 -122 -32 -220t-87 -147q-85 -79 -227 -79q-85 0 -138.5 31.5t-53.5 80.5q0 34 24.5 57t59.5 23q47 0 98 -65q27 -33 45 -45.5t41 -12.5q21 0 41 11t29 26q17 30 22.5 80t5.5 168v837q0 66 -15 94.5t-50 28.5q-36 0 -82 -6l-10 -2v33q156 48 319 111l10 -7v-997z
M291 1399q44 0 75 -30.5t31 -74.5t-30 -74t-76 -30q-43 0 -73 30t-30 74q0 43 31 74t72 31z" />
    <glyph glyph-name="k" unicode="k" horiz-adv-x="1103" 
d="M39 31q109 17 131 36.5t23 100.5v987q0 74 -18.5 99.5t-70.5 25.5q-11 0 -65 -4v33l61 16q186 52 256 74l9 -4v-834l294 262q50 47 50 76q0 22 -22.5 29.5t-86.5 9.5v29h440v-31q-55 2 -93 -5.5t-92 -39t-113.5 -81t-166.5 -146.5l-63 -58l330 -418q67 -82 124 -117
t128 -40v-31h-469v31h41q20 0 32.5 9t12.5 23q0 16 -25 48q-3 3 -10 12.5t-10 13.5l-301 404v-404q1 -57 24 -78t88 -26l41 -2v-31h-479v31z" />
    <glyph glyph-name="l" unicode="l" horiz-adv-x="569" 
d="M43 31q95 6 125.5 35t32.5 112v977q0 72 -18 98.5t-68 26.5q-18 0 -64 -4h-12v33q215 53 326 90l8 -4v-1223q1 -86 28.5 -111t124.5 -30v-31h-483v31z" />
    <glyph glyph-name="m" unicode="m" horiz-adv-x="1742" 
d="M57 33q96 0 126.5 29t33.5 120v545q0 74 -20.5 105.5t-63.5 31.5q-31 0 -70 -8v37q152 40 302 96l14 -4v-162q137 103 200 134.5t134 31.5q88 0 144 -44t85 -136q86 94 170.5 137t179.5 43q248 0 248 -383v-442q0 -63 21 -91.5t73 -35.5l56 -4v-33h-461v33q95 9 118 34
t23 119v455q0 132 -39 184t-131 52q-76 0 -130.5 -31t-104.5 -101v-540q3 -103 34 -137.5t121 -34.5v-33h-473v33q91 5 118 32t30 119v467q0 112 -40 169t-112 57q-57 0 -119.5 -24t-103.5 -62q-31 -31 -31 -41v-607q1 -64 32 -86t114 -24v-33h-478v33z" />
    <glyph glyph-name="n" unicode="n" horiz-adv-x="1146" 
d="M61 33q89 4 116.5 35t27.5 125v534q0 79 -18.5 108t-71.5 29q-42 0 -58 -8v37q180 53 297 96l15 -4v-170q105 98 184 136t158 38q120 0 187 -85.5t67 -237.5v-492q2 -78 27.5 -106t103.5 -35v-33h-447v33q87 5 116.5 40.5t29.5 139.5v449q0 107 -40 157.5t-126 50.5
q-71 0 -125 -25t-129 -97v-605q0 -57 31 -81.5t112 -28.5v-33h-457v33z" />
    <glyph glyph-name="o" unicode="o" horiz-adv-x="1071" 
d="M537 989q206 0 339.5 -136t133.5 -349q0 -224 -137.5 -374t-340.5 -150t-337 144t-134 363q0 223 132 362.5t344 139.5zM508 938q-115 0 -186.5 -95t-71.5 -249q0 -115 25.5 -227t70.5 -195q34 -64 92 -102.5t121 -38.5q122 0 192 106.5t70 290.5q0 221 -89 365.5
t-224 144.5z" />
    <glyph glyph-name="p" unicode="p" horiz-adv-x="1085" 
d="M39 -410q91 9 117 34.5t26 107.5v1020q0 72 -16 94t-68 22q-33 0 -51 -2v33q119 37 295 105l12 -5v-178q70 88 144.5 128t165.5 40q157 0 258.5 -129t101.5 -328q0 -153 -59.5 -280t-163.5 -199.5t-230 -72.5q-68 0 -113.5 19t-103.5 73v-326q1 -98 33 -125t148 -29v-36
h-496v34zM350 184q0 -47 76.5 -95t151.5 -48q117 0 191.5 113.5t74.5 291.5q0 191 -74.5 306.5t-196.5 115.5q-74 0 -148.5 -48t-74.5 -95v-541z" />
    <glyph glyph-name="q" unicode="q" horiz-adv-x="1071" 
d="M895 997l23 -2v-1284q3 -66 24.5 -87t104.5 -40v-28h-484v34q107 6 143.5 37.5t38.5 118.5l-2 393q-144 -159 -337 -159q-151 0 -248 129t-97 331q0 233 137 391t339 158q65 0 120 -16.5t127 -57.5zM748 721q0 106 -51.5 161.5t-151.5 55.5q-137 0 -220 -114.5
t-83 -303.5q0 -109 32 -207t84 -147q67 -64 170 -64q50 0 101.5 18t87.5 48q31 27 31 100v453z" />
    <glyph glyph-name="r" unicode="r" horiz-adv-x="827" 
d="M57 33q47 8 72.5 14.5t45.5 15t28 25t12 36t6 56.5v600q0 71 -18.5 100t-65.5 29q-37 0 -76 -10v35q164 53 318 117l12 -4v-234q83 121 141.5 167t129.5 46q58 0 91 -32t33 -89q0 -47 -24 -73.5t-64 -26.5t-90 45q-39 33 -59 33q-47 0 -102.5 -65.5t-55.5 -119.5v-505
q3 -94 39 -125.5t143 -34.5v-33h-516v33z" />
    <glyph glyph-name="s" unicode="s" horiz-adv-x="876" 
d="M670 690q-38 148 -93 209.5t-149 61.5q-75 0 -122.5 -41.5t-47.5 -108.5q0 -45 25.5 -89.5t68.5 -70.5l238 -141q97 -58 136.5 -113t39.5 -137q0 -117 -88.5 -198.5t-224.5 -81.5q-55 0 -148 22q-68 16 -100 16q-21 0 -31 -4.5t-20 -21.5h-29v342h35q38 -167 101 -236
t177 -69q85 0 134 42.5t49 114.5q0 101 -115 164l-127 72q-140 80 -198 151.5t-58 163.5q0 120 84 196.5t215 76.5q71 0 153 -29q32 -14 58 -14q18 0 37 24h22l10 -301h-32z" />
    <glyph glyph-name="t" unicode="t" horiz-adv-x="569" 
d="M530 909h-206v-639q0 -97 24.5 -140.5t81.5 -43.5q34 0 61.5 16t61.5 56l27 -23q-99 -155 -246 -155q-182 0 -182 260v669h-109q-8 5 -8 15q0 18 35 39q45 27 98 87.5t141 188.5q15 0 15 -27v-237h206v-66z" />
    <glyph glyph-name="u" unicode="u" horiz-adv-x="1142" 
d="M1092 78q-164 -44 -293 -96l-11 4v178l-92 -92q-42 -42 -112.5 -67t-139.5 -25q-118 0 -189 76t-71 202v543q0 76 -28.5 105t-104.5 32v31h303v-701q0 -68 53.5 -116t131.5 -48q112 0 198 74q41 30 41 113v506q0 80 -29.5 105.5t-130.5 29.5v37h330v-738q1 -75 27 -97
t106 -25h11v-31z" />
    <glyph glyph-name="v" unicode="v" horiz-adv-x="1132" 
d="M1085 936q-51 -4 -74 -30.5t-73 -135.5l-289 -692q-45 -107 -63 -107q-4 0 -8 2.5t-8 8.5t-8 11.5t-9 16.5t-8.5 18.5t-10 21.5t-10.5 22l-274 618q-51 116 -79.5 164t-54 64t-71.5 18v33h432v-33q-60 -4 -82 -17t-22 -42q0 -28 20 -80l238 -568l233 574q15 43 15 65
q0 59 -107 68v33h313v-33z" />
    <glyph glyph-name="w" unicode="w" horiz-adv-x="1568" 
d="M1522 969v-31q-32 -10 -46 -29t-44 -88l-304 -745q-27 -66 -38 -85.5t-23 -19.5q-10 0 -20 16.5t-33 75.5l-199 508l-246 -516q-40 -84 -55 -84q-18 0 -57 95l-295 735q-37 83 -58.5 108.5t-58.5 28.5v31h395v-31q-58 -6 -80 -22t-22 -50q0 -25 14 -65l217 -561l199 428
q-7 22 -22.5 63t-20.5 57q-32 87 -61 115.5t-91 34.5v31h445v-31q-76 -10 -101.5 -26t-25.5 -52q0 -22 5 -38t34 -89l184 -483l197 479q37 81 37 141q0 29 -24.5 43.5t-94.5 24.5v31h293z" />
    <glyph glyph-name="x" unicode="x" horiz-adv-x="1069" 
d="M596 33q54 3 70 12.5t16 38.5q0 21 -12 39l-197 301l-170 -264q-43 -67 -43 -88t20 -30t66 -9v-33h-311v33q54 4 81 23t77 85l243 357l-200 309q-52 76 -85.5 102.5t-80.5 26.5h-21v31h447v-31q-49 -1 -71 -12.5t-22 -34.5q0 -33 56 -123q8 -17 55 -86l18 -27
q46 74 64 95q80 103 80 141q0 22 -19.5 33t-66.5 14v31h340v-31q-109 -3 -174 -94l-178 -258l274 -422q52 -72 90 -100.5t86 -28.5v-33h-432v33z" />
    <glyph glyph-name="y" unicode="y" horiz-adv-x="1122" 
d="M1075 936q-40 -4 -62.5 -24.5t-45.5 -73.5l-375 -875q-96 -224 -177 -316.5t-184 -92.5q-66 0 -107.5 33.5t-39.5 84.5q1 38 28 64t64 26q47 0 105 -22q32 -14 53 -14q22 0 51.5 25.5t52.5 64.5q27 43 50.5 118t25.5 105q0 72 -78 217q-7 21 -35 82l-247 528
q-25 58 -107 70v31h445l-3 -33q-68 -3 -96.5 -16.5t-30.5 -43.5q0 -36 21 -79l248 -545l243 596q11 26 11 35q3 55 -101 55v31h291v-31z" />
    <glyph glyph-name="z" unicode="z" horiz-adv-x="909" 
d="M866 0h-811v33l572 882h-297q-97 0 -131.5 -41t-48.5 -159h-39l6 252h747v-31l-579 -885h297q54 0 90 4t65 16t46 27.5t32 46.5t23.5 65t19.5 89l39 -8z" />
    <glyph glyph-name="braceleft" unicode="{" horiz-adv-x="983" 
d="M717 -371q-191 0 -262.5 60.5t-75.5 226.5v363q-2 108 -37.5 156t-136.5 77q101 28 136.5 75.5t37.5 155.5v365q3 163 75.5 224t262.5 61v-23q-104 -25 -144.5 -80t-42.5 -172v-344q-2 -129 -40 -182t-152 -82q114 -28 152 -80.5t40 -181.5v-344q2 -117 42.5 -172
t144.5 -80v-23z" />
    <glyph glyph-name="bar" unicode="|" horiz-adv-x="409" 
d="M137 1384h135v-1701h-135v1701z" />
    <glyph glyph-name="braceright" unicode="}" horiz-adv-x="983" 
d="M266 1393q191 0 262.5 -60.5t75.5 -226.5v-363q2 -108 37.5 -155.5t136.5 -75.5q-101 -29 -136.5 -77t-37.5 -156v-365q-3 -163 -75.5 -224t-262.5 -61v23q103 25 144.5 80t42.5 172v344q2 129 40 182t152 82q-114 28 -152.5 80t-39.5 182v344q-1 117 -42.5 172
t-144.5 80v23z" />
    <glyph glyph-name="asciitilde" unicode="~" horiz-adv-x="1107" 
d="M1028 555q-70 -98 -125.5 -136t-126.5 -38q-68 0 -120 19t-191 92q-54 28 -121 28q-47 0 -79 -22t-72 -82l-111 65q70 98 125.5 136t126.5 38q68 0 120.5 -18.5t190.5 -91.5q56 -29 121 -29q47 0 79.5 22.5t72.5 82.5z" />
    <glyph glyph-name="uni00A0" unicode="&#xa0;" horiz-adv-x="512" 
 />
    <glyph glyph-name="exclamdown" unicode="&#xa1;" horiz-adv-x="681" 
d="M348 578l19 -222q11 -129 34 -282q41 -238 41 -361q0 -75 -28.5 -117t-79.5 -42q-53 0 -81 42t-28 121q0 26 4 76l93 785h26zM336 956q46 0 78 -30t32 -74q0 -46 -32.5 -78.5t-79.5 -32.5q-46 0 -77.5 33t-31.5 80q0 44 32 73t79 29z" />
    <glyph glyph-name="cent" unicode="&#xa2;" horiz-adv-x="1024" 
d="M729 909q74 -29 114 -73.5t40 -98.5q0 -41 -24.5 -66.5t-63.5 -25.5q-38 0 -64.5 23.5t-54.5 83.5l-207 -596q65 -25 121 -25q91 0 156 44.5t145 160.5l27 -17q-52 -107 -89.5 -160.5t-91.5 -99.5q-90 -77 -211 -77q-51 0 -114 18l-101 -283h-69l104 308
q-56 32 -85.5 56.5t-57.5 63.5q-94 127 -94 304q0 207 130 350t320 143q44 0 105 -10l90 254h71zM641 862q-50 19 -96 19q-126 0 -202.5 -96t-76.5 -253q0 -110 32.5 -186t107.5 -145z" />
    <glyph glyph-name="sterling" unicode="&#xa3;" horiz-adv-x="1024" 
d="M705 672h-250l2 -56l2 -57q0 -51 -9 -108.5t-42 -223.5q99 -41 164 -56t141 -15q141 0 231 100q29 33 47 33q13 0 13 -8q0 -28 -28.5 -84t-60.5 -93q-102 -118 -256 -118q-66 0 -127.5 26.5t-166.5 98.5q-61 -73 -104 -100t-97 -27q-64 0 -101.5 34t-37.5 93
q0 71 50.5 113t135.5 42q45 0 94 -10q6 24 6 43q0 68 -35 305l-4 33l-4 35h-221v92h219q-14 74 -14 141q0 221 107.5 350t291.5 129q115 0 191 -54t76 -136q0 -47 -29.5 -78t-73.5 -31q-46 0 -62.5 28t-17.5 110q0 106 -114 106q-92 0 -143.5 -75t-51.5 -210q0 -83 23 -280
h256v-92zM182 193q-104 0 -104 -76q0 -34 23.5 -55t60.5 -21q58 0 94 47q35 38 35 68q0 12 -35.5 24.5t-73.5 12.5z" />
    <glyph glyph-name="currency" unicode="&#xa4;" horiz-adv-x="1024" 
d="M156 418q-84 122 -84 258q0 141 84 258l-201 201l102 98l197 -197q68 43 127.5 61.5t132.5 18.5q140 0 256 -80l201 197l98 -98l-197 -201q44 -66 62 -123.5t18 -132.5q0 -74 -18 -132.5t-62 -127.5l197 -197l-98 -102l-201 200q-119 -83 -256 -83q-139 0 -260 83
l-197 -200l-102 102zM518 985q-129 0 -218 -89.5t-89 -219.5q0 -128 88.5 -218.5t214.5 -90.5q125 0 212 90.5t87 220.5q0 126 -87 216.5t-208 90.5z" />
    <glyph glyph-name="yen" unicode="&#xa5;" horiz-adv-x="1024" 
d="M752 0h-500v39q72 3 104 19.5t44.5 57t13.5 130.5v127h-357v82h357v155l-15 29h-342v82h295l-194 354q-59 105 -94 153t-67 67t-81 22v39h498v-39q-73 -2 -103 -15t-30 -45q0 -42 26 -92l242 -452l229 450q29 56 29 92q0 28 -29.5 45t-75.5 17h-28v39h399v-39
q-78 -17 -131.5 -65.5t-110.5 -153.5l-188 -377h299v-82h-340l-14 -29v-155h354v-82h-354v-150q1 -109 34 -145.5t130 -38.5v-39z" />
    <glyph glyph-name="brokenbar" unicode="&#xa6;" horiz-adv-x="409" 
d="M137 362h135v-675h-135v675zM137 1319h135v-674h-135v674z" />
    <glyph glyph-name="section" unicode="&#xa7;" horiz-adv-x="1024" 
d="M598 256q116 -100 154.5 -160t38.5 -139q0 -117 -81 -188.5t-214 -71.5q-120 0 -201.5 59.5t-81.5 145.5q0 47 32 78.5t79 31.5q41 0 69.5 -24.5t28.5 -61.5q0 -43 -47 -84q-23 -20 -23 -30q0 -28 44.5 -50t101.5 -22q82 0 130 43t48 115q0 60 -41.5 114t-140.5 121
q-188 129 -269.5 234t-81.5 219q0 104 67.5 173.5t168.5 69.5q31 0 51 -2q-123 101 -164 163t-41 145q0 112 78.5 180.5t206.5 68.5q113 0 187.5 -57t74.5 -143q0 -51 -27.5 -80t-76.5 -29q-43 0 -70 25t-27 63q0 52 54 90q16 13 16 23q0 28 -36.5 46.5t-90.5 18.5
q-78 0 -126 -40t-48 -105q0 -39 19.5 -78.5t50.5 -66.5l280 -232q182 -150 182 -317q0 -107 -66.5 -176.5t-170.5 -69.5h-37zM391 784q-61 0 -100 -38.5t-39 -98.5q0 -46 21 -86t73 -92q94 -93 157.5 -131.5t121.5 -38.5q57 0 99 40.5t42 94.5q0 82 -109 191
q-72 71 -145.5 115t-120.5 44z" />
    <glyph glyph-name="dieresis" unicode="&#xa8;" horiz-adv-x="681" 
d="M135 1276q41 0 72 -30.5t31 -71.5q0 -42 -30.5 -72.5t-72.5 -30.5q-41 0 -69.5 30.5t-28.5 74.5q0 40 29 70t69 30zM543 1276q41 0 71.5 -30.5t30.5 -71.5q0 -42 -30.5 -72.5t-71.5 -30.5t-70 30.5t-29 74.5q0 40 29.5 70t69.5 30z" />
    <glyph glyph-name="copyright" unicode="&#xa9;" horiz-adv-x="1556" 
d="M791 1384q140 0 267 -56t219.5 -151t147 -226t54.5 -275q0 -146 -54.5 -276.5t-148 -224.5t-223 -149t-273.5 -55q-145 0 -275 55.5t-223.5 149.5t-148.5 224.5t-55 275.5q0 147 55.5 278.5t150.5 225.5t227 149t280 55zM788 1298q-122 0 -232.5 -49t-190.5 -132.5
t-127.5 -198.5t-47.5 -242q0 -124 47.5 -238.5t126.5 -198t188 -133t228 -49.5q157 0 292 84t214.5 227.5t79.5 309.5q0 124 -47 238.5t-125 198t-185 133.5t-221 50zM1120 815h-39q-71 219 -293 219q-143 0 -226 -99.5t-83 -270.5q0 -183 83.5 -282t236.5 -99q96 0 167 36
t134 117l37 -18q-77 -101 -164.5 -146t-208.5 -45q-189 0 -317 119.5t-128 296.5q0 186 137 310t343 124q81 0 186 -37q12 -6 31 -6q29 0 45 43h39z" />
    <glyph glyph-name="ordfeminine" unicode="&#xaa;" horiz-adv-x="565" 
d="M553 868q-37 -36 -61.5 -48.5t-59.5 -12.5q-41 0 -62 20.5t-30 69.5q-97 -90 -186 -90q-63 0 -104.5 39t-41.5 100q0 69 45 105q40 35 83 55t186 74v61q0 41 -19.5 63.5t-54.5 22.5q-36 0 -64 -14t-28 -33q0 -9 4 -29q2 -6 2 -16q0 -20 -19 -35.5t-45 -15.5
q-28 0 -46.5 17.5t-18.5 45.5q0 60 62 98.5t159 38.5q215 0 215 -196v-236q0 -45 5 -58t22 -13q30 0 57 24v-37zM324 1128q-108 -38 -147.5 -66.5t-39.5 -68.5q0 -37 23 -63.5t55 -26.5q36 0 86 23q23 23 23 45v157z" />
    <glyph glyph-name="guillemotleft" unicode="&#xab;" horiz-adv-x="1024" 
d="M219 575q12 8 33 29l6 4q18 15 49 43q27 25 57 53t48 46.5t20 21.5q26 32 52.5 56t35.5 24q8 0 14.5 -7t6.5 -14q0 -20 -32.5 -72t-78.5 -110q-98 -115 -154 -190q7 -11 13.5 -18.5t7.5 -8.5q242 -308 242 -346q0 -18 -19 -18q-12 0 -22 12q-153 150 -348 319l-64 56z
M612 575q12 8 33 29l6 4q17 15 49 43q27 25 57 53t48 46.5t20 21.5q26 32 52.5 56t35.5 24q7 0 14 -7t7 -14q0 -20 -32.5 -72t-78.5 -110q-89 -105 -153 -190q2 -3 20 -27q242 -308 242 -346q0 -18 -19 -18q-12 0 -22 12q-153 150 -348 319l-64 56z" />
    <glyph glyph-name="logicalnot" unicode="&#xac;" horiz-adv-x="1155" 
d="M1096 784v-553h-135v422h-898v131h1033z" />
    <glyph glyph-name="uni00AD" unicode="&#xad;" horiz-adv-x="681" 
d="M584 526v-129h-504v129h504z" />
    <glyph glyph-name="registered" unicode="&#xae;" horiz-adv-x="1556" 
d="M449 1065h362q107 0 171.5 -51t64.5 -137q0 -147 -162 -213l116 -162q77 -108 156 -174v-17h-131q-22 -4 -59 39t-82 123q-30 54 -107 170h-98v-203q0 -74 14 -82q19 -10 86 -16v-31h-331v31q67 6 86 16q14 8 14 82v494q0 76 -14 84q-15 8 -86 16v31zM680 682h88
q68 0 104.5 47t36.5 135q0 162 -145 162h-84v-344zM780 1384q146 0 275.5 -55.5t222.5 -151t147 -228.5t54 -283q0 -141 -55 -269.5t-148.5 -222t-223 -148.5t-272.5 -55q-145 0 -275 55.5t-223.5 149.5t-148.5 224.5t-55 275.5q0 194 93.5 357t255 257t353.5 94zM780 1298
q-119 0 -228 -50t-188 -133.5t-126.5 -198.5t-47.5 -240q0 -124 47.5 -238.5t126.5 -198t188 -133t228 -49.5q116 0 224 49.5t187.5 132.5t127 195.5t47.5 233.5q0 172 -78 317t-213 229t-295 84z" />
    <glyph glyph-name="macron" unicode="&#xaf;" horiz-adv-x="681" 
d="M647 1217v-101h-614v101h614z" />
    <glyph glyph-name="degree" unicode="&#xb0;" horiz-adv-x="819" 
d="M410 1384q124 0 208 -84.5t84 -209.5q0 -123 -85.5 -207t-210.5 -84q-120 0 -204.5 85.5t-84.5 207.5q0 123 85 207.5t208 84.5zM410 1315q-88 0 -150.5 -65.5t-62.5 -157.5q0 -91 62.5 -157.5t148.5 -66.5q89 0 152 66t63 158q0 91 -62.5 157t-150.5 66z" />
    <glyph glyph-name="plusminus" unicode="&#xb1;" horiz-adv-x="1155" 
d="M76 231h1005v-108h-1005v108zM524 1260h109v-451h448v-109h-448v-327h-109v327h-448v109h448v451z" />
    <glyph glyph-name="uni00B2" unicode="&#xb2;" horiz-adv-x="614" 
d="M530 553h-518v47l201 219q77 85 121.5 160t44.5 121q0 64 -44 109.5t-106 45.5q-57 0 -99.5 -34.5t-76.5 -108.5l-51 29q25 72 44.5 107.5t51.5 64.5q71 71 201 71q120 0 194 -60t74 -157q0 -75 -39 -144t-133 -163l-176 -174h248q43 2 63 12t41 43l35 -14z" />
    <glyph glyph-name="uni00B3" unicode="&#xb3;" horiz-adv-x="614" 
d="M190 1001q108 35 152.5 73t44.5 95q0 46 -30.5 73.5t-84.5 27.5q-55 0 -93 -24.5t-85 -92.5l-51 37q54 104 119 149t160 45q94 0 157.5 -49t63.5 -121q0 -43 -28.5 -81.5t-94.5 -85.5q176 -71 176 -232q0 -120 -112.5 -199t-282.5 -79q-82 0 -126 26.5t-44 75.5
q0 32 20 54t51 22q32 0 84 -39q33 -24 55 -32.5t50 -8.5q63 0 101 38t38 101q0 99 -84 146q-24 14 -56 22.5t-50 5.5l-47 -6z" />
    <glyph glyph-name="acute" unicode="&#xb4;" horiz-adv-x="681" 
d="M156 1038l301 303q28 28 45.5 38t40.5 10q34 0 52.5 -17.5t18.5 -48.5q0 -48 -61 -86l-315 -199h-82z" />
    <glyph glyph-name="uni00B5" unicode="&#xb5;" horiz-adv-x="1024" 
d="M879 188q0 -71 15 -102t50 -31q23 0 44.5 12t58.5 46v-17q-51 -66 -92.5 -91t-100.5 -25q-74 0 -110 44t-39 140q-61 -96 -128.5 -140t-152.5 -44q-78 0 -135.5 36.5t-104.5 114.5q9 -86 39 -199q37 -143 37 -221q0 -157 -94 -157q-44 0 -69 38t-25 105q0 74 24 215
q25 149 25 199v811h180v-627q0 -88 46 -138.5t126 -50.5q149 0 225 130v686h181v-734z" />
    <glyph glyph-name="paragraph" unicode="&#xb6;" horiz-adv-x="927" 
d="M514 -369h-135v928q-95 3 -148.5 17.5t-105.5 50.5q-143 101 -143 350q0 200 101 289.5t327 89.5h538v-39q-64 -6 -95.5 -13t-52.5 -28.5t-26 -52t-6 -90.5v-1502h-135v1680h-119v-1680zM379 1311q-60 -4 -92.5 -14t-61.5 -31q-88 -64 -88 -283q0 -193 55 -279t187 -100
v707z" />
    <glyph glyph-name="periodcentered" unicode="&#xb7;" horiz-adv-x="512" 
d="M256 635q46 0 80.5 -35t34.5 -82q0 -45 -34.5 -77.5t-82.5 -32.5q-44 0 -77.5 33t-33.5 77q0 49 33.5 83t79.5 34z" />
    <glyph glyph-name="cedilla" unicode="&#xb8;" horiz-adv-x="681" 
d="M285 0h71l-51 -133q30 6 53 6q84 0 130.5 -37t46.5 -104q0 -80 -69 -126t-187 -46q-91 0 -173 32l29 64q76 -25 133 -25q52 0 82.5 24.5t30.5 65.5q0 40 -25 57t-84 17q-36 0 -57 -8l-14 10z" />
    <glyph glyph-name="uni00B9" unicode="&#xb9;" horiz-adv-x="614" 
d="M508 553h-391v49q64 3 85 16.5t23 49.5v526q0 33 -3.5 45t-12.5 12q-17 0 -88 -26v47l241 112l29 -6v-702q2 -40 26 -55.5t91 -18.5v-49z" />
    <glyph glyph-name="ordmasculine" unicode="&#xba;" horiz-adv-x="634" 
d="M326 1384q131 0 214 -76.5t83 -197.5q0 -129 -89.5 -216t-224.5 -87q-129 0 -213 80.5t-84 204.5q0 132 86.5 212t227.5 80zM307 1317q-66 0 -105.5 -41.5t-39.5 -110.5q0 -133 51 -221q39 -70 115 -70q70 0 107.5 46.5t37.5 132.5q0 117 -46 190.5t-120 73.5z" />
    <glyph glyph-name="guillemotright" unicode="&#xbb;" horiz-adv-x="1024" 
d="M874 399q-191 -165 -348 -319q-10 -12 -22 -12q-19 0 -19 18q0 38 242 346l12 14l9 13q-56 75 -154 190q-46 58 -78.5 110t-32.5 72q0 7 6.5 14t14.5 7q9 0 35.5 -24t52.5 -56q2 -3 20 -21.5t48 -46.5t57 -53q28 -22 49 -43q2 -1 6.5 -5l13.5 -12t19 -16l133 -120z
M481 399q-191 -165 -348 -319q-10 -12 -22 -12q-19 0 -19 18q0 38 242 346l12 14l8 13q-64 85 -153 190q-46 58 -78.5 110t-32.5 72q0 7 7 14t14 7q9 0 35.5 -24t52.5 -56q2 -3 20 -21.5t48 -46.5t57 -53q28 -22 49 -43q2 -1 6.5 -5l13.5 -12t19 -16l133 -120z" />
    <glyph glyph-name="onequarter" unicode="&#xbc;" horiz-adv-x="1536" 
d="M442 567h-364v23q59 3 82.5 20.5t25.5 57.5v526q0 42 -6 57t-24 15q-10 0 -74 -21v19l229 106l15 -2v-692q2 -44 27 -63t89 -23v-23zM1458 195h-104v-195h-135v195h-351v94l398 528h88v-520h104v-102zM1214 645l-258 -348h258v348zM371 -29h-101l928 1413h94z" />
    <glyph glyph-name="onehalf" unicode="&#xbd;" horiz-adv-x="1536" 
d="M442 567h-364v23q59 3 82.5 20.5t25.5 57.5v526q0 42 -6 57t-24 15q-10 0 -74 -21v19l229 106l15 -2v-692q2 -44 27 -63t89 -23v-23zM307 -29h-100l928 1413h94zM1436 12h-496v29l199 215q170 187 170 307q0 68 -45 110t-117 42q-120 0 -184 -137l-29 16q37 108 88 156
q70 67 180 67q106 0 178 -62t72 -153q0 -135 -152 -287l-198 -196h280q45 2 67 12t42 39l12 -4z" />
    <glyph glyph-name="threequarters" unicode="&#xbe;" horiz-adv-x="1536" 
d="M199 1001q109 38 152.5 77t43.5 98q0 50 -33.5 79t-91.5 29q-57 0 -94.5 -24t-83.5 -89l-37 27q31 53 35 59q38 58 98 89.5t131 31.5q89 0 150 -45.5t61 -111.5q0 -44 -27 -78t-106 -92q69 -28 101 -54q84 -68 84 -172q0 -116 -108.5 -192t-274.5 -76q-75 0 -116.5 24
t-41.5 68q0 28 17.5 47t43.5 19q27 0 78 -37q34 -25 57 -34t52 -9q66 0 106.5 40.5t40.5 106.5q0 74 -55.5 129.5t-128.5 55.5q-8 0 -14 -2l-37 -4zM1458 195h-104v-195h-135v195h-351v94l398 528h88v-520h104v-102zM1214 645l-258 -348h258v348zM399 -29h-100l928 1413h94z
" />
    <glyph glyph-name="questiondown" unicode="&#xbf;" horiz-adv-x="909" 
d="M463 602q-3 -143 -62 -291l-57 -131q-76 -175 -76 -319q0 -103 65 -174.5t159 -71.5q74 0 133 39t59 88q0 22 -35 63q-43 49 -43 89q0 38 23 60.5t61 22.5q98 0 98 -127t-95 -211.5t-236 -84.5q-85 0 -168 32t-135 86q-74 74 -74 199q0 119 92 258q29 43 123 158
q56 71 86 141.5t47 173.5h35zM444 954q47 0 79 -30t32 -74q0 -46 -33 -78.5t-80 -32.5q-46 0 -77 32t-31 81q0 45 30.5 73.5t79.5 28.5z" />
    <glyph glyph-name="Agrave" unicode="&#xc0;" 
d="M1446 0h-522v39q82 1 112.5 16.5t30.5 53.5q0 51 -39 137l-84 196h-536l-95 -239q-16 -43 -16 -80q0 -44 33 -64t106 -20v-39h-405v39q27 1 44 5t36.5 18t34 33.5t37 61t45 89.5t57.5 129l426 1005h41l510 -1163q54 -114 84.5 -144t99.5 -34v-39zM915 526l-237 564
l-236 -564h473zM813 1473l-315 198q-60 38 -60 88q0 29 19 46.5t51 17.5q23 0 40.5 -9.5t45.5 -37.5l301 -303h-82z" />
    <glyph glyph-name="Aacute" unicode="&#xc1;" 
d="M1446 0h-522v39q82 1 112.5 16.5t30.5 53.5q0 51 -39 137l-84 196h-536l-95 -239q-16 -43 -16 -80q0 -44 33 -64t106 -20v-39h-405v39q27 1 44 5t36.5 18t34 33.5t37 61t45 89.5t57.5 129l426 1005h41l510 -1163q54 -114 84.5 -144t99.5 -34v-39zM915 526l-237 564
l-236 -564h473zM580 1473l301 303q28 28 45.5 37.5t40.5 9.5q34 0 52.5 -17.5t18.5 -48.5q0 -48 -61 -86l-315 -198h-82z" />
    <glyph glyph-name="Acircumflex" unicode="&#xc2;" 
d="M1446 0h-522v39q82 1 112.5 16.5t30.5 53.5q0 51 -39 137l-84 196h-536l-95 -239q-16 -43 -16 -80q0 -44 33 -64t106 -20v-39h-405v39q27 1 44 5t36.5 18t34 33.5t37 61t45 89.5t57.5 129l426 1005h41l510 -1163q54 -114 84.5 -144t99.5 -34v-39zM915 526l-237 564
l-236 -564h473zM979 1473l-250 210l-248 -210h-69l254 342h127l256 -342h-70z" />
    <glyph glyph-name="Atilde" unicode="&#xc3;" 
d="M1446 0h-522v39q82 1 112.5 16.5t30.5 53.5q0 51 -39 137l-84 196h-536l-95 -239q-16 -43 -16 -80q0 -44 33 -64t106 -20v-39h-405v39q27 1 44 5t36.5 18t34 33.5t37 61t45 89.5t57.5 129l426 1005h41l510 -1163q54 -114 84.5 -144t99.5 -34v-39zM915 526l-237 564
l-236 -564h473zM1077 1741q-32 -117 -81.5 -167t-133.5 -50q-39 0 -71.5 9.5t-94.5 39.5l-47 22q-51 23 -84 23q-70 0 -104 -94h-60q23 100 77 153.5t130 53.5q74 0 144 -37l49 -25q67 -31 108 -31q35 0 59 22.5t50 80.5h59z" />
    <glyph glyph-name="Adieresis" unicode="&#xc4;" 
d="M1446 0h-522v39q82 1 112.5 16.5t30.5 53.5q0 51 -39 137l-84 196h-536l-95 -239q-16 -43 -16 -80q0 -44 33 -64t106 -20v-39h-405v39q27 1 44 5t36.5 18t34 33.5t37 61t45 89.5t57.5 129l426 1005h41l510 -1163q54 -114 84.5 -144t99.5 -34v-39zM915 526l-237 564
l-236 -564h473zM520 1710q41 0 72 -30.5t31 -71.5q0 -42 -30.5 -72.5t-72.5 -30.5q-41 0 -69.5 30.5t-28.5 74.5q0 40 29 70t69 30zM928 1710q41 0 71.5 -30.5t30.5 -71.5q0 -42 -30 -72.5t-72 -30.5q-41 0 -70 30.5t-29 74.5q0 40 29.5 70t69.5 30z" />
    <glyph glyph-name="Aring" unicode="&#xc5;" 
d="M1446 0h-522v39q82 1 112.5 16.5t30.5 53.5q0 51 -39 137l-84 196h-536l-95 -239q-16 -43 -16 -80q0 -44 33 -64t106 -20v-39h-405v39q27 1 44 5t36.5 18t34 33.5t37 61t45 89.5t57.5 129l426 1005h41l510 -1163q54 -114 84.5 -144t99.5 -34v-39zM915 526l-237 564
l-236 -564h473zM719 1874q85 0 145 -60t60 -145t-60 -144t-145 -59q-86 0 -144.5 59.5t-58.5 145.5q0 83 60 143t143 60zM721 1804q-56 0 -95.5 -39t-39.5 -94q0 -57 38.5 -96t92.5 -39q58 0 97.5 38.5t39.5 94.5q0 55 -39.5 95t-93.5 40z" />
    <glyph glyph-name="AE" unicode="&#xc6;" horiz-adv-x="1820" 
d="M1624 1067q-7 49 -15.5 80.5t-27 57.5t-42 39.5t-66 23t-93 12t-129.5 2.5h-178q-31 0 -42 -13t-13 -48v-471h227q161 3 211 39t60 159h43v-479h-43q-11 119 -51.5 160.5t-149.5 44.5h-297v-488q0 -80 16 -90q14 -18 125 -18h156q73 1 119.5 8t86 22t71 47t60 74.5
t66.5 114.5h49l-90 -344h-1044v39l35 4q96 13 120 42.5t27 135.5v311h-360l-58 -108q-131 -250 -131 -324q0 -48 140 -61h2v-39h-408v39q66 9 97.5 37.5t82.5 122.5l502 991q18 34 18 57q0 34 -42 49.5t-142 18.5v41h1155v-289h-47zM815 612v654l-326 -654h326z" />
    <glyph glyph-name="Ccedilla" unicode="&#xc7;" horiz-adv-x="1366" 
d="M647 -133q30 6 53 6q84 0 130.5 -37t46.5 -104q0 -80 -69 -126t-187 -46q-90 0 -172 32l28 64q76 -25 133 -25q52 0 82.5 24.5t30.5 65.5q0 40 -25 57t-84 17q-36 0 -57 -8l-14 10l75 183q-257 37 -409 222.5t-152 463.5q0 169 57 307.5t165 234.5q97 85 217.5 130.5
t246.5 45.5q153 0 299 -51q50 -16 80 -16q31 0 54 17.5t32 49.5h43l19 -460h-47q-29 99 -57.5 152.5t-78.5 103.5q-126 123 -305 123q-223 0 -355 -165.5t-132 -445.5q0 -171 45.5 -304t130.5 -208q134 -119 332 -119q127 0 235 49t222 158l36 -37q-92 -123 -239 -191.5
t-320 -68.5q-31 0 -49 2z" />
    <glyph glyph-name="Egrave" unicode="&#xc8;" horiz-adv-x="1251" 
d="M1130 0h-1105v39q110 6 142.5 40t35.5 144v910q-3 111 -34.5 144t-143.5 40v39h1087l6 -293h-51q-13 73 -28 110.5t-51 63t-87 32.5t-145 9h-277q-43 0 -54 -12t-13 -58v-454h315q69 2 105 8t62 28.5t37 57t21 100.5h47v-475h-47q-20 127 -58.5 160.5t-166.5 36.5h-315
v-506q0 -60 28 -72t187 -16h55q151 1 236 24t141 78.5t106 167.5h58zM700 1473l-315 198q-59 35 -59 88q0 29 18.5 46.5t50.5 17.5q23 0 39.5 -9.5t46.5 -37.5l301 -303h-82z" />
    <glyph glyph-name="Eacute" unicode="&#xc9;" horiz-adv-x="1251" 
d="M1130 0h-1105v39q110 6 142.5 40t35.5 144v910q-3 111 -34.5 144t-143.5 40v39h1087l6 -293h-51q-13 73 -28 110.5t-51 63t-87 32.5t-145 9h-277q-43 0 -54 -12t-13 -58v-454h315q69 2 105 8t62 28.5t37 57t21 100.5h47v-475h-47q-20 127 -58.5 160.5t-166.5 36.5h-315
v-506q0 -60 28 -72t187 -16h55q151 1 236 24t141 78.5t106 167.5h58zM477 1473l301 303q28 28 45.5 37.5t40.5 9.5q34 0 53 -17.5t19 -48.5q0 -47 -62 -86l-315 -198h-82z" />
    <glyph glyph-name="Ecircumflex" unicode="&#xca;" horiz-adv-x="1251" 
d="M1130 0h-1105v39q110 6 142.5 40t35.5 144v910q-3 111 -34.5 144t-143.5 40v39h1087l6 -293h-51q-13 73 -28 110.5t-51 63t-87 32.5t-145 9h-277q-43 0 -54 -12t-13 -58v-454h315q69 2 105 8t62 28.5t37 57t21 100.5h47v-475h-47q-20 127 -58.5 160.5t-166.5 36.5h-315
v-506q0 -60 28 -72t187 -16h55q151 1 236 24t141 78.5t106 167.5h58zM877 1473l-250 210l-248 -210h-70l254 342h127l256 -342h-69z" />
    <glyph glyph-name="Edieresis" unicode="&#xcb;" horiz-adv-x="1251" 
d="M1130 0h-1105v39q110 6 142.5 40t35.5 144v910q-3 111 -34.5 144t-143.5 40v39h1087l6 -293h-51q-13 73 -28 110.5t-51 63t-87 32.5t-145 9h-277q-43 0 -54 -12t-13 -58v-454h315q69 2 105 8t62 28.5t37 57t21 100.5h47v-475h-47q-20 127 -58.5 160.5t-166.5 36.5h-315
v-506q0 -60 28 -72t187 -16h55q151 1 236 24t141 78.5t106 167.5h58zM422 1710q41 0 71.5 -30.5t30.5 -71.5q0 -42 -30 -72.5t-72 -30.5q-41 0 -69.5 30.5t-28.5 74.5q0 40 29 70t69 30zM829 1710q41 0 72 -30.5t31 -71.5q0 -42 -30.5 -72.5t-72.5 -30.5q-41 0 -69.5 30.5
t-28.5 74.5q0 40 29 70t69 30z" />
    <glyph glyph-name="Igrave" unicode="&#xcc;" horiz-adv-x="681" 
d="M37 39q46 2 74.5 5t52.5 11t36.5 19.5t21 33t11 47.5t3.5 68v910q-1 41 -3.5 66.5t-11 47t-20.5 32.5t-36 19.5t-52.5 12t-75.5 6.5v39h608v-39q-68 -2 -103.5 -9t-59 -28t-30 -53.5t-8.5 -93.5v-910q3 -114 39 -147.5t162 -36.5v-39h-608v39zM416 1473l-316 198
q-59 35 -59 88q0 29 19 46.5t51 17.5q23 0 39.5 -9.5t46.5 -37.5l301 -303h-82z" />
    <glyph glyph-name="Iacute" unicode="&#xcd;" horiz-adv-x="681" 
d="M37 39q46 2 74.5 5t52.5 11t36.5 19.5t21 33t11 47.5t3.5 68v910q-1 41 -3.5 66.5t-11 47t-20.5 32.5t-36 19.5t-52.5 12t-75.5 6.5v39h608v-39q-68 -2 -103.5 -9t-59 -28t-30 -53.5t-8.5 -93.5v-910q3 -114 39 -147.5t162 -36.5v-39h-608v39zM190 1473l302 303
q28 28 45.5 37.5t40.5 9.5q34 0 52.5 -17.5t18.5 -48.5q0 -48 -61 -86l-316 -198h-82z" />
    <glyph glyph-name="Icircumflex" unicode="&#xce;" horiz-adv-x="681" 
d="M37 39q46 2 74.5 5t52.5 11t36.5 19.5t21 33t11 47.5t3.5 68v910q-1 41 -3.5 66.5t-11 47t-20.5 32.5t-36 19.5t-52.5 12t-75.5 6.5v39h608v-39q-68 -2 -103.5 -9t-59 -28t-30 -53.5t-8.5 -93.5v-910q3 -114 39 -147.5t162 -36.5v-39h-608v39zM590 1473l-250 210
l-248 -210h-69l253 342h127l256 -342h-69z" />
    <glyph glyph-name="Idieresis" unicode="&#xcf;" horiz-adv-x="681" 
d="M37 39q46 2 74.5 5t52.5 11t36.5 19.5t21 33t11 47.5t3.5 68v910q-1 41 -3.5 66.5t-11 47t-20.5 32.5t-36 19.5t-52.5 12t-75.5 6.5v39h608v-39q-68 -2 -103.5 -9t-59 -28t-30 -53.5t-8.5 -93.5v-910q3 -114 39 -147.5t162 -36.5v-39h-608v39zM135 1710q41 0 72 -30.5
t31 -71.5q0 -42 -30.5 -72.5t-72.5 -30.5q-41 0 -69.5 30.5t-28.5 74.5q0 40 29 70t69 30zM543 1710q41 0 71.5 -30.5t30.5 -71.5q0 -42 -30.5 -72.5t-71.5 -30.5t-70 30.5t-29 74.5q0 40 29.5 70t69.5 30z" />
    <glyph glyph-name="Eth" unicode="&#xd0;" 
d="M33 1356h553q431 0 643 -215q174 -171 174 -457q0 -149 -54.5 -280t-154.5 -222q-95 -86 -248 -134t-332 -48h-581v39q41 3 67 6.5t47.5 12.5t33 20.5t19 32.5t10 46.5t3.5 65.5v422h-170v90h170v398q-1 42 -2.5 66.5t-9.5 46.5t-18 32t-32.5 19t-48 12.5t-69.5 7.5v39z
M721 645h-299v-485q0 -49 22 -66.5t84 -17.5q254 0 402 84q250 145 250 510q0 166 -62 295.5t-182 212.5q-143 102 -412 102q-61 0 -81.5 -16t-20.5 -64v-465h299v-90z" />
    <glyph glyph-name="Ntilde" unicode="&#xd1;" 
d="M1448 1317q-85 -7 -123 -28.5t-53.5 -72t-18.5 -161.5v-1078h-34l-906 1127v-803q2 -110 18 -162t54.5 -74t120.5 -26v-39h-481v39q54 3 85.5 11t55 22.5t34.5 46t16.5 72.5t6.5 110v903q-62 72 -97 92.5t-101 20.5v39h350l788 -991v690q-2 58 -5 94.5t-12 67t-21.5 47
t-35.5 29t-51 17t-71 7.5v39h481v-39zM1077 1741q-32 -117 -81.5 -167t-133.5 -50q-39 0 -71.5 9.5t-94.5 39.5l-47 22q-51 23 -84 23q-70 0 -104 -94h-60q23 100 77 153.5t130 53.5q74 0 144 -37l49 -25q67 -31 108 -31q35 0 59 22.5t50 80.5h59z" />
    <glyph glyph-name="Ograve" unicode="&#xd2;" 
d="M739 1384q301 0 498 -215q172 -184 172 -499q0 -310 -190 -504.5t-492 -194.5q-135 0 -263 56t-218 153q-83 87 -129.5 220t-46.5 278q0 310 188 508t481 198zM739 1311q-172 0 -293 -133q-65 -72 -104 -210t-39 -294q0 -170 47 -314t125 -215q117 -100 260 -100
q164 0 273 109q73 73 100 149q68 176 68 369q0 182 -45.5 321.5t-129.5 214.5q-115 103 -262 103zM813 1473l-315 198q-60 38 -60 88q0 29 19 46.5t51 17.5q23 0 40.5 -9.5t45.5 -37.5l301 -303h-82z" />
    <glyph glyph-name="Oacute" unicode="&#xd3;" 
d="M739 1384q301 0 498 -215q172 -184 172 -499q0 -310 -190 -504.5t-492 -194.5q-135 0 -263 56t-218 153q-83 87 -129.5 220t-46.5 278q0 310 188 508t481 198zM739 1311q-172 0 -293 -133q-65 -72 -104 -210t-39 -294q0 -170 47 -314t125 -215q117 -100 260 -100
q164 0 273 109q73 73 100 149q68 176 68 369q0 182 -45.5 321.5t-129.5 214.5q-115 103 -262 103zM590 1473l301 303q28 28 45.5 37.5t40.5 9.5q34 0 53 -17.5t19 -48.5q0 -47 -62 -86l-315 -198h-82z" />
    <glyph glyph-name="Ocircumflex" unicode="&#xd4;" 
d="M739 1384q301 0 498 -215q172 -184 172 -499q0 -310 -190 -504.5t-492 -194.5q-135 0 -263 56t-218 153q-83 87 -129.5 220t-46.5 278q0 310 188 508t481 198zM739 1311q-172 0 -293 -133q-65 -72 -104 -210t-39 -294q0 -170 47 -314t125 -215q117 -100 260 -100
q164 0 273 109q73 73 100 149q68 176 68 369q0 182 -45.5 321.5t-129.5 214.5q-115 103 -262 103zM989 1473l-250 210l-247 -210h-70l254 342h127l256 -342h-70z" />
    <glyph glyph-name="Otilde" unicode="&#xd5;" 
d="M739 1384q301 0 498 -215q172 -184 172 -499q0 -310 -190 -504.5t-492 -194.5q-135 0 -263 56t-218 153q-83 87 -129.5 220t-46.5 278q0 310 188 508t481 198zM739 1311q-172 0 -293 -133q-65 -72 -104 -210t-39 -294q0 -170 47 -314t125 -215q117 -100 260 -100
q164 0 273 109q73 73 100 149q68 176 68 369q0 182 -45.5 321.5t-129.5 214.5q-115 103 -262 103zM1077 1741q-32 -117 -81.5 -167t-133.5 -50q-39 0 -71.5 9.5t-94.5 39.5l-47 22q-51 23 -84 23q-70 0 -104 -94h-60q23 100 77 153.5t130 53.5q74 0 144 -37l49 -25
q67 -31 108 -31q35 0 59 22.5t50 80.5h59z" />
    <glyph glyph-name="Odieresis" unicode="&#xd6;" 
d="M739 1384q301 0 498 -215q172 -184 172 -499q0 -310 -190 -504.5t-492 -194.5q-135 0 -263 56t-218 153q-83 87 -129.5 220t-46.5 278q0 310 188 508t481 198zM739 1311q-172 0 -293 -133q-65 -72 -104 -210t-39 -294q0 -170 47 -314t125 -215q117 -100 260 -100
q164 0 273 109q73 73 100 149q68 176 68 369q0 182 -45.5 321.5t-129.5 214.5q-115 103 -262 103zM535 1710q41 0 71.5 -30.5t30.5 -71.5q0 -42 -30.5 -72.5t-71.5 -30.5t-70 30.5t-29 74.5q0 40 29.5 70t69.5 30zM942 1710q41 0 71.5 -30.5t30.5 -71.5q0 -42 -30 -72.5
t-72 -30.5q-41 0 -69.5 30.5t-28.5 74.5q0 40 29 70t69 30z" />
    <glyph glyph-name="multiply" unicode="&#xd7;" horiz-adv-x="1155" 
d="M96 1028l80 80l402 -403l403 403l78 -80l-404 -401l404 -404l-78 -78l-403 404l-402 -404l-80 78l402 404z" />
    <glyph glyph-name="Oslash" unicode="&#xd8;" 
d="M1167 1237q65 -60 97 -98.5t59 -91.5q86 -159 86 -367q0 -315 -187.5 -512t-486.5 -197q-103 0 -183 23t-175 80l-162 -238h-100l194 285q-64 58 -95.5 97t-59.5 93q-84 162 -84 365q0 206 85 367.5t238 251t348 89.5q101 0 181 -22t178 -78l147 219h101zM449 180
q66 -72 133.5 -103.5t156.5 -31.5q203 0 320 169t117 462q0 136 -22 233t-75 197zM1028 1178q-68 71 -135.5 102t-153.5 31q-201 0 -318.5 -171t-117.5 -464q0 -136 21 -231t73 -193z" />
    <glyph glyph-name="Ugrave" unicode="&#xd9;" 
d="M1444 1317q-45 -5 -72 -10.5t-50.5 -18t-35 -28.5t-20 -46t-11.5 -66t-4 -93v-535q0 -119 -15 -196.5t-52 -141.5q-121 -211 -457 -211q-261 0 -387.5 128.5t-126.5 394.5v639q-1 114 -31.5 144.5t-152.5 39.5v39h579v-39q-66 -6 -98.5 -13t-54.5 -28.5t-27 -52t-6 -90.5
v-656q0 -179 51 -270q84 -146 301 -146q115 0 207 44t133 118q47 87 47 279v553q-2 110 -17.5 161.5t-54 73.5t-120.5 27v39h475v-39zM850 1473l-315 198q-60 35 -60 88q0 29 19 46.5t51 17.5q23 0 39.5 -9.5t46.5 -37.5l301 -303h-82z" />
    <glyph glyph-name="Uacute" unicode="&#xda;" 
d="M1444 1317q-45 -5 -72 -10.5t-50.5 -18t-35 -28.5t-20 -46t-11.5 -66t-4 -93v-535q0 -119 -15 -196.5t-52 -141.5q-121 -211 -457 -211q-261 0 -387.5 128.5t-126.5 394.5v639q-1 114 -31.5 144.5t-152.5 39.5v39h579v-39q-66 -6 -98.5 -13t-54.5 -28.5t-27 -52t-6 -90.5
v-656q0 -179 51 -270q84 -146 301 -146q115 0 207 44t133 118q47 87 47 279v553q-2 110 -17.5 161.5t-54 73.5t-120.5 27v39h475v-39zM641 1473l301 303q28 28 45.5 37.5t40.5 9.5q34 0 53 -17.5t19 -48.5q0 -47 -62 -86l-315 -198h-82z" />
    <glyph glyph-name="Ucircumflex" unicode="&#xdb;" 
d="M1444 1317q-45 -5 -72 -10.5t-50.5 -18t-35 -28.5t-20 -46t-11.5 -66t-4 -93v-535q0 -119 -15 -196.5t-52 -141.5q-121 -211 -457 -211q-261 0 -387.5 128.5t-126.5 394.5v639q-1 114 -31.5 144.5t-152.5 39.5v39h579v-39q-66 -6 -98.5 -13t-54.5 -28.5t-27 -52t-6 -90.5
v-656q0 -179 51 -270q84 -146 301 -146q115 0 207 44t133 118q47 87 47 279v553q-2 110 -17.5 161.5t-54 73.5t-120.5 27v39h475v-39zM1028 1473l-250 210l-248 -210h-69l254 342h127l256 -342h-70z" />
    <glyph glyph-name="Udieresis" unicode="&#xdc;" 
d="M1444 1317q-45 -5 -72 -10.5t-50.5 -18t-35 -28.5t-20 -46t-11.5 -66t-4 -93v-535q0 -119 -15 -196.5t-52 -141.5q-121 -211 -457 -211q-261 0 -387.5 128.5t-126.5 394.5v639q-1 114 -31.5 144.5t-152.5 39.5v39h579v-39q-66 -6 -98.5 -13t-54.5 -28.5t-27 -52t-6 -90.5
v-656q0 -179 51 -270q84 -146 301 -146q115 0 207 44t133 118q47 87 47 279v553q-2 110 -17.5 161.5t-54 73.5t-120.5 27v39h475v-39zM571 1710q41 0 72 -30.5t31 -71.5q0 -42 -30.5 -72.5t-72.5 -30.5q-41 0 -69.5 30.5t-28.5 74.5q0 40 29 70t69 30zM979 1710
q41 0 71.5 -30.5t30.5 -71.5q0 -42 -30.5 -72.5t-71.5 -30.5t-69.5 30.5t-28.5 74.5q0 40 29 70t69 30z" />
    <glyph glyph-name="Yacute" unicode="&#xdd;" 
d="M1440 1317q-78 -6 -133.5 -52t-149.5 -182l-303 -462v-398q1 -63 7.5 -95.5t31 -53.5t62 -27t110.5 -8v-39h-627v39q51 2 80.5 5t55 12.5t37.5 21t20.5 37t10.5 54t3 77.5v356l-268 393q-84 118 -125.5 173t-80 93t-62.5 46t-64 10v39h573v-39q-23 -2 -51 -2
q-50 -3 -72 -17t-22 -43q0 -40 35 -90l303 -454l293 463q29 45 29 75q0 37 -31 51.5t-111 16.5v39h449v-39zM709 1473l301 303q28 28 45.5 37.5t40.5 9.5q34 0 52.5 -17.5t18.5 -48.5q0 -48 -61 -86l-315 -198h-82z" />
    <glyph glyph-name="Thorn" unicode="&#xde;" horiz-adv-x="1138" 
d="M606 0h-573v39q42 4 67 8t46 14t31 21.5t17 36t8.5 52t2.5 75.5v887q-1 40 -3 64.5t-9 46t-17 32t-31.5 19.5t-46 13.5t-65.5 8.5v39h567v-39q-67 -6 -101 -14.5t-55 -35t-26 -64.5t-4 -113h164q246 0 389 -100t143 -271q0 -101 -53 -188.5t-144 -137.5
q-124 -69 -358 -69q-61 0 -141 6v-107q1 -60 7.5 -93t29 -54t57 -28t98.5 -9v-39zM414 412q68 -6 116 -6q357 0 357 301q0 158 -98 231.5t-310 73.5q-39 0 -52 -14t-13 -54v-532z" />
    <glyph glyph-name="germandbls" unicode="&#xdf;" horiz-adv-x="1024" 
d="M25 31q76 4 99 30t26 111v758q0 203 61 311q90 158 303 158q160 0 254 -84.5t94 -227.5q0 -110 -58 -175t-222 -140q96 -19 148 -40.5t101 -63.5q127 -108 127 -287q0 -169 -105.5 -284t-260.5 -115q-88 0 -143.5 41.5t-55.5 107.5q0 42 26 70t66 28q34 0 58.5 -23.5
t27.5 -58.5l4 -45q3 -33 17 -47t43 -14q131 0 131 266q0 415 -270 424q-66 3 -66 35q0 26 59 31q100 10 147.5 74.5t47.5 187.5q0 134 -49 209t-137 75q-81 0 -128.5 -59.5t-47.5 -159.5v-1124h-297v31z" />
    <glyph glyph-name="agrave" unicode="&#xe0;" horiz-adv-x="909" 
d="M905 82q-54 -59 -93 -80.5t-91 -21.5q-63 0 -93.5 34t-37.5 115q-94 -80 -163 -114.5t-136 -34.5q-94 0 -154.5 61.5t-60.5 157.5q0 51 20 99t54 79q65 58 131.5 91t306.5 130v125q0 83 -40.5 126.5t-115.5 43.5q-61 0 -104 -29.5t-43 -70.5q0 -23 6 -50q4 -28 4 -32
q0 -34 -27.5 -60t-64.5 -26q-36 0 -62 26t-26 62q0 97 99.5 163t244.5 66q185 0 254 -113q41 -65 41 -215v-399q0 -68 13 -93.5t48 -25.5q43 0 90 39v-53zM588 549q-180 -63 -255 -128t-77 -157v-8q0 -66 37.5 -112t91.5 -46q71 0 150 45q32 19 42.5 41t10.5 68v297z
M592 1038l-316 199q-59 38 -59 88q0 29 19 46.5t51 17.5q23 0 40.5 -10t45.5 -38l301 -303h-82z" />
    <glyph glyph-name="aacute" unicode="&#xe1;" horiz-adv-x="909" 
d="M905 82q-54 -59 -93 -80.5t-91 -21.5q-63 0 -93.5 34t-37.5 115q-94 -80 -163 -114.5t-136 -34.5q-94 0 -154.5 61.5t-60.5 157.5q0 51 20 99t54 79q65 58 131.5 91t306.5 130v125q0 83 -40.5 126.5t-115.5 43.5q-61 0 -104 -29.5t-43 -70.5q0 -23 6 -50q4 -28 4 -32
q0 -34 -27.5 -60t-64.5 -26q-36 0 -62 26t-26 62q0 97 99.5 163t244.5 66q185 0 254 -113q41 -65 41 -215v-399q0 -68 13 -93.5t48 -25.5q43 0 90 39v-53zM588 549q-180 -63 -255 -128t-77 -157v-8q0 -66 37.5 -112t91.5 -46q71 0 150 45q32 19 42.5 41t10.5 68v297z
M252 1038l301 303q28 28 45.5 38t40.5 10q34 0 53 -17.5t19 -48.5q0 -47 -62 -86l-315 -199h-82z" />
    <glyph glyph-name="acircumflex" unicode="&#xe2;" horiz-adv-x="909" 
d="M905 82q-54 -59 -93 -80.5t-91 -21.5q-63 0 -93.5 34t-37.5 115q-94 -80 -163 -114.5t-136 -34.5q-94 0 -154.5 61.5t-60.5 157.5q0 51 20 99t54 79q65 58 131.5 91t306.5 130v125q0 83 -40.5 126.5t-115.5 43.5q-61 0 -104 -29.5t-43 -70.5q0 -23 6 -50q4 -28 4 -32
q0 -34 -27.5 -60t-64.5 -26q-36 0 -62 26t-26 62q0 97 99.5 163t244.5 66q185 0 254 -113q41 -65 41 -215v-399q0 -68 13 -93.5t48 -25.5q43 0 90 39v-53zM588 549q-180 -63 -255 -128t-77 -157v-8q0 -66 37.5 -112t91.5 -46q71 0 150 45q32 19 42.5 41t10.5 68v297z
M705 1038l-250 211l-248 -211h-70l254 342h127l256 -342h-69z" />
    <glyph glyph-name="atilde" unicode="&#xe3;" horiz-adv-x="909" 
d="M905 82q-54 -59 -93 -80.5t-91 -21.5q-63 0 -93.5 34t-37.5 115q-94 -80 -163 -114.5t-136 -34.5q-94 0 -154.5 61.5t-60.5 157.5q0 51 20 99t54 79q65 58 131.5 91t306.5 130v125q0 83 -40.5 126.5t-115.5 43.5q-61 0 -104 -29.5t-43 -70.5q0 -23 6 -50q4 -28 4 -32
q0 -34 -27.5 -60t-64.5 -26q-36 0 -62 26t-26 62q0 97 99.5 163t244.5 66q185 0 254 -113q41 -65 41 -215v-399q0 -68 13 -93.5t48 -25.5q43 0 90 39v-53zM588 549q-180 -63 -255 -128t-77 -157v-8q0 -66 37.5 -112t91.5 -46q71 0 150 45q32 19 42.5 41t10.5 68v297z
M793 1307q-32 -117 -82 -167t-136 -50q-39 0 -69.5 9t-93.5 40l-47 22q-51 23 -84 23q-71 0 -105 -94h-59q23 100 76.5 153t130.5 53q72 0 143 -36l49 -25q64 -31 107 -31q35 0 58.5 22t51.5 81h60z" />
    <glyph glyph-name="adieresis" unicode="&#xe4;" horiz-adv-x="909" 
d="M905 82q-54 -59 -93 -80.5t-91 -21.5q-63 0 -93.5 34t-37.5 115q-94 -80 -163 -114.5t-136 -34.5q-94 0 -154.5 61.5t-60.5 157.5q0 51 20 99t54 79q65 58 131.5 91t306.5 130v125q0 83 -40.5 126.5t-115.5 43.5q-61 0 -104 -29.5t-43 -70.5q0 -23 6 -50q4 -28 4 -32
q0 -34 -27.5 -60t-64.5 -26q-36 0 -62 26t-26 62q0 97 99.5 163t244.5 66q185 0 254 -113q41 -65 41 -215v-399q0 -68 13 -93.5t48 -25.5q43 0 90 39v-53zM588 549q-180 -63 -255 -128t-77 -157v-8q0 -66 37.5 -112t91.5 -46q71 0 150 45q32 19 42.5 41t10.5 68v297z
M250 1276q41 0 71.5 -30.5t30.5 -71.5q0 -42 -30 -72.5t-72 -30.5q-41 0 -69.5 30.5t-28.5 74.5q0 40 29 70t69 30zM657 1276q41 0 72 -30.5t31 -71.5q0 -42 -30.5 -72.5t-72.5 -30.5q-41 0 -69.5 30.5t-28.5 74.5q0 40 29 70t69 30z" />
    <glyph glyph-name="aring" unicode="&#xe5;" horiz-adv-x="909" 
d="M905 82q-54 -59 -93 -80.5t-91 -21.5q-63 0 -93.5 34t-37.5 115q-94 -80 -163 -114.5t-136 -34.5q-94 0 -154.5 61.5t-60.5 157.5q0 51 20 99t54 79q65 58 131.5 91t306.5 130v125q0 83 -40.5 126.5t-115.5 43.5q-61 0 -104 -29.5t-43 -70.5q0 -23 6 -50q4 -28 4 -32
q0 -34 -27.5 -60t-64.5 -26q-36 0 -62 26t-26 62q0 97 99.5 163t244.5 66q185 0 254 -113q41 -65 41 -215v-399q0 -68 13 -93.5t48 -25.5q43 0 90 39v-53zM588 549q-180 -63 -255 -128t-77 -157v-8q0 -66 37.5 -112t91.5 -46q71 0 150 45q32 19 42.5 41t10.5 68v297z
M455 1479q85 0 144.5 -60t59.5 -145t-59.5 -144t-144.5 -59q-86 0 -144.5 59.5t-58.5 145.5q0 83 60 143t143 60zM457 1409q-56 0 -95.5 -39t-39.5 -94q0 -57 38.5 -96t92.5 -39q58 0 97.5 38.5t39.5 94.5q0 55 -39.5 95t-93.5 40z" />
    <glyph glyph-name="ae" unicode="&#xe6;" horiz-adv-x="1366" 
d="M1294 305q-43 -92 -76 -141.5t-75 -85.5q-107 -98 -252 -98q-89 0 -150 34.5t-114 114.5q-103 -87 -169 -118t-143 -31q-104 0 -170.5 62.5t-66.5 162.5q0 92 70.5 161t234.5 136l176 73l4 130q0 86 -24 143q-22 45 -103 45q-133 0 -139 -102v-13l2 -22q2 -12 2 -35
q0 -47 -22.5 -72.5t-65.5 -25.5q-41 0 -65.5 26t-24.5 72q0 94 94 157.5t232 63.5q77 0 129 -20t112 -72q68 54 119.5 73t124.5 19q155 0 232 -88.5t96 -286.5h-537q0 -154 10.5 -221t44.5 -127q25 -46 78.5 -74t116.5 -28q88 0 155 44.5t140 153.5zM559 518
q-185 -67 -244 -118t-59 -144q0 -74 40 -126t97 -52q56 0 131.5 37t75.5 65q0 4 -2 6q-34 109 -37 226zM1067 629q-3 135 -41 194.5t-121 59.5q-88 0 -129 -59.5t-49 -194.5h340z" />
    <glyph glyph-name="ccedilla" unicode="&#xe7;" horiz-adv-x="909" 
d="M420 -113q40 4 55 4q82 0 128 -30.5t46 -85.5q0 -66 -69 -105t-187 -39q-86 0 -172 29l29 51q79 -20 133 -20q52 0 82.5 20.5t30.5 55.5q0 33 -25 47t-84 14q-36 0 -57 -8l-15 10l78 154q-155 20 -248.5 143.5t-93.5 306.5q0 122 41.5 223.5t118.5 169.5q131 115 289 115
q129 0 222 -62.5t93 -148.5q0 -35 -28 -60.5t-68 -25.5q-34 0 -60 25t-38 69l-13 45q-15 57 -40.5 78t-80.5 21q-124 0 -201 -98.5t-77 -258.5q0 -177 88 -288t229 -111q88 0 152 42.5t137 149.5l29 -18q-77 -158 -170 -236.5t-211 -82.5z" />
    <glyph glyph-name="egrave" unicode="&#xe8;" horiz-adv-x="909" 
d="M883 322q-65 -166 -176 -254t-258 -88q-177 0 -280 123t-103 335q0 126 39.5 230.5t111.5 167.5q118 106 277 106q79 0 147.5 -30.5t114.5 -86.5q39 -50 57.5 -104.5t30.5 -153.5h-631q3 -94 15 -152.5t40 -117.5q89 -176 264 -176q99 0 172 49t146 166zM635 633
q-20 133 -63.5 184t-137.5 51t-147 -57t-70 -178h418zM629 1038l-316 199q-59 38 -59 88q0 29 19 46.5t51 17.5q23 0 40.5 -10t45.5 -38l301 -303h-82z" />
    <glyph glyph-name="eacute" unicode="&#xe9;" horiz-adv-x="909" 
d="M881 322q-65 -166 -176.5 -254t-258.5 -88q-177 0 -280 123t-103 335q0 126 40 230.5t112 167.5q118 106 277 106q79 0 147.5 -30.5t114.5 -86.5q39 -50 57.5 -104.5t30.5 -153.5h-631q3 -94 15 -152.5t40 -117.5q89 -176 264 -176q99 0 172 49t146 166zM633 633
q-20 133 -63.5 184t-137.5 51t-147 -57t-70 -178h418zM301 1038l301 303q28 28 45.5 38t40.5 10q34 0 53 -17.5t19 -48.5q0 -47 -62 -86l-315 -199h-82z" />
    <glyph glyph-name="ecircumflex" unicode="&#xea;" horiz-adv-x="909" 
d="M887 322q-65 -166 -176 -254t-258 -88q-177 0 -280 123t-103 335q0 126 39.5 230.5t111.5 167.5q118 106 277 106q79 0 147.5 -30.5t114.5 -86.5q39 -50 57.5 -104.5t30.5 -153.5h-631q3 -94 15 -152.5t40 -117.5q89 -176 265 -176q98 0 171 49t146 166zM639 633
q-20 133 -63.5 184t-137.5 51t-147 -57t-70 -178h418zM737 1038l-250 211l-247 -211h-70l254 342h127l256 -342h-70z" />
    <glyph glyph-name="edieresis" unicode="&#xeb;" horiz-adv-x="909" 
d="M887 322q-65 -166 -176 -254t-258 -88q-177 0 -280 123t-103 335q0 126 39.5 230.5t111.5 167.5q118 106 277 106q79 0 147.5 -30.5t114.5 -86.5q39 -50 57.5 -104.5t30.5 -153.5h-631q3 -94 15 -152.5t40 -117.5q89 -176 265 -176q98 0 171 49t146 166zM639 633
q-20 133 -63.5 184t-137.5 51t-147 -57t-70 -178h418zM291 1276q41 0 71.5 -30.5t30.5 -71.5q0 -42 -30.5 -72.5t-71.5 -30.5t-69.5 30.5t-28.5 74.5q0 40 29 70t69 30zM698 1276q41 0 72 -30.5t31 -71.5q0 -42 -30.5 -72.5t-72.5 -30.5q-41 0 -69.5 30.5t-28.5 74.5
q0 40 29 70t69 30z" />
    <glyph glyph-name="igrave" unicode="&#xec;" horiz-adv-x="569" 
d="M33 31q56 2 84 8t47 26.5t24 51.5t7 92v475q0 67 -15.5 95t-52.5 28q-33 0 -70 -6l-16 -2v30l317 113l9 -6v-727q1 -49 4 -76t10.5 -48t26 -30.5t42.5 -15t68 -8.5v-31h-485v31zM358 1038l-315 199q-59 38 -59 88q0 29 18.5 46.5t50.5 17.5q23 0 40.5 -10t45.5 -38
l301 -303h-82z" />
    <glyph glyph-name="iacute" unicode="&#xed;" horiz-adv-x="569" 
d="M33 31q56 2 84 8t47 26.5t24 51.5t7 92v475q0 67 -15.5 95t-52.5 28q-33 0 -70 -6l-16 -2v30l317 113l9 -6v-727q1 -49 4 -76t10.5 -48t26 -30.5t42.5 -15t68 -8.5v-31h-485v31zM94 1038l301 303q28 28 45.5 38t40.5 10q34 0 53 -17.5t19 -48.5q0 -48 -61 -86l-316 -199
h-82z" />
    <glyph glyph-name="icircumflex" unicode="&#xee;" horiz-adv-x="569" 
d="M33 31q56 2 84 8t47 26.5t24 51.5t7 92v475q0 67 -15.5 95t-52.5 28q-33 0 -70 -6l-16 -2v30l317 113l9 -6v-727q1 -49 4 -76t10.5 -48t26 -30.5t42.5 -15t68 -8.5v-31h-485v31zM510 1038l-250 211l-248 -211h-69l254 342h127l256 -342h-70z" />
    <glyph glyph-name="idieresis" unicode="&#xef;" horiz-adv-x="569" 
d="M121 1276q41 0 71.5 -30.5t30.5 -71.5q0 -42 -30.5 -72.5t-71.5 -30.5t-69.5 30.5t-28.5 74.5q0 40 29 70t69 30zM446 1276q41 0 72 -30.5t31 -71.5q0 -42 -30.5 -72.5t-72.5 -30.5q-41 0 -69.5 30.5t-28.5 74.5q0 40 29 70t69 30zM33 31q56 2 84 8t47 26.5t24 51.5t7 92
v475q0 67 -15.5 95t-52.5 28q-33 0 -70 -6l-16 -2v30l317 113l9 -6v-727q1 -49 4 -76t10.5 -48t26 -30.5t42.5 -15t68 -8.5v-31h-485v31z" />
    <glyph glyph-name="eth" unicode="&#xf0;" horiz-adv-x="1024" 
d="M301 1044l-68 62l248 131q-72 51 -132 76t-140 39l86 47q101 -9 166.5 -29.5t144.5 -66.5l195 102l67 -62l-186 -98q77 -74 114.5 -122.5t71.5 -118.5q97 -199 97 -420q0 -148 -49.5 -282.5t-133.5 -213.5q-111 -108 -276 -108q-192 0 -319.5 136.5t-127.5 340.5
q0 206 125.5 345.5t309.5 139.5q73 0 126.5 -25.5t131.5 -97.5q-23 114 -65.5 190.5t-133.5 168.5zM485 885q-109 0 -175 -87.5t-66 -230.5q0 -230 90 -397q34 -63 87 -98t114 -35q117 0 181 98t64 277q0 209 -82 341t-213 132z" />
    <glyph glyph-name="ntilde" unicode="&#xf1;" horiz-adv-x="1024" 
d="M37 31q77 5 101.5 34t25.5 119v508q0 75 -16.5 103t-59.5 28q-39 0 -55 -8v35q158 46 282 92l15 -4v-162q104 98 165 132t132 34q114 0 177.5 -81t63.5 -226v-469q2 -75 26 -101.5t99 -33.5v-31h-426v31q75 5 100.5 38.5t28.5 133.5v428q0 198 -149 198q-52 0 -96 -24
t-115 -92v-576q0 -56 29.5 -79t105.5 -27v-31h-434v31zM850 1307q-32 -118 -81.5 -167.5t-135.5 -49.5q-39 0 -70.5 9.5t-93.5 39.5l-47 22q-51 23 -84 23q-71 0 -105 -94h-59q23 100 76.5 153t130.5 53q72 0 143 -36l49 -25q64 -31 107 -31q35 0 59 22.5t52 80.5h59z" />
    <glyph glyph-name="ograve" unicode="&#xf2;" horiz-adv-x="1024" 
d="M512 942q197 0 324 -130.5t127 -332.5q0 -213 -130.5 -356t-324.5 -143t-321.5 137t-127.5 346q0 212 126 345.5t327 133.5zM485 885q-110 0 -175.5 -87.5t-65.5 -234.5q0 -228 90 -395q32 -61 85 -96t113 -35q116 0 181 98t65 273q0 211 -82 344t-211 133zM637 1038
l-315 199q-60 38 -60 88q0 29 19 46.5t51 17.5q24 0 40.5 -9.5t45.5 -38.5l301 -303h-82z" />
    <glyph glyph-name="oacute" unicode="&#xf3;" horiz-adv-x="1024" 
d="M512 942q197 0 324 -130.5t127 -332.5q0 -213 -130.5 -356t-324.5 -143t-321.5 137t-127.5 346q0 212 126 345.5t327 133.5zM485 885q-110 0 -175.5 -87.5t-65.5 -234.5q0 -228 90 -395q32 -61 85 -96t113 -35q116 0 181 98t65 273q0 211 -82 344t-211 133zM315 1038
l301 303q28 28 46.5 38t42.5 10q32 0 50.5 -17.5t18.5 -48.5q0 -48 -61 -86l-316 -199h-82z" />
    <glyph glyph-name="ocircumflex" unicode="&#xf4;" horiz-adv-x="1024" 
d="M512 942q197 0 324 -130.5t127 -332.5q0 -213 -130.5 -356t-324.5 -143t-321.5 137t-127.5 346q0 212 126 345.5t327 133.5zM485 885q-110 0 -175.5 -87.5t-65.5 -234.5q0 -228 90 -395q32 -61 85 -96t113 -35q116 0 181 98t65 273q0 211 -82 344t-211 133zM762 1038
l-250 211l-248 -211h-69l254 342h126l256 -342h-69z" />
    <glyph glyph-name="otilde" unicode="&#xf5;" horiz-adv-x="1024" 
d="M512 942q197 0 324 -130.5t127 -332.5q0 -213 -130.5 -356t-324.5 -143t-321.5 137t-127.5 346q0 212 126 345.5t327 133.5zM485 885q-110 0 -175.5 -87.5t-65.5 -234.5q0 -228 90 -395q32 -61 85 -96t113 -35q116 0 181 98t65 273q0 211 -82 344t-211 133zM850 1307
q-32 -118 -81.5 -167.5t-135.5 -49.5q-39 0 -70.5 9.5t-93.5 39.5l-47 22q-51 23 -84 23q-71 0 -105 -94h-59q23 100 76.5 153t130.5 53q72 0 143 -36l49 -25q64 -31 107 -31q35 0 59 22.5t52 80.5h59z" />
    <glyph glyph-name="odieresis" unicode="&#xf6;" horiz-adv-x="1024" 
d="M512 942q197 0 324 -130.5t127 -332.5q0 -213 -130.5 -356t-324.5 -143t-321.5 137t-127.5 346q0 212 126 345.5t327 133.5zM485 885q-110 0 -175.5 -87.5t-65.5 -234.5q0 -228 90 -395q32 -61 85 -96t113 -35q116 0 181 98t65 273q0 211 -82 344t-211 133zM307 1276
q41 0 72 -30.5t31 -71.5q0 -42 -30.5 -72.5t-72.5 -30.5q-41 0 -69.5 30.5t-28.5 74.5q0 40 29 70t69 30zM715 1276q41 0 71.5 -30.5t30.5 -71.5q0 -42 -30.5 -72.5t-71.5 -30.5t-70 30.5t-29 74.5q0 40 29.5 70t69.5 30z" />
    <glyph glyph-name="divide" unicode="&#xf7;" horiz-adv-x="1155" 
d="M76 573v109h1005v-109h-1005zM578 1153q41 0 71.5 -30.5t30.5 -73.5q0 -38 -30.5 -67.5t-71.5 -29.5q-40 0 -69.5 29.5t-29.5 69.5q0 41 29.5 71.5t69.5 30.5zM578 303q41 0 71.5 -30.5t30.5 -73.5q0 -40 -30.5 -68.5t-71.5 -28.5q-40 0 -69.5 29.5t-29.5 69.5
q0 41 29.5 71.5t69.5 30.5z" />
    <glyph glyph-name="oslash" unicode="&#xf8;" horiz-adv-x="1024" 
d="M762 872q49 -35 74 -58.5t49 -59.5q78 -121 78 -275q0 -214 -131 -356.5t-326 -142.5q-97 0 -191 43l-133 -252h-76l150 286q-50 40 -76.5 69.5t-52.5 72.5q-68 123 -68 266q0 209 126.5 343t324.5 134q89 0 188 -37l117 223h80zM367 123q39 -46 77.5 -66t90.5 -20
q115 0 179 99.5t64 279.5q0 98 -19 174t-63 160zM649 811q-41 40 -79 57t-85 17q-109 0 -175 -87.5t-66 -232.5q0 -204 80 -377z" />
    <glyph glyph-name="ugrave" unicode="&#xf9;" horiz-adv-x="1024" 
d="M981 74q-170 -47 -281 -92l-8 4v170l-88 -88q-41 -41 -97.5 -64.5t-113.5 -23.5q-113 0 -180.5 72.5t-67.5 193.5v516q-1 73 -28 100.5t-99 30.5v29h299v-668q0 -64 43 -110t103 -46q94 0 180 70q22 17 30.5 41t8.5 67v482q0 76 -28.5 100t-123.5 29v35h324v-703
q2 -72 22 -93t95 -24h10v-28zM588 1038l-316 199q-59 38 -59 88q0 29 19 46.5t51 17.5q23 0 40.5 -10t45.5 -38l301 -303h-82z" />
    <glyph glyph-name="uacute" unicode="&#xfa;" horiz-adv-x="1024" 
d="M981 74q-170 -47 -281 -92l-8 4v170l-88 -88q-41 -41 -97.5 -64.5t-113.5 -23.5q-113 0 -180.5 72.5t-67.5 193.5v516q-1 73 -28 100.5t-99 30.5v29h299v-668q0 -64 43 -110t103 -46q94 0 180 70q22 17 30.5 41t8.5 67v482q0 76 -28.5 100t-123.5 29v35h324v-703
q2 -72 22 -93t95 -24h10v-28zM381 1038l301 303q28 28 45.5 38t40.5 10q34 0 53 -17.5t19 -48.5q0 -47 -62 -86l-315 -199h-82z" />
    <glyph glyph-name="ucircumflex" unicode="&#xfb;" horiz-adv-x="1024" 
d="M981 74q-170 -47 -281 -92l-8 4v170l-88 -88q-41 -41 -97.5 -64.5t-113.5 -23.5q-113 0 -180.5 72.5t-67.5 193.5v516q-1 73 -28 100.5t-99 30.5v29h299v-668q0 -64 43 -110t103 -46q94 0 180 70q22 17 30.5 41t8.5 67v482q0 76 -28.5 100t-123.5 29v35h324v-703
q2 -72 22 -93t95 -24h10v-28zM717 1038l-250 211l-248 -211h-69l253 342h127l256 -342h-69z" />
    <glyph glyph-name="udieresis" unicode="&#xfc;" horiz-adv-x="1024" 
d="M981 74q-170 -47 -281 -92l-8 4v170l-88 -88q-41 -41 -97.5 -64.5t-113.5 -23.5q-113 0 -180.5 72.5t-67.5 193.5v516q-1 73 -28 100.5t-99 30.5v29h299v-668q0 -64 43 -110t103 -46q94 0 180 70q22 17 30.5 41t8.5 67v482q0 76 -28.5 100t-123.5 29v35h324v-703
q2 -72 22 -93t95 -24h10v-28zM266 1276q41 0 72 -30.5t31 -71.5q0 -42 -30.5 -72.5t-72.5 -30.5q-41 0 -69.5 30.5t-28.5 74.5q0 40 29 70t69 30zM674 1276q41 0 71.5 -30.5t30.5 -71.5q0 -42 -30 -72.5t-72 -30.5q-41 0 -70 30.5t-29 74.5q0 40 29.5 70t69.5 30z" />
    <glyph glyph-name="yacute" unicode="&#xfd;" horiz-adv-x="1024" 
d="M973 891q-37 -5 -58 -24t-41 -68l-315 -836q-85 -223 -163.5 -316t-182.5 -93q-66 0 -109 33.5t-43 84.5q0 38 26 64t63 26q48 0 106 -22q32 -14 53 -14t50 25.5t53 64.5q27 48 54.5 122.5t27.5 98.5q0 46 -91 209q-6 12 -36 78l-234 503q-25 54 -104 66v29h422v-31
q-66 -3 -92.5 -15t-26.5 -40q0 -30 20 -78l236 -518l198 565q9 21 9 35q0 51 -99 51v31h277v-31zM416 1038l301 303q28 28 45.5 38t40.5 10q34 0 52.5 -17.5t18.5 -48.5q0 -48 -61 -86l-315 -199h-82z" />
    <glyph glyph-name="thorn" unicode="&#xfe;" horiz-adv-x="1024" 
d="M10 -408q91 8 117.5 33.5t26.5 106.5v1442q0 65 -19 84.5t-82 19.5q-23 0 -35 -2v33q200 55 297 90l11 -6v-611q69 83 139.5 121.5t155.5 38.5q149 0 245.5 -123t96.5 -313q0 -146 -56.5 -267t-155.5 -190t-219 -69q-64 0 -107 18.5t-99 69.5v-322q1 -69 14.5 -99t49 -42
t116.5 -13v-36h-496v36zM326 180q0 -46 70.5 -90.5t142.5 -44.5q110 0 178.5 105t68.5 274q0 180 -68.5 287.5t-182.5 107.5q-71 0 -140 -44.5t-69 -90.5v-504z" />
    <glyph glyph-name="ydieresis" unicode="&#xff;" horiz-adv-x="1024" 
d="M973 891q-37 -5 -58 -24t-41 -68l-315 -836q-85 -223 -163.5 -316t-182.5 -93q-66 0 -109 33.5t-43 84.5q0 38 26 64t63 26q48 0 106 -22q32 -14 53 -14t50 25.5t53 64.5q27 48 54.5 122.5t27.5 98.5q0 46 -91 209q-6 12 -36 78l-234 503q-25 54 -104 66v29h422v-31
q-66 -3 -92.5 -15t-26.5 -40q0 -30 20 -78l236 -518l198 565q9 21 9 35q0 51 -99 51v31h277v-31zM338 1276q41 0 71.5 -30.5t30.5 -71.5q0 -42 -30 -72.5t-72 -30.5q-41 0 -69.5 30.5t-28.5 74.5q0 40 29 70t69 30zM745 1276q41 0 72 -30.5t31 -71.5q0 -42 -30.5 -72.5
t-72.5 -30.5q-41 0 -69.5 30.5t-28.5 74.5q0 40 29 70t69 30z" />
    <glyph glyph-name="Amacron" unicode="&#x100;" 
d="M1446 0h-522v39q82 1 112.5 16.5t30.5 53.5q0 51 -39 137l-84 196h-536l-95 -239q-16 -43 -16 -80q0 -44 33 -64t106 -20v-39h-405v39q27 1 44 5t36.5 18t34 33.5t37 61t45 89.5t57.5 129l426 1005h41l510 -1163q54 -114 84.5 -144t99.5 -34v-39zM915 526l-237 564
l-236 -564h473zM1059 1665v-111h-637v111h637z" />
    <glyph glyph-name="amacron" unicode="&#x101;" horiz-adv-x="909" 
d="M905 82q-54 -59 -93 -80.5t-91 -21.5q-63 0 -93.5 34t-37.5 115q-94 -80 -163 -114.5t-136 -34.5q-94 0 -154.5 61.5t-60.5 157.5q0 51 20 99t54 79q65 58 131.5 91t306.5 130v125q0 83 -40.5 126.5t-115.5 43.5q-61 0 -104 -29.5t-43 -70.5q0 -23 6 -50q4 -28 4 -32
q0 -34 -27.5 -60t-64.5 -26q-36 0 -62 26t-26 62q0 97 99.5 163t244.5 66q185 0 254 -113q41 -65 41 -215v-399q0 -68 13 -93.5t48 -25.5q43 0 90 39v-53zM588 549q-180 -63 -255 -128t-77 -157v-8q0 -66 37.5 -112t91.5 -46q71 0 150 45q32 19 42.5 41t10.5 68v297z
M774 1231v-111h-637v111h637z" />
    <glyph glyph-name="Abreve" unicode="&#x102;" 
d="M1446 0h-522v39q82 1 112.5 16.5t30.5 53.5q0 51 -39 137l-84 196h-536l-95 -239q-16 -43 -16 -80q0 -44 33 -64t106 -20v-39h-405v39q27 1 44 5t36.5 18t34 33.5t37 61t45 89.5t57.5 129l426 1005h41l510 -1163q54 -114 84.5 -144t99.5 -34v-39zM915 526l-237 564
l-236 -564h473zM1028 1794q-20 -163 -92 -242t-199 -79q-151 0 -229 110q-30 42 -41.5 87t-13.5 124h59q20 -103 75 -151t154 -48q89 0 136.5 41t91.5 158h59z" />
    <glyph glyph-name="abreve" unicode="&#x103;" horiz-adv-x="909" 
d="M905 82q-54 -59 -93 -80.5t-91 -21.5q-63 0 -93.5 34t-37.5 115q-94 -80 -163 -114.5t-136 -34.5q-94 0 -154.5 61.5t-60.5 157.5q0 51 20 99t54 79q65 58 131.5 91t306.5 130v125q0 83 -40.5 126.5t-115.5 43.5q-61 0 -104 -29.5t-43 -70.5q0 -23 6 -50q4 -28 4 -32
q0 -34 -27.5 -60t-64.5 -26q-36 0 -62 26t-26 62q0 97 99.5 163t244.5 66q185 0 254 -113q41 -65 41 -215v-399q0 -68 13 -93.5t48 -25.5q43 0 90 39v-53zM588 549q-180 -63 -255 -128t-77 -157v-8q0 -66 37.5 -112t91.5 -46q71 0 150 45q32 19 42.5 41t10.5 68v297z
M743 1360q-20 -163 -91.5 -242.5t-198.5 -79.5q-151 0 -230 111q-30 42 -41.5 87t-13.5 124h59q20 -103 75.5 -151t154.5 -48q89 0 136 41t91 158h59z" />
    <glyph glyph-name="Aogonek" unicode="&#x104;" 
d="M1446 0q-34 -7 -67 -54t-33 -87q0 -37 21.5 -59.5t55.5 -22.5q62 0 146 73l41 -32q-57 -82 -112 -119t-118 -37q-64 0 -106.5 44.5t-42.5 109.5q0 53 24.5 94t85.5 90h-417v39q82 1 112.5 16.5t30.5 53.5q0 51 -39 137l-84 196h-536l-95 -239q-16 -43 -16 -80
q0 -44 33 -64t106 -20v-39h-405v39q27 1 44 5t36.5 18t34 33.5t37 61t45 89.5t57.5 129l426 1005h41l510 -1163q54 -114 84.5 -144t99.5 -34v-39zM915 526l-237 564l-236 -564h473z" />
    <glyph glyph-name="aogonek" unicode="&#x105;" horiz-adv-x="909" 
d="M905 82q-54 -59 -84.5 -77t-93.5 -28q-37 -8 -59.5 -38.5t-22.5 -73.5q0 -40 21.5 -64t56.5 -24q33 0 66 16t79 57l41 -32q-57 -82 -111.5 -119t-117.5 -37q-64 0 -107 44.5t-43 109.5q0 51 26.5 94.5t84.5 89.5q-25 23 -36 50.5t-15 78.5q-94 -80 -163 -114.5
t-136 -34.5q-94 0 -154.5 61.5t-60.5 157.5q0 51 20 99t54 79q65 58 131.5 91t306.5 130v125q0 83 -40.5 126.5t-115.5 43.5q-61 0 -104 -29.5t-43 -70.5q0 -23 6 -50q4 -28 4 -32q0 -34 -27.5 -60t-64.5 -26q-36 0 -62 26t-26 62q0 97 99.5 163t244.5 66q185 0 254 -113
q41 -65 41 -215v-399q0 -68 13 -93.5t48 -25.5q43 0 90 39v-53zM588 549q-180 -63 -255 -128t-77 -157v-8q0 -66 37.5 -112t91.5 -46q71 0 150 45q32 19 42.5 41t10.5 68v297z" />
    <glyph glyph-name="Cacute" unicode="&#x106;" horiz-adv-x="1366" 
d="M1223 924q-29 99 -57.5 152.5t-78.5 103.5q-126 123 -305 123q-223 0 -355 -165.5t-132 -445.5q0 -171 45.5 -304t130.5 -208q134 -119 332 -119q127 0 235 49t222 158l36 -37q-92 -124 -238.5 -192t-320.5 -68q-306 0 -493 191.5t-187 505.5q0 168 57 306t165 234
q97 85 217.5 130.5t246.5 45.5q153 0 299 -51q50 -16 80 -16q31 0 54 17.5t32 49.5h43l19 -460h-47zM655 1473l301 303q28 28 45.5 37.5t40.5 9.5q34 0 53 -17.5t19 -48.5q0 -48 -61 -86l-316 -198h-82z" />
    <glyph glyph-name="cacute" unicode="&#x107;" horiz-adv-x="909" 
d="M844 301q-45 -90 -80 -140t-76 -85q-113 -96 -248 -96q-170 0 -279.5 128t-109.5 326q0 122 41.5 223.5t118.5 169.5q131 115 289 115q129 0 222 -62.5t93 -148.5q0 -35 -28 -60.5t-68 -25.5q-34 0 -60 25t-38 69l-13 45q-15 57 -40.5 78t-80.5 21q-124 0 -201 -98.5
t-77 -258.5q0 -177 88 -288t229 -111q88 0 152 42.5t137 149.5zM285 1038l301 303q28 28 45.5 38t40.5 10q34 0 52.5 -17.5t18.5 -48.5q0 -48 -61 -86l-315 -199h-82z" />
    <glyph glyph-name="Ccircumflex" unicode="&#x108;" horiz-adv-x="1366" 
d="M1298 295q-98 -146 -241.5 -227.5t-304.5 -81.5q-139 0 -265.5 55t-217.5 147.5t-145 221t-54 268.5q0 143 55 271t149.5 220.5t225 146.5t276.5 54q164 0 287 -57q60 -28 74.5 -33.5t29.5 -5.5q50 0 62 82h43l12 -457l-37 -4q-10 87 -39 148t-84 116q-135 135 -325 135
q-218 0 -350 -170t-132 -452q0 -273 132.5 -434.5t355.5 -161.5q276 0 459 241zM1040 1473l-249 210l-248 -210h-70l254 342h127l256 -342h-70z" />
    <glyph glyph-name="ccircumflex" unicode="&#x109;" horiz-adv-x="909" 
d="M844 301q-45 -90 -80 -140t-76 -85q-113 -96 -248 -96q-170 0 -279.5 128t-109.5 326q0 122 41.5 223.5t118.5 169.5q131 115 289 115q129 0 222 -62.5t93 -148.5q0 -35 -28 -60.5t-68 -25.5q-34 0 -60 25t-38 69l-13 45q-15 57 -40.5 78t-80.5 21q-124 0 -201 -98.5
t-77 -258.5q0 -177 88 -288t229 -111q88 0 152 42.5t137 149.5zM727 1038l-250 211l-248 -211h-69l254 342h127l256 -342h-70z" />
    <glyph glyph-name="Cdotaccent" unicode="&#x10a;" horiz-adv-x="1366" 
d="M1298 295q-98 -146 -241.5 -227.5t-304.5 -81.5q-139 0 -265.5 55t-217.5 147.5t-145 221t-54 268.5q0 143 55 271t149.5 220.5t225 146.5t276.5 54q164 0 287 -57q60 -28 74.5 -33.5t29.5 -5.5q50 0 62 82h43l12 -457l-37 -4q-10 87 -39 148t-84 116q-135 135 -325 135
q-218 0 -350 -170t-132 -452q0 -273 132.5 -434.5t355.5 -161.5q276 0 459 241zM786 1686q44 0 76.5 -32.5t32.5 -76.5q0 -46 -32.5 -78.5t-76.5 -32.5q-46 0 -78 32.5t-32 78.5q0 45 32 77t78 32z" />
    <glyph glyph-name="cdotaccent" unicode="&#x10b;" horiz-adv-x="909" 
d="M844 301q-45 -90 -80 -140t-76 -85q-113 -96 -248 -96q-170 0 -279.5 128t-109.5 326q0 122 41.5 223.5t118.5 169.5q131 115 289 115q129 0 222 -62.5t93 -148.5q0 -35 -28 -60.5t-68 -25.5q-34 0 -60 25t-38 69l-13 45q-15 57 -40.5 78t-80.5 21q-124 0 -201 -98.5
t-77 -258.5q0 -177 88 -288t229 -111q88 0 152 42.5t137 149.5zM471 1276q41 0 71.5 -30.5t30.5 -71.5q0 -42 -30.5 -72.5t-71.5 -30.5t-69.5 30.5t-28.5 74.5q0 40 29 70t69 30z" />
    <glyph glyph-name="Ccaron" unicode="&#x10c;" horiz-adv-x="1366" 
d="M1223 924q-29 99 -57.5 152.5t-78.5 103.5q-126 123 -305 123q-223 0 -355 -165.5t-132 -445.5q0 -171 45.5 -304t130.5 -208q134 -119 332 -119q127 0 235 49t222 158l36 -37q-92 -124 -238.5 -192t-320.5 -68q-306 0 -493 191.5t-187 505.5q0 168 57 306t165 234
q97 85 217.5 130.5t246.5 45.5q153 0 299 -51q50 -16 80 -16q31 0 54 17.5t32 49.5h43l19 -460h-47zM825 1473h-127l-254 342h70l248 -211l250 211h69z" />
    <glyph glyph-name="ccaron" unicode="&#x10d;" horiz-adv-x="909" 
d="M844 301q-45 -90 -80 -140t-76 -85q-113 -96 -248 -96q-170 0 -279.5 128t-109.5 326q0 122 41.5 223.5t118.5 169.5q131 115 289 115q129 0 222 -62.5t93 -148.5q0 -35 -28 -60.5t-68 -25.5q-34 0 -60 25t-38 69l-13 45q-15 57 -40.5 78t-80.5 21q-124 0 -201 -98.5
t-77 -258.5q0 -177 88 -288t229 -111q88 0 152 42.5t137 149.5zM559 1038h-127l-254 342h70l248 -211l249 211h70z" />
    <glyph glyph-name="Dcaron" unicode="&#x10e;" 
d="M33 39q41 3 67 6.5t47.5 12.5t33 20.5t19 32.5t10 46.5t3.5 65.5v910q-1 42 -2.5 66.5t-9.5 46.5t-18 32t-32.5 19t-48 12.5t-69.5 7.5v39h553q431 0 643 -215q174 -171 174 -457q0 -149 -54.5 -280t-154.5 -222q-95 -86 -248 -134t-332 -48h-581v39zM422 160
q0 -49 22 -66.5t84 -17.5q254 0 402 84q250 145 250 510q0 166 -62 295.5t-182 212.5q-143 102 -408 102q-64 0 -85 -16t-21 -64v-1040zM723 1473h-127l-254 342h70l247 -211l250 211h70z" />
    <glyph glyph-name="dcaron" unicode="&#x10f;" horiz-adv-x="1204" 
d="M1026 926q168 115 168 217q0 12 -8.5 20t-20.5 8q-4 0 -14 -4q-24 -4 -41 -4q-57 0 -89 28t-32 77q0 52 33.5 84t87.5 32q69 0 116.5 -52.5t47.5 -129.5q0 -92 -63.5 -178t-166.5 -137zM1004 86l-302 -106l-8 6v131q-53 -72 -114.5 -104.5t-147.5 -32.5
q-170 0 -274.5 121.5t-104.5 318.5q0 218 124.5 370t301.5 152q62 0 109.5 -19.5t105.5 -68.5v320q0 63 -18.5 83.5t-75.5 20.5q-29 0 -45 -2v33q195 52 301 90l10 -4v-1162q0 -71 17.5 -93.5t72.5 -22.5q21 0 48 2v-33zM694 680q0 82 -63 143.5t-146 61.5
q-117 0 -186.5 -104.5t-69.5 -278.5q0 -189 77.5 -302.5t205.5 -113.5q95 0 147 61q35 40 35 62v471z" />
    <glyph glyph-name="Dcroat" unicode="&#x110;" 
d="M33 1356h553q431 0 643 -215q174 -171 174 -457q0 -149 -54.5 -280t-154.5 -222q-95 -86 -248 -134t-332 -48h-581v39q41 3 67 6.5t47.5 12.5t33 20.5t19 32.5t10 46.5t3.5 65.5v422h-170v90h170v398q-1 42 -2.5 66.5t-9.5 46.5t-18 32t-32.5 19t-48 12.5t-69.5 7.5v39z
M721 645h-299v-485q0 -49 22 -66.5t84 -17.5q254 0 402 84q250 145 250 510q0 166 -62 295.5t-182 212.5q-143 102 -412 102q-61 0 -81.5 -16t-20.5 -64v-465h299v-90z" />
    <glyph glyph-name="dcroat" unicode="&#x111;" horiz-adv-x="1024" 
d="M449 1079v70h247v25q0 63 -18.5 83.5t-75.5 20.5q-29 0 -45 -2v33q195 52 301 90l10 -4v-246h156v-70h-156v-846q0 -71 17.5 -93.5t72.5 -22.5q21 0 48 2v-33l-301 -106l-9 6v131q-53 -72 -114.5 -104.5t-147.5 -32.5q-170 0 -274.5 121.5t-104.5 318.5q0 218 124.5 370
t301.5 152q62 0 109.5 -19.5t105.5 -68.5v225h-247zM696 680q0 82 -63 143.5t-146 61.5q-117 0 -186.5 -104.5t-69.5 -278.5q0 -189 77.5 -302.5t205.5 -113.5q96 0 148 61q34 39 34 62v471z" />
    <glyph glyph-name="Emacron" unicode="&#x112;" horiz-adv-x="1251" 
d="M1130 0h-1105v39q110 6 142.5 40t35.5 144v910q-3 111 -34.5 144t-143.5 40v39h1087l6 -293h-51q-13 73 -28 110.5t-51 63t-87 32.5t-145 9h-277q-43 0 -54 -12t-13 -58v-454h315q69 2 105 8t62 28.5t37 57t21 100.5h47v-475h-47q-20 127 -58.5 160.5t-166.5 36.5h-315
v-506q0 -60 28 -72t187 -16h55q151 1 236 24t141 78.5t106 167.5h58zM944 1665v-111h-637v111h637z" />
    <glyph glyph-name="emacron" unicode="&#x113;" horiz-adv-x="909" 
d="M868 322q-65 -166 -176 -254t-258 -88q-177 0 -280 123t-103 335q0 126 40 230.5t112 167.5q118 106 276 106q79 0 147.5 -30.5t114.5 -86.5q39 -50 57.5 -104.5t30.5 -153.5h-630q3 -94 15 -152.5t40 -117.5q89 -176 264 -176q99 0 172 49t146 166zM621 633
q-20 133 -63.5 184t-137.5 51t-147 -57t-70 -178h418zM774 1231v-111h-637v111h637z" />
    <glyph glyph-name="Ebreve" unicode="&#x114;" horiz-adv-x="1251" 
d="M1130 0h-1105v39q110 6 142.5 40t35.5 144v910q-3 111 -34.5 144t-143.5 40v39h1087l6 -293h-51q-13 73 -28 110.5t-51 63t-87 32.5t-145 9h-277q-43 0 -54 -12t-13 -58v-454h315q69 2 105 8t62 28.5t37 57t21 100.5h47v-475h-47q-20 127 -58.5 160.5t-166.5 36.5h-315
v-506q0 -60 28 -72t187 -16h55q151 1 236 24t141 78.5t106 167.5h58zM913 1794q-19 -163 -90 -242t-200 -79q-152 0 -230 110q-30 43 -42 88.5t-13 122.5h59q22 -103 77 -151t153 -48q89 0 136 41t91 158h59z" />
    <glyph glyph-name="ebreve" unicode="&#x115;" horiz-adv-x="909" 
d="M881 322q-65 -166 -176.5 -254t-258.5 -88q-177 0 -280 123t-103 335q0 126 40 230.5t112 167.5q118 106 277 106q79 0 147.5 -30.5t114.5 -86.5q39 -50 57.5 -104.5t30.5 -153.5h-631q3 -94 15 -152.5t40 -117.5q89 -176 264 -176q99 0 172 49t146 166zM633 633
q-20 133 -63.5 184t-137.5 51t-147 -57t-70 -178h418zM778 1360q-19 -163 -90.5 -242.5t-198.5 -79.5q-150 0 -229 111q-30 42 -42 87t-15 124h59q22 -103 77 -151t153 -48q90 0 137 41.5t90 157.5h59z" />
    <glyph glyph-name="Edotaccent" unicode="&#x116;" horiz-adv-x="1251" 
d="M1130 0h-1105v39q110 6 142.5 40t35.5 144v910q-3 111 -34.5 144t-143.5 40v39h1087l6 -293h-51q-13 73 -28 110.5t-51 63t-87 32.5t-145 9h-277q-43 0 -54 -12t-13 -58v-454h315q69 2 105 8t62 28.5t37 57t21 100.5h47v-475h-47q-20 127 -58.5 160.5t-166.5 36.5h-315
v-506q0 -60 28 -72t187 -16h55q151 1 236 24t141 78.5t106 167.5h58zM625 1710q41 0 71.5 -30.5t30.5 -71.5q0 -42 -30.5 -72.5t-71.5 -30.5t-70 30.5t-29 74.5q0 40 29.5 70t69.5 30z" />
    <glyph glyph-name="edotaccent" unicode="&#x117;" horiz-adv-x="909" 
d="M881 322q-65 -166 -176.5 -254t-258.5 -88q-177 0 -280 123t-103 335q0 126 40 230.5t112 167.5q118 106 277 106q79 0 147.5 -30.5t114.5 -86.5q39 -50 57.5 -104.5t30.5 -153.5h-631q3 -94 15 -152.5t40 -117.5q89 -176 264 -176q99 0 172 49t146 166zM633 633
q-20 133 -63.5 184t-137.5 51t-147 -57t-70 -178h418zM467 1276q41 0 71.5 -30.5t30.5 -71.5q0 -42 -30.5 -72.5t-71.5 -30.5t-69.5 30.5t-28.5 74.5q0 40 29 70t69 30z" />
    <glyph glyph-name="Eogonek" unicode="&#x118;" horiz-adv-x="1251" 
d="M1118 0q-46 0 -88.5 -45t-42.5 -96q0 -36 22 -59t56 -23q33 0 66 16t79 57l41 -32q-57 -82 -111.5 -119t-117.5 -37q-64 0 -107 44.5t-43 109.5q0 52 25.5 94.5t85.5 89.5h-958v39q110 6 142.5 40t35.5 144v910q-3 111 -34.5 144t-143.5 40v39h1087l6 -293h-51
q-13 73 -28 110.5t-51 63t-87 32.5t-145 9h-277q-43 0 -54 -12t-13 -58v-454h315q69 2 105 8t62 28.5t37 57t21 100.5h47v-475h-47q-20 127 -58.5 160.5t-166.5 36.5h-315v-506q0 -60 28 -72t187 -16h55q151 1 236 24t141 78.5t106 167.5h58l-93 -346h-12z" />
    <glyph glyph-name="eogonek" unicode="&#x119;" horiz-adv-x="909" 
d="M883 322q-25 -68 -66 -127.5t-125 -149.5q-64 -67 -88 -108t-24 -82q0 -34 21.5 -56t55.5 -22q32 0 64.5 16t81.5 57l41 -32q-57 -82 -112 -119t-118 -37q-64 0 -106.5 44.5t-42.5 109.5q0 51 24.5 93t81.5 89q-58 -18 -120 -18q-178 0 -281.5 123t-103.5 335
q0 126 39.5 230.5t111.5 167.5q118 106 277 106q79 0 147.5 -30.5t114.5 -86.5q39 -50 57.5 -104.5t30.5 -153.5h-631q3 -94 15 -152.5t40 -117.5q89 -176 264 -176q99 0 172 49t146 166zM635 633q-20 133 -63.5 184t-137.5 51t-147 -57t-70 -178h418z" />
    <glyph glyph-name="Ecaron" unicode="&#x11a;" horiz-adv-x="1251" 
d="M1130 0h-1105v39q110 6 142.5 40t35.5 144v910q-3 111 -34.5 144t-143.5 40v39h1087l6 -293h-51q-13 73 -28 110.5t-51 63t-87 32.5t-145 9h-277q-43 0 -54 -12t-13 -58v-454h315q69 2 105 8t62 28.5t37 57t21 100.5h47v-475h-47q-20 127 -58.5 160.5t-166.5 36.5h-315
v-506q0 -60 28 -72t187 -16h55q151 1 236 24t141 78.5t106 167.5h58zM688 1473h-127l-254 342h70l248 -211l249 211h70z" />
    <glyph glyph-name="ecaron" unicode="&#x11b;" horiz-adv-x="909" 
d="M887 322q-65 -166 -176 -254t-258 -88q-177 0 -280 123t-103 335q0 126 39.5 230.5t111.5 167.5q118 106 277 106q79 0 147.5 -30.5t114.5 -86.5q39 -50 57.5 -104.5t30.5 -153.5h-631q3 -94 15 -152.5t40 -117.5q89 -176 265 -176q98 0 171 49t146 166zM639 633
q-20 133 -63.5 184t-137.5 51t-147 -57t-70 -178h418zM551 1038h-127l-254 342h70l247 -211l250 211h70z" />
    <glyph glyph-name="Gcircumflex" unicode="&#x11c;" 
d="M1311 123q-248 -137 -516 -137q-179 0 -311 47.5t-238 150.5q-189 186 -189 459q0 145 49 275t140 225q100 106 244.5 166.5t295.5 60.5q148 0 308 -72q49 -22 77 -22q55 0 68 80h41l27 -420l-41 -4q-27 87 -53.5 134t-75.5 89q-141 129 -328 129q-132 0 -242.5 -61.5
t-179.5 -173.5q-90 -145 -90 -357q0 -147 33.5 -254t105.5 -192q150 -176 389 -176q87 0 149 20.5t122 69.5v360q0 95 -30 132.5t-112 41.5h-30v37h563v-37h-35q-81 -4 -111 -41t-30 -133v-397zM1038 1473l-250 210l-247 -210h-70l254 342h127l256 -342h-70z" />
    <glyph glyph-name="gcircumflex" unicode="&#x11d;" horiz-adv-x="1024" 
d="M793 795q38 -86 38 -172q0 -150 -98 -232q-99 -86 -221 -86q-2 0 -14.5 1t-42 3.5t-60.5 5.5q-41 -12 -82 -55t-41 -74q0 -49 160 -55l264 -12q114 -4 181 -64t67 -155q0 -116 -113 -207q-80 -65 -192 -102t-227 -37q-147 0 -251 58t-104 140q0 57 45.5 114t155.5 136
q-64 31 -86 53t-22 56q0 26 11.5 47t43.5 55q4 5 74 72l53 49q-103 51 -147 114t-44 160q0 141 99.5 237.5t242.5 96.5q79 0 164 -31l45 -16q61 -21 113 -21h158v-79h-170zM311 686q0 -148 58 -239t153 -91q70 0 111 50.5t41 136.5q0 131 -62 245q-52 97 -149 97
q-71 0 -111.5 -51.5t-40.5 -141.5v-6zM301 -4q-62 -74 -81 -107.5t-19 -68.5q0 -68 81.5 -109t217.5 -41q173 0 280 55t107 144q0 55 -57 77.5t-197 22.5q-75 0 -177.5 8.5t-154.5 18.5zM760 1038l-250 211l-248 -211h-69l253 342h127l256 -342h-69z" />
    <glyph glyph-name="Gbreve" unicode="&#x11e;" 
d="M1452 688q-88 -6 -114 -35t-29 -123v-415q-62 -54 -221.5 -99t-292.5 -45q-169 0 -313.5 56.5t-245.5 162.5q-170 179 -170 476q0 207 89.5 370.5t250 255.5t362.5 92q140 0 279 -47q62 -20 90 -20q32 0 57.5 18t34.5 49h45l16 -432h-47q-38 94 -68.5 144t-76.5 94
q-119 113 -295 113q-104 0 -196.5 -40.5t-160.5 -115.5q-67 -75 -107 -204.5t-40 -274.5q0 -286 144.5 -450.5t394.5 -164.5q112 0 192 35.5t80 85.5v332q-2 63 -6.5 93.5t-25.5 51.5t-52 27t-96 10v37h522v-37zM1069 1794q-19 -163 -90.5 -242t-200.5 -79q-151 0 -229 110
q-30 43 -42 88.5t-13 122.5h59q22 -103 76.5 -151t152.5 -48q89 0 136.5 41t91.5 158h59z" />
    <glyph glyph-name="gbreve" unicode="&#x11f;" horiz-adv-x="1024" 
d="M793 795q38 -86 38 -172q0 -150 -98 -232q-99 -86 -221 -86q-2 0 -14.5 1t-42 3.5t-60.5 5.5q-41 -12 -82 -55t-41 -74q0 -49 160 -55l264 -12q114 -4 181 -64t67 -155q0 -116 -113 -207q-80 -65 -192 -102t-227 -37q-147 0 -251 58t-104 140q0 57 45.5 114t155.5 136
q-64 31 -86 53t-22 56q0 26 11.5 47t43.5 55q4 5 74 72l53 49q-103 51 -147 114t-44 160q0 141 99.5 237.5t242.5 96.5q79 0 164 -31l45 -16q61 -21 113 -21h158v-79h-170zM301 -4q-62 -74 -81 -107.5t-19 -68.5q0 -68 81.5 -109t217.5 -41q173 0 280 55t107 144
q0 55 -57 77.5t-197 22.5q-75 0 -177.5 8.5t-154.5 18.5zM311 686q0 -148 58 -239t153 -91q70 0 111 50.5t41 136.5q0 131 -62 245q-52 97 -149 97q-71 0 -111.5 -51.5t-40.5 -141.5v-6zM801 1360q-20 -163 -92 -242.5t-199 -79.5q-150 0 -229 111q-31 43 -42.5 88
t-13.5 123h60q20 -103 75 -151t154 -48q89 0 136 41t91 158h60z" />
    <glyph glyph-name="Gdotaccent" unicode="&#x120;" 
d="M1311 123q-248 -137 -516 -137q-179 0 -311 47.5t-238 150.5q-189 186 -189 459q0 145 49 275t140 225q100 106 244.5 166.5t295.5 60.5q148 0 308 -72q49 -22 77 -22q55 0 68 80h41l27 -420l-41 -4q-27 87 -53.5 134t-75.5 89q-141 129 -328 129q-132 0 -242.5 -61.5
t-179.5 -173.5q-90 -145 -90 -357q0 -147 33.5 -254t105.5 -192q150 -176 389 -176q87 0 149 20.5t122 69.5v360q0 95 -30 132.5t-112 41.5h-30v37h563v-37h-35q-81 -4 -111 -41t-30 -133v-397zM799 1686q44 0 76 -32.5t32 -76.5q0 -46 -32 -78.5t-76 -32.5
q-46 0 -78.5 32.5t-32.5 78.5q0 44 32.5 76.5t78.5 32.5z" />
    <glyph glyph-name="gdotaccent" unicode="&#x121;" horiz-adv-x="1024" 
d="M506 1303q43 0 73.5 -31t30.5 -74q0 -44 -31 -75t-75 -31q-43 0 -74 31t-31 75q0 43 31.5 74t75.5 31zM793 795q38 -86 38 -172q0 -150 -98 -232q-99 -86 -221 -86q-2 0 -14.5 1t-42 3.5t-60.5 5.5q-41 -12 -82 -55t-41 -74q0 -49 160 -55l264 -12q114 -4 181 -64
t67 -155q0 -116 -113 -207q-80 -65 -192 -102t-227 -37q-147 0 -251 58t-104 140q0 57 45.5 114t155.5 136q-64 31 -86 53t-22 56q0 26 11.5 47t43.5 55q4 5 74 72l53 49q-103 51 -147 114t-44 160q0 141 99.5 237.5t242.5 96.5q79 0 164 -31l45 -16q61 -21 113 -21h158v-79
h-170zM311 686q0 -148 58 -239t153 -91q70 0 111 50.5t41 136.5q0 131 -62 245q-52 97 -149 97q-71 0 -111.5 -51.5t-40.5 -141.5v-6zM301 -4q-62 -74 -81 -107.5t-19 -68.5q0 -68 81.5 -109t217.5 -41q173 0 280 55t107 144q0 55 -57 77.5t-197 22.5q-75 0 -177.5 8.5
t-154.5 18.5z" />
    <glyph glyph-name="Gcommaaccent" unicode="&#x122;" 
d="M1452 688q-88 -6 -114 -35t-29 -123v-415q-62 -54 -221.5 -99t-292.5 -45q-169 0 -313.5 56.5t-245.5 162.5q-170 179 -170 476q0 207 89.5 370.5t250 255.5t362.5 92q140 0 279 -47q62 -20 90 -20q32 0 57.5 18t34.5 49h45l16 -432h-47q-38 94 -68.5 144t-76.5 94
q-119 113 -295 113q-104 0 -196.5 -40.5t-160.5 -115.5q-67 -75 -107 -204.5t-40 -274.5q0 -286 144.5 -450.5t394.5 -164.5q112 0 192 35.5t80 85.5v332q-2 63 -6.5 93.5t-25.5 51.5t-52 27t-96 10v37h522v-37zM635 -537q168 115 168 218q0 12 -8.5 20t-20.5 8q-4 0 -14 -4
q-24 -4 -41 -4q-57 0 -89 27.5t-32 76.5q0 52 33.5 84.5t87.5 32.5q69 0 116.5 -52.5t47.5 -129.5q0 -92 -63.5 -178t-166.5 -137z" />
    <glyph glyph-name="gcommaaccent" unicode="&#x123;" horiz-adv-x="1024" 
d="M793 795q38 -86 38 -172q0 -150 -98 -232q-99 -86 -221 -86q-2 0 -14.5 1t-42 3.5t-60.5 5.5q-41 -12 -82 -55t-41 -74q0 -49 160 -55l264 -12q114 -4 181 -64t67 -155q0 -116 -113 -207q-80 -65 -192 -102t-227 -37q-147 0 -251 58t-104 140q0 57 45.5 114t155.5 136
q-64 31 -86 53t-22 56q0 26 11.5 47t43.5 55q4 5 74 72l53 49q-103 51 -147 114t-44 160q0 141 99.5 237.5t242.5 96.5q79 0 164 -31l45 -16q61 -21 113 -21h158v-79h-170zM301 -4q-62 -74 -81 -107.5t-19 -68.5q0 -68 81.5 -109t217.5 -41q173 0 280 55t107 144
q0 55 -57 77.5t-197 22.5q-75 0 -177.5 8.5t-154.5 18.5zM311 686q0 -148 58 -239t153 -91q70 0 111 50.5t41 136.5q0 131 -62 245q-52 97 -149 97q-71 0 -111.5 -51.5t-40.5 -141.5v-6zM618 1468q-167 -114 -167 -217q0 -12 8 -20t20 -8q5 0 15 4q24 4 41 4
q57 0 88.5 -27.5t31.5 -77.5q0 -52 -33 -84t-87 -32q-69 0 -116.5 52.5t-47.5 129.5q0 92 63 178t166 137z" />
    <glyph glyph-name="Hcircumflex" unicode="&#x124;" 
d="M438 213q0 -98 29 -134.5t111 -39.5l45 -2v-37h-586v37l47 2q80 3 109.5 39.5t29.5 134.5v932q0 96 -29.5 132.5t-109.5 39.5l-47 2v37h586v-37l-45 -2q-82 -3 -111 -39t-29 -133v-408h604v408q0 96 -29.5 132.5t-109.5 39.5l-47 2v37h586v-37l-45 -2q-82 -3 -111 -39
t-29 -133v-932q0 -98 29 -134.5t111 -39.5l45 -2v-37h-586v37l47 2q80 3 109.5 39.5t29.5 134.5v432h-604v-432zM989 1473l-250 210l-247 -210h-70l254 342h127l256 -342h-70z" />
    <glyph glyph-name="hcircumflex" unicode="&#x125;" horiz-adv-x="1024" 
d="M997 0h-434v31q61 5 88 19.5t38 48.5t13 110v405q0 217 -153 217q-60 0 -111 -29t-116 -100v-493q3 -109 26.5 -140t112.5 -38v-31h-443v31q87 10 108 38.5t24 139.5v965q0 66 -19.5 85t-85.5 19q-17 0 -25 -2v33l56 16q141 41 235 74l11 -6v-623q70 92 140 132t161 40
q251 0 251 -326v-407q1 -40 2 -62.5t6.5 -43.5t12 -31t22 -19t33 -13t47.5 -9v-31zM565 1487l-250 211l-247 -211h-70l254 342h127l256 -342h-70z" />
    <glyph glyph-name="Hbar" unicode="&#x126;" 
d="M37 952v82h186v109q0 98 -29.5 134.5t-111.5 39.5l-45 2v37h586v-37l-43 -2q-82 -3 -112 -39.5t-30 -134.5v-109h604v109q0 98 -29.5 134.5t-109.5 39.5l-45 2v37h586v-37l-45 -2q-82 -3 -112 -39.5t-30 -134.5v-109h187v-82h-187v-739q0 -98 30 -134.5t112 -39.5l45 -2
v-37h-586v37l45 2q80 3 109.5 39.5t29.5 134.5v432h-604v-432q0 -98 30 -134.5t112 -39.5l43 -2v-37h-586v37l45 2q82 3 111.5 39.5t29.5 134.5v739h-186zM438 737h604v215h-604v-215z" />
    <glyph glyph-name="hbar" unicode="&#x127;" horiz-adv-x="1024" 
d="M330 1118h239v-74h-239v-270q98 101 164.5 138.5t146.5 37.5q60 0 111.5 -32t76.5 -84q23 -47 32 -102t9 -146v-336q0 -72 3.5 -110.5t17 -63.5t34 -32t60.5 -9h21v-35h-435v35h23q40 2 60.5 9t34 32t17 63.5t3.5 110.5v336q0 99 -19 151q-12 41 -48.5 67.5t-78.5 26.5
q-54 0 -104 -28.5t-129 -102.5v-450q0 -137 20.5 -175.5t95.5 -39.5h27v-35h-457v35h35q52 2 75.5 18.5t32.5 59t9 137.5v794h-131v74h131q0 61 -17.5 87t-58.5 26q-23 0 -41 -6l-20 -8l-15 28q145 60 314 144v-271z" />
    <glyph glyph-name="Itilde" unicode="&#x128;" horiz-adv-x="681" 
d="M37 39q46 2 74.5 5t52.5 11t36.5 19.5t21 33t11 47.5t3.5 68v910q-1 41 -3.5 66.5t-11 47t-20.5 32.5t-36 19.5t-52.5 12t-75.5 6.5v39h608v-39q-68 -2 -103.5 -9t-59 -28t-30 -53.5t-8.5 -93.5v-910q3 -114 39 -147.5t162 -36.5v-39h-608v39zM678 1729
q-32 -118 -81.5 -168t-133.5 -50q-38 0 -70.5 9.5t-95.5 40.5l-47 22q-51 23 -84 23q-70 0 -105 -95h-59q23 100 76.5 153.5t130.5 53.5q73 0 143 -37l49 -24q60 -31 109 -31q35 0 58.5 22t49.5 81h60z" />
    <glyph glyph-name="itilde" unicode="&#x129;" horiz-adv-x="569" 
d="M47 31q56 2 84 8t47 26.5t24 51.5t7 92v475q0 67 -15.5 95t-52.5 28q-31 0 -69 -6l-17 -2v30l318 113l8 -6v-727q1 -49 4 -76t10.5 -48t26 -30.5t42.5 -15t68 -8.5v-31h-485v31zM627 1307q-32 -117 -81.5 -167t-133.5 -50q-39 0 -71.5 9.5t-94.5 39.5l-47 22
q-51 23 -84 23q-71 0 -105 -94h-59q23 100 76.5 153t130.5 53q75 0 143 -36l49 -25q67 -31 109 -31q35 0 58.5 22t49.5 81h60z" />
    <glyph glyph-name="Imacron" unicode="&#x12a;" horiz-adv-x="681" 
d="M37 39q46 2 74.5 5t52.5 11t36.5 19.5t21 33t11 47.5t3.5 68v910q-1 41 -3.5 66.5t-11 47t-20.5 32.5t-36 19.5t-52.5 12t-75.5 6.5v39h608v-39q-68 -2 -103.5 -9t-59 -28t-30 -53.5t-8.5 -93.5v-910q3 -114 39 -147.5t162 -36.5v-39h-608v39zM659 1665v-111h-636v111
h636z" />
    <glyph glyph-name="imacron" unicode="&#x12b;" horiz-adv-x="569" 
d="M33 31q56 2 84 8t47 26.5t24 51.5t7 92v475q0 67 -15.5 95t-52.5 28q-33 0 -70 -6l-16 -2v30l317 113l9 -6v-727q1 -49 4 -76t10.5 -48t26 -30.5t42.5 -15t68 -8.5v-31h-485v31zM580 1231v-111h-631v111h631z" />
    <glyph glyph-name="Ibreve" unicode="&#x12c;" horiz-adv-x="681" 
d="M37 39q46 2 74.5 5t52.5 11t36.5 19.5t21 33t11 47.5t3.5 68v910q-1 41 -3.5 66.5t-11 47t-20.5 32.5t-36 19.5t-52.5 12t-75.5 6.5v39h608v-39q-68 -2 -103.5 -9t-59 -28t-30 -53.5t-8.5 -93.5v-910q3 -114 39 -147.5t162 -36.5v-39h-608v39zM629 1782
q-19 -163 -90.5 -242.5t-200.5 -79.5q-150 0 -229 111q-30 44 -42.5 89t-13.5 122h60q22 -103 76.5 -151t152.5 -48q89 0 136 41t91 158h60z" />
    <glyph glyph-name="ibreve" unicode="&#x12d;" horiz-adv-x="569" 
d="M373 250q0 -72 3.5 -110.5t17 -63t34.5 -32t61 -9.5h33v-35h-463v35h35q28 2 44.5 4.5t31 12t21.5 21.5t12 38.5t6 56.5t2 82v414q0 86 -14.5 113.5t-59.5 27.5q-20 0 -41 -6l-22 -8l-15 30q158 63 314 142v-713zM510 1311q-32 -126 -87 -183t-144 -57q-88 0 -143 57
t-89 183h49q26 -54 74.5 -85.5t108.5 -31.5t109 31.5t75 85.5h47z" />
    <glyph glyph-name="Iogonek" unicode="&#x12e;" horiz-adv-x="681" 
d="M645 1356v-39q-68 -2 -103.5 -9t-59 -28t-30 -53.5t-8.5 -93.5v-910q3 -114 39 -147.5t162 -36.5v-39q-7 -2 -39 -27q-57 -57 -57 -116q0 -35 22 -57.5t56 -22.5q33 0 66 16t79 57l41 -32q-57 -82 -111.5 -119t-117.5 -37q-64 0 -107 44.5t-43 109.5q0 52 25.5 94.5
t85.5 89.5h-508v39q46 2 74.5 5t52.5 11t36.5 19.5t21 33t11 47.5t3.5 68v910q-1 41 -3.5 66.5t-11 47t-20.5 32.5t-36 19.5t-52.5 12t-75.5 6.5v39h608z" />
    <glyph glyph-name="iogonek" unicode="&#x12f;" horiz-adv-x="569" 
d="M379 209q1 -49 4 -76t10.5 -48t26 -30.5t42.5 -15t68 -8.5v-31h-67q-58 0 -102 -43t-44 -100q0 -35 22 -57.5t56 -22.5q62 0 146 73l41 -32q-57 -82 -112 -119t-118 -37q-64 0 -106.5 44.5t-42.5 109.5q0 53 25 95t85 89h-268v31q56 2 84 8t47 26.5t24 51.5t7 92v475
q0 67 -15.5 95t-52.5 28q-31 0 -69 -6l-17 -2v30l318 113l8 -6v-727zM274 1399q44 0 75.5 -30.5t31.5 -74.5t-30.5 -74t-76.5 -30q-43 0 -72.5 30t-29.5 74q0 43 30.5 74t71.5 31z" />
    <glyph glyph-name="Idotaccent" unicode="&#x130;" horiz-adv-x="681" 
d="M37 39q46 2 74.5 5t52.5 11t36.5 19.5t21 33t11 47.5t3.5 68v910q-1 41 -3.5 66.5t-11 47t-20.5 32.5t-36 19.5t-52.5 12t-75.5 6.5v39h608v-39q-68 -2 -103.5 -9t-59 -28t-30 -53.5t-8.5 -93.5v-910q3 -114 39 -147.5t162 -36.5v-39h-608v39zM340 1710q41 0 71.5 -30.5
t30.5 -71.5q0 -42 -30 -72.5t-72 -30.5q-41 0 -69.5 30.5t-28.5 74.5q0 40 29 70t69 30z" />
    <glyph glyph-name="dotlessi" unicode="&#x131;" horiz-adv-x="569" 
d="M33 31q56 2 84 8t47 26.5t24 51.5t7 92v475q0 67 -15.5 95t-52.5 28q-33 0 -70 -6l-16 -2v30l317 113l9 -6v-727q1 -49 4 -76t10.5 -48t26 -30.5t42.5 -15t68 -8.5v-31h-485v31z" />
    <glyph glyph-name="IJ" unicode="&#x132;" horiz-adv-x="1449" 
d="M623 0h-586v37l45 2q82 3 111.5 39t29.5 133v934q0 97 -29.5 133t-111.5 39l-45 2v37h586v-37l-45 -2q-82 -3 -111 -39t-29 -133v-934q0 -97 29 -133t111 -39l45 -2v-37zM850 1356h588v-37l-41 -2q-82 -3 -111.5 -39.5t-28.5 -132.5v-750q0 -188 -94 -298.5t-254 -110.5
q-95 0 -154 41.5t-59 109.5q0 41 28.5 67.5t74.5 26.5q45 0 71 -22.5t60 -89.5q22 -49 57 -49q34 0 47 48.5t13 176.5v850q-3 89 -39.5 130.5t-112.5 41.5l-45 2v37z" />
    <glyph glyph-name="ij" unicode="&#x133;" horiz-adv-x="1130" 
d="M401 250q0 -95 9 -137.5t32.5 -59t75.5 -18.5h33v-35h-463v35h35q28 2 44.5 4.5t31 12t21.5 21.5t12 38.5t6 56.5t2 82v414q0 86 -14.5 113.5t-59.5 27.5q-20 0 -41 -6l-23 -8l-14 30q153 61 313 142v-713zM309 1356q43 0 74 -31t31 -74q0 -44 -31 -75t-74 -31
q-44 0 -75 31t-31 75q0 43 31 74t75 31zM928 137q0 -133 -8.5 -189.5t-34.5 -109.5q-41 -77 -118 -120.5t-171 -43.5q-70 0 -117 30.5t-47 74.5q0 33 24.5 56.5t59.5 23.5q45 0 109 -58q39 -39 69 -39q40 0 56 52t16 186v664q0 86 -14.5 113.5t-59.5 27.5q-23 0 -41 -6
l-22 -8l-15 30q108 43 153.5 64t160.5 78v-826zM834 1356q43 0 73.5 -31t30.5 -74q0 -44 -30.5 -75t-73.5 -31q-44 0 -75.5 31t-31.5 75q0 43 31.5 74t75.5 31z" />
    <glyph glyph-name="Jcircumflex" unicode="&#x134;" horiz-adv-x="796" 
d="M770 1317q-45 -3 -71.5 -6.5t-49.5 -12.5t-34 -19.5t-19 -32.5t-10.5 -46.5t-3.5 -66.5v-758q0 -192 -90.5 -298t-255.5 -106q-89 0 -146 41.5t-57 106.5q0 41 29.5 71.5t70.5 30.5q78 0 107 -104q11 -39 22.5 -53.5t32.5 -14.5q78 0 78 135v949q-1 114 -33.5 144.5
t-157.5 39.5v39h588v-39zM737 1491l-250 211l-247 -211h-70l254 342h127l256 -342h-70z" />
    <glyph glyph-name="jcircumflex" unicode="&#x135;" horiz-adv-x="569" 
d="M395 0q0 -122 -32 -220t-87 -147q-85 -79 -227 -79q-85 0 -138.5 31.5t-53.5 80.5q0 34 24.5 57t59.5 23q47 0 98 -65q27 -33 45 -45.5t41 -12.5q21 0 41 11t29 26q17 30 22.5 80t5.5 168v776q0 66 -15 94.5t-50 28.5q-36 0 -82 -6l-10 -2v32q156 48 319 111l10 -6v-936z
M528 1038l-249 211l-248 -211h-70l254 342h127l256 -342h-70z" />
    <glyph glyph-name="Kcommaaccent" unicode="&#x136;" 
d="M846 1356h536v-39q-104 -7 -155.5 -33.5t-155.5 -126.5l-389 -385l477 -512q99 -105 146 -147.5t83.5 -57.5t92.5 -16v-39h-625v39q25 2 57 2q86 3 86 45q0 37 -74 133.5t-192 214.5l-217 215l-53 -43v-383q1 -60 7 -92t27.5 -53t54 -28t95.5 -11v-39h-577v39q52 3 81 9
t51.5 17.5t32.5 36t14 56.5t5 88v887q-3 113 -34.5 145t-149.5 39v39h581v-39q-67 -5 -100 -11.5t-55 -28t-27 -52t-6 -92.5v-420l362 329q160 147 160 211q0 37 -24 48.5t-115 15.5v39zM635 -537q168 115 168 218q0 12 -8.5 20t-20.5 8q-4 0 -14 -4q-24 -4 -41 -4
q-57 0 -89 27.5t-32 76.5q0 52 33.5 84.5t87.5 32.5q69 0 116.5 -52.5t47.5 -129.5q0 -92 -63.5 -178t-166.5 -137z" />
    <glyph glyph-name="kcommaaccent" unicode="&#x137;" horiz-adv-x="1024" 
d="M14 31q109 17 131 36.5t23 100.5v987q0 74 -18 99.5t-70 25.5q-12 0 -66 -4v33l62 16q186 52 256 74l8 -4v-860l281 249q47 44 47 72q0 20 -21.5 27.5t-81.5 9.5v29h418v-31q-69 2 -120 -16.5t-119 -69.5t-203 -172l-60 -55l314 -398q64 -78 117.5 -111t121.5 -38v-31
h-446v31h39q19 0 31 8.5t12 21.5q0 14 -23 43q-3 3 -10 13t-10 14l-287 383v-377q1 -57 24.5 -78t88.5 -26l41 -2v-31h-480v31zM408 -537q167 114 167 218q0 12 -8 20t-20 8q-5 0 -15 -4q-24 -4 -40 -4q-57 0 -89 27.5t-32 76.5q0 52 33.5 84.5t87.5 32.5q69 0 116 -52.5
t47 -129.5q0 -92 -63 -178t-166 -137z" />
    <glyph glyph-name="kgreenlandic" unicode="&#x138;" horiz-adv-x="1024" 
d="M371 250q-2 -137 19 -175.5t97 -39.5h27v-35h-451v35h29q52 2 75.5 18.5t32.5 59t9 137.5v414q0 61 -3.5 82t-15.5 36q-16 25 -57 25q-13 0 -41 -8l-22 -6l-13 28q155 63 314 142v-426l239 266q33 38 33 61q0 34 -51 37h-10v35h362v-35l-26 -2q-73 -6 -118 -32t-114 -101
l-184 -199l239 -329q87 -125 139 -164t130 -39v-35h-428v35h20q41 0 41 31q0 20 -35 67l-237 338v-221z" />
    <glyph glyph-name="Lacute" unicode="&#x139;" horiz-adv-x="1251" 
d="M602 1317q-120 -6 -153.5 -38.5t-36.5 -145.5v-969q1 -55 29 -68t147 -16h137q136 4 214.5 28.5t132 81t102.5 166.5h51l-99 -356h-1101v39q110 6 142.5 40t35.5 144v910q-3 111 -34.5 144t-143.5 40v39h577v-39zM227 1473l301 303q30 28 47 37.5t41 9.5q32 0 51 -17.5
t19 -48.5q0 -48 -61 -86l-316 -198h-82z" />
    <glyph glyph-name="lacute" unicode="&#x13a;" horiz-adv-x="569" 
d="M43 31q95 6 125.5 35t32.5 112v977q0 72 -18 98.5t-68 26.5q-18 0 -64 -4h-12v33q215 53 326 90l8 -4v-1223q1 -86 28.5 -111t124.5 -30v-31h-483v31zM121 1473l301 303q28 28 45.5 37.5t40.5 9.5q34 0 53 -17.5t19 -48.5q0 -47 -62 -86l-315 -198h-82z" />
    <glyph glyph-name="Lcommaaccent" unicode="&#x13b;" horiz-adv-x="1251" 
d="M602 1317q-120 -6 -153.5 -38.5t-36.5 -145.5v-969q1 -55 29 -68t147 -16h137q136 4 214.5 28.5t132 81t102.5 166.5h51l-99 -356h-1101v39q110 6 142.5 40t35.5 144v910q-3 111 -34.5 144t-143.5 40v39h577v-39zM520 -537q168 115 168 218q0 12 -8.5 20t-20.5 8
q-4 0 -14 -4q-24 -4 -41 -4q-57 0 -89 27.5t-32 76.5q0 52 33.5 84.5t87.5 32.5q69 0 116.5 -52.5t47.5 -129.5q0 -92 -63 -178t-166 -137z" />
    <glyph glyph-name="lcommaaccent" unicode="&#x13c;" horiz-adv-x="569" 
d="M43 31q95 6 125.5 35t32.5 112v977q0 72 -18 98.5t-68 26.5q-18 0 -64 -4h-12v33q215 53 326 90l8 -4v-1223q1 -86 28.5 -111t124.5 -30v-31h-483v31zM180 -537q168 115 168 218q0 12 -8.5 20t-20.5 8q-4 0 -14 -4q-24 -4 -41 -4q-57 0 -89 27.5t-32 76.5q0 52 33.5 84.5
t87.5 32.5q69 0 116.5 -52.5t47.5 -129.5q0 -92 -63 -178t-166 -137z" />
    <glyph glyph-name="Lcaron" unicode="&#x13d;" horiz-adv-x="1251" 
d="M602 1317q-120 -6 -153.5 -38.5t-36.5 -145.5v-969q1 -55 29 -68t147 -16h137q136 4 214.5 28.5t132 81t102.5 166.5h51l-99 -356h-1101v39q110 6 142.5 40t35.5 144v910q-3 111 -34.5 144t-143.5 40v39h577v-39zM764 926q168 115 168 217q0 12 -8.5 20t-20.5 8
q-4 0 -14 -4q-24 -4 -41 -4q-57 0 -89 28t-32 77q0 52 33.5 84t87.5 32q69 0 116.5 -52.5t47.5 -129.5q0 -92 -63.5 -178t-166.5 -137z" />
    <glyph glyph-name="lcaron" unicode="&#x13e;" horiz-adv-x="704" 
d="M537 926q168 115 168 217q0 12 -8.5 20t-20.5 8q-4 0 -14 -4q-24 -4 -41 -4q-57 0 -89 28t-32 77q0 52 33.5 84t87.5 32q69 0 116 -52.5t47 -129.5q0 -92 -63 -178t-166 -137zM39 31q95 6 125.5 35t32.5 112v977q0 72 -18 98.5t-68 26.5q-18 0 -64 -4h-12v33
q211 52 325 90l9 -4v-1223q1 -86 28.5 -111t124.5 -30v-31h-483v31z" />
    <glyph glyph-name="Ldot" unicode="&#x13f;" horiz-adv-x="1251" 
d="M602 1317q-120 -6 -153.5 -38.5t-36.5 -145.5v-969q1 -55 29 -68t147 -16h137q136 4 214.5 28.5t132 81t102.5 166.5h51l-99 -356h-1101v39q110 6 142.5 40t35.5 144v910q-3 111 -34.5 144t-143.5 40v39h577v-39zM829 799q46 0 80.5 -35t34.5 -82q0 -46 -35 -78.5
t-82 -32.5q-44 0 -77 33.5t-33 77.5q0 49 33 83t79 34z" />
    <glyph glyph-name="ldot" unicode="&#x140;" horiz-adv-x="704" 
d="M633 799q46 0 80.5 -35t34.5 -82q0 -46 -35 -78.5t-82 -32.5q-44 0 -77.5 33.5t-33.5 77.5q0 49 33.5 83t79.5 34zM43 31q95 6 125.5 35t32.5 112v977q0 72 -18 98.5t-68 26.5q-18 0 -64 -4h-12v33q215 53 326 90l8 -4v-1223q1 -86 28.5 -111t124.5 -30v-31h-483v31z" />
    <glyph glyph-name="Lslash" unicode="&#x141;" horiz-adv-x="1251" 
d="M203 1133q-3 111 -34.5 144t-143.5 40v39h577v-39q-120 -6 -153.5 -38.5t-36.5 -145.5v-347l317 183v-101l-317 -182v-522q1 -55 29 -68t147 -16h137q136 4 214.5 28.5t132 81t102.5 166.5h51l-99 -356h-1101v39q110 6 142.5 40t35.5 144v342l-178 -102v100l178 103v467z
" />
    <glyph glyph-name="lslash" unicode="&#x142;" horiz-adv-x="569" 
d="M201 1155q0 72 -18 98.5t-68 26.5q-18 0 -64 -4h-12v33q215 53 326 90l8 -4v-537l157 109v-90l-157 -109v-596q1 -86 28.5 -111t124.5 -30v-31h-483v31q95 6 125.5 35t32.5 112v473l-160 -110v90l160 110v414z" />
    <glyph glyph-name="Nacute" unicode="&#x143;" 
d="M1448 1317q-85 -7 -123 -28.5t-53.5 -72t-18.5 -161.5v-1078h-34l-906 1127v-803q2 -110 18 -162t54.5 -74t120.5 -26v-39h-481v39q54 3 85.5 11t55 22.5t34.5 46t16.5 72.5t6.5 110v903q-62 72 -97 92.5t-101 20.5v39h350l788 -991v690q-2 58 -5 94.5t-12 67t-21.5 47
t-35.5 29t-51 17t-71 7.5v39h481v-39zM590 1473l301 303q28 28 45.5 37.5t40.5 9.5q34 0 53 -17.5t19 -48.5q0 -47 -62 -86l-315 -198h-82z" />
    <glyph glyph-name="nacute" unicode="&#x144;" horiz-adv-x="1024" 
d="M37 31q77 5 101.5 34t25.5 119v508q0 75 -16.5 103t-59.5 28q-39 0 -55 -8v35q158 46 282 92l15 -4v-162q104 98 165 132t132 34q114 0 177.5 -81t63.5 -226v-469q2 -75 26 -101.5t99 -33.5v-31h-426v31q75 5 100.5 38.5t28.5 133.5v428q0 198 -149 198q-52 0 -96 -24
t-115 -92v-576q0 -56 29.5 -79t105.5 -27v-31h-434v31zM332 1038l301 303q31 29 47.5 38.5t40.5 9.5q32 0 51 -17.5t19 -48.5q0 -47 -62 -86l-315 -199h-82z" />
    <glyph glyph-name="Ncommaaccent" unicode="&#x145;" 
d="M1448 1317q-85 -7 -123 -28.5t-53.5 -72t-18.5 -161.5v-1078h-34l-906 1127v-803q2 -110 18 -162t54.5 -74t120.5 -26v-39h-481v39q54 3 85.5 11t55 22.5t34.5 46t16.5 72.5t6.5 110v903q-62 72 -97 92.5t-101 20.5v39h350l788 -991v690q-2 58 -5 94.5t-12 67t-21.5 47
t-35.5 29t-51 17t-71 7.5v39h481v-39zM676 -537q168 115 168 218q0 12 -8.5 20t-20.5 8q-4 0 -14 -4q-24 -4 -41 -4q-57 0 -89 27.5t-32 76.5q0 52 33.5 84.5t87.5 32.5q69 0 116.5 -52.5t47.5 -129.5q0 -92 -63 -178t-167 -137z" />
    <glyph glyph-name="ncommaaccent" unicode="&#x146;" horiz-adv-x="1024" 
d="M37 31q77 5 101.5 34t25.5 119v508q0 75 -16.5 103t-59.5 28q-39 0 -55 -8v35q158 46 282 92l15 -4v-162q104 98 165 132t132 34q114 0 177.5 -81t63.5 -226v-469q2 -75 26 -101.5t99 -33.5v-31h-426v31q75 5 100.5 38.5t28.5 133.5v428q0 198 -149 198q-52 0 -96 -24
t-115 -92v-576q0 -56 29.5 -79t105.5 -27v-31h-434v31zM408 -537q167 114 167 218q0 12 -8 20t-20 8q-5 0 -15 -4q-24 -4 -40 -4q-57 0 -89 27.5t-32 76.5q0 52 33.5 84.5t87.5 32.5q69 0 116 -52.5t47 -129.5q0 -92 -63 -178t-166 -137z" />
    <glyph glyph-name="Ncaron" unicode="&#x147;" 
d="M1448 1317q-85 -7 -123 -28.5t-53.5 -72t-18.5 -161.5v-1078h-34l-906 1127v-803q2 -110 18 -162t54.5 -74t120.5 -26v-39h-481v39q54 3 85.5 11t55 22.5t34.5 46t16.5 72.5t6.5 110v903q-62 72 -97 92.5t-101 20.5v39h350l788 -991v690q-2 58 -5 94.5t-12 67t-21.5 47
t-35.5 29t-51 17t-71 7.5v39h481v-39zM803 1473h-127l-254 342h70l247 -211l250 211h70z" />
    <glyph glyph-name="ncaron" unicode="&#x148;" horiz-adv-x="1024" 
d="M37 31q77 5 101.5 34t25.5 119v508q0 75 -16.5 103t-59.5 28q-39 0 -55 -8v35q158 46 282 92l15 -4v-162q104 98 165 132t132 34q114 0 177.5 -81t63.5 -226v-469q2 -75 26 -101.5t99 -33.5v-31h-426v31q75 5 100.5 38.5t28.5 133.5v428q0 198 -149 198q-52 0 -96 -24
t-115 -92v-576q0 -56 29.5 -79t105.5 -27v-31h-434v31zM575 1038h-126l-254 342h69l248 -211l250 211h69z" />
    <glyph glyph-name="napostrophe" unicode="&#x149;" horiz-adv-x="1236" 
d="M12 961q168 54 174 206q-39 -10 -61 -10q-43 0 -75 33.5t-32 77.5q0 46 33 77t80 31q61 0 101 -50.5t40 -127.5q0 -105 -70 -178t-190 -92v33zM250 31q77 5 101.5 34t25.5 119v508q0 75 -16.5 103t-59.5 28q-39 0 -55 -8v35q158 46 282 92l15 -4v-162q104 98 165 132
t132 34q114 0 177.5 -81t63.5 -226v-469q2 -75 26 -101.5t99 -33.5v-31h-426v31q75 5 100.5 38.5t28.5 133.5v428q0 198 -149 198q-52 0 -96 -24t-115 -92v-576q0 -56 29.5 -79t105.5 -27v-31h-434v31z" />
    <glyph glyph-name="Eng" unicode="&#x14a;" horiz-adv-x="1437" 
d="M422 137q0 -56 29.5 -79t105.5 -27v-31h-471v31q77 5 101.5 34t25.5 119v951q0 75 -16.5 103t-59.5 28q-37 0 -55 -9v35q174 44 319 92l15 -4v-161q119 94 218.5 129.5t244.5 35.5q183 0 266 -67q49 -38 77.5 -121t28.5 -186v-1010q0 -121 -31.5 -219.5t-86.5 -149.5
q-83 -77 -250 -77q-94 0 -150.5 30.5t-56.5 81.5q0 34 24.5 57t59.5 23q47 0 98 -65q27 -33 45 -45.5t41 -12.5q21 0 41 11t29 26q17 30 22.5 80t5.5 168v1098q0 137 -71.5 202.5t-220.5 65.5q-96 0 -173 -28t-155 -91v-1018z" />
    <glyph glyph-name="eng" unicode="&#x14b;" horiz-adv-x="1013" 
d="M332 137q0 -56 29.5 -79t105.5 -27v-31h-434v31q77 5 101.5 34t25.5 119v508q0 75 -16.5 103t-59.5 28q-39 0 -55 -8v35q158 46 282 92l15 -4v-162q104 98 165 132t132 34q114 0 177.5 -81t63.5 -226v-635q0 -122 -32 -220t-87 -147q-85 -79 -227 -79q-85 0 -138.5 31.5
t-53.5 80.5q0 34 24.5 57t59.5 23q47 0 98 -65q27 -33 45 -45.5t41 -12.5q21 0 41 11t29 26q17 30 22.5 80t5.5 168v723q0 198 -149 198q-52 0 -96 -24t-115 -92v-576z" />
    <glyph glyph-name="Omacron" unicode="&#x14c;" 
d="M739 1384q301 0 498 -215q172 -184 172 -499q0 -310 -190 -504.5t-492 -194.5q-135 0 -263 56t-218 153q-83 87 -129.5 220t-46.5 278q0 310 188 508t481 198zM739 1311q-172 0 -293 -133q-65 -72 -104 -210t-39 -294q0 -170 47 -314t125 -215q117 -100 260 -100
q164 0 273 109q73 73 100 149q68 176 68 369q0 182 -45.5 321.5t-129.5 214.5q-115 103 -262 103zM1059 1665v-111h-637v111h637z" />
    <glyph glyph-name="omacron" unicode="&#x14d;" horiz-adv-x="1024" 
d="M512 942q197 0 324 -130.5t127 -332.5q0 -213 -130.5 -356t-324.5 -143t-321.5 137t-127.5 346q0 212 126 345.5t327 133.5zM485 885q-110 0 -175.5 -87.5t-65.5 -234.5q0 -228 90 -395q32 -61 85 -96t113 -35q116 0 181 98t65 273q0 211 -82 344t-211 133zM831 1231
v-111h-636v111h636z" />
    <glyph glyph-name="Obreve" unicode="&#x14e;" 
d="M739 1384q301 0 498 -215q172 -184 172 -499q0 -310 -190 -504.5t-492 -194.5q-135 0 -263 56t-218 153q-83 87 -129.5 220t-46.5 278q0 310 188 508t481 198zM739 1311q-172 0 -293 -133q-65 -72 -104 -210t-39 -294q0 -170 47 -314t125 -215q117 -100 260 -100
q164 0 273 109q73 73 100 149q68 176 68 369q0 182 -45.5 321.5t-129.5 214.5q-115 103 -262 103zM1026 1782q-19 -163 -90.5 -242.5t-198.5 -79.5q-150 0 -229 111q-30 42 -42 87t-15 124h59q22 -103 76.5 -151t152.5 -48q91 0 138 41t90 158h59z" />
    <glyph glyph-name="obreve" unicode="&#x14f;" horiz-adv-x="1024" 
d="M512 942q197 0 324 -130.5t127 -332.5q0 -213 -130.5 -356t-324.5 -143t-321.5 137t-127.5 346q0 212 126 345.5t327 133.5zM485 885q-110 0 -175.5 -87.5t-65.5 -234.5q0 -228 90 -395q32 -61 85 -96t113 -35q116 0 181 98t65 273q0 211 -82 344t-211 133zM817 1360
q-19 -163 -90.5 -242.5t-198.5 -79.5q-150 0 -229 111q-30 42 -42 87t-15 124h59q22 -103 76.5 -151t152.5 -48q90 0 138 41.5t90 157.5h59z" />
    <glyph glyph-name="Ohungarumlaut" unicode="&#x150;" 
d="M739 1384q301 0 498 -215q172 -184 172 -499q0 -310 -190 -504.5t-492 -194.5q-135 0 -263 56t-218 153q-83 87 -129.5 220t-46.5 278q0 310 188 508t481 198zM739 1311q-172 0 -293 -133q-65 -72 -104 -210t-39 -294q0 -170 47 -314t125 -215q117 -100 260 -100
q164 0 273 109q73 73 100 149q68 176 68 369q0 182 -45.5 321.5t-129.5 214.5q-115 103 -262 103zM795 1473l301 303q28 28 45.5 37.5t40.5 9.5q34 0 52.5 -17.5t18.5 -48.5q0 -48 -61 -86l-315 -198h-82zM475 1473l301 303q28 28 45.5 37.5t40.5 9.5q34 0 53 -17.5
t19 -48.5q0 -47 -62 -86l-315 -198h-82z" />
    <glyph glyph-name="ohungarumlaut" unicode="&#x151;" horiz-adv-x="1024" 
d="M512 942q197 0 324 -130.5t127 -332.5q0 -213 -130.5 -356t-324.5 -143t-321.5 137t-127.5 346q0 212 126 345.5t327 133.5zM485 885q-110 0 -175.5 -87.5t-65.5 -234.5q0 -228 90 -395q32 -61 85 -96t113 -35q116 0 181 98t65 273q0 211 -82 344t-211 133zM532 1038
l302 303q28 28 46 38t42 10q32 0 50.5 -17.5t18.5 -48.5q0 -48 -61 -86l-316 -199h-82zM213 1038l301 303q28 28 46 38t42 10q32 0 51 -17.5t19 -48.5q0 -47 -62 -86l-315 -199h-82z" />
    <glyph glyph-name="OE" unicode="&#x152;" horiz-adv-x="1820" 
d="M1647 1067q-6 48 -14.5 79.5t-26 57t-40 39.5t-61.5 23.5t-85.5 12.5t-116.5 3h-105q-94 -3 -113.5 -10t-19.5 -39v-483l213 2q86 2 132.5 9.5t78 30.5t42.5 58t17 100h43v-479h-43q-10 118 -51.5 160t-148.5 45l-283 -2v-502q3 -60 23 -76t92 -18l254 4q97 3 163 59.5
t144 202.5h49l-90 -344h-717q-100 0 -186 -6l-31 -2h-31q-98 -4 -121 -4q-113 0 -214 40.5t-177 116.5q-184 181 -184 514q0 177 54 323t151 232q174 154 434 154q35 0 133 -6q141 -6 215 -6h668v-289h-47zM860 1079q0 112 -48.5 163.5t-154.5 51.5q-186 0 -287.5 -163.5
t-101.5 -462.5q0 -295 99 -450t288 -155q109 0 157 48t48 157v811z" />
    <glyph glyph-name="oe" unicode="&#x153;" 
d="M1413 285q-80 -166 -163 -235.5t-203 -69.5q-95 0 -156 45t-107 149q-58 -105 -127 -149.5t-174 -44.5q-186 0 -304 131t-118 335q0 117 41.5 224.5t112.5 173.5q104 98 260 98q95 0 165 -35t146 -121q63 86 122.5 121t144.5 35q78 0 146.5 -33.5t111.5 -93.5
q35 -47 49.5 -100.5t19.5 -147.5h-520q6 -132 23 -204.5t57 -143.5q28 -46 78 -74t106 -28q74 0 134.5 41t132.5 139zM469 883q-86 0 -154 -68q-30 -32 -49.5 -106t-19.5 -154q0 -522 246 -522q210 0 210 375q0 229 -60.5 352t-172.5 123zM1186 629v55q0 86 -46 142.5
t-116 56.5q-163 0 -166 -254h328z" />
    <glyph glyph-name="Racute" unicode="&#x154;" horiz-adv-x="1366" 
d="M1350 0h-330l-488 631l-114 -4v-404q1 -60 7 -91.5t27 -52.5t54 -28.5t96 -11.5v-39h-567v39q42 3 66.5 7t46 13.5t31.5 22t17.5 36.5t9.5 52.5t3 75.5v887q-1 112 -30 142t-144 42v39h565q145 0 263 -37t177 -100q80 -89 80 -224q0 -141 -87.5 -222.5t-282.5 -119.5
l421 -518q43 -52 81 -71.5t98 -24.5v-39zM418 702q149 3 220.5 16.5t141.5 53.5q55 29 86 89.5t31 137.5q0 145 -91.5 213t-283.5 68q-61 0 -82.5 -15.5t-21.5 -58.5v-504zM467 1473l301 303q30 28 47 37.5t41 9.5q32 0 51 -17.5t19 -48.5q0 -47 -62 -86l-315 -198h-82z" />
    <glyph glyph-name="racute" unicode="&#x155;" horiz-adv-x="681" 
d="M10 31q97 17 120 39.5t26 101.5v512q0 67 -16 95t-54 28q-33 0 -72 -8v32q156 50 303 111l11 -4v-188q75 110 127.5 151t117.5 41q53 0 83 -28.5t30 -79.5q0 -43 -21.5 -68t-58.5 -25q-38 0 -82 41q-36 31 -53 31q-43 0 -93 -59t-50 -109v-461q3 -91 37 -120.5t137 -32.5
v-31h-492v31zM238 1038l301 303q31 29 47.5 38.5t40.5 9.5q32 0 50.5 -17.5t18.5 -48.5q0 -48 -61 -86l-316 -199h-81z" />
    <glyph glyph-name="Rcommaaccent" unicode="&#x156;" horiz-adv-x="1366" 
d="M1350 0h-330l-488 631l-114 -4v-404q1 -60 7 -91.5t27 -52.5t54 -28.5t96 -11.5v-39h-567v39q42 3 66.5 7t46 13.5t31.5 22t17.5 36.5t9.5 52.5t3 75.5v887q-1 112 -30 142t-144 42v39h565q145 0 263 -37t177 -100q80 -89 80 -224q0 -141 -87.5 -222.5t-282.5 -119.5
l421 -518q43 -52 81 -71.5t98 -24.5v-39zM418 702q149 3 220.5 16.5t141.5 53.5q55 29 86 89.5t31 137.5q0 145 -91.5 213t-283.5 68q-61 0 -82.5 -15.5t-21.5 -58.5v-504zM614 -537q168 118 168 218q0 12 -8 20t-20 8q-5 0 -15 -4q-24 -4 -41 -4q-57 0 -88.5 27.5
t-31.5 76.5q0 53 33 85t87 32q69 0 116.5 -52.5t47.5 -129.5q0 -92 -63 -178t-166 -137z" />
    <glyph glyph-name="rcommaaccent" unicode="&#x157;" horiz-adv-x="681" 
d="M10 31q97 17 120 39.5t26 101.5v512q0 67 -16 95t-54 28q-33 0 -72 -8v32q156 50 303 111l11 -4v-188q75 110 127.5 151t117.5 41q53 0 83 -28.5t30 -79.5q0 -43 -21.5 -68t-58.5 -25q-38 0 -82 41q-36 31 -53 31q-43 0 -93 -59t-50 -109v-461q3 -91 37 -120.5t137 -32.5
v-31h-492v31zM154 -537q168 115 168 218q0 12 -8.5 20t-20.5 8q-4 0 -14 -4q-24 -4 -41 -4q-57 0 -89 27.5t-32 76.5q0 52 33.5 84.5t87.5 32.5q69 0 116 -52.5t47 -129.5q0 -92 -63 -178t-166 -137z" />
    <glyph glyph-name="Rcaron" unicode="&#x158;" horiz-adv-x="1366" 
d="M1350 0h-330l-488 631l-114 -4v-404q1 -60 7 -91.5t27 -52.5t54 -28.5t96 -11.5v-39h-567v39q42 3 66.5 7t46 13.5t31.5 22t17.5 36.5t9.5 52.5t3 75.5v887q-1 112 -30 142t-144 42v39h565q145 0 263 -37t177 -100q80 -89 80 -224q0 -141 -87.5 -222.5t-282.5 -119.5
l421 -518q43 -52 81 -71.5t98 -24.5v-39zM418 702q149 3 220.5 16.5t141.5 53.5q55 29 86 89.5t31 137.5q0 145 -91.5 213t-283.5 68q-61 0 -82.5 -15.5t-21.5 -58.5v-504zM645 1473h-127l-254 342h70l248 -211l249 211h70z" />
    <glyph glyph-name="rcaron" unicode="&#x159;" horiz-adv-x="681" 
d="M10 31q97 17 120 39.5t26 101.5v512q0 67 -16 95t-54 28q-33 0 -72 -8v32q156 50 303 111l11 -4v-188q75 110 127.5 151t117.5 41q53 0 83 -28.5t30 -79.5q0 -43 -21.5 -68t-58.5 -25q-38 0 -82 41q-36 31 -53 31q-43 0 -93 -59t-50 -109v-461q3 -91 37 -120.5t137 -32.5
v-31h-492v31zM403 1038h-127l-253 342h69l248 -211l250 211h69z" />
    <glyph glyph-name="Sacute" unicode="&#x15a;" horiz-adv-x="1138" 
d="M961 948h-52q-24 90 -50.5 140t-74.5 100q-109 112 -249 112q-95 0 -154 -51.5t-59 -136.5q0 -84 69.5 -157.5t231.5 -161.5q202 -110 292.5 -216.5t90.5 -232.5q0 -158 -120 -265.5t-298 -107.5q-124 0 -242 47q-64 23 -96 23q-23 0 -39 -19.5t-18 -48.5h-46l-61 435h47
q77 -188 176.5 -275.5t237.5 -87.5q112 0 182 64t70 165q0 78 -29 121q-75 115 -305 240q-172 91 -246 183.5t-74 215.5q0 161 109 256q108 94 244 94q101 0 219 -45q52 -24 90 -24q53 0 65 69h43zM420 1473l301 303q28 28 45.5 37.5t40.5 9.5q34 0 53 -17.5t19 -48.5
q0 -47 -62 -86l-315 -198h-82z" />
    <glyph glyph-name="sacute" unicode="&#x15b;" horiz-adv-x="796" 
d="M614 643q-35 138 -86 195t-139 57q-71 0 -114.5 -38t-43.5 -101q0 -89 88 -140l222 -131q94 -55 133 -110.5t39 -132.5q0 -108 -84.5 -185t-204.5 -77q-58 0 -150 20q-63 16 -94 16q-19 0 -28 -4.5t-19 -19.5h-27v319h33q35 -156 94.5 -221t165.5 -65q78 0 124 40t46 107
q0 94 -106 154l-119 67q-130 73 -185 141t-55 154q0 110 79 182t200 72q64 0 143 -27q32 -14 56 -14q15 0 32 23h23l8 -281h-31zM233 1038l302 303q28 28 45.5 38t40.5 10q34 0 52.5 -17.5t18.5 -48.5q0 -48 -61 -86l-316 -199h-82z" />
    <glyph glyph-name="Scircumflex" unicode="&#x15c;" horiz-adv-x="1138" 
d="M176 0v459h41q10 -82 26.5 -131t49.5 -97q47 -73 121.5 -115t154.5 -42q100 0 168 63.5t68 155.5q0 89 -80 172q-53 53 -131 102l-160 90q-141 83 -203.5 167.5t-62.5 193.5q0 157 99.5 254.5t260.5 97.5q83 0 187 -35q85 -28 106 -28q36 0 58 49h41v-430h-37
q-35 115 -64 174.5t-69 101.5q-75 78 -195 78q-92 0 -152.5 -52t-60.5 -132q0 -61 52 -123.5t147 -116.5l157 -92q158 -91 232 -188.5t74 -215.5q0 -164 -113.5 -269t-288.5 -105q-60 0 -91 6.5t-157 46.5q-50 16 -75 16t-39.5 -12t-24.5 -43h-39zM836 1473l-250 210
l-248 -210h-70l254 342h127l256 -342h-69z" />
    <glyph glyph-name="scircumflex" unicode="&#x15d;" horiz-adv-x="796" 
d="M614 643q-35 138 -86 195t-139 57q-71 0 -114.5 -38t-43.5 -101q0 -89 88 -140l222 -131q94 -55 133 -110.5t39 -132.5q0 -108 -84.5 -185t-204.5 -77q-58 0 -150 20q-63 16 -94 16q-19 0 -28 -4.5t-19 -19.5h-27v319h33q35 -156 94.5 -221t165.5 -65q78 0 124 40t46 107
q0 94 -106 154l-119 67q-130 73 -185 141t-55 154q0 110 79 182t200 72q64 0 143 -27q32 -14 56 -14q15 0 32 23h23l8 -281h-31zM653 1038l-250 211l-247 -211h-70l254 342h127l256 -342h-70z" />
    <glyph glyph-name="Scedilla" unicode="&#x15e;" horiz-adv-x="1138" 
d="M535 -133q27 6 53 6q83 0 129.5 -37t46.5 -104q0 -80 -69 -126t-187 -46q-99 0 -172 32l29 64q76 -25 133 -25q52 0 82 24.5t30 65.5q0 40 -25 57t-83 17q-37 0 -58 -8l-14 10l74 180q-94 13 -158 41q-64 23 -96 23q-23 0 -39 -19.5t-18 -48.5h-46l-61 435h47
q77 -188 176.5 -275.5t237.5 -87.5q112 0 182 64t70 165q0 78 -29 121q-75 115 -305 240q-172 91 -246 183.5t-74 215.5q0 161 109 256q108 94 244 94q101 0 219 -45q52 -24 90 -24q53 0 65 69h43l46 -436h-52q-24 90 -50.5 140t-74.5 100q-109 112 -249 112
q-95 0 -154 -51.5t-59 -136.5q0 -84 69.5 -157.5t231.5 -161.5q202 -110 292.5 -216.5t90.5 -232.5q0 -157 -119.5 -265t-294.5 -108h-19z" />
    <glyph glyph-name="scedilla" unicode="&#x15f;" horiz-adv-x="796" 
d="M362 -133q30 6 54 6q83 0 129.5 -37t46.5 -104q0 -80 -69 -126t-187 -46q-90 0 -172 32l29 64q76 -25 133 -25q52 0 82 24.5t30 65.5q0 40 -25 57t-83 17q-37 0 -58 -8l-14 10l80 191q-14 2 -33.5 6t-30.5 6q-65 16 -94 16q-19 0 -28 -4.5t-19 -19.5h-27v319h33
q35 -156 94.5 -221t165.5 -65q78 0 124 40t46 107q0 94 -106 154l-119 67q-130 73 -185 141t-55 154q0 110 79 182t200 72q64 0 143 -27q32 -14 56 -14q15 0 32 23h23l8 -281h-31q-35 138 -86 195t-139 57q-71 0 -114.5 -38t-43.5 -101q0 -89 88 -140l222 -131
q94 -55 133 -110.5t39 -132.5q0 -107 -84 -184.5t-201 -77.5h-22z" />
    <glyph glyph-name="Scaron" unicode="&#x160;" horiz-adv-x="1138" 
d="M961 948h-52q-24 90 -50.5 140t-74.5 100q-109 112 -249 112q-95 0 -154 -51.5t-59 -136.5q0 -84 69.5 -157.5t231.5 -161.5q202 -110 292.5 -216.5t90.5 -232.5q0 -158 -120 -265.5t-298 -107.5q-124 0 -242 47q-64 23 -96 23q-23 0 -39 -19.5t-18 -48.5h-46l-61 435h47
q77 -188 176.5 -275.5t237.5 -87.5q112 0 182 64t70 165q0 78 -29 121q-75 115 -305 240q-172 91 -246 183.5t-74 215.5q0 161 109 256q108 94 244 94q101 0 219 -45q52 -24 90 -24q53 0 65 69h43zM633 1473h-127l-254 342h70l247 -211l250 211h70z" />
    <glyph glyph-name="scaron" unicode="&#x161;" horiz-adv-x="796" 
d="M614 643q-35 138 -86 195t-139 57q-71 0 -114.5 -38t-43.5 -101q0 -89 88 -140l222 -131q94 -55 133 -110.5t39 -132.5q0 -108 -84.5 -185t-204.5 -77q-58 0 -150 20q-63 16 -94 16q-19 0 -28 -4.5t-19 -19.5h-27v319h33q35 -156 94.5 -221t165.5 -65q78 0 124 40t46 107
q0 94 -106 154l-119 67q-130 73 -185 141t-55 154q0 110 79 182t200 72q64 0 143 -27q32 -14 56 -14q15 0 32 23h23l8 -281h-31zM461 1038h-127l-254 342h70l247 -211l250 211h70z" />
    <glyph glyph-name="uni0162" unicode="&#x162;" horiz-adv-x="1251" 
d="M926 0h-598v39q46 3 74 6.5t51.5 13t34.5 21.5t19 37t10 53t3 76v1024h-110q-75 -1 -120.5 -8t-81.5 -21.5t-57.5 -46t-36.5 -73.5t-30 -113h-49l12 348h1155l12 -348h-49q-18 89 -35.5 135.5t-55 77t-88.5 39t-146 10.5h-111v-1047q1 -40 3.5 -65.5t11 -47t21.5 -33
t36 -20.5t52 -12.5t73 -5.5v-39zM520 -537q168 115 168 218q0 12 -8.5 20t-20.5 8q-4 0 -14 -4q-24 -4 -41 -4q-57 0 -89 27.5t-32 76.5q0 52 33.5 84.5t87.5 32.5q69 0 116.5 -52.5t47.5 -129.5q0 -92 -63 -178t-166 -137z" />
    <glyph glyph-name="uni0163" unicode="&#x163;" horiz-adv-x="569" 
d="M522 856h-207v-586q0 -97 25 -140.5t82 -43.5q34 0 61.5 16t61.5 56l26 -23q-99 -155 -245 -155q-183 0 -183 260v616h-108q-8 5 -8 14q0 18 34 39q45 27 98.5 88.5t141.5 188.5q14 0 14 -27v-237h207v-66zM199 -537q168 115 168 218q0 12 -8.5 20t-20.5 8q-4 0 -14 -4
q-24 -4 -41 -4q-57 0 -89 27.5t-32 76.5q0 52 33.5 84.5t87.5 32.5q69 0 116 -52.5t47 -129.5q0 -92 -63 -178t-166 -137z" />
    <glyph glyph-name="Tcaron" unicode="&#x164;" horiz-adv-x="1251" 
d="M926 0h-598v39q46 3 74 6.5t51.5 13t34.5 21.5t19 37t10 53t3 76v1024h-110q-75 -1 -120.5 -8t-81.5 -21.5t-57.5 -46t-36.5 -73.5t-30 -113h-49l12 348h1155l12 -348h-49q-18 89 -35.5 135.5t-55 77t-88.5 39t-146 10.5h-111v-1047q1 -40 3.5 -65.5t11 -47t21.5 -33
t36 -20.5t52 -12.5t73 -5.5v-39zM688 1473h-127l-254 342h70l248 -211l249 211h70z" />
    <glyph glyph-name="tcaron" unicode="&#x165;" horiz-adv-x="667" 
d="M604 926q168 115 168 217q0 12 -8.5 20t-20.5 8q-4 0 -14 -4q-24 -4 -41 -4q-57 0 -89 28t-32 77q0 52 33.5 84t87.5 32q69 0 116.5 -52.5t47.5 -129.5q0 -74 -44 -146.5t-124 -133.5l-59 -43zM526 856h-207v-586q0 -97 25 -140.5t82 -43.5q34 0 61.5 16t61.5 56l26 -23
q-99 -155 -245 -155q-183 0 -183 260v616h-108q-8 5 -8 14q0 18 35 39q44 26 97 87.5t142 189.5q14 0 14 -27v-237h207v-66z" />
    <glyph glyph-name="Tbar" unicode="&#x166;" horiz-adv-x="1251" 
d="M307 647v70h213v553h-110q-75 -1 -120.5 -8t-81.5 -21.5t-57.5 -46t-36.5 -73.5t-30 -113h-49l12 348h1155l12 -348h-49q-18 89 -35.5 135.5t-55 77t-88.5 39t-146 10.5h-111v-553h215v-70h-215v-424q1 -114 36 -146t161 -38v-39h-598v39q46 3 74 6.5t51.5 13t34.5 21.5
t19 37t10 53t3 76v401h-213z" />
    <glyph glyph-name="tbar" unicode="&#x167;" horiz-adv-x="569" 
d="M569 649v-69h-254v-310q0 -97 25 -140.5t82 -43.5q34 0 61.5 16t61.5 56l26 -23q-99 -155 -245 -155q-183 0 -183 260v340h-143v69h143v207h-108q-8 5 -8 14q0 18 34 39q45 27 98.5 88.5t141.5 188.5q14 0 14 -27v-237h207v-66h-207v-207h254z" />
    <glyph glyph-name="Utilde" unicode="&#x168;" 
d="M1444 1317q-45 -5 -72 -10.5t-50.5 -18t-35 -28.5t-20 -46t-11.5 -66t-4 -93v-535q0 -119 -15 -196.5t-52 -141.5q-121 -211 -457 -211q-261 0 -387.5 128.5t-126.5 394.5v639q-1 114 -31.5 144.5t-152.5 39.5v39h579v-39q-66 -6 -98.5 -13t-54.5 -28.5t-27 -52t-6 -90.5
v-656q0 -179 51 -270q84 -146 301 -146q115 0 207 44t133 118q47 87 47 279v553q-2 110 -17.5 161.5t-54 73.5t-120.5 27v39h475v-39zM1139 1737q-31 -118 -80.5 -167.5t-134.5 -49.5q-38 0 -71 10t-95 39l-47 22q-48 23 -82 23q-70 0 -107 -94h-59q23 100 77 153t132 53
q67 0 141 -36l49 -25q60 -31 109 -31q35 0 58.5 22t49.5 81h60z" />
    <glyph glyph-name="utilde" unicode="&#x169;" horiz-adv-x="1024" 
d="M844 358q0 -104 6 -151.5t23 -66.5t53 -19q22 0 55 8l12 -35q-110 -34 -156 -51t-155 -63v192q-59 -66 -102 -106q-86 -80 -197 -80q-142 0 -195 125q-32 73 -32 227v346q0 96 -9 139t-32.5 59.5t-75.5 18.5h-29v35h307v-592q0 -121 32.5 -172t109.5 -51q53 0 94.5 22
t128.5 97v444q0 96 -9 139t-32.5 59.5t-75.5 18.5h-49v35h328v-578zM821 1307q-31 -117 -80.5 -167t-134.5 -50q-39 0 -70.5 9.5t-95.5 39.5l-47 22q-48 23 -82 23q-69 0 -106 -94h-60q23 100 77 153t132 53q74 0 142 -36l49 -25q67 -31 108 -31q35 0 59 22.5t50 80.5h59z
" />
    <glyph glyph-name="Umacron" unicode="&#x16a;" 
d="M1444 1317q-45 -5 -72 -10.5t-50.5 -18t-35 -28.5t-20 -46t-11.5 -66t-4 -93v-535q0 -119 -15 -196.5t-52 -141.5q-121 -211 -457 -211q-261 0 -387.5 128.5t-126.5 394.5v639q-1 114 -31.5 144.5t-152.5 39.5v39h579v-39q-66 -6 -98.5 -13t-54.5 -28.5t-27 -52t-6 -90.5
v-656q0 -179 51 -270q84 -146 301 -146q115 0 207 44t133 118q47 87 47 279v553q-2 110 -17.5 161.5t-54 73.5t-120.5 27v39h475v-39zM1100 1665v-111h-637v111h637z" />
    <glyph glyph-name="umacron" unicode="&#x16b;" horiz-adv-x="1024" 
d="M981 74q-170 -47 -281 -92l-8 4v170l-88 -88q-41 -41 -97.5 -64.5t-113.5 -23.5q-113 0 -180.5 72.5t-67.5 193.5v516q-1 73 -28 100.5t-99 30.5v29h299v-668q0 -64 43 -110t103 -46q94 0 180 70q22 17 30.5 41t8.5 67v482q0 76 -28.5 100t-123.5 29v35h324v-703
q2 -72 22 -93t95 -24h10v-28zM788 1231v-111h-636v111h636z" />
    <glyph glyph-name="Ubreve" unicode="&#x16c;" 
d="M1444 1317q-45 -5 -72 -10.5t-50.5 -18t-35 -28.5t-20 -46t-11.5 -66t-4 -93v-535q0 -119 -15 -196.5t-52 -141.5q-121 -211 -457 -211q-261 0 -387.5 128.5t-126.5 394.5v639q-1 114 -31.5 144.5t-152.5 39.5v39h579v-39q-66 -6 -98.5 -13t-54.5 -28.5t-27 -52t-6 -90.5
v-656q0 -179 51 -270q84 -146 301 -146q115 0 207 44t133 118q47 87 47 279v553q-2 110 -17.5 161.5t-54 73.5t-120.5 27v39h475v-39zM1079 1792q-20 -163 -92 -242.5t-199 -79.5q-150 0 -229 111q-30 42 -41.5 87t-13.5 124h59q20 -103 75.5 -151t154.5 -48q89 0 136 41
t91 158h59z" />
    <glyph glyph-name="ubreve" unicode="&#x16d;" horiz-adv-x="1024" 
d="M844 358q0 -104 6 -151.5t23 -66.5t53 -19q22 0 55 8l12 -35q-110 -34 -156 -51t-155 -63v192q-59 -66 -102 -106q-86 -80 -197 -80q-142 0 -195 125q-32 73 -32 227v346q0 96 -9 139t-32.5 59.5t-75.5 18.5h-29v35h307v-592q0 -121 32.5 -172t109.5 -51q53 0 94.5 22
t128.5 97v444q0 96 -9 139t-32.5 59.5t-75.5 18.5h-49v35h328v-578zM731 1311q-20 -76 -51 -133q-31 -49 -85 -78t-116 -29t-115.5 29t-84.5 78q-33 54 -52 133h47q26 -53 82 -85t123 -32q66 0 122 32.5t81 84.5h49z" />
    <glyph glyph-name="Uring" unicode="&#x16e;" 
d="M1444 1317q-45 -5 -72 -10.5t-50.5 -18t-35 -28.5t-20 -46t-11.5 -66t-4 -93v-535q0 -119 -15 -196.5t-52 -141.5q-121 -211 -457 -211q-261 0 -387.5 128.5t-126.5 394.5v639q-1 114 -31.5 144.5t-152.5 39.5v39h579v-39q-66 -6 -98.5 -13t-54.5 -28.5t-27 -52t-6 -90.5
v-656q0 -179 51 -270q84 -146 301 -146q115 0 207 44t133 118q47 87 47 279v553q-2 110 -17.5 161.5t-54 73.5t-120.5 27v39h475v-39zM780 1890q85 0 145 -59.5t60 -144.5t-60 -144t-145 -59q-86 0 -144 59t-58 146q0 83 59.5 142.5t142.5 59.5zM782 1821q-56 0 -95.5 -39
t-39.5 -94q0 -57 38.5 -96.5t92.5 -39.5q58 0 97.5 39t39.5 95q0 55 -39.5 95t-93.5 40z" />
    <glyph glyph-name="uring" unicode="&#x16f;" horiz-adv-x="1024" 
d="M981 74q-170 -47 -281 -92l-8 4v170l-88 -88q-41 -41 -97.5 -64.5t-113.5 -23.5q-113 0 -180.5 72.5t-67.5 193.5v516q-1 73 -28 100.5t-99 30.5v29h299v-668q0 -64 43 -110t103 -46q94 0 180 70q22 17 30.5 41t8.5 67v482q0 76 -28.5 100t-123.5 29v35h324v-703
q2 -72 22 -93t95 -24h10v-28zM481 1456q85 0 145 -60t60 -145q0 -84 -60 -143t-145 -59q-86 0 -144 59t-58 145q0 83 59.5 143t142.5 60zM483 1386q-56 0 -95.5 -39t-39.5 -94q0 -57 38.5 -96t92.5 -39q58 0 97.5 38.5t39.5 94.5q0 55 -39.5 95t-93.5 40z" />
    <glyph glyph-name="Uhungarumlaut" unicode="&#x170;" 
d="M1444 1317q-45 -5 -72 -10.5t-50.5 -18t-35 -28.5t-20 -46t-11.5 -66t-4 -93v-535q0 -119 -15 -196.5t-52 -141.5q-121 -211 -457 -211q-261 0 -387.5 128.5t-126.5 394.5v639q-1 114 -31.5 144.5t-152.5 39.5v39h579v-39q-66 -6 -98.5 -13t-54.5 -28.5t-27 -52t-6 -90.5
v-656q0 -179 51 -270q84 -146 301 -146q115 0 207 44t133 118q47 87 47 279v553q-2 110 -17.5 161.5t-54 73.5t-120.5 27v39h475v-39zM872 1473l302 303q28 28 45.5 37.5t40.5 9.5q34 0 52.5 -17.5t18.5 -48.5q0 -48 -61 -86l-316 -198h-82zM553 1473l301 303
q28 28 45.5 37.5t40.5 9.5q34 0 53 -17.5t19 -48.5q0 -47 -62 -86l-315 -198h-82z" />
    <glyph glyph-name="uhungarumlaut" unicode="&#x171;" horiz-adv-x="1024" 
d="M981 74q-170 -47 -281 -92l-8 4v170l-88 -88q-41 -41 -97.5 -64.5t-113.5 -23.5q-113 0 -180.5 72.5t-67.5 193.5v516q-1 73 -28 100.5t-99 30.5v29h299v-668q0 -64 43 -110t103 -46q94 0 180 70q22 17 30.5 41t8.5 67v482q0 76 -28.5 100t-123.5 29v35h324v-703
q2 -72 22 -93t95 -24h10v-28zM494 1038l301 303q28 28 45.5 38t40.5 10q34 0 52.5 -17.5t18.5 -48.5q0 -48 -61 -86l-316 -199h-81zM174 1038l301 303q28 28 45.5 38t40.5 10q34 0 53 -17.5t19 -48.5q0 -47 -62 -86l-315 -199h-82z" />
    <glyph glyph-name="Uogonek" unicode="&#x172;" 
d="M1444 1317q-45 -5 -72 -10.5t-50.5 -18t-35 -28.5t-20 -46t-11.5 -66t-4 -93v-535q-3 -199 -39 -285.5t-159 -187.5q-121 -101 -121 -192q0 -34 22 -56t56 -22q32 0 64 16t81 57l41 -32q-57 -82 -111.5 -119t-117.5 -37q-64 0 -107 44.5t-43 109.5q0 51 24 92t79 86
q-112 -23 -197 -23q-258 0 -384 129.5t-126 393.5v639q-1 114 -31.5 144.5t-152.5 39.5v39h579v-39q-66 -6 -98.5 -13t-54.5 -28.5t-27 -52t-6 -90.5v-656q0 -179 51 -270q84 -146 301 -146q115 0 207 44t133 118q47 87 47 279v553q-2 110 -17.5 161.5t-54 73.5t-120.5 27
v39h475v-39z" />
    <glyph glyph-name="uogonek" unicode="&#x173;" horiz-adv-x="1024" 
d="M981 74q-46 -11 -73.5 -23.5t-57.5 -38.5q-40 -34 -65 -76.5t-25 -78.5q0 -35 22 -57.5t56 -22.5q33 0 66 16t79 57l41 -32q-57 -82 -111.5 -119t-117.5 -37q-64 0 -107 45t-43 111q0 60 47 123v215l-88 -88q-41 -41 -97.5 -64.5t-113.5 -23.5q-113 0 -180.5 72.5
t-67.5 193.5v516q-1 73 -28 100.5t-99 30.5v29h299v-668q0 -64 43 -110t103 -46q94 0 180 70q22 17 30.5 41t8.5 67v482q0 76 -28.5 100t-123.5 29v35h324v-703q2 -72 22 -93t95 -24h10v-28z" />
    <glyph glyph-name="Wcircumflex" unicode="&#x174;" horiz-adv-x="1933" 
d="M236 1130q-40 109 -69 144.5t-87 44.5h-14v37h489v-37l-27 -2q-46 -2 -67 -20t-21 -56q0 -29 21 -88l264 -743l205 561l-78 211q-31 76 -60.5 105t-80.5 32h-29v37h524v-37h-35q-51 -1 -77.5 -23t-26.5 -61q0 -44 29 -123l268 -702l252 727q20 56 20 84q0 46 -25 68
t-83 28l-25 2v37h402v-37q-78 2 -126 -63.5t-114 -264.5l-342 -1011h-23l-315 845l-303 -845h-20zM1235 1473l-250 210l-248 -210h-69l254 342h127l256 -342h-70z" />
    <glyph glyph-name="wcircumflex" unicode="&#x175;" 
d="M1421 922v-31q-30 -10 -43 -27.5t-41 -83.5l-282 -708q-25 -61 -36 -81t-22 -20q-10 0 -17.5 13.5t-31.5 74.5l-186 484l-230 -492q-36 -80 -51 -80q-17 0 -53 90l-276 701q-34 78 -54 102t-55 27v31h369v-31q-54 -6 -74.5 -21t-20.5 -47q0 -29 13 -61l202 -535l187 408
q-3 8 -41 115q-31 83 -57.5 109t-83.5 32v31h415v-31q-71 -10 -94.5 -25t-23.5 -49q0 -21 4.5 -37t29.5 -84l172 -458l185 454q35 81 35 135q0 26 -19.5 40t-71.5 24v31h252zM993 1038l-250 211l-247 -211h-70l254 342h127l256 -342h-70z" />
    <glyph glyph-name="Ycircumflex" unicode="&#x176;" 
d="M311 1110q-64 112 -111.5 153.5t-123.5 51.5l-47 4v37h616v-37h-29q-112 0 -112 -66q0 -47 55 -133l266 -420l265 447q45 73 45 113q0 57 -84 57l-43 2v37h456v-37l-22 -2q-81 -4 -142.5 -58t-138.5 -186l-295 -495v-367q0 -97 30 -133t112 -39l55 -2v-37h-610v37l51 2
q83 3 112 39t29 133v367zM1063 1473l-250 210l-248 -210h-69l254 342h127l256 -342h-70z" />
    <glyph glyph-name="ycircumflex" unicode="&#x177;" horiz-adv-x="1024" 
d="M266 604q-3 7 -9 22q-78 199 -99 233q-20 30 -51 36q-6 2 -21 4l-31 2v35h402v-35h-17q-80 0 -80 -65q0 -29 39 -129l179 -447l159 438q39 105 39 144q0 59 -78 59h-10v35h293v-35l-20 -2q-33 -7 -51.5 -22.5t-36 -50t-46.5 -113.5l-249 -666q-84 -221 -152 -289
q-82 -82 -184 -82q-57 0 -96.5 30t-39.5 73q0 38 33.5 70t73.5 32q34 0 100 -28q18 -9 31 -9q69 0 139 189zM791 1038l-250 211l-248 -211h-70l254 342h127l256 -342h-69z" />
    <glyph glyph-name="Ydieresis" unicode="&#x178;" 
d="M1440 1317q-78 -6 -133.5 -52t-149.5 -182l-303 -462v-398q1 -63 7.5 -95.5t31 -53.5t62 -27t110.5 -8v-39h-627v39q51 2 80.5 5t55 12.5t37.5 21t20.5 37t10.5 54t3 77.5v356l-268 393q-84 118 -125.5 173t-80 93t-62.5 46t-64 10v39h573v-39q-23 -2 -51 -2
q-50 -3 -72 -17t-22 -43q0 -40 35 -90l303 -454l293 463q29 45 29 75q0 37 -31 51.5t-111 16.5v39h449v-39zM602 1710q41 0 72 -30.5t31 -71.5q0 -42 -30.5 -72.5t-72.5 -30.5q-41 0 -69.5 30.5t-28.5 74.5q0 40 29 70t69 30zM1010 1710q41 0 71.5 -30.5t30.5 -71.5
q0 -42 -30 -72.5t-72 -30.5q-41 0 -70 30.5t-29 74.5q0 40 29.5 70t69.5 30z" />
    <glyph glyph-name="Zacute" unicode="&#x179;" horiz-adv-x="1251" 
d="M1223 360l-49 -360h-1156v31l895 1247h-452q-177 -4 -247.5 -60t-96.5 -212h-54l41 350h1078v-31l-885 -1247h526q166 6 236.5 62t116.5 220h47zM512 1473l301 303q28 28 45.5 37.5t40.5 9.5q34 0 53 -17.5t19 -48.5q0 -47 -62 -86l-315 -198h-82z" />
    <glyph glyph-name="zacute" unicode="&#x17a;" horiz-adv-x="909" 
d="M827 0h-772v31l545 829h-283q-95 -3 -127.5 -37t-44.5 -143h-36l6 242h710v-31l-551 -830h283q53 2 85.5 5t61.5 13t44.5 23.5t29.5 40.5t22.5 58.5t18.5 83.5l37 -9zM319 1038l302 303q28 28 45.5 38t40.5 10q34 0 52.5 -17.5t18.5 -48.5q0 -48 -61 -86l-316 -199h-82z
" />
    <glyph glyph-name="Zdotaccent" unicode="&#x17b;" horiz-adv-x="1251" 
d="M1223 360l-49 -360h-1156v31l895 1247h-452q-177 -4 -247.5 -60t-96.5 -212h-54l41 350h1078v-31l-885 -1247h526q166 6 236.5 62t116.5 220h47zM662 1710q41 0 71.5 -30.5t30.5 -71.5q0 -42 -30 -72.5t-72 -30.5q-41 0 -70 30.5t-29 74.5q0 40 29.5 70t69.5 30z" />
    <glyph glyph-name="zdotaccent" unicode="&#x17c;" horiz-adv-x="909" 
d="M827 0h-772v31l545 829h-283q-95 -3 -127.5 -37t-44.5 -143h-36l6 242h710v-31l-551 -830h283q53 2 85.5 5t61.5 13t44.5 23.5t29.5 40.5t22.5 58.5t18.5 83.5l37 -9zM477 1276q41 0 72 -30.5t31 -71.5q0 -42 -30.5 -72.5t-72.5 -30.5q-41 0 -69.5 30.5t-28.5 74.5
q0 40 29 70t69 30z" />
    <glyph glyph-name="Zcaron" unicode="&#x17d;" horiz-adv-x="1251" 
d="M1223 360l-49 -360h-1156v31l895 1247h-452q-177 -4 -247.5 -60t-96.5 -212h-54l41 350h1078v-31l-885 -1247h526q166 6 236.5 62t116.5 220h47zM725 1473h-127l-254 342h70l248 -211l249 211h70z" />
    <glyph glyph-name="zcaron" unicode="&#x17e;" horiz-adv-x="909" 
d="M827 0h-772v31l545 829h-283q-95 -3 -127.5 -37t-44.5 -143h-36l6 242h710v-31l-551 -830h283q53 2 85.5 5t61.5 13t44.5 23.5t29.5 40.5t22.5 58.5t18.5 83.5l37 -9zM528 1038h-127l-254 342h70l248 -211l250 211h69z" />
    <glyph glyph-name="longs" unicode="&#x17f;" horiz-adv-x="569" 
d="M516 0h-532v31q58 2 88 8.5t49.5 27.5t25 53t7.5 93v643h-93v66h93q1 123 16 191t55 136q40 70 117 110t172 40q92 0 152.5 -36t60.5 -91q0 -35 -24.5 -59.5t-59.5 -24.5q-27 0 -48 16.5t-46 57.5q-28 44 -51.5 61.5t-57.5 17.5q-114 0 -114 -182v-946q0 -41 2 -66.5
t10 -47t19.5 -32.5t35 -19.5t51 -11.5t72.5 -5v-31z" />
    <glyph glyph-name="florin" unicode="&#x192;" horiz-adv-x="1024" 
d="M209 840l20 82h191q55 169 102.5 260t110.5 151q90 84 213 84q83 0 131.5 -36.5t48.5 -98.5q0 -42 -24 -67t-64 -25q-36 0 -61 22.5t-25 55.5q0 18 8 39q6 18 6 26q0 12 -11 19.5t-26 7.5q-63 0 -117 -79.5t-85 -217.5l-31 -141h223l-18 -82h-230l-114 -531
q-79 -367 -191 -561q-105 -180 -276 -180q-75 0 -122.5 36.5t-47.5 96.5q0 40 24 64t64 24q34 0 60 -22.5t26 -53.5q0 -17 -12 -47q-7 -14 -7 -20q0 -8 9.5 -14.5t21.5 -6.5q32 0 65.5 24t55.5 62q44 79 62.5 147t84.5 394q47 236 86 410l39 178h-190z" />
    <glyph glyph-name="Aringacute" unicode="&#x1fa;" 
d="M1446 0h-522v39q82 1 112.5 16.5t30.5 53.5q0 51 -39 137l-84 196h-536l-95 -239q-16 -43 -16 -80q0 -44 33 -64t106 -20v-39h-405v39q27 1 44 5t36.5 18t34 33.5t37 61t45 89.5t57.5 129l426 1005h41l510 -1163q54 -114 84.5 -144t99.5 -34v-39zM915 526l-237 564
l-236 -564h473zM719 1804q85 0 145 -60t60 -145q0 -84 -60 -143t-145 -59q-86 0 -144.5 59.5t-58.5 145.5q0 83 60 142.5t143 59.5zM721 1735q-56 0 -95.5 -39t-39.5 -94q0 -57 38.5 -96.5t92.5 -39.5q58 0 97.5 38.5t39.5 94.5q0 55 -39.5 95.5t-93.5 40.5zM526 1806
l301 303q31 29 47.5 38.5t40.5 9.5q32 0 51 -17.5t19 -48.5q0 -48 -61 -86l-316 -199h-82z" />
    <glyph glyph-name="aringacute" unicode="&#x1fb;" horiz-adv-x="909" 
d="M905 82q-54 -59 -93 -80.5t-91 -21.5q-63 0 -93.5 34t-37.5 115q-94 -80 -163 -114.5t-136 -34.5q-94 0 -154.5 61.5t-60.5 157.5q0 51 20 99t54 79q65 58 131.5 91t306.5 130v125q0 83 -40.5 126.5t-115.5 43.5q-61 0 -104 -29.5t-43 -70.5q0 -23 6 -50q4 -28 4 -32
q0 -34 -27.5 -60t-64.5 -26q-36 0 -62 26t-26 62q0 97 99.5 163t244.5 66q185 0 254 -113q41 -65 41 -215v-399q0 -68 13 -93.5t48 -25.5q43 0 90 39v-53zM588 549q-180 -63 -255 -128t-77 -157v-8q0 -66 37.5 -112t91.5 -46q71 0 150 45q32 19 42.5 41t10.5 68v297z
M455 1479q85 0 144.5 -60t59.5 -145t-59.5 -144t-144.5 -59q-86 0 -144.5 59.5t-58.5 145.5q0 83 60 143t143 60zM457 1409q-56 0 -95.5 -39t-39.5 -94q0 -57 38.5 -96t92.5 -39q58 0 97.5 38.5t39.5 94.5q0 55 -39.5 95t-93.5 40zM268 1548l301 303q28 28 45.5 37.5
t40.5 9.5q34 0 53 -17t19 -48q0 -48 -61 -86l-316 -199h-82z" />
    <glyph glyph-name="AEacute" unicode="&#x1fc;" horiz-adv-x="1820" 
d="M1624 1067q-7 49 -15.5 80.5t-27 57.5t-42 39.5t-66 23t-93 12t-129.5 2.5h-178q-31 0 -42 -13t-13 -48v-471h227q161 3 211 39t60 159h43v-479h-43q-11 119 -51.5 160.5t-149.5 44.5h-297v-488q0 -80 16 -90q14 -18 125 -18h156q73 1 119.5 8t86 22t71 47t60 74.5
t66.5 114.5h49l-90 -344h-1044v39l35 4q96 13 120 42.5t27 135.5v311h-360l-58 -108q-131 -250 -131 -324q0 -48 140 -61h2v-39h-408v39q66 9 97.5 37.5t82.5 122.5l502 991q18 34 18 57q0 34 -42 49.5t-142 18.5v41h1155v-289h-47zM815 612v654l-326 -654h326zM821 1497
l301 303q28 28 45.5 37.5t40.5 9.5q34 0 53 -17t19 -48q0 -48 -61 -86l-316 -199h-82z" />
    <glyph glyph-name="aeacute" unicode="&#x1fd;" horiz-adv-x="1366" 
d="M1294 305q-43 -92 -76 -141.5t-75 -85.5q-107 -98 -252 -98q-89 0 -150 34.5t-114 114.5q-103 -87 -169 -118t-143 -31q-104 0 -170.5 62.5t-66.5 162.5q0 92 70.5 161t234.5 136l176 73l4 130q0 86 -24 143q-22 45 -103 45q-133 0 -139 -102v-13l2 -22q2 -12 2 -35
q0 -47 -22.5 -72.5t-65.5 -25.5q-41 0 -65.5 26t-24.5 72q0 94 94 157.5t232 63.5q77 0 129 -20t112 -72q68 54 119.5 73t124.5 19q155 0 232 -88.5t96 -286.5h-537q0 -154 10.5 -221t44.5 -127q25 -46 78.5 -74t116.5 -28q88 0 155 44.5t140 153.5zM559 518
q-185 -67 -244 -118t-59 -144q0 -74 40 -126t97 -52q56 0 131.5 37t75.5 65q0 4 -2 6q-34 109 -37 226zM1067 629q-3 135 -41 194.5t-121 59.5q-88 0 -129 -59.5t-49 -194.5h340zM537 1038l301 303q28 28 45.5 38t40.5 10q34 0 52.5 -17.5t18.5 -48.5q0 -48 -61 -86
l-316 -199h-81z" />
    <glyph glyph-name="Oslashacute" unicode="&#x1fe;" 
d="M1167 1237q65 -60 97 -98.5t59 -91.5q86 -159 86 -367q0 -315 -187.5 -512t-486.5 -197q-103 0 -183 23t-175 80l-162 -238h-100l194 285q-64 58 -95.5 97t-59.5 93q-84 162 -84 365q0 206 85 367.5t238 251t348 89.5q101 0 181 -22t178 -78l147 219h101zM449 180
q66 -72 133.5 -103.5t156.5 -31.5q203 0 320 169t117 462q0 136 -22 233t-75 197zM1028 1178q-68 71 -135.5 102t-153.5 31q-201 0 -318.5 -171t-117.5 -464q0 -136 21 -231t73 -193zM590 1491l301 303q28 28 45.5 37.5t40.5 9.5q34 0 53 -17t19 -48q0 -47 -62 -86
l-315 -199h-82z" />
    <glyph glyph-name="oslashacute" unicode="&#x1ff;" horiz-adv-x="1024" 
d="M762 872q49 -35 74 -58.5t49 -59.5q78 -121 78 -275q0 -214 -131 -356.5t-326 -142.5q-97 0 -191 43l-133 -252h-76l150 286q-50 40 -76.5 69.5t-52.5 72.5q-68 123 -68 266q0 209 126.5 343t324.5 134q89 0 188 -37l117 223h80zM367 123q39 -46 77.5 -66t90.5 -20
q115 0 179 99.5t64 279.5q0 98 -19 174t-63 160zM649 811q-41 40 -79 57t-85 17q-109 0 -175 -87.5t-66 -232.5q0 -204 80 -377zM324 1038l301 303q28 28 45.5 38t40.5 10q34 0 52.5 -17.5t18.5 -48.5q0 -48 -61 -86l-315 -199h-82z" />
    <glyph glyph-name="Scommaaccent" unicode="&#x218;" horiz-adv-x="1138" 
d="M926 950q-26 86 -51.5 135.5t-65.5 90.5q-109 118 -256 118q-98 0 -155.5 -51t-57.5 -139q0 -72 44.5 -123.5t176.5 -130.5l113 -68q102 -61 141.5 -87.5t75.5 -59.5q135 -115 135 -275q0 -169 -122.5 -278t-311.5 -109q-108 0 -262 58q-38 14 -60 14q-29 0 -42 -13
t-17 -50h-49l-62 438h50q49 -130 112 -207q60 -72 141.5 -112t167.5 -40q104 0 172 64t68 162q0 88 -57.5 161t-180.5 142l-106 59q-128 73 -193 135q-53 45 -83.5 115t-30.5 143q0 149 108.5 244.5t278.5 95.5q101 0 196 -39q57 -24 78 -24q26 0 35 9t33 54h47l45 -432h-55
zM440 -596q72 43 119 103t47 110q0 15 -10 25t-25 10q-10 0 -26 -4q-20 -4 -31 -4q-43 0 -74.5 33t-31.5 77q0 50 36.5 83.5t90.5 33.5q68 0 113.5 -56.5t45.5 -142.5q0 -183 -229 -305z" />
    <glyph glyph-name="scommaaccent" unicode="&#x219;" horiz-adv-x="796" 
d="M657 639h-39q-26 119 -83 181.5t-140 62.5q-64 0 -107.5 -36.5t-43.5 -90.5q0 -55 45.5 -99t177.5 -118q149 -83 201.5 -144.5t52.5 -150.5q0 -116 -84 -191.5t-213 -75.5q-37 0 -66 6.5t-86 26.5q-52 17 -79 17q-38 0 -50 -29h-30v317h39q18 -76 38.5 -121.5t55.5 -80.5
q73 -76 168 -76q71 0 116 38.5t45 98.5q0 57 -42 102.5t-146 102.5q-162 88 -220 152.5t-58 156.5q0 109 82 180.5t208 71.5q56 0 127 -29q40 -18 66 -18q14 0 21 5t14 22h30v-281zM274 -596q71 43 118.5 103.5t47.5 109.5q0 15 -9.5 25t-24.5 10q-11 0 -27 -4
q-20 -4 -31 -4q-43 0 -74.5 33t-31.5 77q0 50 36.5 83.5t90.5 33.5q68 0 113.5 -56.5t45.5 -142.5q0 -183 -231 -305z" />
    <glyph glyph-name="uni021A" unicode="&#x21a;" horiz-adv-x="1251" 
d="M926 0h-598v39q46 3 74 6.5t51.5 13t34.5 21.5t19 37t10 53t3 76v1024h-110q-75 -1 -120.5 -8t-81.5 -21.5t-57.5 -46t-36.5 -73.5t-30 -113h-49l12 348h1155l12 -348h-49q-18 89 -35.5 135.5t-55 77t-88.5 39t-146 10.5h-111v-1047q1 -40 3.5 -65.5t11 -47t21.5 -33
t36 -20.5t52 -12.5t73 -5.5v-39zM520 -537q168 115 168 218q0 12 -8.5 20t-20.5 8q-4 0 -14 -4q-24 -4 -41 -4q-57 0 -89 27.5t-32 76.5q0 52 33.5 84.5t87.5 32.5q69 0 116.5 -52.5t47.5 -129.5q0 -92 -63 -178t-166 -137z" />
    <glyph glyph-name="uni021B" unicode="&#x21b;" horiz-adv-x="569" 
d="M522 856h-207v-586q0 -97 25 -140.5t82 -43.5q34 0 61.5 16t61.5 56l26 -23q-99 -155 -245 -155q-183 0 -183 260v616h-108q-8 5 -8 14q0 18 34 39q45 27 98.5 88.5t141.5 188.5q14 0 14 -27v-237h207v-66zM199 -537q168 115 168 218q0 12 -8.5 20t-20.5 8q-4 0 -14 -4
q-24 -4 -41 -4q-57 0 -89 27.5t-32 76.5q0 52 33.5 84.5t87.5 32.5q69 0 116 -52.5t47 -129.5q0 -92 -63 -178t-166 -137z" />
    <glyph glyph-name="circumflex" unicode="&#x2c6;" horiz-adv-x="681" 
d="M590 1038l-250 211l-248 -211h-69l253 342h127l256 -342h-69z" />
    <glyph glyph-name="caron" unicode="&#x2c7;" horiz-adv-x="681" 
d="M403 1038h-127l-253 342h69l248 -211l250 211h69z" />
    <glyph glyph-name="uni02C9" unicode="&#x2c9;" horiz-adv-x="681" 
d="M647 1217v-101h-614v101h614z" />
    <glyph glyph-name="breve" unicode="&#x2d8;" horiz-adv-x="681" 
d="M629 1360q-19 -163 -90.5 -242.5t-200.5 -79.5q-150 0 -229 111q-30 44 -42.5 89t-13.5 122h60q22 -103 76.5 -151t152.5 -48q89 0 136 41t91 158h60z" />
    <glyph glyph-name="dotaccent" unicode="&#x2d9;" horiz-adv-x="681" 
d="M340 1276q41 0 71.5 -30.5t30.5 -71.5q0 -42 -30 -72.5t-72 -30.5q-41 0 -69.5 30.5t-28.5 74.5q0 40 29 70t69 30z" />
    <glyph glyph-name="ring" unicode="&#x2da;" horiz-adv-x="681" 
d="M340 1456q85 0 145 -60t60 -145q0 -84 -60 -143t-145 -59q-86 0 -144.5 59t-58.5 145q0 83 60 143t143 60zM342 1386q-56 0 -95.5 -39t-39.5 -94q0 -57 38.5 -96t92.5 -39q58 0 97.5 38.5t39.5 94.5q0 55 -39.5 95t-93.5 40z" />
    <glyph glyph-name="ogonek" unicode="&#x2db;" horiz-adv-x="681" 
d="M510 -182q-57 -82 -111.5 -119t-117.5 -37q-64 0 -107 44.5t-43 109.5q0 51 26.5 94.5t84.5 89.5h94q-90 -73 -90 -141q0 -36 22 -59t56 -23q33 0 66 16t79 57z" />
    <glyph glyph-name="tilde" unicode="&#x2dc;" horiz-adv-x="681" 
d="M678 1307q-32 -117 -81.5 -167t-133.5 -50q-39 0 -71.5 9.5t-94.5 39.5l-47 22q-51 23 -84 23q-71 0 -105 -94h-59q23 100 76.5 153t130.5 53q75 0 143 -36l49 -25q67 -31 109 -31q35 0 58.5 22t49.5 81h60z" />
    <glyph glyph-name="hungarumlaut" unicode="&#x2dd;" horiz-adv-x="681" 
d="M299 1038l301 303q28 28 45.5 38t40.5 10q34 0 53 -17.5t19 -48.5q0 -47 -62 -86l-315 -199h-82zM-20 1038l301 303q28 28 45.5 38t40.5 10q34 0 52.5 -17.5t18.5 -48.5q0 -48 -61 -86l-316 -199h-81z" />
    <glyph glyph-name="tonos" unicode="&#x384;" horiz-adv-x="681" 
d="M295 1112q-20 77 -24.5 101.5t-4.5 54.5q0 102 76 102t76 -102q0 -30 -4 -50t-25 -106l-20 -82h-54z" />
    <glyph glyph-name="dieresistonos" unicode="&#x385;" horiz-adv-x="681" 
d="M291 1292q-23 79 -23 119t20 65t52 25q72 0 72 -98q0 -38 -23 -111l-22 -78h-52zM186 1192q35 0 61.5 -26.5t26.5 -63.5t-26.5 -63.5t-63.5 -26.5t-63.5 26.5t-26.5 63.5q0 38 27 64t65 26zM498 1192q35 0 61.5 -26.5t26.5 -63.5t-26.5 -63.5t-63.5 -26.5t-63.5 26.5
t-26.5 63.5q0 38 27 64t65 26z" />
    <glyph glyph-name="Alphatonos" unicode="&#x386;" 
d="M1227 276q56 -135 103 -187t116 -52h27v-37h-570v39h33q113 0 113 76q0 43 -35 131l-78 198h-496l-86 -215q-35 -89 -35 -114q0 -35 32.5 -55.5t88.5 -20.5h25v-39h-453v37q55 2 83.5 7.5t56.5 31t47.5 63t52.5 115.5l483 1116h25zM903 528l-219 488l-205 -488h424z
M291 1087q-22 88 -26.5 112.5t-4.5 55.5q0 115 84 115q82 0 82 -113q0 -32 -5.5 -60t-27.5 -110l-20 -90h-60z" />
    <glyph glyph-name="uni0387" unicode="&#x387;" horiz-adv-x="512" 
d="M256 635q46 0 80.5 -35t34.5 -82q0 -45 -34.5 -77.5t-82.5 -32.5q-44 0 -77.5 33t-33.5 77q0 49 33.5 83t79.5 34z" />
    <glyph glyph-name="Epsilontonos" unicode="&#x388;" horiz-adv-x="1421" 
d="M29 1087q-21 83 -26 110t-5 60q0 113 84 113q82 0 82 -113q0 -33 -5 -60t-28 -110l-20 -90h-60zM635 238q0 -52 3 -78t15.5 -43.5t32.5 -21.5t59 -3h244q161 3 239.5 57.5t139.5 206.5l35 -14l-117 -342h-1053v37l48 2q82 3 110.5 39t28.5 135v932q0 97 -29 133t-110 39
l-48 2v37h1033l20 -307l-35 -2q-19 138 -81 185t-222 44h-313v-510h342q87 -2 123 44.5t33 158.5h36v-494h-36q3 108 -32 153t-124 46h-342v-436z" />
    <glyph glyph-name="Etatonos" unicode="&#x389;" horiz-adv-x="1654" 
d="M23 1087q-21 83 -26 110t-5 60q0 113 84 113q82 0 82 -113q0 -33 -5 -60t-28 -110l-21 -90h-59zM633 213q0 -98 29.5 -134.5t109.5 -39.5l47 -2v-37h-588v37l48 2q82 3 110.5 39t28.5 135v932q0 97 -29 133t-110 39l-48 2v37h588v-37l-47 -2q-81 -3 -110 -39t-29 -133
v-408h606v408q0 97 -29 133t-110 39l-47 2v37h587v-37l-47 -2q-81 -3 -110 -39t-29 -133v-932q0 -98 29.5 -134.5t109.5 -39.5l47 -2v-37h-587v37l47 2q82 3 110.5 39t28.5 135v432h-606v-432z" />
    <glyph glyph-name="Iotatonos" unicode="&#x38a;" horiz-adv-x="841" 
d="M27 1087q-21 83 -26 110t-5 60q0 113 84 113q82 0 82 -113q0 -33 -5 -60t-28 -110l-20 -90h-60zM231 1356h588v-37l-47 -2q-81 -3 -110 -39t-29 -133v-934q0 -97 29 -133t110 -39l47 -2v-37h-588v37l48 2q81 3 110 39t29 133v934q0 97 -29 133t-110 39l-48 2v37z" />
    <glyph glyph-name="Omicrontonos" unicode="&#x38c;" 
d="M23 1087q-21 83 -26 110t-5 60q0 113 84 113q82 0 82 -113q0 -33 -5 -60t-28 -110l-21 -90h-59zM768 1370q185 0 334.5 -89.5t234 -247.5t84.5 -353q0 -305 -192 -506q-185 -188 -461 -188q-136 0 -256 53t-205.5 144.5t-134.5 220t-49 274.5t49 274.5t134.5 220
t205.5 144.5t256 53zM766 1290q-181 0 -292.5 -169t-111.5 -443q0 -272 112 -442t292 -170q189 0 302.5 168t113.5 446q0 271 -115.5 440.5t-300.5 169.5z" />
    <glyph glyph-name="Upsilontonos" unicode="&#x38e;" horiz-adv-x="1671" 
d="M78 1087q-21 83 -26 110t-5 60q0 113 84 113q82 0 82 -113q0 -33 -5 -60t-28 -110l-20 -90h-60zM535 1110q-64 112 -112 153t-124 52l-47 4v37h616v-37h-28q-113 0 -113 -66q0 -47 55 -133l267 -420l264 447q45 73 45 113q0 57 -84 57l-43 2v37h457v-37l-23 -2
q-81 -4 -142.5 -58t-138.5 -186l-294 -495v-367q0 -97 29 -133t112 -39l55 -2v-37h-610v37l51 2q82 3 111.5 39t29.5 133v367z" />
    <glyph glyph-name="Omegatonos" unicode="&#x38f;" horiz-adv-x="1521" 
d="M39 1087q-21 83 -26 110t-5 60q0 113 84 113q82 0 82 -113q0 -33 -5 -60t-28 -110l-20 -90h-60zM1448 0h-518v152q128 59 202 216.5t74 370.5q0 243 -113 397t-292 154t-292.5 -155.5t-113.5 -399.5q0 -255 109 -426q38 -62 73 -94.5t95 -62.5v-152h-518l-78 344l35 6
q44 -117 99.5 -158.5t170.5 -44.5h211q-123 50 -238 162q-190 184 -190 441q0 169 85 312t231.5 225.5t320.5 82.5q175 0 321.5 -82.5t231 -225.5t84.5 -314q0 -193 -114.5 -353t-315.5 -248h213q114 3 169 44.5t99 158.5l35 -6z" />
    <glyph glyph-name="iotadieresistonos" unicode="&#x390;" horiz-adv-x="550" 
d="M354 274q0 -98 16.5 -131.5t63.5 -33.5q28 0 62 20l12 -29l-211 -110q-17 -10 -27 -10q-12 0 -39 30q-24 27 -31 52.5t-7 80.5v516q0 84 -14.5 113t-55.5 29q-21 0 -45 -6l-12 -4l-13 30q105 42 150 62.5t151 72.5v-682zM225 1292q-22 75 -22 119q0 40 19.5 65t51.5 25
q72 0 72 -98q0 -41 -22 -111l-23 -78h-51zM121 1192q35 0 61.5 -26.5t26.5 -63.5t-26.5 -63.5t-63.5 -26.5t-63.5 26.5t-26.5 63.5q0 38 27 64t65 26zM432 1192q35 0 61.5 -26.5t26.5 -63.5t-26.5 -63.5t-63.5 -26.5t-63.5 26.5t-26.5 63.5q0 38 27 64t65 26z" />
    <glyph glyph-name="Alpha" unicode="&#x391;" 
d="M1227 276q56 -135 103 -187t116 -52h27v-37h-570v39h33q113 0 113 76q0 43 -35 131l-78 198h-496l-86 -215q-35 -89 -35 -114q0 -35 32.5 -55.5t88.5 -20.5h25v-39h-453v37q55 2 83.5 7.5t56.5 31t47.5 63t52.5 115.5l483 1116h25zM903 528l-219 488l-205 -488h424z" />
    <glyph glyph-name="Beta" unicode="&#x392;" horiz-adv-x="1366" 
d="M608 1356q146 0 217 -12t138 -48q91 -47 142.5 -123.5t51.5 -162.5q0 -58 -24 -118.5t-64 -103.5q-44 -44 -129 -83q272 -93 272 -330q0 -104 -57.5 -191t-155.5 -133q-73 -34 -154 -42.5t-321 -8.5h-411v37l47 2q80 3 109.5 39.5t29.5 132.5v934q0 96 -29.5 132.5
t-109.5 39.5l-47 2v37h495zM514 756q66 -13 111 -13q137 0 215 70.5t78 194.5q0 123 -85.5 196.5t-228.5 73.5q-35 0 -90 -8v-514zM514 102q76 -18 135 -18q138 0 225 81t87 210q0 134 -91.5 212.5t-246.5 78.5q-48 0 -109 -15v-549z" />
    <glyph glyph-name="Gamma" unicode="&#x393;" horiz-adv-x="1183" 
d="M567 0h-577v41q114 9 148 43t34 137v914q0 103 -34 137t-148 43v41h1100l100 -359h-57q-58 145 -147 205.5t-247 65.5h-231q-74 -6 -100 -31t-23 -86v-930q0 -103 34 -137t148 -43v-41z" />
    <glyph glyph-name="uni0394" unicode="&#x394;" horiz-adv-x="1316" 
d="M1270 0h-1221l598 1370h19zM604 1028l-332 -766q-22 -49 -22 -76q0 -17 15 -23.5t52 -6.5h662z" />
    <glyph glyph-name="Epsilon" unicode="&#x395;" horiz-adv-x="1251" 
d="M446 238q0 -97 18.5 -122t90.5 -24h244q161 3 239.5 57.5t139.5 206.5l32 -14l-116 -342h-1049v37l47 2q80 3 109.5 39.5t29.5 134.5v932q0 96 -29.5 132.5t-109.5 39.5l-47 2v37h1028l21 -307l-35 -2q-17 137 -79 184.5t-220 44.5h-314v-510h340q86 -2 121.5 44.5
t34.5 158.5h37v-494h-37q3 108 -32 153t-124 46h-340v-436z" />
    <glyph glyph-name="Zeta" unicode="&#x396;" horiz-adv-x="1251" 
d="M485 1264q-73 1 -119 -5t-81 -21t-55 -47.5t-33 -77t-23 -116.5l-39 4l39 355h1014l-852 -1264h473q164 -6 247.5 59t117.5 226l38 -4l-73 -373h-1127l856 1264h-383z" />
    <glyph glyph-name="Eta" unicode="&#x397;" 
d="M438 213q0 -98 29 -134.5t111 -39.5l45 -2v-37h-586v37l47 2q80 3 109.5 39.5t29.5 134.5v932q0 96 -29.5 132.5t-109.5 39.5l-47 2v37h586v-37l-45 -2q-82 -3 -111 -39t-29 -133v-408h604v408q0 96 -29.5 132.5t-109.5 39.5l-47 2v37h586v-37l-45 -2q-82 -3 -111 -39
t-29 -133v-932q0 -98 29 -134.5t111 -39.5l45 -2v-37h-586v37l47 2q80 3 109.5 39.5t29.5 134.5v432h-604v-432z" />
    <glyph glyph-name="Theta" unicode="&#x398;" 
d="M586 889q8 -74 43 -106.5t110 -32.5q73 0 108.5 32.5t43.5 106.5h63v-406h-63q0 146 -152 146q-153 0 -153 -146h-64v406h64zM745 1382q141 0 264 -53.5t211 -147t138.5 -224.5t50.5 -281q0 -201 -86.5 -362t-240 -251t-345.5 -90q-191 0 -344 90.5t-239 251.5t-86 361
q0 205 86 366t240.5 250.5t350.5 89.5zM727 1305q-199 0 -310.5 -163.5t-111.5 -455.5q0 -287 121.5 -461t321.5 -174q73 0 140 24.5t113 67.5q82 76 126 211.5t44 307.5q0 185 -50.5 325.5t-145.5 222.5q-109 95 -248 95z" />
    <glyph glyph-name="Iota" unicode="&#x399;" horiz-adv-x="681" 
d="M49 1356h586v-37l-45 -2q-81 -3 -110 -39t-29 -133v-934q0 -97 29 -133t110 -39l45 -2v-37h-586v37l47 2q80 3 110 39.5t30 132.5v934q0 96 -30 132.5t-110 39.5l-47 2v37z" />
    <glyph glyph-name="Kappa" unicode="&#x39a;" 
d="M477 211q-1 -97 28.5 -133t112.5 -39l48 -2v-37h-590v37l47 2q80 3 109.5 39.5t29.5 132.5v934q0 96 -29.5 132.5t-109.5 39.5l-47 2v37h590v-37l-39 -2q-89 -1 -119.5 -37t-30.5 -137v-434q210 187 344.5 343t134.5 212q0 31 -23 41.5t-95 11.5v39h497v-39l-28 -2
q-88 -11 -143 -47.5t-158 -153.5q-151 -164 -205 -219q-62 -66 -92 -96q-7 -8 -21 -23t-20 -22l467 -484q131 -134 212 -183t175 -50v-37h-652v37l33 2q86 3 86 51q0 23 -31.5 64t-109.5 120l-371 381v-444z" />
    <glyph glyph-name="Lambda" unicode="&#x39b;" horiz-adv-x="1484" 
d="M1231 279q55 -136 102.5 -188t116.5 -54h27v-37h-570v39h33q113 0 113 78q0 49 -35 129l-330 764l-330 -781q-34 -87 -34 -114q0 -35 32 -55.5t88 -20.5h25v-39h-453v37q55 2 83 8t56.5 31t48 62.5t52.5 115.5l483 1116h25z" />
    <glyph glyph-name="Mu" unicode="&#x39c;" horiz-adv-x="1820" 
d="M352 1075v-864q0 -97 29 -133t111 -39l49 -2v-37h-475v37l47 2q80 3 109.5 39.5t29.5 132.5v934q0 96 -29.5 132.5t-109.5 39.5l-47 2v37h391l458 -1006l441 1006h399v-37l-45 -2q-81 -3 -110 -39t-29 -133v-934q0 -97 29 -133t110 -39l45 -2v-37h-579v37l38 2
q82 3 112 39t30 133v876l-484 -1087h-32z" />
    <glyph glyph-name="Nu" unicode="&#x39d;" 
d="M330 1055v-844q0 -97 29 -133t110 -39l47 -2v-37h-473v37l47 2q81 3 110 39t29 133v965q-91 94 -133 117t-127 26v37h402l803 -936v725q0 97 -29 133t-111 39l-47 2v37h473v-37l-47 -2q-81 -3 -110 -39t-29 -133v-1145h-33z" />
    <glyph glyph-name="Xi" unicode="&#x39e;" horiz-adv-x="1316" 
d="M303 967h37q-3 -88 32.5 -124t123.5 -34h325q87 -1 122.5 34.5t33.5 123.5h37v-494h-37q3 97 -31 136t-125 40h-325q-91 -1 -125 -40t-31 -136h-37v494zM160 1049l20 307h955l20 -307l-35 -5q-13 95 -61.5 127.5t-171.5 30.5h-459q-123 2 -171.5 -30.5t-61.5 -127.5z
M104 346l35 8q44 -108 101 -146.5t176 -41.5h487q117 3 174 42t103 146l34 -8l-84 -346h-942z" />
    <glyph glyph-name="Omicron" unicode="&#x39f;" 
d="M735 1370q139 0 260.5 -52.5t207.5 -144t136 -219.5t50 -274q0 -304 -193 -506q-182 -188 -461 -188q-136 0 -256 53t-205.5 144.5t-134.5 220t-49 274.5t49 274.5t134.5 220t205.5 144.5t256 53zM733 1290q-180 0 -291.5 -169t-111.5 -443q0 -272 111.5 -442t291.5 -170
q189 0 302.5 168t113.5 446q0 271 -115.5 440.5t-300.5 169.5z" />
    <glyph glyph-name="Pi" unicode="&#x3a0;" 
d="M1442 1319l-45 -2q-82 -3 -111 -39t-29 -133v-934q0 -97 29 -133t111 -39l45 -2v-37h-586v37l47 2q80 3 109.5 39.5t29.5 132.5v905q0 97 -29.5 134t-109.5 40h-325q-80 -3 -110 -40.5t-30 -133.5v-905q0 -97 29 -133t111 -39l45 -2v-37h-586v37l47 2q80 3 109.5 39.5
t29.5 132.5v934q0 96 -29.5 132.5t-109.5 39.5l-47 2v37h1405v-37z" />
    <glyph glyph-name="Rho" unicode="&#x3a1;" horiz-adv-x="1138" 
d="M444 211q0 -97 29 -133t111 -39l49 -2v-37h-590v37l47 2q80 3 109.5 39.5t29.5 132.5v934q0 96 -29.5 132.5t-109.5 39.5l-47 2v37h438q195 -2 257.5 -8.5t125.5 -34.5q228 -105 228 -336q0 -82 -29.5 -149.5t-83.5 -110.5q-63 -51 -149.5 -79t-180.5 -28q-98 0 -205 37
v-436zM444 725q74 -29 136 -29q123 0 197.5 78.5t74.5 208.5q0 132 -79.5 213.5t-209.5 81.5q-60 0 -119 -21v-532z" />
    <glyph glyph-name="Sigma" unicode="&#x3a3;" horiz-adv-x="1191" 
d="M1098 936h-64q-13 180 -118 261t-316 75h-229l301 -588l-289 -575h235q198 -3 316 77.5t201 276.5h63l-100 -463h-1006l348 635l-348 721h1006v-420z" />
    <glyph glyph-name="Tau" unicode="&#x3a4;" horiz-adv-x="1251" 
d="M332 37l45 2q83 3 112 39t29 135v1044h-182q-131 2 -187.5 -51t-62.5 -182l-39 4l21 328h1116l20 -328l-39 -4q-6 129 -62.5 182t-187.5 51h-182v-1044q0 -99 29 -135t112 -39l46 -2v-37h-588v37z" />
    <glyph glyph-name="Upsilon" unicode="&#x3a5;" 
d="M311 1110q-64 112 -111.5 153.5t-123.5 51.5l-47 4v37h616v-37h-29q-112 0 -112 -66q0 -47 55 -133l266 -420l265 447q45 73 45 113q0 57 -84 57l-43 2v37h456v-37l-22 -2q-81 -4 -142.5 -58t-138.5 -186l-295 -495v-367q0 -97 30 -133t112 -39l55 -2v-37h-610v37l51 2
q83 3 112 39t29 133v367z" />
    <glyph glyph-name="Phi" unicode="&#x3a6;" horiz-adv-x="1497" 
d="M643 1233q2 88 -24 115t-115 30l-47 2v37h583v-37l-47 -2q-89 -3 -115 -30t-24 -115v-25q266 -31 427 -176t161 -354t-165 -357.5t-423 -173.5v-24q-2 -88 24 -115.5t115 -30.5l47 -2v-36h-583v36l47 2q89 3 115 30.5t24 115.5v24q-258 25 -423 173.5t-165 357.5
t162.5 355.5t425.5 174.5v25zM643 1153q-163 -32 -255.5 -158.5t-92.5 -316.5q0 -191 91 -315t257 -158v948zM854 203q163 34 255.5 160t92.5 315t-91 312.5t-257 160.5v-948z" />
    <glyph glyph-name="Chi" unicode="&#x3a7;" 
d="M369 1090q-88 128 -137.5 171t-118.5 52l-45 6v37h606v-37q-57 -2 -80 -8q-20 -6 -32.5 -25.5t-12.5 -44.5q0 -35 33 -86l211 -315l247 325q45 58 45 86q0 32 -25.5 50t-72.5 18h-33v37h457v-37l-25 -2q-59 -4 -89.5 -18t-66 -51.5t-116.5 -141.5l-266 -350l326 -477
q93 -137 144.5 -184.5t113.5 -53.5l43 -4v-37h-596v37q71 2 98 16t27 51q0 47 -50 117l-241 354l-291 -380q-47 -62 -47 -95q0 -25 22.5 -40.5t61.5 -18.5l43 -4v-37h-500v37q123 1 185 44t188 212l278 371z" />
    <glyph glyph-name="Psi" unicode="&#x3a8;" horiz-adv-x="1511" 
d="M1051 1356v-37l-47 -2q-82 -3 -111 -39t-29 -133v-627q67 15 104 34t81 62q61 67 82 141.5t26 235.5q1 121 7.5 171t23.5 89q49 119 180 119q66 0 148 -29l-17 -43q-26 13 -49 13q-57 0 -68 -56q-6 -18 -14 -217q-1 -177 -45.5 -280.5t-155.5 -196.5
q-67 -50 -134.5 -73.5t-168.5 -32.5v-244q0 -97 29 -133t111 -39l47 -2v-37h-588v37l47 2q81 3 110 39t29 133v244q-126 11 -215 52t-162 124q-59 75 -83 129t-34.5 133.5t-15.5 255.5q-5 103 -18.5 132.5t-57.5 29.5q-21 0 -51 -13l-14 43q82 29 147 29q141 0 187 -137
q22 -63 24 -242q5 -160 26.5 -235t82.5 -142q45 -43 81 -62t103 -34v627q0 97 -29 133t-110 39l-47 2v37h588z" />
    <glyph glyph-name="uni03A9" unicode="&#x3a9;" horiz-adv-x="1521" 
d="M649 0h-604v334h35q19 -77 45.5 -100t99.5 -23h303v29q-95 27 -159.5 61t-116.5 82q-78 73 -123 184t-45 228q0 123 53 239t146 195q179 153 479 153q298 0 477 -153q93 -79 146 -195t53 -239q0 -127 -53 -245t-142 -192q-87 -70 -250 -118v-29h303q74 0 101.5 23.5
t44.5 99.5h35v-334h-605l31 291q66 25 105 51.5t73 69.5q111 148 111 385q0 260 -131 403q-104 113 -299 113q-197 0 -301 -113q-131 -143 -131 -401q0 -240 110 -387q34 -43 73 -69.5t105 -51.5z" />
    <glyph glyph-name="Iotadieresis" unicode="&#x3aa;" horiz-adv-x="681" 
d="M47 1356h588v-37l-47 -2q-81 -3 -110 -39t-29 -133v-934q0 -97 29 -133t110 -39l47 -2v-37h-588v37l47 2q81 3 110 39t29 133v934q0 97 -29 133t-110 39l-47 2v37zM152 1681q43 0 73.5 -30.5t30.5 -73.5q0 -44 -31 -75.5t-75 -31.5q-43 0 -74 31.5t-31 75.5
q0 43 31.5 73.5t75.5 30.5zM530 1681q43 0 74 -30.5t31 -73.5q0 -44 -31.5 -75.5t-75.5 -31.5q-43 0 -73.5 31.5t-30.5 75.5q0 43 31 73.5t75 30.5z" />
    <glyph glyph-name="Upsilondieresis" unicode="&#x3ab;" 
d="M311 1110q-64 112 -111.5 153.5t-123.5 51.5l-47 4v37h616v-37h-29q-112 0 -112 -66q0 -47 55 -133l266 -420l265 447q45 73 45 113q0 57 -84 57l-43 2v37h456v-37l-22 -2q-81 -4 -142.5 -58t-138.5 -186l-295 -495v-367q0 -97 30 -133t112 -39l55 -2v-37h-610v37l51 2
q83 3 112 39t29 133v367zM631 1681q42 0 73 -31t31 -73q0 -44 -31 -75.5t-75 -31.5q-43 0 -74 31.5t-31 75.5q0 43 31.5 73.5t75.5 30.5zM1012 1681q42 0 73 -31t31 -73q0 -44 -31 -75.5t-75 -31.5q-43 0 -74 31.5t-31 75.5q0 43 31.5 73.5t75.5 30.5z" />
    <glyph glyph-name="alphatonos" unicode="&#x3ac;" horiz-adv-x="1073" 
d="M432 1112q-22 83 -26.5 105t-4.5 51q0 102 76 102t76 -102q0 -30 -4.5 -56t-24.5 -100l-20 -82h-53zM862 346q52 -229 176 -229q27 0 72 18v-74l-186 -84q-23 -10 -31 -10q-24 0 -59 53q-44 63 -60 166q-128 -219 -356 -219q-158 0 -258.5 125t-100.5 322q0 150 57 277.5
t155 201.5t214 74q152 0 230 -144q20 -42 59 -164l80 269l209 -2zM729 532q-34 125 -50.5 175t-37.5 84q-59 100 -147 100q-103 0 -162.5 -122.5t-59.5 -334.5q0 -179 49.5 -291t127.5 -112q124 0 235 352z" />
    <glyph glyph-name="epsilontonos" unicode="&#x3ad;" horiz-adv-x="860" 
d="M727 758q-130 55 -258 55q-98 0 -151.5 -40t-53.5 -114q0 -67 49 -110q99 37 170 37q54 0 86.5 -18.5t32.5 -49.5t-27 -49t-73 -18q-91 0 -189 43q-63 -84 -63 -166q0 -104 69.5 -173t172.5 -69q208 0 286 244l39 -6q-31 -160 -133 -249t-256 -89q-149 0 -245.5 78.5
t-96.5 201.5q0 82 39 138.5t137 119.5q-76 44 -110.5 90t-34.5 103q0 98 101 164.5t249 66.5q145 0 287 -37zM424 1112q-20 79 -24.5 102.5t-4.5 51.5q0 104 74 104q76 0 76 -102q0 -30 -4.5 -56t-24.5 -100l-18 -82h-56z" />
    <glyph glyph-name="etatonos" unicode="&#x3ae;" horiz-adv-x="1071" 
d="M362 776q166 172 312 172q63 0 115 -31.5t75 -85.5q22 -46 29.5 -98t7.5 -153v-947h-162v951q0 141 -29 190t-114 49q-55 0 -105.5 -26t-128.5 -95v-702h-161v655q0 87 -15 115.5t-59 28.5q-22 0 -43 -6l-21 -9l-14 29q162 68 313 143v-180zM489 1112q-20 78 -24 101
t-4 55q0 102 76 102q75 0 75 -102q0 -31 -4.5 -56.5t-25.5 -99.5l-19 -82h-55z" />
    <glyph glyph-name="iotatonos" unicode="&#x3af;" horiz-adv-x="550" 
d="M356 274q0 -98 16 -131.5t62 -33.5q30 0 64 20l12 -29l-211 -110q-20 -10 -27 -10q-11 0 -41 30q-23 27 -29.5 52.5t-6.5 80.5v516q0 84 -14.5 113t-55.5 29q-24 0 -45 -6l-14 -4l-11 30q156 63 301 135v-682zM229 1112q-21 79 -24.5 100.5t-3.5 53.5q0 104 75 104
q76 0 76 -102q0 -31 -4.5 -56.5t-25.5 -99.5l-19 -82h-55z" />
    <glyph glyph-name="upsilondieresistonos" unicode="&#x3b0;" horiz-adv-x="1013" 
d="M55 840l211 110q12 6 23 6q24 0 55 -45q27 -39 27 -114v-428q0 -137 30 -185q39 -61 131 -61q123 0 203 97.5t80 246.5q0 108 -37 178q-12 26 -27 43t-57 55q-65 59 -65 113q0 37 27 64.5t65 27.5q77 0 128.5 -117.5t51.5 -293.5q0 -249 -125 -398q-132 -153 -301 -153
q-126 0 -196 79t-70 222v377q0 99 -16.5 133t-63.5 34q-30 0 -61 -20zM459 1292q-25 80 -25 119q0 40 20 65t52 25q74 0 74 -98q0 -32 -23 -111l-25 -78h-51zM354 1192q35 0 61.5 -26.5t26.5 -63.5t-26.5 -63.5t-63.5 -26.5q-38 0 -64 26.5t-26 63.5q0 38 27 64t65 26z
M666 1192q35 0 61.5 -26.5t26.5 -63.5t-26.5 -63.5t-63.5 -26.5t-64 26.5t-27 63.5q0 38 27 64t66 26z" />
    <glyph glyph-name="alpha" unicode="&#x3b1;" horiz-adv-x="1073" 
d="M862 346q52 -229 176 -229q27 0 72 18v-74l-186 -84q-23 -10 -31 -10q-24 0 -59 53q-44 63 -60 166q-128 -219 -356 -219q-158 0 -258.5 125t-100.5 322q0 150 57 277.5t155 201.5t214 74q152 0 230 -144q20 -42 59 -164l80 269l209 -2zM729 532q-34 125 -50.5 175
t-37.5 84q-59 100 -147 100q-103 0 -162.5 -122.5t-59.5 -334.5q0 -179 49.5 -291t127.5 -112q124 0 235 352z" />
    <glyph glyph-name="beta" unicode="&#x3b2;" horiz-adv-x="1042" 
d="M322 -367h-162v1158q0 163 17 244t67 153q125 182 360 182q125 0 201 -62t76 -163q0 -75 -41 -138.5t-129 -125.5q115 -58 176 -165.5t61 -250.5q0 -131 -53 -241t-144 -174t-200 -64q-68 0 -118 25t-111 91v-469zM322 180q57 -69 100 -95t100 -26q114 0 187 110t73 280
q0 123 -32 212.5t-107 174.5q-105 -58 -168 -58q-29 0 -48 15.5t-19 37.5q0 37 41.5 59.5t109.5 22.5q35 0 84 -14q57 67 76.5 111t19.5 104q0 80 -50 132t-126 52q-65 0 -118 -39.5t-85 -111.5q-38 -89 -38 -320v-647z" />
    <glyph glyph-name="gamma" unicode="&#x3b3;" horiz-adv-x="905" 
d="M-45 823l162 123q17 10 18 10q15 1 55.5 -45.5t73.5 -101.5q57 -102 127.5 -304t102.5 -358l139 291q57 117 70.5 156t13.5 86q0 24 -4.5 41.5t-28.5 81.5q-12 27 -12 55q0 38 28 64t68 26q47 0 78 -34.5t31 -86.5q0 -76 -46 -176q-26 -56 -57 -112q-38 -65 -53 -99
l-203 -405q27 -129 27 -205q0 -94 -31 -151.5t-82 -57.5q-43 0 -73.5 48.5t-30.5 117.5q0 54 13 108.5t48 153.5q-49 225 -188 535q-103 229 -185 229q-18 0 -45 -16z" />
    <glyph glyph-name="delta" unicode="&#x3b4;" horiz-adv-x="964" 
d="M817 1167q-141 71 -268.5 111.5t-214.5 40.5q-84 0 -84 -45q0 -22 21 -45.5t71 -57.5l147 -104q112 -77 153 -108.5t95 -77.5q107 -95 152 -186t45 -212q0 -213 -133.5 -359.5t-327.5 -146.5q-191 0 -315.5 132.5t-124.5 334.5q0 186 108 322.5t281 167.5l-180 137
q-68 51 -94.5 88t-26.5 80q0 64 59 103.5t156 39.5q173 0 481 -92v-123zM455 872q-109 0 -170.5 -92t-61.5 -256q0 -107 26.5 -208t72.5 -169q32 -47 83.5 -74.5t108.5 -27.5q109 0 169 92.5t60 259.5q0 211 -80 343t-208 132z" />
    <glyph glyph-name="epsilon" unicode="&#x3b5;" horiz-adv-x="860" 
d="M727 758q-130 55 -258 55q-98 0 -151.5 -40t-53.5 -114q0 -67 49 -110q99 37 170 37q54 0 86.5 -18.5t32.5 -49.5t-27 -49t-73 -18q-91 0 -189 43q-63 -84 -63 -166q0 -104 69.5 -173t172.5 -69q208 0 286 244l39 -6q-31 -160 -133 -249t-256 -89q-149 0 -245.5 78.5
t-96.5 201.5q0 82 39 138.5t137 119.5q-76 44 -110.5 90t-34.5 103q0 98 101 164.5t249 66.5q145 0 287 -37z" />
    <glyph glyph-name="zeta" unicode="&#x3b6;" horiz-adv-x="847" 
d="M283 1380q-35 -41 -35 -69q0 -42 50.5 -83.5t145.5 -76.5q185 162 310 162q34 0 59 -18.5t25 -43.5q0 -63 -97 -115.5t-211 -52.5q-40 0 -67 2q-119 -172 -175.5 -337t-56.5 -342q0 -125 55.5 -193t157.5 -68q19 0 138 9q50 6 77 6q76 0 118 -44t42 -124
q0 -122 -85 -216.5t-195 -94.5q-49 0 -81 25t-32 63q0 32 22 53.5t56 21.5q24 0 67 -14q31 -10 50 -10q49 0 83.5 33.5t34.5 80.5q0 34 -20.5 54t-56.5 20q-14 0 -60 -4q-102 -10 -158 -10q-160 0 -262 92q-59 56 -85.5 126.5t-26.5 170.5q0 381 327 717q-107 34 -184.5 86
t-77.5 90q0 8 8 20l107 101z" />
    <glyph glyph-name="eta" unicode="&#x3b7;" horiz-adv-x="1071" 
d="M371 776q166 172 311 172q63 0 115 -31.5t75 -85.5q22 -46 29.5 -98t7.5 -153v-947h-161v951q0 141 -29.5 190t-114.5 49q-55 0 -105 -26t-128 -95v-702h-162v655q0 87 -15 115.5t-59 28.5q-22 0 -43 -6l-20 -9l-15 29q169 71 314 143v-180z" />
    <glyph glyph-name="theta" unicode="&#x3b8;" horiz-adv-x="980" 
d="M500 1370q117 0 212 -88t148 -242.5t53 -345.5q0 -196 -56.5 -358.5t-155.5 -256t-218 -93.5q-94 0 -172.5 54t-132.5 155q-110 200 -110 469q0 305 137 518q118 188 295 188zM725 784q-20 248 -85.5 381t-166.5 133q-95 0 -152 -132.5t-69 -381.5h473zM250 709
q0 -301 69 -476.5t187 -175.5q103 0 164 155.5t61 416.5q0 47 -2 80h-479z" />
    <glyph glyph-name="iota" unicode="&#x3b9;" horiz-adv-x="550" 
d="M356 274q0 -98 16 -131.5t62 -33.5q30 0 64 20l12 -29l-211 -110q-20 -10 -27 -10q-11 0 -41 30q-23 27 -29.5 52.5t-6.5 80.5v516q0 84 -14.5 113t-55.5 29q-24 0 -45 -6l-14 -4l-11 30q156 63 301 135v-682z" />
    <glyph glyph-name="kappa" unicode="&#x3ba;" horiz-adv-x="1032" 
d="M371 530l12 17q195 242 284 321.5t164 79.5q41 0 69 -25t28 -63q0 -40 -27.5 -71t-62.5 -31q-15 0 -45 6q-14 2 -39 2q-52 0 -98 -35.5t-156 -163.5l223 -305q20 -29 100 -115q41 -38 82 -38q20 0 58 14l12 -31l-199 -102q-20 -10 -28 -10q-15 0 -33 24l-344 479v-483
h-162v659q0 86 -15 114t-59 28q-20 0 -41 -6l-22 -9l-15 29q166 67 314 141v-426z" />
    <glyph glyph-name="lambda" unicode="&#x3bb;" horiz-adv-x="993" 
d="M944 102l-170 -120q-10 -5 -14 -5q-43 0 -109 224l-145 483l-285 -684h-174l389 895q-45 155 -74 201q-19 34 -47 52.5t-59 18.5q-15 0 -39 -6q-28 -4 -41 -4q-40 0 -68 30t-28 73t28 69.5t72 26.5q100 0 187 -107q70 -81 143 -313l192 -588q41 -129 78.5 -182t87.5 -53
q27 0 62 18z" />
    <glyph glyph-name="uni03BC" unicode="&#x3bc;" horiz-adv-x="1097" 
d="M883 270q0 -100 16.5 -134t63.5 -34q25 0 61 23l12 -29l-211 -106q-20 -10 -26 -10q-15 0 -39 30q-25 26 -32 50t-7 77v35q-59 -68 -103 -106q-86 -80 -194 -80q-72 0 -120 39t-77 122q3 -101 10.5 -155.5t36.5 -177.5q13 -54 13 -90q0 -46 -22.5 -74.5t-59.5 -28.5
q-40 0 -65 31t-25 80q0 36 30 227q29 206 37 316.5t11 353.5v293h161v-578q0 -120 33.5 -171.5t110.5 -51.5q52 0 94 22.5t129 96.5v682h162v-652z" />
    <glyph glyph-name="nu" unicode="&#x3bd;" horiz-adv-x="925" 
d="M641 489q57 117 57 187q0 30 -20 112q-6 24 -6 52q0 46 27.5 77t68.5 31q42 0 69 -33.5t27 -85.5q0 -88 -65 -215l-322 -634h-51l-207 647q-36 110 -51 139q-20 41 -66 41q-22 0 -55 -16l-14 26l166 129q13 10 24 10q25 0 58.5 -45.5t52.5 -105.5l182 -578z" />
    <glyph glyph-name="xi" unicode="&#x3be;" horiz-adv-x="913" 
d="M332 1450q-25 -39 -25 -68q0 -27 30.5 -46.5t127.5 -55.5q170 90 291 90q51 0 84.5 -19t33.5 -48q0 -47 -69 -80t-170 -33q-73 0 -180 24q-56 -51 -79.5 -99t-23.5 -109q0 -54 17.5 -93t60.5 -79q165 116 270 116q45 0 74 -17.5t29 -45.5q0 -52 -79 -91.5t-185 -39.5
q-49 0 -103 10q-164 -161 -164 -367q0 -120 56.5 -187t156.5 -67q19 0 138 9q49 6 77 6q76 0 118 -44t42 -124q0 -122 -85 -216.5t-195 -94.5q-49 0 -81 25t-32 63q0 32 22 53.5t56 21.5q24 0 67 -14q31 -10 50 -10q49 0 83.5 33.5t34.5 80.5q0 34 -21 54t-57 20
q-13 0 -59 -4q-103 -10 -158 -10q-160 0 -262 92q-112 106 -112 270q0 122 62.5 225t195.5 203q-154 61 -154 203q0 72 40.5 130t131.5 118q-93 29 -148 58.5t-55 49.5q0 12 19 31l108 92z" />
    <glyph glyph-name="omicron" unicode="&#x3bf;" horiz-adv-x="1024" 
d="M522 944q187 0 309.5 -132t122.5 -335q0 -137 -59.5 -251.5t-162.5 -180t-226 -65.5q-187 0 -312.5 135t-125.5 336q0 103 37 197.5t106 164.5q68 68 142 99.5t169 31.5zM496 872q-117 0 -181.5 -104t-64.5 -293t77 -306.5t201 -117.5q110 0 177 99.5t67 263.5
q0 204 -76.5 331t-199.5 127z" />
    <glyph glyph-name="pi" unicode="&#x3c0;" horiz-adv-x="1034" 
d="M1081 788h-247q-17 -47 -20.5 -89t-2.5 -181v-260q0 -82 2 -92q6 -23 29.5 -41.5t48.5 -18.5q5 0 94 29l8 -43l-221 -96q-29 -10 -31 -10q-14 0 -35.5 24t-33.5 53q-11 30 -14 55.5t-3 88.5v309q1 90 28 148.5t95 123.5h-422l-12 -174q0 -33 -6 -135q-8 -196 -27 -300.5
t-54.5 -148.5t-98.5 -44q-44 0 -69.5 25t-25.5 69q0 40 16 64t79 83q52 47 76.5 154t52.5 407q-109 1 -173.5 -21.5t-156.5 -94.5l-35 41l172 151q40 34 70.5 44t99.5 10h817v-130z" />
    <glyph glyph-name="rho" unicode="&#x3c1;" horiz-adv-x="1021" 
d="M150 -373v807q0 142 18 227t59 142q51 67 131.5 104t176.5 37q183 0 294 -130t111 -345q0 -209 -118.5 -349t-295.5 -140q-64 0 -112.5 20t-102.5 70v-443h-161zM311 160q59 -57 105.5 -81t101.5 -24q111 0 176.5 105.5t65.5 285.5q0 198 -67 312t-183 114q-51 0 -93 -25
t-67 -71q-39 -63 -39 -194v-422z" />
    <glyph glyph-name="uni03C2" unicode="&#x3c2;" horiz-adv-x="811" 
d="M637 160q72 0 110.5 -43t38.5 -123q0 -121 -83.5 -217t-188.5 -96q-55 0 -88 23.5t-33 62.5q0 34 22.5 53.5t59.5 19.5q17 0 55 -12q35 -12 60 -12q46 0 81.5 38.5t35.5 90.5q0 29 -19.5 46t-54.5 17q-21 0 -109 -10q-54 -4 -82 -4q-176 0 -264 88q-106 106 -106 291
q0 117 44 223.5t118 183.5t176.5 122.5t214.5 45.5q78 0 124 -28.5t46 -77.5q0 -37 -25.5 -61.5t-64.5 -24.5q-41 0 -107 35q-56 30 -102 30q-49 0 -106.5 -29t-98.5 -75q-92 -100 -92 -279q0 -141 63.5 -217t181.5 -76q32 0 97 7q76 8 96 8z" />
    <glyph glyph-name="sigma" unicode="&#x3c3;" horiz-adv-x="1103" 
d="M1098 819l-336 43q49 -31 75.5 -53t49.5 -53q82 -113 82 -273q0 -213 -133.5 -359.5t-327.5 -146.5q-191 0 -315.5 132.5t-124.5 334.5q0 152 78.5 279t207.5 182q52 23 94 29t148 6h502v-121zM485 872q-106 0 -166.5 -92.5t-60.5 -253.5q0 -109 26 -209.5t72 -169.5
q32 -47 84 -74.5t109 -27.5q107 0 168 91.5t61 254.5q0 218 -80.5 349.5t-212.5 131.5z" />
    <glyph glyph-name="tau" unicode="&#x3c4;" horiz-adv-x="823" 
d="M868 793h-307q-26 -34 -36 -77t-13 -136v-275q0 -176 82 -176q34 0 102 31v-80l-250 -88q-41 -21 -45 -21q-29 0 -50 58.5t-21 140.5v295q3 103 20.5 168.5t67.5 159.5h-31q-134 2 -203 -30t-135 -126l-84 47l113 158q35 49 75 63.5t138 16.5h577v-129z" />
    <glyph glyph-name="upsilon" unicode="&#x3c5;" horiz-adv-x="1013" 
d="M55 840l211 110q12 6 23 6q24 0 55 -45q27 -39 27 -114v-428q0 -137 30 -185q39 -61 131 -61q123 0 203 97.5t80 246.5q0 108 -37 178q-12 26 -27 43t-57 55q-65 59 -65 113q0 37 27 64.5t65 27.5q77 0 128.5 -117.5t51.5 -293.5q0 -249 -125 -398q-132 -153 -301 -153
q-126 0 -196 79t-70 222v377q0 99 -16.5 133t-63.5 34q-30 0 -61 -20z" />
    <glyph glyph-name="phi" unicode="&#x3c6;" horiz-adv-x="1181" 
d="M467 907q-66 -18 -102 -49q-123 -102 -123 -356q0 -272 135 -389q46 -41 131 -66v569q0 97 9.5 148.5t33.5 83.5q31 44 80.5 69t107.5 25q151 0 267 -125q122 -125 122 -319q0 -126 -51 -232.5t-143 -175.5q-58 -44 -122 -65.5t-167 -32.5v-404h-137v404
q-214 23 -333.5 155t-119.5 345q0 197 110 317.5t302 132.5v-35zM645 47q66 12 103.5 25.5t72.5 38.5q144 102 144 340q0 154 -67 265t-161 111q-54 0 -75 -47q-10 -19 -13.5 -48t-3.5 -103v-582z" />
    <glyph glyph-name="chi" unicode="&#x3c7;" horiz-adv-x="909" 
d="M612 86q47 -123 69.5 -171t55.5 -93q56 -80 133 -80q26 0 64 14l12 -30l-162 -99q-13 -8 -24 -8q-29 0 -80 89.5t-113 248.5l-96 252l-321 -576h-187l443 744l-80 192q-51 117 -98 153t-142 32q-43 0 -73.5 27t-30.5 65q0 40 29 66t75 26q92 0 174.5 -84.5t142.5 -239.5
l58 -147l260 457h184l-375 -621z" />
    <glyph glyph-name="psi" unicode="&#x3c8;" horiz-adv-x="1282" 
d="M756 922v-795q82 11 128.5 27.5t86.5 50.5q54 44 84 117.5t30 160.5q0 99 -38 160q-15 24 -26.5 36.5t-70.5 68.5q-55 52 -55 100q0 35 28 61.5t66 26.5q75 0 126.5 -113.5t51.5 -279.5q0 -221 -108 -369t-303 -192v-349h-154v353q-198 15 -299.5 114.5t-97.5 274.5v276
q0 96 -17 130t-65 34q-30 0 -64 -20l-12 26l207 105q20 10 27 10q23 0 51 -45q13 -22 17.5 -43.5t4.5 -67.5v-364q-6 -137 52 -203t196 -78v787h154z" />
    <glyph glyph-name="omega" unicode="&#x3c9;" horiz-adv-x="1347" 
d="M410 920q-129 -184 -129 -439q0 -172 49.5 -267t138.5 -95q109 0 186 155q-51 130 -51 254q0 83 23.5 128.5t66.5 45.5q37 0 57.5 -41.5t20.5 -117.5q0 -118 -51 -264q38 -83 85.5 -120.5t113.5 -37.5q102 0 169.5 94.5t67.5 235.5q0 143 -57 225q-23 35 -45 48.5
t-99 43.5q-25 9 -41 35t-16 55q0 38 25 63t65 25q107 0 175.5 -129t68.5 -334q0 -211 -88 -354t-217 -143q-145 0 -244 215q-101 -215 -270 -215q-129 0 -214 127t-85 319q0 158 65 289t191 225z" />
    <glyph glyph-name="iotadieresis" unicode="&#x3ca;" horiz-adv-x="550" 
d="M354 274q0 -98 16.5 -131.5t63.5 -33.5q28 0 62 20l12 -29l-211 -110q-17 -10 -27 -10q-12 0 -39 30q-24 27 -31 52.5t-7 80.5v516q0 84 -14.5 113t-55.5 29q-21 0 -45 -6l-12 -4l-13 30q105 42 150 62.5t151 72.5v-682zM121 1303q43 0 73.5 -31t30.5 -74q0 -44 -31 -75
t-75 -31q-43 0 -74 31t-31 75q0 43 31.5 74t75.5 31zM432 1303q43 0 74 -31t31 -74q0 -44 -31.5 -75t-75.5 -31q-43 0 -73.5 31t-30.5 75q0 43 31 74t75 31z" />
    <glyph glyph-name="upsilondieresis" unicode="&#x3cb;" horiz-adv-x="1013" 
d="M55 840l211 110q12 6 23 6q24 0 55 -45q27 -39 27 -114v-428q0 -137 30 -185q39 -61 131 -61q123 0 203 97.5t80 246.5q0 108 -37 178q-12 26 -27 43t-57 55q-65 59 -65 113q0 37 27 64.5t65 27.5q77 0 128.5 -117.5t51.5 -293.5q0 -249 -125 -398q-132 -153 -301 -153
q-126 0 -196 79t-70 222v377q0 99 -16.5 133t-63.5 34q-30 0 -61 -20zM352 1303q43 0 74 -31t31 -74q0 -44 -31.5 -75t-75.5 -31q-43 0 -73.5 31t-30.5 75q0 43 31 74t75 31zM664 1303q43 0 73.5 -31t30.5 -74q0 -44 -31 -75t-75 -31q-43 0 -74 31t-31 75q0 43 31.5 74
t75.5 31z" />
    <glyph glyph-name="omicrontonos" unicode="&#x3cc;" horiz-adv-x="1024" 
d="M522 944q187 0 309.5 -132t122.5 -335q0 -137 -59.5 -251.5t-162.5 -180t-226 -65.5q-187 0 -312.5 135t-125.5 336q0 103 37 197.5t106 164.5q68 68 142 99.5t169 31.5zM496 872q-117 0 -181.5 -104t-64.5 -293t77 -306.5t201 -117.5q110 0 177 99.5t67 263.5
q0 204 -76.5 331t-199.5 127zM465 1112q-21 86 -25 106t-4 48q0 104 74 104q76 0 76 -102q0 -31 -4.5 -56t-24.5 -100l-18 -82h-56z" />
    <glyph glyph-name="upsilontonos" unicode="&#x3cd;" horiz-adv-x="1013" 
d="M55 840l211 110q12 6 23 6q24 0 55 -45q27 -39 27 -114v-428q0 -137 30 -185q39 -61 131 -61q123 0 203 97.5t80 246.5q0 108 -37 178q-12 26 -27 43t-57 55q-65 59 -65 113q0 37 27 64.5t65 27.5q77 0 128.5 -117.5t51.5 -293.5q0 -249 -125 -398q-132 -153 -301 -153
q-126 0 -196 79t-70 222v377q0 99 -16.5 133t-63.5 34q-30 0 -61 -20zM461 1112q-20 74 -24.5 100t-4.5 56q0 102 76 102t76 -102q0 -29 -4.5 -51t-26.5 -105l-18 -82h-56z" />
    <glyph glyph-name="omegatonos" unicode="&#x3ce;" horiz-adv-x="1347" 
d="M410 922q-129 -182 -129 -439q0 -173 49 -268.5t137 -95.5q111 0 188 155q-51 132 -51 256q0 83 23.5 129t66.5 46q37 0 57.5 -42t20.5 -118q0 -118 -51 -264q38 -84 85.5 -122t113.5 -38q103 0 170 94.5t67 237.5q0 142 -57 227q-23 35 -45 48.5t-99 43.5q-25 9 -41 35
t-16 55q0 38 25 63t63 25q109 0 177.5 -129.5t68.5 -335.5q0 -211 -88 -355t-217 -144q-145 0 -244 217q-100 -217 -270 -217q-129 0 -214 127.5t-85 320.5q0 159 65 290.5t191 223.5zM635 1112q-21 84 -25 105.5t-4 50.5q0 102 76 102q35 0 54.5 -26.5t19.5 -75.5
q0 -31 -4.5 -56t-24.5 -100l-18 -82h-56z" />
    <glyph glyph-name="uni03D1" unicode="&#x3d1;" horiz-adv-x="1013" 
d="M1038 655h-28l-80 -2h-25q-6 -304 -134 -485.5t-335 -181.5q-127 0 -205.5 74t-78.5 194v156q0 89 -18 122t-66 33q-31 0 -62 -20l-14 28l213 111q12 6 20 6q21 0 47 -47q23 -35 23 -113v-231q0 -99 52.5 -158t141.5 -59q129 0 192 140.5t67 439.5q-150 21 -238 42
t-162 56q-237 112 -237 301q0 129 105.5 223t250.5 94q117 0 214.5 -68t154.5 -188q59 -128 67 -325h29l80 2h26v-144zM745 805q-8 121 -23.5 193t-47.5 130q-40 78 -102 120t-136 42q-86 0 -145.5 -54t-59.5 -132q0 -149 207 -230q110 -43 307 -69z" />
    <glyph glyph-name="uni03D5" unicode="&#x3d5;" horiz-adv-x="1077" 
d="M627 -379h-183l5 346q-189 9 -301.5 142t-112.5 346q0 211 118 354t306 160q-6 95 -25 198q-14 82 -14 107q0 60 32.5 95.5t86.5 35.5q53 0 84.5 -35.5t31.5 -95.5q0 -31 -22 -160q-13 -71 -19 -145q192 -8 309 -140.5t117 -343.5q0 -207 -117 -353t-298 -163zM457 918
q-107 -25 -176.5 -151t-69.5 -298q0 -185 66 -309.5t172 -139.5zM625 20q110 31 174.5 150.5t64.5 292.5q0 187 -67.5 312t-180.5 145z" />
    <glyph glyph-name="uni03D6" unicode="&#x3d6;" horiz-adv-x="1347" 
d="M459 922q172 0 254 -8t166 -33q156 -47 238.5 -162.5t82.5 -286.5q0 -176 -78 -311q-80 -135 -223 -135q-160 0 -244 194q-77 -194 -225 -194q-124 0 -203.5 120t-79.5 308q0 164 57.5 268.5t186.5 173.5q-92 -3 -130 -7t-109 -18l81 91h226zM639 264q-21 101 -21 148
q0 69 17.5 109t48.5 40q22 0 39.5 -22.5t17.5 -51.5q0 -25 -20 -88q-12 -32 -12 -108q0 -75 49 -125.5t121 -50.5t112.5 70t40.5 194q0 115 -36 210t-101 152q-71 62 -165 88t-259 27q-154 -124 -154 -416q0 -153 46 -237t129 -84q46 0 81 34.5t66 110.5z" />
    <glyph glyph-name="uni0400" unicode="&#x400;" horiz-adv-x="1251" 
d="M1130 0h-1105v39q110 6 142.5 40t35.5 144v910q-3 111 -34.5 144t-143.5 40v39h1087l6 -293h-51q-13 73 -28 110.5t-51 63t-87 32.5t-145 9h-277q-43 0 -54 -12t-13 -58v-454h315q69 2 105 8t62 28.5t37 57t21 100.5h47v-475h-47q-20 127 -58.5 160.5t-166.5 36.5h-315
v-506q0 -60 28 -72t187 -16h55q151 1 236 24t141 78.5t106 167.5h58zM700 1473l-315 198q-59 35 -59 88q0 29 18.5 46.5t50.5 17.5q23 0 39.5 -9.5t46.5 -37.5l301 -303h-82z" />
    <glyph glyph-name="uni0401" unicode="&#x401;" horiz-adv-x="1251" 
d="M444 238q0 -97 18.5 -122t90.5 -24h244q161 3 239.5 57.5t139.5 206.5l32 -14l-116 -342h-1049v37l47 2q80 3 109.5 39.5t29.5 134.5v932q0 96 -29.5 132.5t-109.5 39.5l-47 2v37h1028l21 -307l-35 -2q-17 137 -79 184.5t-220 44.5h-314v-510h340q86 -2 121.5 44.5
t34.5 158.5h37v-494h-37q3 108 -32 153t-124 46h-340v-436zM422 1710q41 0 71.5 -30.5t30.5 -71.5q0 -43 -30.5 -73t-73.5 -30q-41 0 -68.5 30.5t-27.5 74.5q0 40 29 70t69 30zM829 1710q41 0 72 -30.5t31 -71.5q0 -43 -31 -73t-74 -30q-41 0 -68.5 30.5t-27.5 74.5
q0 40 29 70t69 30z" />
    <glyph glyph-name="uni0402" unicode="&#x402;" horiz-adv-x="1540" 
d="M659 713q88 38 156 53.5t150 15.5q207 0 332.5 -109t125.5 -290q0 -90 -34.5 -176t-94.5 -148q-101 -104 -274 -104q-111 0 -174.5 39t-63.5 108q0 46 28.5 75.5t72.5 29.5q38 0 63 -23.5t25 -58.5q0 -13 -2 -21q-2 -12 -2 -26q0 -62 67 -62q71 0 110.5 83t39.5 231
q0 187 -67 275.5t-208 88.5q-57 0 -107.5 -12t-142.5 -49v-633h-401v37q115 0 150.5 33.5t35.5 142.5v1044h-73q-131 2 -187.5 -51t-62.5 -182l-39 4l20 328h1108l19 -328l-39 -4q-4 129 -61.5 182t-188.5 51h-281v-544z" />
    <glyph glyph-name="uni0403" unicode="&#x403;" horiz-adv-x="1183" 
d="M461 209q1 -107 44 -139.5t181 -32.5v-37h-627v37q114 0 149.5 33.5t37.5 140.5v934q-2 107 -37.5 140.5t-149.5 33.5v37h1031l20 -330l-39 -2q-6 133 -62.5 187.5t-187.5 52.5h-360v-1055zM451 1473l301 303q28 28 45.5 37.5t42.5 9.5q34 0 52.5 -17.5t18.5 -48.5
q0 -48 -63 -86l-316 -198h-81z" />
    <glyph glyph-name="uni0404" unicode="&#x404;" horiz-adv-x="1351" 
d="M915 446q3 109 -31 153.5t-124 45.5h-451q5 -110 24 -187.5t58 -146.5q63 -114 168.5 -174.5t237.5 -60.5q277 0 458 241l35 -22q-205 -309 -549 -309q-184 0 -341 93t-248 252.5t-91 346.5q0 191 94 350t257 250.5t358 91.5q162 0 285 -57q60 -28 74.5 -33.5t29.5 -5.5
q50 0 62 82h43l12 -457l-37 -4q-10 88 -38.5 149t-84.5 115q-138 135 -325 135q-206 0 -335.5 -150t-144.5 -407h449q87 -1 122 44.5t33 158.5h37v-494h-37z" />
    <glyph glyph-name="uni0405" unicode="&#x405;" horiz-adv-x="1138" 
d="M176 0v459h41q10 -82 26.5 -131t49.5 -97q47 -73 121.5 -115t154.5 -42q100 0 168 63.5t68 155.5q0 89 -80 172q-53 53 -131 102l-160 90q-141 83 -203.5 167.5t-62.5 193.5q0 157 99.5 254.5t260.5 97.5q83 0 187 -35q85 -28 106 -28q36 0 58 49h41v-430h-37
q-35 115 -64 174.5t-69 101.5q-75 78 -195 78q-92 0 -152.5 -52t-60.5 -132q0 -61 52 -123.5t147 -116.5l157 -92q158 -91 232 -188.5t74 -215.5q0 -164 -113.5 -269t-288.5 -105q-60 0 -91 6.5t-157 46.5q-50 16 -75 16t-39.5 -12t-24.5 -43h-39z" />
    <glyph glyph-name="uni0406" unicode="&#x406;" horiz-adv-x="681" 
d="M49 1356h586v-37l-45 -2q-81 -3 -110 -39t-29 -133v-934q0 -97 29 -133t110 -39l45 -2v-37h-586v37l47 2q80 3 110 39.5t30 132.5v934q0 96 -30 132.5t-110 39.5l-47 2v37z" />
    <glyph glyph-name="uni0407" unicode="&#x407;" horiz-adv-x="681" 
d="M47 1356h588v-37q-115 0 -149.5 -33t-36.5 -141v-934q2 -108 36.5 -141t149.5 -33v-37h-588v37q115 0 149.5 33t36.5 141v934q-2 108 -36.5 141t-149.5 33v37zM135 1710q41 0 72 -30.5t31 -71.5q0 -42 -30.5 -72.5t-72.5 -30.5q-41 0 -69.5 30.5t-28.5 74.5q0 40 29 70
t69 30zM543 1710q41 0 71.5 -30.5t30.5 -71.5q0 -42 -30.5 -72.5t-71.5 -30.5t-70 30.5t-29 74.5q0 40 29.5 70t69.5 30z" />
    <glyph glyph-name="uni0408" unicode="&#x408;" horiz-adv-x="796" 
d="M164 1356h588v-37l-41 -2q-82 -3 -111 -39t-29 -133v-750q0 -187 -94 -298t-252 -111q-95 0 -155 42t-60 109q0 41 29.5 67.5t73.5 26.5q45 0 71 -22.5t60 -89.5q22 -49 57 -49q34 0 46.5 48t12.5 177v850q-3 90 -39 131t-112 41l-45 2v37z" />
    <glyph glyph-name="uni0409" unicode="&#x409;" horiz-adv-x="1785" 
d="M1253 1356v-37q-115 0 -149.5 -33t-36.5 -141v-369q91 12 168 12q253 0 392.5 -104t139.5 -293q0 -191 -132 -291t-382 -100h-587v37q116 0 151 32.5t35 141.5v1053h-391v-600q0 -182 -13.5 -288.5t-46.5 -185.5q-88 -208 -282 -208q-72 0 -116 32t-44 86q0 44 27 73.5
t67 29.5q25 0 47 -9.5t62 -39.5q32 -21 55 -21q64 0 107 100q51 119 51 435v477q-2 108 -37 141t-150 33v37h1065zM1067 100q81 -24 152 -24q136 0 222.5 86t86.5 221q0 146 -90 236t-236 90q-58 0 -135 -15v-594z" />
    <glyph glyph-name="uni040A" unicode="&#x40a;" horiz-adv-x="1785" 
d="M383 645v-434q0 -109 32 -141.5t138 -32.5v-37h-541v37q106 0 138.5 32.5t33.5 141.5v934q-2 108 -34.5 141t-137.5 33v37h541v-37q-104 0 -137 -33.5t-33 -140.5v-408h518v408q0 106 -34 140t-138 34v37h541v-37q-104 0 -137 -33.5t-33 -140.5v-408q190 0 257 -5.5
t132 -26.5q258 -83 258 -328q0 -183 -123 -280t-354 -97h-541v37h2q53 0 94 8q25 10 35 18q23 20 31 51t10 97v434h-518zM1100 100q71 -24 139 -24q125 0 206 81.5t81 207.5q0 89 -45 158t-119 95q-51 19 -90.5 23t-171.5 4v-545z" />
    <glyph glyph-name="uni040B" unicode="&#x40b;" horiz-adv-x="1517" 
d="M293 1257q-131 2 -187.5 -51t-62.5 -182l-39 4l21 328h1161l20 -328l-39 -4q-6 129 -63 182t-186 51h-336v-546q101 40 181 55.5t183 15.5q266 0 350 -133q29 -45 39.5 -91t10.5 -136v-211q1 -57 8 -89t28.5 -52t55.5 -26.5t94 -6.5v-37h-586v37q59 0 93 6.5t55 27
t28 52.5t8 88v211q0 165 -49.5 221.5t-193.5 56.5q-85 0 -135 -15.5t-170 -78.5v-393q0 -109 35 -142.5t149 -33.5v-37h-586v37q116 0 151.5 33.5t35.5 142.5v1044h-74z" />
    <glyph glyph-name="uni040C" unicode="&#x40c;" horiz-adv-x="1366" 
d="M420 211q0 -109 35.5 -141.5t152.5 -32.5v-37h-590v37q114 0 149.5 33.5t37.5 140.5v934q-2 107 -37.5 140.5t-149.5 33.5v37h590v-37q-16 -2 -39 -2q-88 -2 -118.5 -37.5t-30.5 -136.5v-434q210 187 344.5 343t134.5 212q0 31 -23.5 41t-95.5 12v39h498v-39
q-102 -6 -162.5 -43t-167.5 -160q-144 -158 -205 -219q-62 -66 -92 -96q-8 -12 -41 -45l467 -484q131 -134 212 -183t175 -50v-37h-651v37q66 3 92.5 13.5t26.5 35.5t-31.5 66.5t-109.5 121.5l-371 381v-444zM610 1473l301 303q28 28 45.5 37.5t40.5 9.5q34 0 53 -17.5
t19 -48.5q0 -46 -61 -86l-316 -198h-82z" />
    <glyph glyph-name="uni040D" unicode="&#x40d;" 
d="M1042 1147q-1 107 -36.5 139.5t-149.5 32.5v37h586v-37q-114 0 -149.5 -33.5t-35.5 -140.5v-934q0 -107 35.5 -140.5t149.5 -33.5v-37h-586v37q59 0 93 6.5t55.5 27t29 52.5t8.5 88v786l-604 -774v-12q0 -107 35.5 -140.5t149.5 -33.5v-37h-586v37q59 0 93 6.5t55.5 27
t29 52.5t8.5 88v934q-1 56 -8.5 88t-29 52.5t-55.5 27t-93 6.5v37h586v-37q-114 0 -149.5 -33.5t-35.5 -140.5v-774zM786 1473l-315 198q-59 38 -59 88q0 29 18 46.5t49 17.5q25 0 42.5 -9.5t45.5 -37.5l301 -303h-82z" />
    <glyph glyph-name="uni040E" unicode="&#x40e;" horiz-adv-x="1449" 
d="M623 1356v-37h-27q-115 0 -115 -64q0 -49 47 -135l283 -553l266 580l17 45q18 51 18 65q0 35 -26 47.5t-101 14.5v37h457v-37q-97 -3 -163 -58.5t-132 -187.5l-373 -788q-48 -102 -71 -139t-58 -72q-92 -92 -229 -92q-78 0 -124 32.5t-46 87.5q0 41 30.5 67t79.5 26
q47 0 99 -37q50 -37 82 -37q38 0 68 38.5t93 168.5l-407 782q-71 122 -128.5 165t-156.5 44v37h617zM997 1753q43 0 70 -26.5t27 -67.5q0 -83 -86 -139t-215 -56t-215 56t-86 139q0 41 26.5 67.5t69.5 26.5q38 0 62 -22.5t24 -57.5q0 -16 -10 -55l-5 -25q0 -28 41.5 -49.5
t94.5 -21.5q50 0 90.5 21.5t40.5 47.5q0 14 -8 45q-7 21 -7 37q0 35 24 57.5t62 22.5z" />
    <glyph glyph-name="uni040F" unicode="&#x40f;" 
d="M1028 0q-127 10 -196 -86t-78 -297h-33q-11 203 -78.5 298t-193.5 85h-424v37q59 0 93 6.5t55.5 27t29 52.5t8.5 88v934q-1 56 -8.5 88t-29 52.5t-55.5 27t-93 6.5v37h585v-37q-114 0 -149 -33.5t-35 -140.5v-1053h627v1053q-2 107 -37.5 140.5t-149.5 33.5v37h586v-37
q-114 0 -149 -33.5t-35 -140.5v-934q0 -107 35 -140.5t149 -33.5v-37h-424z" />
    <glyph glyph-name="uni0410" unicode="&#x410;" 
d="M1227 276q56 -135 103 -187t116 -52h27v-37h-570v39h33q113 0 113 78q0 43 -35 129l-78 198h-496l-86 -215q-35 -89 -35 -116q-2 -32 32 -53t89 -21h25v-39h-453v37q55 2 83.5 7.5t56.5 31t47.5 63t52.5 115.5l483 1116h25zM903 528l-215 494l-209 -494h424z" />
    <glyph glyph-name="uni0411" unicode="&#x411;" horiz-adv-x="1175" 
d="M983 1356l21 -307l-35 -5q-17 132 -79 177.5t-222 42.5h-244v-488q89 12 168 12q253 0 392.5 -104t139.5 -293q0 -190 -132.5 -290.5t-381.5 -100.5h-587v37q60 0 94 6.5t55.5 26.5t28.5 52t8 89v932q-2 109 -37 142.5t-149 33.5v37h960zM424 100q96 -24 147 -24
q138 0 226 85.5t88 221.5q0 146 -90 236t-236 90q-53 0 -135 -15v-594z" />
    <glyph glyph-name="uni0412" unicode="&#x412;" horiz-adv-x="1366" 
d="M608 1356q146 0 217 -12t138 -48q91 -47 142.5 -123.5t51.5 -162.5q0 -58 -24 -118.5t-64 -103.5q-44 -44 -129 -83q272 -93 272 -330q0 -104 -57.5 -191t-155.5 -133q-73 -34 -154 -42.5t-321 -8.5h-411v37q59 0 93 6.5t55.5 27t29 52.5t8.5 88v934q-1 57 -8 89
t-28.5 52t-55.5 26.5t-94 6.5v37h495zM514 756q66 -13 111 -13q137 0 215 70.5t78 194.5q0 123 -85.5 196.5t-228.5 73.5q-35 0 -90 -8v-514zM514 102q76 -18 135 -18q138 0 225 81t87 210q0 134 -91.5 212.5t-246.5 78.5q-48 0 -109 -15v-549z" />
    <glyph glyph-name="uni0413" unicode="&#x413;" horiz-adv-x="1183" 
d="M467 209q1 -107 44 -139.5t181 -32.5v-37h-626v37q59 0 93 6.5t55.5 27t29 52.5t8.5 88v934q-1 56 -8.5 88t-29 52.5t-55.5 27t-93 6.5v37h1030l20 -330l-39 -2q-6 133 -62.5 187.5t-187.5 52.5h-360v-1055z" />
    <glyph glyph-name="uni0414" unicode="&#x414;" horiz-adv-x="1396" 
d="M1321 1356v-37l-47 -2q-81 -3 -110 -39t-29 -133v-905q1 -58 8 -90.5t28.5 -53.5t55.5 -28t94 -7l14 -393h-37q-35 190 -119 262t-270 70h-477q-177 1 -262.5 -74t-116.5 -258h-37l15 393h67q110 0 193 142q58 101 92.5 348t34.5 567q0 119 -28 158.5t-114 40.5l-45 2v37
h1090zM518 1264v-127q0 -346 -24 -574q-22 -191 -58.5 -293t-109.5 -178h594v1172h-402z" />
    <glyph glyph-name="uni0415" unicode="&#x415;" horiz-adv-x="1251" 
d="M446 238q0 -97 18 -121.5t91 -24.5h244q161 3 239.5 57.5t139.5 206.5l32 -14l-116 -342h-1049v37q114 0 149 33.5t37 142.5v932q-1 56 -8.5 88t-29 52.5t-55.5 27t-93 6.5v37h1028l21 -307l-35 -2q-17 137 -79 184.5t-220 44.5h-314v-510h340q86 -2 121.5 44.5
t34.5 158.5h37v-494h-37q3 108 -32 153t-124 46h-340v-436z" />
    <glyph glyph-name="uni0416" unicode="&#x416;" horiz-adv-x="1835" 
d="M774 655l-266 -381q-73 -98 -92 -129.5t-19 -54.5q0 -28 19.5 -39t72.5 -14v-37h-518v37q74 2 139 51t171 182l372 484q-31 43 -32 45q-21 26 -74 96q-34 43 -164 219q-86 123 -134 160t-130 43v39h397v-39q-54 -1 -74 -11.5t-20 -35.5q0 -57 102 -209t260 -330h43v414
q0 107 -28 140.5t-119 33.5v37h469v-37q-92 0 -121 -33.5t-29 -140.5v-414h43q159 179 261 330.5t102 208.5q0 25 -20 35.5t-74 11.5v39h397v-39q-82 -6 -130 -43t-134 -160q-40 -54 -270 -360l372 -484q105 -132 170.5 -182t138.5 -51v-37h-518v37q53 3 73 14t20 39
q0 23 -19.5 55t-91.5 129l-266 381h-54v-444q0 -97 23.5 -133t87.5 -39l39 -2v-37h-469v37l37 2q64 3 87 39t23 133v444h-53z" />
    <glyph glyph-name="uni0417" unicode="&#x417;" horiz-adv-x="1026" 
d="M102 1364h33q9 -57 70 -57q25 0 90 22q115 45 217 45q172 0 278.5 -85t106.5 -222q0 -73 -32 -139.5t-89 -112.5q-35 -27 -74.5 -44t-113.5 -38q86 -11 136.5 -29.5t96.5 -56.5q61 -47 94 -119t33 -157q0 -170 -133 -279.5t-340 -109.5q-204 0 -342 129
q-39 34 -64.5 69.5t-58.5 102.5l45 26q132 -235 355 -235q133 0 215 84t82 221q0 85 -34.5 151.5t-97.5 104.5q-71 45 -247 45h-31v92q25 -2 57 -2q157 0 237.5 68.5t80.5 201.5q0 112 -66 176t-182 64q-127 0 -201.5 -71.5t-91.5 -211.5h-39z" />
    <glyph glyph-name="uni0418" unicode="&#x418;" 
d="M1042 1147q-1 107 -36.5 139.5t-149.5 32.5v37h586v-37q-114 0 -149.5 -33.5t-35.5 -140.5v-934q0 -107 35.5 -140.5t149.5 -33.5v-37h-586v37q59 0 93 6.5t55.5 27t29 52.5t8.5 88v786l-604 -774v-12q0 -107 35.5 -140.5t149.5 -33.5v-37h-586v37q59 0 93 6.5t55.5 27
t29 52.5t8.5 88v934q-1 56 -8.5 88t-29 52.5t-55.5 27t-93 6.5v37h586v-37q-114 0 -149.5 -33.5t-35.5 -140.5v-774z" />
    <glyph glyph-name="uni0419" unicode="&#x419;" 
d="M944 1753q43 0 70.5 -26.5t27.5 -67.5q0 -83 -86.5 -139t-216.5 -56q-129 0 -215 56t-86 139q0 41 27 67.5t70 26.5q38 0 63 -22.5t25 -57.5q0 -12 -13 -55q-4 -10 -4 -25q0 -28 40.5 -49.5t94.5 -21.5q51 0 92 21.5t41 47.5q0 6 -10 45q-6 15 -6 37q0 35 24 57.5
t62 22.5zM1042 1147q-1 107 -36.5 139.5t-149.5 32.5v37h586v-37q-114 0 -149.5 -33.5t-35.5 -140.5v-934q0 -107 35.5 -140.5t149.5 -33.5v-37h-586v37q59 0 93 6.5t55.5 27t29 52.5t8.5 88v786l-604 -774v-12q0 -107 35.5 -140.5t149.5 -33.5v-37h-586v37q59 0 93 6.5
t55.5 27t29 52.5t8.5 88v934q-1 56 -8.5 88t-29 52.5t-55.5 27t-93 6.5v37h586v-37q-114 0 -149.5 -33.5t-35.5 -140.5v-774z" />
    <glyph glyph-name="uni041A" unicode="&#x41a;" horiz-adv-x="1366" 
d="M420 211q0 -109 35.5 -141.5t152.5 -32.5v-37h-590v37q114 0 149.5 33.5t37.5 140.5v934q-2 107 -37.5 140.5t-149.5 33.5v37h590v-37q-16 -2 -39 -2q-88 -2 -118.5 -37.5t-30.5 -136.5v-434q210 187 344.5 343t134.5 212q0 31 -23.5 41t-95.5 12v39h498v-39
q-102 -6 -162.5 -43t-167.5 -160q-144 -158 -205 -219q-62 -66 -92 -96q-8 -12 -41 -45l467 -484q131 -134 212 -183t175 -50v-37h-651v37q66 3 92.5 13.5t26.5 35.5t-31.5 66.5t-109.5 121.5l-371 381v-444z" />
    <glyph glyph-name="uni041B" unicode="&#x41b;" horiz-adv-x="1388" 
d="M1317 1356v-37q-79 0 -117.5 -14.5t-53.5 -50.5t-16 -111v-932q2 -108 37 -141t150 -33v-37h-588v37q115 0 150.5 33.5t35.5 140.5v1053h-391v-600q0 -193 -13 -293.5t-50 -188.5q-83 -200 -275 -200q-75 0 -119 32.5t-44 87.5q0 43 27 73t67 30q42 0 90 -37
q45 -33 72 -33q77 0 118 138.5t41 394.5v477q-2 108 -36.5 141t-149.5 33v37h1065z" />
    <glyph glyph-name="uni041C" unicode="&#x41c;" horiz-adv-x="1820" 
d="M352 1075v-864q0 -108 36 -141t153 -33v-37h-475v37q59 0 93 6.5t55.5 27t29 52.5t8.5 88v934q-1 56 -8.5 88t-29 52.5t-55.5 27t-93 6.5v37h391l458 -1006l441 1006h399v-37q-114 0 -149 -33.5t-35 -140.5v-934q0 -107 35 -140.5t149 -33.5v-37h-579v37q110 0 144 34
t36 140v876l-484 -1087h-32z" />
    <glyph glyph-name="uni041D" unicode="&#x41d;" 
d="M438 213q0 -109 35.5 -142.5t149.5 -33.5v-37h-586v37q114 0 149 33.5t37 142.5v932q-1 56 -8.5 88t-29 52.5t-55.5 27t-93 6.5v37h586v-37q-114 0 -149.5 -33.5t-35.5 -140.5v-408h604v408q-1 56 -8.5 88t-29 52.5t-55.5 27t-93 6.5v37h586v-37q-114 0 -149.5 -33.5
t-35.5 -140.5v-932q0 -109 35.5 -142.5t149.5 -33.5v-37h-586v37q114 0 149 33.5t37 142.5v432h-604v-432z" />
    <glyph glyph-name="uni041E" unicode="&#x41e;" 
d="M735 1370q139 0 260.5 -52.5t207.5 -144t136 -219.5t50 -274q0 -304 -193 -506q-182 -188 -461 -188q-136 0 -256 53t-205.5 144.5t-134.5 220t-49 274.5t49 274.5t134.5 220t205.5 144.5t256 53zM733 1290q-180 0 -291.5 -169t-111.5 -443q0 -272 111.5 -442t291.5 -170
q189 0 302.5 168t113.5 446q0 271 -115.5 440.5t-300.5 169.5z" />
    <glyph glyph-name="uni041F" unicode="&#x41f;" 
d="M1452 1356v-37q-114 0 -149 -33.5t-35 -140.5v-934q0 -107 35 -140.5t149 -33.5v-37h-586v37q114 0 149.5 33.5t37.5 140.5v1053h-627v-1053q0 -107 35 -140.5t149 -33.5v-37h-585v37q59 0 93 6.5t55.5 27t29 52.5t8.5 88v934q-1 56 -8.5 88t-29 52.5t-55.5 27t-93 6.5
v37h1427z" />
    </font>
</defs>
</svg>
